<svg width="32" height="32" viewBox="0 0 32 32" fill="none" xmlns="http://www.w3.org/2000/svg">
<path d="M2.8312 0.615356C2.46197 0.984587 2.21582 1.59997 2.21582 2.33843V29.5384C2.21582 30.2769 2.46197 30.8923 2.8312 31.2615L2.95428 31.3846L18.2158 16.123V16V15.8769L2.8312 0.615356Z" fill="url(#paint0_linear_402_3974)"/>
<path d="M23.262 21.2922L18.2158 16.2461V15.9999V15.8768L23.262 10.8307H23.3851L29.4158 14.2768C31.1389 15.2615 31.1389 16.8615 29.4158 17.8461L23.262 21.2922Z" fill="url(#paint1_linear_402_3974)"/>
<path d="M23.3849 21.1692L18.0926 16L2.83105 31.3846C3.32336 32 4.30798 32 5.41567 31.3846L23.3849 21.1692Z" fill="url(#paint2_linear_402_3974)"/>
<path d="M23.3849 10.8307L5.41567 0.615347C4.30798 -3.75509e-05 3.32336 -3.75509e-05 2.83105 0.615347L18.0926 16L23.3849 10.8307Z" fill="url(#paint3_linear_402_3974)"/>
<defs>
<linearGradient id="paint0_linear_402_3974" x1="16.7895" y1="2.10274" x2="-3.86578" y2="22.758" gradientUnits="userSpaceOnUse">
<stop stop-color="#00A0FF"/>
<stop offset="0.00657445" stop-color="#00A1FF"/>
<stop offset="0.2601" stop-color="#00BEFF"/>
<stop offset="0.5122" stop-color="#00D2FF"/>
<stop offset="0.7604" stop-color="#00DFFF"/>
<stop offset="1" stop-color="#00E3FF"/>
</linearGradient>
<linearGradient id="paint1_linear_402_3974" x1="31.6014" y1="16.0002" x2="1.82062" y2="16.0002" gradientUnits="userSpaceOnUse">
<stop stop-color="#FFE000"/>
<stop offset="0.4087" stop-color="#FFBD00"/>
<stop offset="0.7754" stop-color="#FFA500"/>
<stop offset="1" stop-color="#FF9C00"/>
</linearGradient>
<linearGradient id="paint2_linear_402_3974" x1="20.5152" y1="18.8245" x2="-7.49497" y2="46.8347" gradientUnits="userSpaceOnUse">
<stop stop-color="#FF3A44"/>
<stop offset="1" stop-color="#C31162"/>
</linearGradient>
<linearGradient id="paint3_linear_402_3974" x1="-1.05978" y1="-8.40004" x2="11.4479" y2="4.10766" gradientUnits="userSpaceOnUse">
<stop stop-color="#32A071"/>
<stop offset="0.0685" stop-color="#2DA771"/>
<stop offset="0.4762" stop-color="#15CF74"/>
<stop offset="0.8009" stop-color="#06E775"/>
<stop offset="1" stop-color="#00F076"/>
</linearGradient>
</defs>
</svg>
