<svg width="32" height="32" viewBox="0 0 32 32" fill="none" xmlns="http://www.w3.org/2000/svg">
<path d="M2.8312 0.615387C2.46197 0.984618 2.21582 1.6 2.21582 2.33846V29.5385C2.21582 30.2769 2.46197 30.8923 2.8312 31.2615L2.95428 31.3846L18.2158 16.1231V16V15.8769L2.8312 0.615387Z" fill="url(#paint0_linear_8_1436)"/>
<path d="M23.262 21.2923L18.2158 16.2462V16V15.8769L23.262 10.8308H23.3851L29.4158 14.2769C31.1389 15.2615 31.1389 16.8615 29.4158 17.8462L23.262 21.2923Z" fill="url(#paint1_linear_8_1436)"/>
<path d="M23.3849 21.1692L18.0926 16L2.83105 31.3846C3.32336 32 4.30798 32 5.41567 31.3846L23.3849 21.1692Z" fill="url(#paint2_linear_8_1436)"/>
<path d="M23.3849 10.8308L5.41567 0.615385C4.30798 5.96046e-07 3.32336 5.96046e-07 2.83105 0.615385L18.0926 16L23.3849 10.8308Z" fill="url(#paint3_linear_8_1436)"/>
<defs>
<linearGradient id="paint0_linear_8_1436" x1="16.7895" y1="2.10277" x2="-3.86578" y2="22.758" gradientUnits="userSpaceOnUse">
<stop stop-color="#00A0FF"/>
<stop offset="0.00657445" stop-color="#00A1FF"/>
<stop offset="0.2601" stop-color="#00BEFF"/>
<stop offset="0.5122" stop-color="#00D2FF"/>
<stop offset="0.7604" stop-color="#00DFFF"/>
<stop offset="1" stop-color="#00E3FF"/>
</linearGradient>
<linearGradient id="paint1_linear_8_1436" x1="31.6014" y1="16.0002" x2="1.82062" y2="16.0002" gradientUnits="userSpaceOnUse">
<stop stop-color="#FFE000"/>
<stop offset="0.4087" stop-color="#FFBD00"/>
<stop offset="0.7754" stop-color="#FFA500"/>
<stop offset="1" stop-color="#FF9C00"/>
</linearGradient>
<linearGradient id="paint2_linear_8_1436" x1="20.5152" y1="18.8245" x2="-7.49497" y2="46.8347" gradientUnits="userSpaceOnUse">
<stop stop-color="#FF3A44"/>
<stop offset="1" stop-color="#C31162"/>
</linearGradient>
<linearGradient id="paint3_linear_8_1436" x1="-1.05978" y1="-8.4" x2="11.4479" y2="4.10769" gradientUnits="userSpaceOnUse">
<stop stop-color="#32A071"/>
<stop offset="0.0685" stop-color="#2DA771"/>
<stop offset="0.4762" stop-color="#15CF74"/>
<stop offset="0.8009" stop-color="#06E775"/>
<stop offset="1" stop-color="#00F076"/>
</linearGradient>
</defs>
</svg>
