<svg width="32" height="32" viewBox="0 0 32 32" fill="none" xmlns="http://www.w3.org/2000/svg">
<path d="M2.8312 0.615234C2.46197 0.984465 2.21582 1.59985 2.21582 2.33831V29.5383C2.21582 30.2768 2.46197 30.8922 2.8312 31.2614L2.95428 31.3845L18.2158 16.1229V15.9999V15.8768L2.8312 0.615234Z" fill="url(#paint0_linear_8_3768)"/>
<path d="M23.262 21.2923L18.2158 16.2462V16V15.877L23.262 10.8308H23.3851L29.4158 14.277C31.1389 15.2616 31.1389 16.8616 29.4158 17.8462L23.262 21.2923Z" fill="url(#paint1_linear_8_3768)"/>
<path d="M23.3849 21.1692L18.0926 16L2.83105 31.3846C3.32336 32 4.30798 32 5.41567 31.3846L23.3849 21.1692Z" fill="url(#paint2_linear_8_3768)"/>
<path d="M23.3849 10.8307L5.41567 0.615347C4.30798 -3.75509e-05 3.32336 -3.75509e-05 2.83105 0.615347L18.0926 16L23.3849 10.8307Z" fill="url(#paint3_linear_8_3768)"/>
<defs>
<linearGradient id="paint0_linear_8_3768" x1="16.7895" y1="2.10262" x2="-3.86578" y2="22.7579" gradientUnits="userSpaceOnUse">
<stop stop-color="#00A0FF"/>
<stop offset="0.00657445" stop-color="#00A1FF"/>
<stop offset="0.2601" stop-color="#00BEFF"/>
<stop offset="0.5122" stop-color="#00D2FF"/>
<stop offset="0.7604" stop-color="#00DFFF"/>
<stop offset="1" stop-color="#00E3FF"/>
</linearGradient>
<linearGradient id="paint1_linear_8_3768" x1="31.6014" y1="16.0003" x2="1.82062" y2="16.0003" gradientUnits="userSpaceOnUse">
<stop stop-color="#FFE000"/>
<stop offset="0.4087" stop-color="#FFBD00"/>
<stop offset="0.7754" stop-color="#FFA500"/>
<stop offset="1" stop-color="#FF9C00"/>
</linearGradient>
<linearGradient id="paint2_linear_8_3768" x1="20.5152" y1="18.8245" x2="-7.49497" y2="46.8347" gradientUnits="userSpaceOnUse">
<stop stop-color="#FF3A44"/>
<stop offset="1" stop-color="#C31162"/>
</linearGradient>
<linearGradient id="paint3_linear_8_3768" x1="-1.05978" y1="-8.40004" x2="11.4479" y2="4.10766" gradientUnits="userSpaceOnUse">
<stop stop-color="#32A071"/>
<stop offset="0.0685" stop-color="#2DA771"/>
<stop offset="0.4762" stop-color="#15CF74"/>
<stop offset="0.8009" stop-color="#06E775"/>
<stop offset="1" stop-color="#00F076"/>
</linearGradient>
</defs>
</svg>
