<svg width="500" height="500" viewBox="0 0 500 500" fill="none" xmlns="http://www.w3.org/2000/svg">
<path d="M54.9998 301.93L63.6498 296.33C63.6498 296.33 67.8498 274.02 64.7298 254.33C60.3498 226.55 41.4698 217 34.6098 219.74C27.7498 222.48 26.1298 230.74 38.5198 246.74C45.8298 256.2 55.2298 276.19 54.9998 301.93Z" fill="#FF8500"/>
<g opacity="0.3">
<path d="M54.9998 301.93L63.6498 296.33C63.6498 296.33 67.8498 274.02 64.7298 254.33C60.3498 226.55 41.4698 217 34.6098 219.74C27.7498 222.48 26.1298 230.74 38.5198 246.74C45.8298 256.2 55.2298 276.19 54.9998 301.93Z" fill="white"/>
</g>
<path d="M58.1512 290.92H58.0612C57.8991 290.895 57.7531 290.808 57.6542 290.678C57.5552 290.547 57.5111 290.383 57.5312 290.22C61.1212 264.22 50.6812 235.8 38.9412 224.33C38.8232 224.215 38.7558 224.057 38.7539 223.892C38.7521 223.727 38.8158 223.568 38.9312 223.45C39.0466 223.332 39.2041 223.265 39.3691 223.263C39.5342 223.261 39.6932 223.325 39.8112 223.44C51.7612 235.11 62.4012 264 58.7612 290.38C58.7419 290.528 58.6695 290.665 58.5573 290.764C58.4452 290.864 58.3009 290.919 58.1512 290.92Z" fill="white"/>
<path d="M33.2208 316C31.9208 316.74 28.2208 313.89 27.2208 313.2C25.4645 312.003 24.0457 310.374 23.1008 308.47C22.0465 306.298 21.6968 303.851 22.1008 301.47C22.3088 300.215 22.6029 298.975 22.9808 297.76C23.3308 296.56 23.6708 295.36 23.9808 294.16C24.4014 292.999 24.5784 291.763 24.5008 290.53C24.1908 288.07 22.0008 286.35 20.0208 284.86C17.8208 283.22 15.5408 281.05 15.5508 278.09C15.7085 275.791 16.6267 273.61 18.1608 271.89C19.5808 270.09 21.2608 268.51 22.5408 266.61C23.5485 265.292 24.0744 263.669 24.0308 262.01C23.893 260.996 23.553 260.02 23.0308 259.14C22.0308 257.21 20.6108 255.44 19.8908 253.37C19.1708 251.3 19.2708 248.72 20.8908 247.24C22.2108 246.02 24.1908 245.85 25.9808 245.97C27.6633 246.176 29.2808 246.746 30.7208 247.64C35.4208 250.25 38.1108 255.82 43.1008 257.83C45.0676 258.45 47.0716 258.944 49.1008 259.31C51.1008 259.84 53.1508 260.87 54.1008 262.72C55.9308 266.38 52.5308 270.89 53.8208 274.77C54.9608 278.21 58.3008 279.52 60.1708 282.62C60.9352 283.988 61.2434 285.565 61.0508 287.12C60.8876 289.748 60.2436 292.324 59.1508 294.72C57.917 297.206 56.531 299.614 55.0008 301.93L33.2208 316Z" fill="#FF8500"/>
<g opacity="0.65">
<path d="M33.2208 316C31.9208 316.74 28.2208 313.89 27.2208 313.2C25.4645 312.003 24.0457 310.374 23.1008 308.47C22.0465 306.298 21.6968 303.851 22.1008 301.47C22.3088 300.215 22.6029 298.975 22.9808 297.76C23.3308 296.56 23.6708 295.36 23.9808 294.16C24.4014 292.999 24.5784 291.763 24.5008 290.53C24.1908 288.07 22.0008 286.35 20.0208 284.86C17.8208 283.22 15.5408 281.05 15.5508 278.09C15.7085 275.791 16.6267 273.61 18.1608 271.89C19.5808 270.09 21.2608 268.51 22.5408 266.61C23.5485 265.292 24.0744 263.669 24.0308 262.01C23.893 260.996 23.553 260.02 23.0308 259.14C22.0308 257.21 20.6108 255.44 19.8908 253.37C19.1708 251.3 19.2708 248.72 20.8908 247.24C22.2108 246.02 24.1908 245.85 25.9808 245.97C27.6633 246.176 29.2808 246.746 30.7208 247.64C35.4208 250.25 38.1108 255.82 43.1008 257.83C45.0676 258.45 47.0716 258.944 49.1008 259.31C51.1008 259.84 53.1508 260.87 54.1008 262.72C55.9308 266.38 52.5308 270.89 53.8208 274.77C54.9608 278.21 58.3008 279.52 60.1708 282.62C60.9352 283.988 61.2434 285.565 61.0508 287.12C60.8876 289.748 60.2436 292.324 59.1508 294.72C57.917 297.206 56.531 299.614 55.0008 301.93L33.2208 316Z" fill="white"/>
</g>
<path d="M45.7808 308.64C45.7038 308.637 45.628 308.62 45.5579 308.587C45.4879 308.555 45.4249 308.509 45.3728 308.453C45.3207 308.396 45.2804 308.329 45.2543 308.257C45.2282 308.184 45.2168 308.107 45.2208 308.03C46.2208 284.79 35.2208 259.12 27.2208 251.67C27.1235 251.56 27.0706 251.418 27.0723 251.272C27.0741 251.125 27.1304 250.984 27.2303 250.877C27.3302 250.769 27.4665 250.703 27.6127 250.691C27.7588 250.678 27.9044 250.721 28.0208 250.81C36.1408 258.42 47.3208 284.51 46.3408 308.08C46.3336 308.226 46.2723 308.364 46.1688 308.468C46.0653 308.571 45.927 308.633 45.7808 308.64Z" fill="white"/>
<path d="M42.0002 280.23H41.8302C36.3358 278.709 30.693 277.787 25.0002 277.48C24.9232 277.477 24.8474 277.46 24.7773 277.427C24.7073 277.395 24.6443 277.349 24.5922 277.293C24.5401 277.236 24.4998 277.169 24.4737 277.097C24.4476 277.024 24.4362 276.947 24.4402 276.87C24.4414 276.793 24.4584 276.716 24.4901 276.645C24.5218 276.575 24.5676 276.511 24.6247 276.459C24.6818 276.406 24.749 276.366 24.8222 276.34C24.8953 276.315 24.9729 276.305 25.0502 276.31C30.8566 276.612 36.6133 277.541 42.2202 279.08C42.3669 279.13 42.4885 279.235 42.5593 279.373C42.6302 279.511 42.6448 279.671 42.6002 279.82C42.5603 279.946 42.4796 280.054 42.3709 280.128C42.2621 280.203 42.1317 280.238 42.0002 280.23Z" fill="white"/>
<path d="M253.679 485.02C381.252 485.02 484.669 425.313 484.669 351.66C484.669 278.007 381.252 218.3 253.679 218.3C126.107 218.3 22.6895 278.007 22.6895 351.66C22.6895 425.313 126.107 485.02 253.679 485.02Z" fill="#FAFAFA"/>
<path d="M130.919 294.81C179.849 266.57 259.169 266.57 308.089 294.81C349.559 318.75 355.859 355.3 327.029 383.09L434.679 444.45C441.239 448.24 441.239 454.38 434.679 458.17L424.999 463.76C418.439 467.55 407.999 467.25 401.639 463.1L307.639 397.36C258.639 425.36 179.719 425.25 130.959 397.1C81.9994 368.85 81.9994 323.06 130.919 294.81Z" fill="#E6E6E6"/>
<path d="M150.75 46.5L142.27 51.4C142.313 51.0281 142.336 50.6543 142.34 50.28V47.82C142.34 43.44 139.27 41.67 135.48 43.82C133.847 44.8166 132.451 46.1579 131.39 47.75C130.76 42.25 126.45 40.2 121.2 43.22C115.53 46.5 110.94 54.46 110.94 61.01V64.68C110.901 66.151 111.198 67.6116 111.81 68.95L104.81 73.02C103.694 73.7436 102.767 74.7222 102.105 75.8751C101.442 77.0279 101.064 78.3219 101 79.65C101 82.08 102.7 83.06 104.81 81.85L150.81 55.29C151.92 54.5703 152.844 53.598 153.506 52.4526C154.169 51.3072 154.55 50.0212 154.62 48.7C154.56 46.27 152.86 45.29 150.75 46.5Z" fill="#EBEBEB"/>
<path d="M38.8995 68.56L43.6795 64.87V54.33C43.6795 45.97 50.3495 36.27 57.5795 32.1C64.8195 27.92 70.6895 31.31 70.6895 39.66V41.19C72.2155 38.7179 74.2973 36.636 76.7695 35.11C81.9795 32.11 86.1995 34.54 86.1995 40.55V41.25L92.8695 37.4C96.2995 35.4 99.0795 37.02 99.0795 40.98C98.963 43.1354 98.34 45.233 97.2611 47.1025C96.1821 48.9721 94.6775 50.5609 92.8695 51.74L38.8995 82.9C35.4695 84.9 32.6895 83.27 32.6895 79.31C32.8058 77.1559 33.4289 75.0597 34.5079 73.1918C35.587 71.3239 37.0916 69.7369 38.8995 68.56Z" fill="#EBEBEB"/>
<path d="M109.83 313.19V343.62C109.83 360.14 120.75 376.62 142.58 389.27C186.24 414.48 257.04 414.48 300.7 389.27C322.53 376.66 333.45 360.14 333.45 343.62V313.19C333.45 296.67 322.53 280.19 300.7 267.55C257.04 242.34 186.24 242.34 142.58 267.55C120.75 280.15 109.83 296.67 109.83 313.19ZM322.63 313.19C322.63 326.41 312.92 339.29 295.29 349.47C275.79 360.73 249.64 366.93 221.64 366.93C193.64 366.93 167.49 360.73 147.99 349.47C130.36 339.29 120.65 326.41 120.65 313.19C120.65 299.97 130.36 287.09 147.99 276.91C167.49 265.65 193.64 259.45 221.64 259.45C249.64 259.45 275.8 265.65 295.29 276.91C312.93 287.09 322.63 300 322.63 313.19Z" fill="#FF8500"/>
<path opacity="0.2" d="M109.83 313.19V343.62C109.83 360.14 120.75 376.62 142.58 389.27C186.24 414.48 257.04 414.48 300.7 389.27C322.53 376.66 333.45 360.14 333.45 343.62V313.19C333.45 296.67 322.53 280.19 300.7 267.55C257.04 242.34 186.24 242.34 142.58 267.55C120.75 280.15 109.83 296.67 109.83 313.19ZM322.63 313.19C322.63 326.41 312.92 339.29 295.29 349.47C275.79 360.73 249.64 366.93 221.64 366.93C193.64 366.93 167.49 360.73 147.99 349.47C130.36 339.29 120.65 326.41 120.65 313.19C120.65 299.97 130.36 287.09 147.99 276.91C167.49 265.65 193.64 259.45 221.64 259.45C249.64 259.45 275.8 265.65 295.29 276.91C312.93 287.09 322.63 300 322.63 313.19Z" fill="white"/>
<path opacity="0.6" d="M333.34 346.46C331.6 356.93 326.99 364.81 308.42 379.3C282.17 399.8 215.7 408.17 177.12 395.44C140.73 383.44 129.12 359.95 129.12 343.84L129.22 334.37C123.6 327.68 120.64 320.49 120.64 313.19C120.64 305.71 123.75 298.34 129.64 291.51L129.77 278.17H127.7C115.79 288.8 109.83 300.99 109.83 313.17V343.6C109.83 360.12 120.75 376.6 142.58 389.25C186.24 414.46 257.04 414.46 300.7 389.25C321.28 377.39 332.16 362 333.34 346.46Z" fill="#FF8500"/>
<path d="M300.711 267.55C257.041 242.34 186.251 242.34 142.591 267.55C98.9305 292.76 98.9205 333.63 142.591 358.84C186.261 384.05 257.041 384.05 300.711 358.84C344.381 333.63 344.371 292.76 300.711 267.55ZM295.301 349.47C275.801 360.73 249.641 366.93 221.651 366.93C193.661 366.93 167.501 360.73 147.991 349.47C130.361 339.29 120.651 326.41 120.651 313.19C120.651 299.97 130.361 287.09 147.991 276.91C167.491 265.65 193.651 259.45 221.651 259.45C249.651 259.45 275.801 265.65 295.301 276.91C312.931 287.09 322.641 299.98 322.641 313.19C322.641 326.4 312.931 339.29 295.301 349.47Z" fill="#FF8500"/>
<path opacity="0.5" d="M300.711 267.55C257.041 242.34 186.251 242.34 142.591 267.55C98.9305 292.76 98.9205 333.63 142.591 358.84C186.261 384.05 257.041 384.05 300.711 358.84C344.381 333.63 344.371 292.76 300.711 267.55ZM295.301 349.47C275.801 360.73 249.641 366.93 221.651 366.93C193.661 366.93 167.501 360.73 147.991 349.47C130.361 339.29 120.651 326.41 120.651 313.19C120.651 299.97 130.361 287.09 147.991 276.91C167.491 265.65 193.651 259.45 221.651 259.45C249.651 259.45 275.801 265.65 295.301 276.91C312.931 287.09 322.641 299.98 322.641 313.19C322.641 326.4 312.931 339.29 295.301 349.47Z" fill="white"/>
<path d="M322.65 313.19C322.586 318.564 321.077 323.821 318.28 328.41C313.85 320.74 306.04 313.54 295.28 307.35C275.8 296.08 249.63 289.88 221.63 289.88C193.63 289.88 167.48 296.08 147.99 307.35C137.24 313.54 129.44 320.74 124.99 328.41C122.216 323.813 120.718 318.559 120.65 313.19C120.65 299.98 130.36 287.09 148 276.9C167.49 265.66 193.65 259.45 221.64 259.45C249.63 259.45 275.81 265.66 295.29 276.9C312.94 287.09 322.65 300 322.65 313.19Z" fill="#FF8500"/>
<path opacity="0.3" d="M322.65 313.19C322.586 318.564 321.077 323.821 318.28 328.41C313.85 320.74 306.04 313.54 295.28 307.35C275.8 296.08 249.63 289.88 221.63 289.88C193.63 289.88 167.48 296.08 147.99 307.35C137.24 313.54 129.44 320.74 124.99 328.41C122.216 323.813 120.718 318.559 120.65 313.19C120.65 299.98 130.36 287.09 148 276.9C167.49 265.66 193.65 259.45 221.64 259.45C249.63 259.45 275.81 265.66 295.29 276.9C312.94 287.09 322.65 300 322.65 313.19Z" fill="white"/>
<path opacity="0.6" d="M148 276.9C130.36 287.09 120.65 299.98 120.65 313.19C120.721 318.56 122.223 323.814 125 328.41C129.46 320.74 137.26 313.54 148 307.35C152.542 304.752 157.26 302.477 162.12 300.54C157.86 302.19 144.78 306.4 149.55 293.93C155.22 279.12 182.89 263.08 203.22 260.42C182.31 262.49 163.14 268.17 148 276.9Z" fill="#FF8500"/>
<path opacity="0.4" d="M295.301 290.69C275.801 279.43 249.641 273.23 221.651 273.23C193.661 273.23 167.491 279.43 147.991 290.69C133.451 299.09 124.311 309.33 121.551 320.08C124.311 330.83 133.451 341.08 147.991 349.47C167.501 360.73 193.651 366.93 221.651 366.93C249.651 366.93 275.801 360.73 295.301 349.47C309.851 341.07 318.991 330.83 321.741 320.08C319.001 309.33 309.851 299.09 295.301 290.69Z" fill="white"/>
<path d="M140.52 327.06C146.77 331.96 153.86 335.06 161.09 337.52C168.339 339.921 175.765 341.753 183.3 343C198.355 345.445 213.624 346.316 228.86 345.6C236.47 345.26 244.09 344.55 251.66 343.53C259.206 342.516 266.683 341.044 274.05 339.12C281.381 337.286 288.472 334.601 295.18 331.12C296.835 330.238 298.438 329.259 299.98 328.19C301.527 327.134 302.995 325.964 304.37 324.69C305.756 323.41 306.994 321.977 308.06 320.42C309.162 318.82 310.003 317.055 310.55 315.19C310.582 317.234 310.243 319.267 309.55 321.19C308.816 323.123 307.856 324.962 306.69 326.67C305.537 328.39 304.224 329.997 302.77 331.47C301.329 332.949 299.796 334.335 298.18 335.62C291.663 340.587 284.44 344.551 276.75 347.38C269.167 350.237 261.347 352.415 253.38 353.89C245.454 355.39 237.435 356.342 229.38 356.74C213.21 357.585 197.009 355.86 181.38 351.63C173.561 349.488 166.01 346.468 158.87 342.63C155.314 340.681 151.934 338.425 148.77 335.89C147.98 335.26 147.24 334.57 146.48 333.89C145.72 333.21 145 332.52 144.31 331.79C142.917 330.322 141.649 328.739 140.52 327.06Z" fill="white"/>
<path d="M297.381 378.21C297.515 375.491 298.29 372.841 299.642 370.478C300.994 368.115 302.885 366.104 305.161 364.61C307.301 363.36 309.251 363.23 310.671 364.03L335.591 378.28C337.001 379.09 337.881 380.84 337.891 383.28C337.754 385.999 336.978 388.647 335.627 391.01C334.275 393.373 332.385 395.384 330.111 396.88C327.951 398.14 325.991 398.27 324.571 397.45L299.661 383.21C298.281 382.47 297.391 380.72 297.381 378.21Z" fill="#37474F"/>
<path d="M299.711 383.28C298.281 382.47 297.391 380.72 297.381 378.21C297.417 376.186 297.869 374.191 298.711 372.35L334.521 392.87C333.356 394.508 331.873 395.896 330.161 396.95C328.001 398.21 326.041 398.34 324.621 397.52L299.711 383.28Z" fill="#263238"/>
<path d="M420.44 418.81L341.14 378.4L341.04 378.34C339.2 377.34 336.7 377.52 333.95 379.12C328.33 382.4 323.8 390.32 323.83 396.82C323.83 400.08 325 402.36 326.83 403.42L401.36 451.42C403.505 452.777 405.9 453.689 408.405 454.1C410.909 454.512 413.471 454.414 415.936 453.814C418.402 453.214 420.722 452.124 422.758 450.608C424.793 449.092 426.502 447.182 427.783 444.991C429.065 442.8 429.891 440.374 430.215 437.857C430.538 435.339 430.351 432.783 429.664 430.34C428.978 427.896 427.807 425.616 426.22 423.635C424.634 421.654 422.665 420.013 420.43 418.81H420.44Z" fill="#455A64"/>
<path d="M326.841 403.44L401.371 451.44C404.141 453.179 407.317 454.169 410.585 454.312C413.853 454.454 417.103 453.745 420.015 452.254C422.927 450.763 425.401 448.541 427.195 445.805C428.99 443.07 430.043 439.915 430.251 436.65C428.821 442.86 418.561 448.14 405.841 441.03C393.121 433.92 346.001 404.13 324.591 391.8C324.088 393.42 323.825 395.104 323.811 396.8C323.821 400.1 325.001 402.38 326.841 403.44Z" fill="#37474F"/>
<path d="M326.84 403.44C324.98 402.38 323.84 400.1 323.84 396.84C323.84 390.34 328.34 382.42 333.96 379.14C336.71 377.54 339.21 377.37 341.05 378.36L348.05 381.92C346.16 380.92 343.61 381.08 340.78 382.72C335.02 386.08 330.37 394.21 330.4 400.88C330.4 404.22 331.55 406.61 333.45 407.69" fill="#FF8500"/>
<path opacity="0.2" d="M333.44 407.69C331.54 406.61 330.44 404.22 330.39 400.88C330.401 399.113 330.674 397.357 331.2 395.67C328.81 394.25 326.58 392.95 324.59 391.8C324.338 392.636 324.141 393.488 324 394.35C323.94 394.77 323.89 395.19 323.85 395.61C323.85 396.03 323.8 396.44 323.85 396.84C323.85 400.1 325.02 402.38 326.85 403.44L333.44 407.69Z" fill="black"/>
<path d="M137.211 449.76L77.2105 419.75L53.3105 430.33L137.211 449.76Z" fill="#FF8500"/>
<g opacity="0.15">
<path d="M137.211 449.76L77.2105 419.75L53.3105 430.33L137.211 449.76Z" fill="white"/>
</g>
<path d="M137.211 449.76L84.3613 414.43L93.8213 400.83L137.211 449.76Z" fill="#FF8500"/>
<g opacity="0.15">
<path d="M137.211 449.76L84.3613 414.43L93.8213 400.83L137.211 449.76Z" fill="white"/>
</g>
<path d="M84.3613 414.43L85.3513 423.82L137.211 449.76L84.3613 414.43Z" fill="#FF8500"/>
<g opacity="0.2">
<path d="M84.3613 414.43L85.3513 423.82L137.211 449.76L84.3613 414.43Z" fill="black"/>
</g>
<path d="M75.7999 412.63C75.9452 412.627 76.0841 412.57 76.1899 412.47C76.3124 412.349 76.3861 412.188 76.3972 412.016C76.4083 411.845 76.3559 411.675 76.2499 411.54L75.0999 410C75.0533 409.935 74.9933 409.881 74.924 409.841C74.8547 409.801 74.7777 409.777 74.6981 409.769C74.6185 409.762 74.5383 409.771 74.4627 409.797C74.3871 409.823 74.318 409.865 74.2599 409.92C74.138 410.04 74.0637 410.201 74.0508 410.372C74.038 410.543 74.0874 410.713 74.1899 410.85C74.5699 411.36 74.9599 411.85 75.3499 412.36C75.399 412.437 75.4652 412.501 75.5433 412.548C75.6213 412.595 75.7092 412.623 75.7999 412.63Z" fill="#455A64"/>
<path d="M70.5302 405.81C69.8169 404.77 69.1269 403.72 68.4602 402.66C68.37 402.514 68.3355 402.341 68.3631 402.172C68.3907 402.003 68.4784 401.849 68.6102 401.74C68.6724 401.691 68.7446 401.655 68.8217 401.637C68.8988 401.618 68.9791 401.616 69.057 401.631C69.1349 401.647 69.2086 401.678 69.273 401.725C69.3375 401.771 69.3911 401.831 69.4302 401.9C70.1002 402.95 70.7802 403.99 71.4302 405.02C71.5281 405.161 71.5701 405.333 71.5479 405.503C71.5257 405.673 71.441 405.829 71.3102 405.94C71.2132 406.024 71.0888 406.071 70.9602 406.07C70.8738 406.061 70.7905 406.033 70.7161 405.988C70.6418 405.943 70.5783 405.882 70.5302 405.81ZM65.2402 397.22C64.6302 396.11 64.0302 394.98 63.4602 393.85C63.3819 393.698 63.362 393.522 63.4044 393.356C63.4468 393.191 63.5485 393.046 63.6902 392.95C63.759 392.908 63.8362 392.881 63.9165 392.871C63.9967 392.861 64.0781 392.869 64.155 392.894C64.232 392.918 64.3027 392.959 64.3623 393.014C64.4219 393.069 64.4689 393.135 64.5002 393.21C65.0602 394.32 65.6502 395.43 66.2502 396.53C66.3354 396.679 66.3631 396.853 66.3281 397.021C66.2931 397.189 66.1978 397.338 66.0602 397.44C65.9668 397.497 65.8598 397.528 65.7502 397.53C65.6453 397.528 65.5428 397.499 65.4531 397.444C65.3635 397.39 65.29 397.312 65.2402 397.22ZM60.7802 388.06C60.2802 386.87 59.7802 385.67 59.3602 384.48C59.2989 384.322 59.2975 384.148 59.3565 383.989C59.4155 383.831 59.5307 383.699 59.6802 383.62C59.7547 383.588 59.8349 383.573 59.9158 383.574C59.9967 383.575 60.0765 383.593 60.1499 383.627C60.2234 383.661 60.289 383.71 60.3424 383.771C60.3958 383.832 60.436 383.903 60.4602 383.98C60.8902 385.15 61.3602 386.33 61.8602 387.5C61.9274 387.657 61.9351 387.833 61.8816 387.995C61.8282 388.157 61.7175 388.294 61.5702 388.38C61.4925 388.419 61.407 388.439 61.3202 388.44C61.2029 388.436 61.0892 388.399 60.9932 388.331C60.8973 388.263 60.8232 388.169 60.7802 388.06ZM57.3202 378.38C56.9602 377.13 56.6202 375.86 56.3202 374.63C56.2725 374.467 56.2895 374.292 56.3677 374.141C56.4459 373.99 56.5794 373.875 56.7402 373.82C56.8185 373.799 56.9001 373.795 56.9801 373.807C57.0601 373.82 57.1367 373.848 57.2052 373.891C57.2737 373.934 57.3325 373.991 57.3781 374.058C57.4237 374.125 57.4551 374.201 57.4702 374.28C57.7602 375.5 58.0902 376.74 58.4702 377.97C58.5211 378.131 58.5104 378.305 58.4402 378.458C58.37 378.612 58.2452 378.733 58.0902 378.8H57.9102C57.7799 378.802 57.6523 378.763 57.5461 378.687C57.44 378.611 57.3608 378.504 57.3202 378.38ZM55.0002 368.27C54.8002 367 54.6202 365.7 54.4702 364.41C54.4409 364.244 54.478 364.074 54.5735 363.935C54.6689 363.797 54.815 363.702 54.9802 363.67C55.1442 363.659 55.306 363.712 55.4312 363.819C55.5563 363.925 55.6349 364.076 55.6502 364.24C55.7902 365.51 55.9702 366.79 56.1702 368.04C56.2039 368.203 56.1739 368.372 56.0865 368.514C55.9991 368.655 55.8609 368.757 55.7002 368.8H55.5902C55.446 368.793 55.3087 368.736 55.2013 368.639C55.0939 368.543 55.0229 368.413 55.0002 368.27ZM54.0002 357.91C54.0002 356.91 53.9402 355.91 53.9402 354.84V354C53.9362 353.919 53.9482 353.837 53.9757 353.76C54.0032 353.684 54.0456 353.613 54.1004 353.553C54.1552 353.492 54.2214 353.443 54.2951 353.408C54.3689 353.374 54.4488 353.354 54.5302 353.35C54.6956 353.363 54.8493 353.44 54.9579 353.566C55.0665 353.691 55.1212 353.854 55.1102 354.02V354.84C55.1102 355.84 55.1102 356.84 55.1102 357.84C55.1242 358.007 55.0724 358.172 54.9659 358.301C54.8593 358.43 54.7066 358.512 54.5402 358.53C54.39 358.51 54.2521 358.437 54.1527 358.322C54.0532 358.208 53.9989 358.061 54.0002 357.91ZM54.7902 348.22C54.6265 348.191 54.4804 348.1 54.3818 347.966C54.2832 347.832 54.2397 347.665 54.2602 347.5C54.3702 346.21 54.5102 344.9 54.6702 343.61C54.6763 343.528 54.699 343.449 54.737 343.376C54.7751 343.303 54.8275 343.239 54.8912 343.188C54.955 343.136 55.0286 343.098 55.1075 343.076C55.1864 343.054 55.269 343.049 55.3502 343.06C55.5136 343.094 55.6572 343.19 55.7506 343.328C55.844 343.467 55.8797 343.636 55.8502 343.8C55.6902 345.07 55.5502 346.36 55.4402 347.62C55.4331 347.775 55.369 347.922 55.2601 348.033C55.1512 348.144 55.0052 348.21 54.8502 348.22H54.7902ZM56.1902 338C56.0301 337.949 55.8954 337.839 55.8137 337.692C55.7319 337.545 55.7092 337.373 55.7502 337.21C56.0102 335.94 56.3102 334.67 56.6402 333.42C56.6552 333.341 56.6865 333.265 56.7323 333.199C56.778 333.132 56.8371 333.076 56.9058 333.034C56.9745 332.991 57.0513 332.964 57.1313 332.953C57.2113 332.942 57.2926 332.948 57.3702 332.97C57.5285 333.031 57.6583 333.149 57.7342 333.301C57.81 333.452 57.8265 333.627 57.7802 333.79C57.4602 335.01 57.1602 336.27 56.9002 337.51C56.8794 337.648 56.8111 337.774 56.707 337.868C56.603 337.961 56.4697 338.015 56.3302 338.02L56.1902 338ZM58.8902 328.11C58.7381 328.036 58.6195 327.907 58.5583 327.75C58.4971 327.592 58.4978 327.417 58.5602 327.26C58.9902 326.06 59.4702 324.85 59.9702 323.67C59.9985 323.595 60.0419 323.527 60.0978 323.47C60.1538 323.412 60.221 323.367 60.2952 323.337C60.3694 323.307 60.449 323.293 60.529 323.295C60.6091 323.297 60.6878 323.316 60.7602 323.35C60.9059 323.438 61.0153 323.575 61.0685 323.736C61.1218 323.898 61.1153 324.073 61.0502 324.23C60.5502 325.39 60.0502 326.57 59.6602 327.75C59.6227 327.867 59.5495 327.97 59.4509 328.043C59.3523 328.117 59.2332 328.158 59.1102 328.16C59.0338 328.163 58.958 328.145 58.8902 328.11ZM63.0002 318.82C62.8593 318.721 62.76 318.573 62.7213 318.405C62.6825 318.237 62.7071 318.061 62.7902 317.91C63.4002 316.8 64.0402 315.69 64.6902 314.62C64.7286 314.549 64.7819 314.487 64.8464 314.439C64.9109 314.39 64.9851 314.357 65.0639 314.34C65.1427 314.322 65.2243 314.323 65.303 314.34C65.3818 314.357 65.4559 314.391 65.5202 314.44C65.6519 314.549 65.7403 314.702 65.7696 314.871C65.7989 315.039 65.7672 315.213 65.6802 315.36C65.0302 316.41 64.4002 317.5 63.8102 318.59C63.7626 318.685 63.6899 318.765 63.6 318.821C63.5101 318.878 63.4064 318.908 63.3002 318.91C63.1936 318.91 63.0894 318.878 63.0002 318.82ZM68.3102 310.33C68.189 310.211 68.1151 310.052 68.1022 309.883C68.0893 309.714 68.1384 309.546 68.2402 309.41C68.9902 308.41 69.7802 307.41 70.5702 306.47C70.6218 306.409 70.6862 306.36 70.7587 306.326C70.8312 306.293 70.9102 306.275 70.9902 306.275C71.0702 306.275 71.1492 306.293 71.2217 306.326C71.2943 306.36 71.3586 306.409 71.4102 306.47C71.5241 306.598 71.587 306.764 71.587 306.935C71.587 307.106 71.5241 307.272 71.4102 307.4C70.6302 308.33 69.8602 309.29 69.1202 310.28C69.068 310.354 68.9991 310.414 68.9191 310.455C68.8391 310.497 68.7504 310.519 68.6602 310.52C68.5839 310.518 68.5088 310.501 68.4398 310.468C68.3709 310.435 68.3097 310.388 68.2602 310.33H68.3102ZM74.7402 302.85C74.6263 302.722 74.5634 302.556 74.5634 302.385C74.5634 302.214 74.6263 302.048 74.7402 301.92C75.6202 301.05 76.5302 300.2 77.4402 299.4C77.5002 299.347 77.5711 299.307 77.6479 299.283C77.7247 299.259 77.8057 299.253 77.8854 299.263C77.965 299.273 78.0416 299.301 78.1097 299.343C78.1778 299.386 78.236 299.443 78.2802 299.51C78.377 299.652 78.4201 299.823 78.4018 299.993C78.3835 300.164 78.3049 300.322 78.1802 300.44C77.2802 301.22 76.3902 302.05 75.5202 302.9C75.4176 303.006 75.2775 303.067 75.1302 303.07C75.0451 303.069 74.9614 303.048 74.8853 303.01C74.8091 302.972 74.7425 302.917 74.6902 302.85H74.7402ZM82.1002 296.52C82.0181 296.371 81.9912 296.199 82.0241 296.032C82.0571 295.866 82.1478 295.716 82.2802 295.61C83.2802 294.89 84.2802 294.22 85.2802 293.61C85.3487 293.569 85.425 293.544 85.5041 293.535C85.5832 293.526 85.6633 293.534 85.739 293.559C85.8147 293.584 85.8843 293.624 85.9432 293.678C86.002 293.731 86.0487 293.797 86.0802 293.87C86.1579 294.021 86.1774 294.195 86.135 294.359C86.0926 294.523 85.9912 294.666 85.8502 294.76C84.8502 295.36 83.8502 296.02 82.8502 296.76C82.7566 296.826 82.6447 296.861 82.5302 296.86C82.428 296.848 82.3304 296.811 82.2465 296.752C82.1626 296.692 82.0951 296.613 82.0502 296.52H82.1002Z" fill="#455A64"/>
<path d="M90.8997 292.2H91.0797C91.608 292 92.1536 291.849 92.7097 291.75C92.8739 291.714 93.0176 291.616 93.1109 291.476C93.2041 291.336 93.2395 291.165 93.2097 291C93.2035 290.919 93.1811 290.84 93.1438 290.768C93.1065 290.695 93.0552 290.631 92.9927 290.579C92.9303 290.527 92.8581 290.487 92.7803 290.464C92.7025 290.44 92.6207 290.432 92.5397 290.44C91.9202 290.556 91.3115 290.723 90.7197 290.94C90.5614 291.003 90.4329 291.124 90.3605 291.278C90.288 291.432 90.277 291.608 90.3297 291.77C90.3675 291.892 90.4429 292 90.5452 292.077C90.6476 292.154 90.7716 292.197 90.8997 292.2Z" fill="#455A64"/>
<path d="M371.701 62.15L310.201 43.3L357.581 75.85L371.701 62.15Z" fill="#FF8500"/>
<path opacity="0.15" d="M371.701 62.15L310.201 43.3L357.581 75.85L371.701 62.15Z" fill="white"/>
<path d="M310.201 43.3L376.391 53.95L390.511 40.25L310.201 43.3Z" fill="#FF8500"/>
<path opacity="0.15" d="M310.201 43.3L376.391 53.95L390.511 40.25L310.201 43.3Z" fill="white"/>
<path d="M376.391 53.95L376.451 70.31L371.701 62.15L310.201 43.3L376.391 53.95Z" fill="#FF8500"/>
<path opacity="0.2" d="M376.391 53.95L376.451 70.31L371.701 62.15L310.201 43.3L376.391 53.95Z" fill="black"/>
<path d="M376.45 70.31L366.99 66.72L371.7 62.15L376.45 70.31Z" fill="#FF8500"/>
<path opacity="0.2" d="M371.7 62.15L366.99 66.72L368.5 67.29L371.7 62.15Z" fill="black"/>
<path d="M388.862 59.27C388.804 59.3127 388.756 59.3666 388.72 59.4285C388.684 59.4904 388.661 59.5589 388.652 59.63C388.631 59.8007 388.672 59.9732 388.767 60.1163C388.863 60.2593 389.006 60.3635 389.172 60.41L390.992 60.9C391.068 60.9241 391.149 60.9311 391.228 60.9207C391.308 60.9104 391.384 60.8828 391.451 60.8399C391.519 60.7971 391.576 60.74 391.62 60.6727C391.663 60.6053 391.691 60.5293 391.702 60.45C391.726 60.2817 391.688 60.1104 391.597 59.9672C391.505 59.8241 391.365 59.7186 391.202 59.67L389.362 59.18C389.277 59.1553 389.188 59.1506 389.101 59.1662C389.014 59.1819 388.932 59.2174 388.862 59.27Z" fill="#455A64"/>
<path d="M397.191 61.5C398.381 61.9 399.571 62.32 400.741 62.75C400.902 62.8107 401.035 62.9266 401.117 63.0769C401.2 63.2273 401.226 63.4021 401.191 63.57C401.17 63.6474 401.133 63.7194 401.082 63.7812C401.031 63.8429 400.968 63.8931 400.895 63.9281C400.823 63.9632 400.745 63.9824 400.665 63.9845C400.585 63.9865 400.505 63.9713 400.431 63.94C399.271 63.51 398.091 63.1 396.911 62.7C396.751 62.6451 396.615 62.5337 396.531 62.3865C396.446 62.2393 396.418 62.0664 396.451 61.9C396.474 61.7717 396.546 61.6571 396.651 61.58C396.727 61.5225 396.817 61.4851 396.911 61.4711C397.005 61.4571 397.102 61.4671 397.191 61.5ZM406.601 65.12C407.771 65.64 408.921 66.12 410.061 66.73C410.216 66.8022 410.338 66.929 410.404 67.0859C410.471 67.2429 410.477 67.4188 410.421 67.58C410.391 67.6546 410.346 67.722 410.288 67.7779C410.231 67.8338 410.162 67.8769 410.086 67.9042C410.011 67.9316 409.93 67.9427 409.85 67.9368C409.77 67.9309 409.692 67.9081 409.621 67.87C408.501 67.32 407.361 66.79 406.211 66.29C406.056 66.2198 405.932 66.0964 405.86 65.9423C405.789 65.7882 405.775 65.6135 405.821 65.45C405.854 65.342 405.921 65.2474 406.011 65.18C406.095 65.1178 406.194 65.0794 406.298 65.0689C406.402 65.0583 406.507 65.076 406.601 65.12ZM415.701 69.71C416.821 70.35 417.921 71.02 419.001 71.71C419.145 71.7992 419.251 71.9376 419.301 72.0994C419.351 72.2611 419.34 72.4354 419.271 72.59C419.231 72.6607 419.177 72.7224 419.112 72.7709C419.047 72.8195 418.973 72.8538 418.893 72.8717C418.814 72.8896 418.732 72.8907 418.653 72.8749C418.573 72.8591 418.497 72.8268 418.431 72.78C417.371 72.11 416.281 71.46 415.181 70.78C415.033 70.6973 414.92 70.5628 414.865 70.4023C414.81 70.2418 414.815 70.0665 414.881 69.91C414.914 69.8267 414.97 69.754 415.041 69.7C415.14 69.6369 415.255 69.6043 415.373 69.6061C415.49 69.6078 415.604 69.644 415.701 69.71ZM424.321 75.32C425.371 76.09 426.401 76.89 427.391 77.69C427.525 77.7933 427.615 77.9435 427.643 78.1105C427.671 78.2774 427.634 78.4487 427.541 78.59C427.492 78.6547 427.429 78.7084 427.358 78.7474C427.287 78.7865 427.208 78.8101 427.127 78.8167C427.046 78.8233 426.964 78.8127 426.887 78.7857C426.811 78.7587 426.74 78.7159 426.681 78.66C425.681 77.87 424.681 77.09 423.681 76.33C423.541 76.2325 423.442 76.0858 423.405 75.919C423.368 75.7523 423.395 75.5777 423.481 75.43C423.51 75.3776 423.551 75.333 423.601 75.3C423.708 75.2279 423.835 75.1911 423.964 75.1947C424.093 75.1983 424.218 75.2421 424.321 75.32ZM432.271 82C433.211 82.89 434.141 83.81 435.041 84.75C435.157 84.871 435.222 85.0322 435.222 85.2C435.222 85.3677 435.157 85.5289 435.041 85.65C434.984 85.708 434.915 85.7541 434.839 85.7855C434.764 85.817 434.683 85.8332 434.601 85.8332C434.519 85.8332 434.438 85.817 434.363 85.7855C434.287 85.7541 434.219 85.708 434.161 85.65C433.281 84.73 432.361 83.82 431.441 82.95C431.316 82.8383 431.238 82.683 431.223 82.5158C431.208 82.3486 431.258 82.182 431.361 82.05L431.441 81.97C431.559 81.8714 431.709 81.8199 431.862 81.8255C432.015 81.831 432.161 81.8932 432.271 82ZM439.361 89.62C440.011 90.41 440.641 91.21 441.271 92.03L441.771 92.7C441.876 92.8278 441.926 92.9917 441.911 93.1563C441.896 93.321 441.817 93.4731 441.691 93.58C441.623 93.6268 441.546 93.6596 441.466 93.6765C441.385 93.6933 441.301 93.6938 441.22 93.678C441.139 93.6621 441.062 93.6303 440.994 93.5843C440.925 93.5382 440.867 93.479 440.821 93.41L440.321 92.75C439.711 91.95 439.091 91.16 438.451 90.38C438.336 90.2606 438.271 90.101 438.271 89.935C438.271 89.7689 438.336 89.6093 438.451 89.49C438.515 89.4326 438.59 89.3891 438.672 89.3624C438.754 89.3357 438.84 89.3262 438.926 89.3347C439.012 89.3432 439.094 89.3693 439.169 89.4116C439.244 89.4538 439.31 89.5111 439.361 89.58V89.62ZM444.611 97.82C444.758 97.7426 444.929 97.7243 445.089 97.7689C445.249 97.8136 445.386 97.9177 445.471 98.06C446.161 99.16 446.841 100.28 447.471 101.41C447.515 101.479 447.544 101.555 447.558 101.636C447.571 101.716 447.569 101.798 447.55 101.877C447.532 101.956 447.497 102.031 447.449 102.097C447.401 102.162 447.341 102.218 447.271 102.26C447.119 102.328 446.947 102.336 446.789 102.282C446.632 102.228 446.5 102.117 446.421 101.97C445.781 100.86 445.111 99.75 444.421 98.68C444.332 98.5529 444.295 98.3972 444.315 98.2436C444.335 98.09 444.412 97.9495 444.531 97.85L444.611 97.82ZM449.681 106.82C449.841 106.763 450.016 106.768 450.172 106.835C450.328 106.901 450.453 107.025 450.521 107.18C451.071 108.35 451.611 109.54 452.101 110.73C452.136 110.803 452.155 110.883 452.158 110.964C452.162 111.045 452.148 111.126 452.119 111.201C452.09 111.277 452.046 111.346 451.99 111.404C451.933 111.462 451.866 111.509 451.791 111.54C451.628 111.586 451.453 111.57 451.302 111.494C451.15 111.418 451.032 111.288 450.971 111.13C450.491 109.96 449.971 108.79 449.421 107.65C449.352 107.526 449.33 107.382 449.357 107.243C449.385 107.103 449.46 106.978 449.571 106.89C449.597 106.836 449.635 106.788 449.681 106.75V106.82ZM453.531 116.32C453.698 116.288 453.87 116.32 454.014 116.409C454.158 116.498 454.264 116.637 454.311 116.8C454.691 118.02 455.051 119.27 455.361 120.51C455.385 120.587 455.393 120.668 455.383 120.748C455.373 120.828 455.347 120.905 455.305 120.974C455.264 121.043 455.208 121.102 455.142 121.148C455.075 121.194 455 121.225 454.921 121.24C454.754 121.262 454.585 121.221 454.446 121.124C454.307 121.028 454.209 120.884 454.171 120.72C453.861 119.5 453.511 118.27 453.171 117.08C453.129 116.965 453.123 116.84 453.156 116.721C453.188 116.603 453.256 116.498 453.351 116.42C453.396 116.349 453.458 116.291 453.531 116.25V116.32ZM455.931 126.17C456.102 126.166 456.269 126.225 456.4 126.335C456.531 126.446 456.617 126.6 456.641 126.77C456.841 128.02 457.001 129.29 457.131 130.55C457.141 130.628 457.134 130.708 457.111 130.783C457.088 130.859 457.049 130.929 456.997 130.988C456.945 131.048 456.882 131.096 456.81 131.129C456.738 131.162 456.66 131.179 456.581 131.18C456.41 131.178 456.245 131.113 456.12 130.996C455.994 130.88 455.916 130.721 455.901 130.55C455.771 129.32 455.621 128.08 455.421 126.85C455.403 126.746 455.413 126.64 455.45 126.541C455.487 126.443 455.549 126.356 455.631 126.29C455.708 126.196 455.813 126.129 455.931 126.1V126.17Z" fill="#455A64"/>
<path d="M466.88 285.83C464.2 284.23 460.42 284.45 456.22 286.83L380.06 330.83C371.93 335.52 365.33 346.68 365.33 355.75C365.33 360.18 366.91 363.28 369.47 364.75L377.64 369.46C380.31 370.98 384.04 370.74 388.18 368.35L464.35 324.35C472.48 319.66 479.07 308.5 479.07 299.43C479.07 295.03 477.51 291.92 474.97 290.43C473.58 289.67 468.22 286.63 466.88 285.83Z" fill="#E0E0E0"/>
<path d="M381.421 370C376.821 370 373.961 366.36 373.961 360.51C373.961 351.62 380.451 340.63 388.431 336.03L464.601 292.03C466.562 290.813 468.805 290.124 471.111 290.03C475.711 290.03 478.571 293.67 478.571 299.52C478.571 308.42 472.081 319.4 464.101 324.01L387.931 368.01C385.971 369.228 383.727 369.914 381.421 370Z" fill="#FAFAFA"/>
<path d="M471.111 290.49C475.401 290.49 478.111 293.94 478.111 299.49C478.111 308.23 471.731 319.02 463.891 323.49L387.721 367.49C385.837 368.666 383.68 369.334 381.461 369.43C380.511 369.462 379.566 369.276 378.7 368.886C377.833 368.496 377.067 367.912 376.461 367.18C375.04 365.23 374.334 362.85 374.461 360.44C374.461 351.71 380.841 340.92 388.681 336.44L464.851 292.44C466.735 291.264 468.892 290.596 471.111 290.5M471.111 289.5C468.715 289.591 466.384 290.308 464.351 291.58L388.181 335.58C380.051 340.28 373.461 351.43 373.461 360.5C373.461 366.85 376.691 370.5 381.461 370.5C383.856 370.407 386.185 369.694 388.221 368.43L464.391 324.43C472.521 319.74 479.111 308.58 479.111 299.51C479.111 293.16 475.881 289.51 471.111 289.51V289.5Z" fill="#EBEBEB"/>
<path d="M400.121 345.36C400.431 344.78 400.381 344.18 400.121 344.02L397.571 342.55C397.517 342.522 397.457 342.507 397.396 342.507C397.335 342.507 397.275 342.522 397.221 342.55L394.881 343.45L394.111 341.81C394.073 341.729 394.01 341.663 393.931 341.62L391.381 340.14C391.061 339.96 390.531 340.37 390.321 341.05L388.731 346.26C388.645 346.574 388.463 346.853 388.211 347.06L384.661 349.81C384.091 350.24 383.871 351.3 384.281 351.59L386.851 353.45C386.94 353.541 387.004 353.653 387.039 353.775C387.074 353.897 387.078 354.026 387.051 354.15L386.441 359.22C386.391 359.59 386.501 359.84 386.671 359.93L389.221 361.41C389.421 361.52 389.721 361.41 389.991 361.08L393.171 357.02C393.238 356.909 393.331 356.817 393.443 356.752C393.555 356.687 393.682 356.652 393.811 356.65L397.001 357C397.501 357.07 398.091 356.15 398.001 355.46L397.391 351.09C397.363 350.767 397.433 350.443 397.591 350.16L400.121 345.36Z" fill="#FF8500"/>
<path opacity="0.15" d="M400.092 344C400.037 343.975 399.977 343.962 399.917 343.962C399.856 343.962 399.796 343.975 399.742 344L396.182 345.36C396.135 345.383 396.085 345.396 396.033 345.398C395.982 345.4 395.93 345.392 395.882 345.373C395.834 345.354 395.791 345.325 395.754 345.289C395.718 345.252 395.69 345.208 395.672 345.16L394.852 343.42L397.192 342.53C397.246 342.503 397.306 342.489 397.367 342.489C397.427 342.489 397.487 342.503 397.542 342.53L400.092 344Z" fill="white"/>
<path opacity="0.15" d="M391.25 347.72C391.161 348.033 390.98 348.312 390.73 348.52L387.18 351.26C387.017 351.387 386.886 351.552 386.8 351.74L384.25 350.26C384.342 350.075 384.471 349.912 384.63 349.78L388.18 347.04C388.429 346.836 388.611 346.56 388.7 346.25L391.25 347.72Z" fill="white"/>
<path opacity="0.1" d="M393.921 341.61C393.601 341.4 393.061 341.81 392.841 342.51L391.251 347.72L388.701 346.24L390.291 341.03C390.501 340.35 391.031 339.94 391.351 340.12C391.421 340.12 393.581 341.42 393.911 341.6L393.921 341.61Z" fill="black"/>
<path opacity="0.25" d="M389.371 354.91L386.841 353.45L384.271 351.59C383.971 351.37 384.011 350.77 384.271 350.28L386.821 351.76C386.561 352.24 386.521 352.85 386.821 353.07L389.371 354.91Z" fill="black"/>
<path opacity="0.15" d="M389 360.68C389 361.05 389.06 361.3 389.25 361.4L386.69 359.92C386.589 359.835 386.515 359.723 386.476 359.597C386.437 359.471 386.435 359.337 386.47 359.21L387.08 354.14C387.105 354.02 387.102 353.897 387.071 353.779C387.04 353.66 386.981 353.551 386.9 353.46L389.43 354.92C389.512 355.009 389.571 355.116 389.602 355.233C389.633 355.35 389.636 355.472 389.61 355.59L389 360.68Z" fill="black"/>
<path d="M394.081 341.79L395.671 345.17C395.69 345.218 395.718 345.262 395.754 345.299C395.791 345.335 395.834 345.364 395.882 345.383C395.93 345.402 395.982 345.41 396.033 345.408C396.085 345.406 396.135 345.393 396.181 345.37L399.741 344.01C400.301 343.79 400.531 344.59 400.121 345.36L397.551 350.18C397.393 350.463 397.324 350.787 397.351 351.11L397.961 355.48C398.051 356.17 397.461 357.09 396.961 357.02L393.781 356.63C393.652 356.632 393.525 356.667 393.413 356.732C393.301 356.797 393.208 356.889 393.141 357L390.001 361.06C389.491 361.71 388.901 361.48 389.001 360.67L389.611 355.6C389.64 355.476 389.637 355.347 389.602 355.224C389.567 355.102 389.501 354.99 389.411 354.9L386.841 353.05C386.431 352.75 386.661 351.7 387.221 351.26L390.771 348.52C391.023 348.313 391.205 348.034 391.291 347.72L392.881 342.51C393.091 341.68 393.821 341.26 394.081 341.79Z" fill="#FF8500"/>
<path opacity="0.5" d="M394.081 341.79L395.671 345.17C395.69 345.218 395.718 345.262 395.754 345.299C395.791 345.335 395.834 345.364 395.882 345.383C395.93 345.402 395.982 345.41 396.033 345.408C396.085 345.406 396.135 345.393 396.181 345.37L399.741 344.01C400.301 343.79 400.531 344.59 400.121 345.36L397.551 350.18C397.393 350.463 397.324 350.787 397.351 351.11L397.961 355.48C398.051 356.17 397.461 357.09 396.961 357.02L393.781 356.63C393.652 356.632 393.525 356.667 393.413 356.732C393.301 356.797 393.208 356.889 393.141 357L390.001 361.06C389.491 361.71 388.901 361.48 389.001 360.67L389.611 355.6C389.64 355.476 389.637 355.347 389.602 355.224C389.567 355.102 389.501 354.99 389.411 354.9L386.841 353.05C386.431 352.75 386.661 351.7 387.221 351.26L390.771 348.52C391.023 348.313 391.205 348.034 391.291 347.72L392.881 342.51C393.091 341.68 393.821 341.26 394.081 341.79Z" fill="white"/>
<path d="M418 335.06C418.31 334.48 418.25 333.89 418 333.73L415.46 332.26C415.405 332.232 415.343 332.217 415.28 332.217C415.218 332.217 415.156 332.232 415.1 332.26L412.77 333.16L411.99 331.52C411.959 331.438 411.898 331.37 411.82 331.33L409.27 329.85C408.95 329.67 408.42 330.08 408.21 330.76L406.55 336C406.46 336.312 406.279 336.59 406.03 336.8L402.48 339.54C401.91 339.98 401.69 341.04 402.09 341.33L404.67 343.19C404.759 343.281 404.822 343.393 404.856 343.516C404.889 343.638 404.891 343.767 404.86 343.89L404.26 348.96C404.21 349.33 404.31 349.58 404.48 349.67L407 351.1C407.2 351.21 407.49 351.1 407.77 350.77L410.95 346.71C411.017 346.599 411.11 346.507 411.222 346.442C411.334 346.377 411.461 346.342 411.59 346.34L414.77 346.73C415.27 346.79 415.86 345.88 415.77 345.19L415.17 340.82C415.138 340.497 415.208 340.171 415.37 339.89L418 335.06Z" fill="#FF8500"/>
<path opacity="0.15" d="M417.94 333.72C417.885 333.695 417.825 333.683 417.765 333.683C417.705 333.683 417.645 333.695 417.59 333.72L414 335.08C413.953 335.103 413.902 335.116 413.849 335.118C413.797 335.121 413.745 335.112 413.696 335.093C413.647 335.075 413.603 335.046 413.566 335.009C413.529 334.973 413.499 334.929 413.48 334.88L412.67 333.14L415 332.25C415.056 332.223 415.118 332.208 415.18 332.208C415.242 332.208 415.304 332.223 415.36 332.25L417.94 333.72Z" fill="white"/>
<path opacity="0.15" d="M409.1 337.43C409.011 337.743 408.83 338.022 408.58 338.23L405 341C404.836 341.127 404.706 341.292 404.62 341.48L402.09 340C402.188 339.817 402.321 339.654 402.48 339.52L406.03 336.78C406.278 336.57 406.459 336.292 406.55 335.98L409.1 337.43Z" fill="white"/>
<path opacity="0.1" d="M411.771 331.32C411.451 331.11 410.911 331.52 410.691 332.22L409.101 337.43L406.551 336L408.141 330.79C408.351 330.11 408.881 329.7 409.201 329.88C409.271 329.88 411.431 331.18 411.751 331.35L411.771 331.32Z" fill="black"/>
<path opacity="0.25" d="M407.221 344.61L404.691 343.16L402.121 341.3C401.831 341.08 401.871 340.48 402.121 339.99L404.681 341.47C404.421 341.95 404.381 342.56 404.681 342.77L407.221 344.61Z" fill="black"/>
<path opacity="0.15" d="M406.81 350.38C406.76 350.76 406.87 351.01 407.05 351.11L404.5 349.63C404.33 349.53 404.23 349.29 404.28 348.92L404.89 343.85C404.914 343.73 404.909 343.607 404.878 343.489C404.847 343.372 404.79 343.263 404.71 343.17L407.24 344.62C407.322 344.709 407.381 344.816 407.413 344.933C407.444 345.05 407.447 345.172 407.42 345.29L406.81 350.38Z" fill="black"/>
<path d="M411.921 331.5L413.511 334.88C413.53 334.929 413.559 334.973 413.597 335.009C413.634 335.046 413.678 335.075 413.727 335.093C413.776 335.112 413.828 335.121 413.88 335.118C413.932 335.116 413.984 335.103 414.031 335.08L417.591 333.72C418.151 333.5 418.381 334.3 417.971 335.06L415.401 339.89C415.238 340.171 415.168 340.497 415.201 340.82L415.801 345.19C415.901 345.88 415.311 346.79 414.801 346.73L411.621 346.34C411.491 346.342 411.365 346.377 411.253 346.442C411.141 346.507 411.047 346.599 410.981 346.71L407.801 350.77C407.291 351.42 406.701 351.19 406.801 350.38L407.411 345.31C407.438 345.186 407.434 345.057 407.399 344.935C407.364 344.813 407.299 344.701 407.211 344.61L404.641 342.76C404.231 342.46 404.451 341.41 405.021 340.97L408.571 338.23C408.822 338.023 409.004 337.744 409.091 337.43L410.681 332.22C410.941 331.39 411.671 331 411.921 331.5Z" fill="#FF8500"/>
<path opacity="0.5" d="M411.921 331.5L413.511 334.88C413.53 334.929 413.559 334.973 413.597 335.009C413.634 335.046 413.678 335.075 413.727 335.093C413.776 335.112 413.828 335.121 413.88 335.118C413.932 335.116 413.984 335.103 414.031 335.08L417.591 333.72C418.151 333.5 418.381 334.3 417.971 335.06L415.401 339.89C415.238 340.171 415.168 340.497 415.201 340.82L415.801 345.19C415.901 345.88 415.311 346.79 414.801 346.73L411.621 346.34C411.491 346.342 411.365 346.377 411.253 346.442C411.141 346.507 411.047 346.599 410.981 346.71L407.801 350.77C407.291 351.42 406.701 351.19 406.801 350.38L407.411 345.31C407.438 345.186 407.434 345.057 407.399 344.935C407.364 344.813 407.299 344.701 407.211 344.61L404.641 342.76C404.231 342.46 404.451 341.41 405.021 340.97L408.571 338.23C408.822 338.023 409.004 337.744 409.091 337.43L410.681 332.22C410.941 331.39 411.671 331 411.921 331.5Z" fill="white"/>
<path d="M435.821 324.77C436.121 324.19 436.071 323.6 435.821 323.44L433.241 322C433.184 321.975 433.123 321.961 433.061 321.961C432.999 321.961 432.938 321.975 432.881 322L430.541 322.9L429.771 321.26C429.739 321.178 429.679 321.11 429.601 321.07L427.051 319.59C426.731 319.41 426.191 319.82 425.991 320.5L424.401 325.71C424.31 326.022 424.129 326.3 423.881 326.51L420.321 329.25C419.761 329.69 419.531 330.74 419.941 331.04L422.511 332.9C422.604 332.988 422.671 333.1 422.706 333.223C422.741 333.346 422.743 333.476 422.711 333.6L422.101 338.67C422.101 339.04 422.161 339.28 422.331 339.38L424.881 340.86C425.091 340.97 425.381 340.86 425.661 340.53L428.831 336.47C428.898 336.358 428.993 336.264 429.107 336.2C429.221 336.135 429.35 336.1 429.481 336.1L432.651 336.49C433.161 336.55 433.751 335.64 433.651 334.95L433.051 330.58C433.019 330.258 433.086 329.934 433.241 329.65L435.821 324.77Z" fill="#FF8500"/>
<path opacity="0.15" d="M435.791 323.43C435.734 323.405 435.673 323.392 435.611 323.392C435.549 323.392 435.488 323.405 435.431 323.43L431.881 324.79C431.834 324.813 431.783 324.826 431.731 324.828C431.678 324.831 431.626 324.822 431.577 324.803C431.529 324.785 431.484 324.756 431.447 324.719C431.41 324.683 431.38 324.639 431.361 324.59L430.541 322.85L432.881 321.96C432.935 321.933 432.995 321.919 433.056 321.919C433.117 321.919 433.177 321.933 433.231 321.96L435.791 323.43Z" fill="white"/>
<path opacity="0.15" d="M427 327.13C426.91 327.445 426.729 327.727 426.48 327.94L422.93 330.68C422.767 330.809 422.633 330.973 422.54 331.16L419.99 329.68C420.089 329.497 420.221 329.334 420.38 329.2L423.93 326.46C424.179 326.25 424.359 325.972 424.45 325.66L427 327.13Z" fill="white"/>
<path opacity="0.1" d="M429.621 321C429.301 320.79 428.751 321.2 428.541 321.89L427.001 327.13L424.451 325.66L426.041 320.45C426.251 319.77 426.781 319.36 427.101 319.54C427.171 319.54 429.321 320.84 429.651 321.01L429.621 321Z" fill="black"/>
<path opacity="0.25" d="M425.061 334.32L422.541 332.87L419.941 331C419.651 330.78 419.681 330.18 419.941 329.69L422.491 331.17C422.241 331.65 422.201 332.26 422.491 332.47L425.061 334.32Z" fill="black"/>
<path opacity="0.15" d="M424.66 340.09C424.61 340.47 424.72 340.72 424.9 340.82L422.35 339.34C422.18 339.24 422.08 339 422.12 338.63L422.73 333.55C422.756 333.433 422.754 333.311 422.725 333.195C422.695 333.079 422.639 332.971 422.56 332.88L425.08 334.33C425.158 334.421 425.215 334.528 425.247 334.644C425.278 334.76 425.282 334.882 425.26 335L424.66 340.09Z" fill="black"/>
<path d="M429.771 321.21L431.361 324.59C431.38 324.639 431.41 324.683 431.447 324.719C431.484 324.756 431.528 324.785 431.577 324.803C431.626 324.822 431.678 324.831 431.73 324.828C431.783 324.826 431.834 324.813 431.881 324.79L435.431 323.43C436.001 323.21 436.221 324.01 435.821 324.77L433.241 329.6C433.085 329.884 433.019 330.208 433.051 330.53L433.651 334.9C433.751 335.59 433.161 336.5 432.651 336.44L429.481 336.05C429.35 336.05 429.221 336.085 429.107 336.15C428.993 336.214 428.898 336.308 428.831 336.42L425.661 340.48C425.151 341.13 424.561 340.9 424.661 340.09L425.261 335.02C425.291 334.897 425.289 334.768 425.256 334.646C425.223 334.523 425.159 334.411 425.071 334.32L422.491 332.46C422.091 332.17 422.311 331.11 422.881 330.68L426.431 327.94C426.679 327.73 426.86 327.452 426.951 327.14L428.541 321.93C428.791 321.1 429.521 320.68 429.771 321.21Z" fill="#FF8500"/>
<path opacity="0.5" d="M429.771 321.21L431.361 324.59C431.38 324.639 431.41 324.683 431.447 324.719C431.484 324.756 431.528 324.785 431.577 324.803C431.626 324.822 431.678 324.831 431.73 324.828C431.783 324.826 431.834 324.813 431.881 324.79L435.431 323.43C436.001 323.21 436.221 324.01 435.821 324.77L433.241 329.6C433.085 329.884 433.019 330.208 433.051 330.53L433.651 334.9C433.751 335.59 433.161 336.5 432.651 336.44L429.481 336.05C429.35 336.05 429.221 336.085 429.107 336.15C428.993 336.214 428.898 336.308 428.831 336.42L425.661 340.48C425.151 341.13 424.561 340.9 424.661 340.09L425.261 335.02C425.291 334.897 425.289 334.768 425.256 334.646C425.223 334.523 425.159 334.411 425.071 334.32L422.491 332.46C422.091 332.17 422.311 331.11 422.881 330.68L426.431 327.94C426.679 327.73 426.86 327.452 426.951 327.14L428.541 321.93C428.791 321.1 429.521 320.68 429.771 321.21Z" fill="white"/>
<path d="M453.66 314.48C453.97 313.9 453.92 313.31 453.66 313.15L451.12 311.67C451.063 311.645 451.002 311.632 450.94 311.632C450.878 311.632 450.817 311.645 450.76 311.67L448.42 312.57L447.65 310.93C447.616 310.847 447.557 310.777 447.48 310.73C447.16 310.56 445 309.3 444.93 309.26C444.61 309.08 444.07 309.49 443.86 310.17L442.27 315.38C442.183 315.691 442.005 315.97 441.76 316.18L438.2 318.92C437.64 319.36 437.41 320.41 437.82 320.71L440.39 322.57C440.481 322.657 440.547 322.767 440.582 322.888C440.617 323.009 440.62 323.138 440.59 323.26L439.98 328.33C439.98 328.7 440.04 328.95 440.21 329.05L442.76 330.53C442.96 330.64 443.26 330.53 443.53 330.2L446.71 326.14C446.776 326.029 446.87 325.937 446.982 325.872C447.094 325.807 447.221 325.772 447.35 325.77L450.53 326.16C451.04 326.22 451.63 325.31 451.53 324.62L450.92 320.25C450.896 319.927 450.966 319.605 451.12 319.32L453.66 314.48Z" fill="#FF8500"/>
<path opacity="0.15" d="M453.631 313.14C453.576 313.115 453.516 313.102 453.456 313.102C453.395 313.102 453.336 313.115 453.281 313.14L449.721 314.5C449.674 314.523 449.624 314.536 449.572 314.538C449.521 314.54 449.469 314.532 449.421 314.513C449.373 314.494 449.33 314.465 449.293 314.429C449.257 314.392 449.229 314.348 449.211 314.3L448.391 312.56L450.731 311.67C450.784 311.64 450.844 311.625 450.906 311.625C450.967 311.625 451.027 311.64 451.081 311.67L453.631 313.14Z" fill="white"/>
<path opacity="0.15" d="M444.801 316.84C444.71 317.155 444.53 317.436 444.281 317.65L440.731 320.39C440.567 320.519 440.434 320.683 440.341 320.87L437.791 319.39C437.886 319.207 438.015 319.044 438.171 318.91L441.721 316.17C441.976 315.964 442.161 315.685 442.251 315.37L444.801 316.84Z" fill="white"/>
<path opacity="0.1" d="M447.47 310.74C447.15 310.53 446.6 310.94 446.39 311.63L444.8 316.84L442.25 315.37L443.84 310.16C444.04 309.48 444.58 309.07 444.9 309.25C444.97 309.25 447.12 310.55 447.45 310.72L447.47 310.74Z" fill="black"/>
<path opacity="0.25" d="M442.912 324L440.392 322.55L437.822 320.69C437.522 320.47 437.562 319.87 437.822 319.38L440.372 320.86C440.112 321.34 440.082 321.95 440.372 322.16L442.912 324Z" fill="black"/>
<path opacity="0.15" d="M442.5 329.8C442.5 330.18 442.57 330.43 442.75 330.53L440.18 329C440.01 328.9 439.91 328.66 439.95 328.29L440.56 323.21C440.584 323.093 440.581 322.972 440.551 322.856C440.522 322.74 440.467 322.632 440.39 322.54L442.91 323.99C442.989 324.081 443.045 324.189 443.075 324.305C443.104 324.421 443.106 324.543 443.08 324.66L442.5 329.8Z" fill="black"/>
<path d="M447.621 310.92L449.211 314.3C449.231 314.349 449.26 314.393 449.297 314.429C449.335 314.466 449.379 314.495 449.428 314.513C449.477 314.532 449.529 314.541 449.581 314.538C449.633 314.536 449.684 314.523 449.731 314.5L453.281 313.14C453.851 312.92 454.071 313.72 453.661 314.48L451.091 319.31C450.937 319.594 450.868 319.917 450.891 320.24L451.501 324.61C451.601 325.3 451.011 326.21 450.501 326.15L447.321 325.76C447.192 325.762 447.065 325.797 446.953 325.862C446.841 325.927 446.748 326.019 446.681 326.13L443.501 330.19C443.001 330.84 442.411 330.61 442.501 329.8L443.111 324.73C443.143 324.606 443.142 324.476 443.106 324.353C443.071 324.23 443.004 324.118 442.911 324.03L440.341 322.17C439.931 321.88 440.161 320.82 440.721 320.39L444.281 317.65C444.528 317.439 444.708 317.161 444.801 316.85L446.391 311.63C446.641 310.81 447.371 310.39 447.621 310.92Z" fill="#FF8500"/>
<path opacity="0.5" d="M447.621 310.92L449.211 314.3C449.231 314.349 449.26 314.393 449.297 314.429C449.335 314.466 449.379 314.495 449.428 314.513C449.477 314.532 449.529 314.541 449.581 314.538C449.633 314.536 449.684 314.523 449.731 314.5L453.281 313.14C453.851 312.92 454.071 313.72 453.661 314.48L451.091 319.31C450.937 319.594 450.868 319.917 450.891 320.24L451.501 324.61C451.601 325.3 451.011 326.21 450.501 326.15L447.321 325.76C447.192 325.762 447.065 325.797 446.953 325.862C446.841 325.927 446.748 326.019 446.681 326.13L443.501 330.19C443.001 330.84 442.411 330.61 442.501 329.8L443.111 324.73C443.143 324.606 443.142 324.476 443.106 324.353C443.071 324.23 443.004 324.118 442.911 324.03L440.341 322.17C439.931 321.88 440.161 320.82 440.721 320.39L444.281 317.65C444.528 317.439 444.708 317.161 444.801 316.85L446.391 311.63C446.641 310.81 447.371 310.39 447.621 310.92Z" fill="white"/>
<path d="M471.511 304.19C471.821 303.61 471.771 303.02 471.511 302.85L468.961 301.38C468.906 301.355 468.847 301.342 468.786 301.342C468.726 301.342 468.666 301.355 468.611 301.38L466.271 302.28L465.501 300.64C465.461 300.561 465.402 300.493 465.331 300.44C465.001 300.27 462.841 299.01 462.781 298.97C462.451 298.79 461.921 299.19 461.711 299.88L460.121 305.09C460.034 305.404 459.853 305.683 459.601 305.89L456.001 308.62C455.431 309.06 455.211 310.11 455.621 310.41L458.191 312.27C458.282 312.357 458.348 312.467 458.383 312.588C458.418 312.709 458.421 312.838 458.391 312.96L457.801 318C457.801 318.37 457.861 318.62 458.031 318.72L460.581 320.2C460.781 320.31 461.081 320.2 461.351 319.87L464.531 315.81C464.598 315.699 464.691 315.607 464.803 315.542C464.915 315.477 465.042 315.442 465.171 315.44L468.351 315.83C468.851 315.89 469.441 314.98 469.351 314.29L468.741 309.92C468.713 309.597 468.782 309.273 468.941 308.99L471.511 304.19Z" fill="#FF8500"/>
<path opacity="0.15" d="M471.48 302.85C471.426 302.823 471.366 302.809 471.305 302.809C471.244 302.809 471.185 302.823 471.13 302.85L467.57 304.21C467.524 304.233 467.474 304.246 467.422 304.248C467.37 304.25 467.319 304.242 467.271 304.223C467.223 304.204 467.179 304.175 467.143 304.139C467.107 304.102 467.079 304.058 467.06 304.01L466.24 302.27L468.58 301.37C468.634 301.342 468.694 301.327 468.755 301.327C468.816 301.327 468.876 301.342 468.93 301.37L471.48 302.85Z" fill="white"/>
<path opacity="0.15" d="M462.651 306.55C462.557 306.866 462.372 307.147 462.121 307.36L458.571 310.1C458.41 310.23 458.28 310.394 458.191 310.58L455.641 309.1C455.732 308.915 455.862 308.752 456.021 308.62L459.571 305.88C459.822 305.673 460.004 305.394 460.091 305.08L462.651 306.55Z" fill="white"/>
<path opacity="0.1" d="M465.32 300.44C465 300.24 464.45 300.65 464.24 301.34L462.65 306.55L460.09 305.08L461.68 299.87C461.89 299.19 462.43 298.78 462.75 298.96C462.82 298.96 464.97 300.26 465.3 300.43L465.32 300.44Z" fill="black"/>
<path opacity="0.25" d="M460.761 313.74L458.231 312.29L455.661 310.43C455.361 310.21 455.401 309.61 455.661 309.12L458.211 310.6C457.951 311.08 457.911 311.69 458.211 311.9L460.761 313.74Z" fill="black"/>
<path opacity="0.15" d="M460.351 319.51C460.351 319.89 460.411 320.14 460.601 320.23L458.001 318.75C457.831 318.65 457.731 318.41 457.771 318.03L458.381 312.96C458.405 312.842 458.401 312.72 458.37 312.604C458.339 312.487 458.281 312.38 458.201 312.29L460.731 313.74C460.81 313.83 460.867 313.938 460.896 314.055C460.926 314.171 460.927 314.293 460.901 314.41L460.351 319.51Z" fill="black"/>
<path d="M465.471 300.63L467.061 304.01C467.08 304.059 467.11 304.103 467.147 304.139C467.184 304.176 467.229 304.205 467.277 304.223C467.326 304.242 467.378 304.251 467.431 304.248C467.483 304.246 467.534 304.233 467.581 304.21L471.131 302.85C471.691 302.63 471.921 303.43 471.511 304.19L468.941 309C468.782 309.283 468.712 309.607 468.741 309.93L469.351 314.3C469.441 314.99 468.851 315.9 468.351 315.84L465.171 315.45C465.042 315.452 464.915 315.487 464.803 315.552C464.691 315.617 464.597 315.709 464.531 315.82L461.351 319.88C460.851 320.53 460.261 320.29 460.351 319.49L460.961 314.42C460.99 314.296 460.987 314.167 460.952 314.044C460.917 313.922 460.851 313.81 460.761 313.72L458.191 311.86C457.781 311.57 458.011 310.51 458.571 310.08L462.131 307.34C462.372 307.126 462.549 306.849 462.641 306.54L464.231 301.32C464.491 300.52 465.221 300.09 465.471 300.63Z" fill="#FF8500"/>
<path opacity="0.5" d="M465.471 300.63L467.061 304.01C467.08 304.059 467.11 304.103 467.147 304.139C467.184 304.176 467.229 304.205 467.277 304.223C467.326 304.242 467.378 304.251 467.431 304.248C467.483 304.246 467.534 304.233 467.581 304.21L471.131 302.85C471.691 302.63 471.921 303.43 471.511 304.19L468.941 309C468.782 309.283 468.712 309.607 468.741 309.93L469.351 314.3C469.441 314.99 468.851 315.9 468.351 315.84L465.171 315.45C465.042 315.452 464.915 315.487 464.803 315.552C464.691 315.617 464.597 315.709 464.531 315.82L461.351 319.88C460.851 320.53 460.261 320.29 460.351 319.49L460.961 314.42C460.99 314.296 460.987 314.167 460.952 314.044C460.917 313.922 460.851 313.81 460.761 313.72L458.191 311.86C457.781 311.57 458.011 310.51 458.571 310.08L462.131 307.34C462.372 307.126 462.549 306.849 462.641 306.54L464.231 301.32C464.491 300.52 465.221 300.09 465.471 300.63Z" fill="white"/>
<path d="M478.321 57L470.321 60.43L468.611 68.96C468.562 69.1943 468.449 69.4104 468.284 69.5841C468.119 69.7578 467.91 69.8823 467.678 69.9435C467.447 70.0047 467.203 70.0003 466.974 69.9308C466.745 69.8613 466.539 69.7295 466.381 69.55L460.651 63L452.001 64C451.753 64.0375 451.5 64.0015 451.273 63.8964C451.045 63.7913 450.853 63.6218 450.721 63.4089C450.589 63.1959 450.523 62.9489 450.53 62.6985C450.537 62.4481 450.617 62.2052 450.761 62L455.211 54.53L451.591 46.62C451.503 46.4076 451.474 46.1754 451.506 45.9478C451.539 45.7202 451.632 45.5055 451.777 45.3265C451.921 45.1474 452.111 45.0105 452.326 44.9302C452.542 44.8499 452.775 44.8291 453.001 44.87L461.481 46.8L467.881 40.91C468.057 40.7456 468.275 40.6342 468.511 40.5883C468.747 40.5425 468.992 40.5641 469.216 40.6507C469.441 40.7374 469.636 40.8855 469.78 41.0782C469.924 41.2708 470.011 41.5002 470.031 41.74L470.821 50.4L478.401 54.66C478.624 54.768 478.811 54.9385 478.939 55.1508C479.068 55.3632 479.131 55.6081 479.123 55.856C479.114 56.1039 479.034 56.344 478.892 56.5471C478.749 56.7501 478.551 56.9075 478.321 57Z" fill="#E0E0E0"/>
<path d="M434.229 42.18C434.159 42.2723 434.075 42.3532 433.979 42.42C433.81 42.5421 433.609 42.6143 433.401 42.6284C433.192 42.6426 432.984 42.5981 432.799 42.5L428.349 40.16L423.889 42.5C423.705 42.5981 423.497 42.6426 423.288 42.6284C423.079 42.6143 422.879 42.5421 422.709 42.42C422.538 42.2986 422.405 42.1301 422.327 41.935C422.249 41.7398 422.229 41.5262 422.269 41.32L423.119 36.32L419.509 32.81C419.359 32.6642 419.253 32.4789 419.203 32.2754C419.154 32.0719 419.163 31.8586 419.229 31.66C419.292 31.461 419.41 31.2839 419.569 31.1494C419.729 31.0148 419.923 30.9283 420.129 30.9L425.129 30.18L427.359 25.66C427.451 25.4733 427.594 25.3162 427.771 25.2066C427.947 25.097 428.151 25.0392 428.359 25.04C428.567 25.0415 428.77 25.1002 428.947 25.2096C429.123 25.3189 429.266 25.4748 429.359 25.66L431.589 30.18L436.589 30.9C436.796 30.9302 436.99 31.0176 437.15 31.1523C437.309 31.2871 437.428 31.4637 437.493 31.6624C437.557 31.8611 437.565 32.0738 437.515 32.2766C437.465 32.4794 437.359 32.6641 437.209 32.81L433.599 36.32L434.459 41.32C434.498 41.6257 434.415 41.9343 434.229 42.18ZM419.999 31.79L419.939 31.92C419.915 31.9947 419.912 32.0749 419.931 32.1512C419.951 32.2274 419.992 32.2964 420.049 32.35L423.909 36.12L422.999 41.44C422.987 41.5183 422.997 41.5985 423.027 41.6717C423.057 41.7449 423.107 41.8083 423.172 41.8549C423.236 41.9014 423.312 41.9293 423.391 41.9355C423.47 41.9417 423.549 41.926 423.619 41.89L428.399 39.38L433.169 41.89C433.238 41.9295 433.315 41.9503 433.394 41.9503C433.473 41.9503 433.551 41.9295 433.619 41.89C433.686 41.8444 433.737 41.7803 433.768 41.7056C433.798 41.6309 433.806 41.549 433.789 41.47L432.879 36.15L436.739 32.38C436.795 32.3251 436.835 32.256 436.854 32.1803C436.874 32.1045 436.872 32.0249 436.849 31.95C436.827 31.8739 436.783 31.8061 436.722 31.7546C436.662 31.7031 436.588 31.6703 436.509 31.66L431.159 30.88L428.719 26C428.686 25.9273 428.633 25.8659 428.565 25.8233C428.498 25.7806 428.419 25.7586 428.339 25.76C428.267 25.7679 428.198 25.7941 428.138 25.8361C428.079 25.8781 428.031 25.9345 427.999 26L425.619 30.84L420.269 31.62C420.162 31.6418 420.066 31.7022 419.999 31.79Z" fill="#E0E0E0"/>
<path d="M378.539 109C371.009 104.64 360.659 105.23 349.219 111.83C326.219 125.13 307.529 157.7 307.529 184.59C307.529 198.12 312.269 207.59 319.899 212.02C321.669 213.02 328.589 217.02 328.589 217.02C328.265 220.063 327.214 222.984 325.524 225.535C323.834 228.087 321.555 230.194 318.879 231.68C318.439 231.93 318.709 232.36 319.099 232.58L329.669 238.69C329.812 238.775 329.973 238.823 330.139 238.83C340.549 238.83 352.599 231.83 355.959 217.29C357.219 216.69 358.489 216.04 359.779 215.29C382.779 202 401.469 169.42 401.469 142.54C401.469 129 396.739 119.54 389.109 115.08L378.539 109Z" fill="#37474F"/>
<path d="M359.78 117.93C336.78 131.22 318.09 163.8 318.09 190.68C318.09 208.93 326.68 219.85 339.4 220.85C338.92 226.65 337.23 233.17 329.4 237.78C328.78 238.15 329.59 238.84 330.11 238.84C340.52 238.84 352.57 231.84 355.93 217.3C357.19 216.7 358.46 216.05 359.75 215.3C382.75 202.01 401.44 169.43 401.44 142.55C401.44 115.67 382.8 104.64 359.78 117.93Z" fill="#455A64"/>
<path d="M329.429 237.78C329.049 238.02 329.219 238.37 329.539 238.61L319.099 232.61C318.709 232.37 318.439 231.96 318.879 231.7C321.56 230.211 323.843 228.098 325.533 225.538C327.224 222.979 328.272 220.05 328.589 217L329.739 217.68L330.799 218.3C333.448 219.756 336.383 220.616 339.399 220.82C338.929 226.65 337.229 233.17 329.429 237.78Z" fill="#263238"/>
<path d="M355.379 194.89C354.269 194.1 353.709 192.68 353.709 190.63C353.733 188.494 354.297 186.399 355.349 184.54C356.304 182.682 357.759 181.127 359.549 180.05C361.249 179.07 362.646 178.953 363.739 179.7C364.829 180.44 365.379 181.84 365.379 183.89C365.347 186.063 364.773 188.194 363.709 190.09C362.777 191.967 361.335 193.544 359.549 194.64C357.889 195.59 356.499 195.68 355.379 194.89ZM353.889 140.53L365.199 134L363.309 172.12L355.779 176.47L353.889 140.53Z" fill="#FAFAFA"/>
<path opacity="0.2" d="M365.34 211.65C377.62 202.65 388.21 188.38 394.69 173.06C382.41 182.07 371.82 196.33 365.34 211.65Z" fill="black"/>
<path d="M443.859 263.75C439.599 263.8 436.429 260.82 434.439 257.07C447.199 241.38 455.829 220.48 455.829 202.2C455.829 188.65 451.079 179.13 443.429 174.73L432.879 168.65C425.349 164.3 415.009 164.9 403.579 171.49C380.579 184.79 361.889 217.36 361.889 244.25C361.889 257.78 366.619 267.25 374.249 271.7C376.029 272.7 383.039 276.76 384.769 277.77C392.309 282.16 402.679 281.58 414.139 274.96C417.207 273.174 420.121 271.133 422.849 268.86C430.589 274.99 440.029 268.31 443.769 265.11C444.269 264.69 444.329 263.75 443.859 263.75Z" fill="#E0E0E0"/>
<path d="M395.69 280C381.75 280 373.1 268.65 373.1 250.39C373.1 223.75 391.66 191.39 414.46 178.2C420.84 174.52 426.94 172.65 432.59 172.65C446.52 172.65 455.18 183.99 455.18 202.26C455.18 219.73 447.04 240.6 433.94 256.71L433.67 257.05L433.87 257.43C436.22 261.86 439.63 264.34 443.49 264.43C443.462 264.514 443.414 264.59 443.35 264.65C440.69 266.93 435.41 270.74 429.94 270.74C427.504 270.751 425.14 269.917 423.25 268.38L422.84 268.06L422.43 268.39C419.727 270.625 416.844 272.632 413.81 274.39C407.44 278.08 401.34 280 395.69 280Z" fill="#FAFAFA"/>
<path d="M432.588 172V173.3C446.118 173.3 454.528 184.4 454.528 202.25C454.528 219.59 446.448 240.3 433.438 256.3L432.888 256.97L433.298 257.73C435.458 261.81 438.498 264.32 441.988 264.95C439.218 267.16 434.628 270.11 429.938 270.11C427.648 270.121 425.425 269.336 423.648 267.89L422.828 267.24L422.018 267.91C419.345 270.141 416.492 272.148 413.488 273.91C407.208 277.53 401.218 279.37 395.688 279.37C382.158 279.37 373.748 268.27 373.748 250.37C373.748 223.94 392.158 191.81 414.748 178.74C421.028 175.12 427.018 173.28 432.548 173.28V172M432.548 172C426.988 172 420.728 173.81 414.098 177.64C391.098 190.93 372.408 223.5 372.408 250.39C372.408 269.54 381.878 280.65 395.648 280.65C401.208 280.65 407.468 278.84 414.098 275.01C417.167 273.224 420.081 271.183 422.808 268.91C424.808 270.543 427.316 271.428 429.898 271.41C435.618 271.41 441.088 267.41 443.728 265.16C444.228 264.74 444.288 263.8 443.818 263.8H443.718C439.518 263.8 436.378 260.85 434.398 257.12C447.158 241.43 455.788 220.53 455.788 202.25C455.788 183.1 446.318 172 432.548 172Z" fill="#FF8500"/>
<path d="M411.998 230.85C413.211 227.94 414.604 225.108 416.168 222.37C417.246 220.491 418.227 218.559 419.108 216.58C419.715 215.223 420.038 213.756 420.058 212.27C420.058 210.27 419.458 209.04 418.258 208.56C417.058 208.08 415.478 208.43 413.488 209.56C411.521 210.715 409.798 212.243 408.418 214.06C406.877 216.072 405.619 218.286 404.678 220.64L397.328 219.13C398.972 214.787 401.302 210.736 404.228 207.13C407.092 203.591 410.583 200.611 414.528 198.34C419.195 195.673 422.931 194.84 425.738 195.84C428.545 196.84 429.951 199.7 429.958 204.42C429.971 206.551 429.695 208.673 429.138 210.73C428.645 212.593 427.975 214.404 427.138 216.14C426.348 217.76 425.318 219.69 424.068 221.93C422.856 223.997 421.761 226.13 420.788 228.32C420.118 229.901 419.777 231.603 419.788 233.32L410.618 238.62C410.581 235.966 411.05 233.329 411.998 230.85ZM410.998 256.58C409.888 255.79 409.328 254.37 409.328 252.31C409.352 250.174 409.916 248.079 410.968 246.22C411.923 244.365 413.373 242.81 415.158 241.73C416.868 240.73 418.258 240.63 419.358 241.38C420.458 242.13 420.998 243.53 420.998 245.58C420.964 247.75 420.39 249.877 419.328 251.77C418.396 253.65 416.95 255.228 415.158 256.32C413.548 257.28 412.168 257.36 411.048 256.58H410.998Z" fill="#455A64"/>
<path d="M200.781 185.3L154.781 211.94L173.051 243C173.403 243.838 174.017 244.54 174.801 245C176.981 246.23 189.891 253.71 190.601 254.12C191.155 254.44 191.774 254.63 192.411 254.676C193.049 254.722 193.689 254.623 194.283 254.386C194.876 254.149 195.409 253.781 195.84 253.309C196.271 252.837 196.589 252.273 196.771 251.66L216.611 194.48L200.781 185.3Z" fill="#FF8500"/>
<path opacity="0.2" d="M200.781 185.3L154.781 211.94L173.051 243C173.403 243.838 174.017 244.54 174.801 245C176.981 246.23 189.891 253.71 190.601 254.12C191.155 254.44 191.774 254.63 192.411 254.676C193.049 254.722 193.689 254.623 194.283 254.386C194.876 254.149 195.409 253.781 195.84 253.309C196.271 252.837 196.589 252.273 196.771 251.66L216.611 194.48L200.781 185.3Z" fill="black"/>
<path d="M170.611 221.08L188.881 252.14C189.23 252.929 189.814 253.592 190.552 254.038C191.29 254.485 192.147 254.694 193.008 254.637C193.869 254.58 194.692 254.261 195.365 253.721C196.038 253.181 196.529 252.448 196.771 251.62L216.611 194.44L170.611 221.08Z" fill="#FF8500"/>
<path d="M252.101 26L78.6309 126.13C77.4679 126.884 76.4994 127.902 75.8043 129.101C75.1092 130.3 74.7071 131.646 74.6309 133.03V253.42C74.7045 254.799 75.1058 256.141 75.8015 257.334C76.4971 258.527 77.467 259.537 78.6309 260.28L92.9009 268.28C94.1418 268.904 95.5117 269.23 96.9009 269.23C98.29 269.23 99.6599 268.904 100.901 268.28L274.381 168.09C275.542 167.334 276.509 166.316 277.204 165.117C277.899 163.919 278.302 162.573 278.381 161.19V40.8C278.306 39.4212 277.905 38.0799 277.209 36.887C276.514 35.6941 275.544 34.684 274.381 33.94L260.121 25.94C258.872 25.3232 257.496 25.0074 256.104 25.0178C254.711 25.0282 253.34 25.3646 252.101 26Z" fill="#FF8500"/>
<path opacity="0.3" d="M278.311 40.07C277.991 38.07 276.361 37.35 274.371 38.49L100.911 138.65C99.7287 139.388 98.76 140.422 98.1006 141.65L75.8906 129C76.5572 127.846 77.4983 126.874 78.6306 126.17L252.111 26C253.352 25.3779 254.722 25.054 256.111 25.054C257.499 25.054 258.869 25.3779 260.111 26L274.371 34C275.421 34.6742 276.315 35.5641 276.994 36.6107C277.674 37.6573 278.122 38.8366 278.311 40.07Z" fill="white"/>
<path d="M96.9199 266.4V146C96.9962 144.617 97.3983 143.273 98.0935 142.075C98.7886 140.878 99.7571 139.862 100.92 139.11L274.38 39C276.57 37.73 278.38 38.76 278.38 41.3V161.65C278.301 163.033 277.898 164.379 277.203 165.577C276.508 166.776 275.541 167.794 274.38 168.55L100.9 268.7C98.6999 270 96.9199 268.94 96.9199 266.4Z" fill="#FF8500"/>
<path opacity="0.2" d="M100.901 268.24C99.6551 268.849 98.287 269.165 96.9006 269.165C95.5143 269.165 94.1462 268.849 92.9006 268.24L78.6406 260.24C77.4777 259.5 76.5081 258.494 75.8124 257.304C75.1167 256.115 74.715 254.776 74.6406 253.4V133C74.7116 131.579 75.1492 130.201 75.9106 129L98.1006 141.63C97.3692 142.806 96.9621 144.155 96.9206 145.54V265.93C96.9206 268.26 98.5606 269.6 100.901 268.24Z" fill="black"/>
<path d="M145.59 170L143.86 169C143.198 168.621 142.448 168.422 141.685 168.422C140.922 168.422 140.172 168.621 139.51 169L128.94 175.1V160.66L148.51 149.37C149.426 148.829 150.185 148.059 150.711 147.134C151.238 146.21 151.513 145.164 151.51 144.1V136C151.513 134.936 151.238 133.89 150.711 132.966C150.185 132.041 149.426 131.271 148.51 130.73C147.585 130.195 146.534 129.913 145.465 129.913C144.396 129.913 143.346 130.195 142.42 130.73L115.28 146.4C113.673 147.326 112.339 148.66 111.412 150.267C110.485 151.873 109.998 153.695 110 155.55V230.74C109.995 231.805 110.27 232.854 110.796 233.78C111.323 234.706 112.082 235.479 113 236.02C113.926 236.554 114.976 236.834 116.045 236.834C117.114 236.834 118.164 236.554 119.09 236.02L125.86 232.12C126.778 231.579 127.537 230.806 128.064 229.88C128.59 228.954 128.865 227.905 128.86 226.84V197.34L145.52 187.72C146.18 187.337 146.728 186.787 147.109 186.125C147.49 185.463 147.69 184.713 147.69 183.95V173.79C147.704 173.03 147.517 172.279 147.148 171.613C146.78 170.948 146.242 170.392 145.59 170Z" fill="#E0E0E0"/>
<path opacity="0.1" d="M119.71 235.66L119.13 236C118.204 236.532 117.154 236.812 116.086 236.812C115.018 236.811 113.969 236.53 113.043 235.996C112.118 235.462 111.349 234.695 110.813 233.771C110.277 232.847 109.993 231.798 109.99 230.73V155.54C109.993 153.794 110.429 152.076 111.26 150.54L117.35 154.05C116.516 155.584 116.079 157.303 116.08 159.05V233.54C116.082 233.965 116.194 234.381 116.407 234.749C116.619 235.117 116.923 235.423 117.29 235.637C117.656 235.851 118.072 235.966 118.497 235.97C118.921 235.974 119.34 235.867 119.71 235.66Z" fill="black"/>
<path d="M128.941 160.66V182.14L145.571 172.55C145.793 172.419 146.047 172.35 146.305 172.349C146.563 172.348 146.817 172.415 147.041 172.544C147.265 172.673 147.45 172.859 147.578 173.083C147.706 173.308 147.773 173.562 147.771 173.82V184C147.77 184.759 147.571 185.505 147.192 186.163C146.813 186.821 146.268 187.369 145.611 187.75L128.941 197.37V226.86C128.945 227.923 128.67 228.968 128.144 229.891C127.617 230.814 126.858 231.583 125.941 232.12L119.781 235.68C119.411 235.895 118.991 236.008 118.563 236.008C118.135 236.009 117.715 235.896 117.345 235.682C116.974 235.468 116.667 235.16 116.454 234.789C116.241 234.418 116.129 233.998 116.131 233.57V159.05C116.131 157.196 116.619 155.374 117.546 153.768C118.473 152.162 119.806 150.828 121.411 149.9L148.291 134.38C148.626 134.187 149.005 134.085 149.392 134.085C149.779 134.085 150.158 134.188 150.493 134.381C150.828 134.575 151.105 134.853 151.298 135.188C151.491 135.523 151.592 135.903 151.591 136.29V144.12C151.594 145.18 151.318 146.221 150.791 147.141C150.265 148.061 149.506 148.826 148.591 149.36L128.941 160.66Z" fill="#FAFAFA"/>
<path d="M186.999 115.24C186.691 114.196 186.15 113.236 185.417 112.431C184.684 111.626 183.779 110.998 182.768 110.594C181.757 110.189 180.668 110.019 179.582 110.097C178.497 110.174 177.442 110.497 176.499 111.04L169.769 114.93C168.902 115.43 168.149 116.105 167.559 116.913C166.968 117.72 166.553 118.642 166.339 119.62L146.269 211C146.112 211.77 146.2 212.57 146.521 213.288C146.842 214.005 147.38 214.604 148.059 215L149.899 216.06C150.469 216.389 151.116 216.562 151.774 216.562C152.433 216.562 153.079 216.389 153.649 216.06L161.759 211.38C162.888 210.689 163.807 209.704 164.419 208.53C165.103 207.345 165.606 206.064 165.909 204.73L169.169 188.07L185.569 178.6L187.269 185.37C187.51 186.253 188.06 187.02 188.819 187.53C189.499 187.93 194.229 190.64 194.909 191.05C195.348 191.238 195.83 191.304 196.304 191.241C196.777 191.177 197.225 190.987 197.599 190.69L207.499 184.97L186.999 115.24ZM173.669 165.07L177.179 147L177.389 146L181.109 160.77L173.669 165.07Z" fill="#E0E0E0"/>
<path opacity="0.1" d="M194.83 191C193.94 190.47 189.48 187.92 188.83 187.53C188.071 187.02 187.521 186.253 187.28 185.37L185.58 178.6L190.12 175.98L193.37 188.88C193.61 189.728 194.123 190.474 194.83 191Z" fill="black"/>
<path opacity="0.1" d="M187.201 164.28L181.111 160.76L177.391 146C177.391 146 177.391 146 177.391 145.94C177.711 144.5 178.031 142.86 178.391 141.04C178.821 138.77 179.221 136.35 179.601 133.76C180.034 135.84 180.464 137.757 180.891 139.51C181.321 141.26 181.721 142.76 182.101 144.02L187.201 164.28Z" fill="black"/>
<path opacity="0.1" d="M152.469 214C152.415 214.24 152.424 214.49 152.495 214.725C152.567 214.961 152.698 215.174 152.877 215.343C153.055 215.513 153.275 215.633 153.514 215.692C153.752 215.751 154.002 215.747 154.239 215.68V215.76L153.669 216.08C153.099 216.409 152.453 216.582 151.794 216.582C151.136 216.582 150.489 216.409 149.919 216.08L148.059 215C147.38 214.604 146.842 214.005 146.521 213.288C146.2 212.57 146.112 211.77 146.269 211L166.329 119.66C166.513 118.815 166.852 118.011 167.329 117.29L173.419 120.81C172.937 121.525 172.597 122.326 172.419 123.17L152.469 214Z" fill="black"/>
<path d="M207.51 185L197.6 190.72C196.49 191.36 195.6 191.48 194.92 191.08C194.162 190.568 193.612 189.802 193.37 188.92L190.12 176L169.12 188.09L165.87 204.75C165.556 206.086 165.051 207.369 164.37 208.56C163.761 209.733 162.841 210.716 161.71 211.4L154.54 215.55C154.299 215.687 154.023 215.751 153.746 215.735C153.469 215.72 153.203 215.624 152.979 215.46C152.755 215.297 152.583 215.072 152.484 214.813C152.385 214.554 152.362 214.271 152.42 214L172.37 123.14C172.584 122.164 173 121.244 173.591 120.438C174.182 119.632 174.934 118.959 175.8 118.46L182.27 114.72C182.73 114.455 183.244 114.298 183.774 114.26C184.303 114.222 184.834 114.305 185.327 114.503C185.82 114.7 186.262 115.006 186.619 115.399C186.976 115.792 187.24 116.261 187.39 116.77L207.51 185ZM187.2 164.3L182.1 144C181.72 142.75 181.32 141.24 180.89 139.49C180.46 137.74 180.03 135.82 179.6 133.74C179.23 136.33 178.82 138.74 178.4 141.02C177.98 143.3 177.56 145.26 177.18 146.96L172.12 172.96L187.2 164.3Z" fill="#FAFAFA"/>
<path d="M254.91 150C256.656 146.998 258.19 143.877 259.5 140.66C260.853 137.344 261.988 133.943 262.9 130.48C263.82 126.98 264.521 123.427 265 119.84C265.491 116.217 265.738 112.566 265.74 108.91C265.847 103.535 265.159 98.1741 263.7 93C262.659 89.1118 260.666 85.5443 257.9 82.62C257.029 81.7856 256.054 81.0664 255 80.48L249 77C247.1 75.8989 244.963 75.2712 242.77 75.17C239.25 74.97 235.35 76.1067 231.07 78.58C226.591 81.2104 222.621 84.6247 219.35 88.66C215.743 93.0387 212.705 97.8571 210.31 103C205.156 114.092 202.467 126.169 202.43 138.4C202.326 143.783 203.021 149.151 204.49 154.33C205.528 158.23 207.529 161.806 210.31 164.73C211.177 165.59 212.156 166.33 213.22 166.93C214.22 167.49 218.17 169.79 219.15 170.36C221.074 171.473 223.239 172.101 225.46 172.19C228.98 172.363 232.887 171.213 237.18 168.74C239.007 167.686 240.742 166.481 242.37 165.14L244.85 167.99C245.188 168.337 245.572 168.636 245.99 168.88C246.69 169.29 251.67 172.15 252.05 172.38C252.718 172.791 253.498 172.979 254.28 172.92C255.728 172.747 257.119 172.252 258.35 171.47L268.86 165.41L254.91 150ZM245.53 124.9C244.893 128.428 243.87 131.875 242.48 135.18C241.261 138.108 239.628 140.846 237.63 143.31C235.805 145.558 233.59 147.459 231.09 148.92C229.258 150.107 227.149 150.796 224.97 150.92C223.874 149.144 223.093 147.192 222.66 145.15C221.891 141.617 221.535 138.006 221.6 134.39C221.581 130.386 221.936 126.388 222.66 122.45C223.281 118.924 224.287 115.477 225.66 112.17C226.89 109.229 228.534 106.478 230.54 104C232.377 101.722 234.613 99.7969 237.14 98.32C238.939 97.1696 241.007 96.5079 243.14 96.4C244.248 98.1915 245.039 100.16 245.48 102.22C246.264 105.759 246.637 109.376 246.59 113C246.602 117.004 246.247 121.001 245.53 124.94V124.9Z" fill="#E0E0E0"/>
<path opacity="0.1" d="M218.9 170.25C217.63 169.52 214.14 167.49 213.22 166.97C212.156 166.37 211.177 165.63 210.31 164.77C207.529 161.846 205.528 158.27 204.49 154.37C203.021 149.191 202.326 143.823 202.43 138.44C202.43 132.282 203.121 126.144 204.49 120.14C205.71 114.672 207.479 109.342 209.77 104.23L215.86 107.75C211.05 118.529 208.55 130.196 208.52 142C208.416 147.379 209.11 152.744 210.58 157.92C211.616 161.823 213.617 165.403 216.4 168.33C217.16 169.06 217.999 169.704 218.9 170.25Z" fill="black"/>
<path opacity="0.1" d="M248.571 99C247.983 98.2627 247.248 97.6554 246.413 97.2165C245.578 96.7776 244.662 96.5166 243.721 96.45C243.551 96.45 243.371 96.45 243.201 96.45C244.304 98.2394 245.092 100.204 245.531 102.26C246.295 105.787 246.651 109.391 246.591 113C246.606 117.024 246.252 121.041 245.531 125C244.894 128.528 243.871 131.975 242.481 135.28C241.262 138.208 239.629 140.946 237.631 143.41C235.806 145.658 233.591 147.559 231.091 149.02C229.259 150.207 227.15 150.896 224.971 151.02C225.189 151.371 225.433 151.705 225.701 152.02C226.287 152.763 227.027 153.371 227.868 153.804C228.71 154.237 229.635 154.485 230.581 154.53C232.928 154.518 235.222 153.823 237.181 152.53C239.681 151.069 241.896 149.168 243.721 146.92C245.714 144.453 247.347 141.716 248.571 138.79C249.962 135.482 250.985 132.032 251.621 128.5C252.342 124.541 252.697 120.524 252.681 116.5C252.739 112.901 252.383 109.308 251.621 105.79C251.144 103.321 250.1 100.996 248.571 99Z" fill="black"/>
<path opacity="0.1" d="M244.101 163.68C243.531 164.2 242.961 164.68 242.371 165.18L244.851 168.03C245.189 168.377 245.573 168.676 245.991 168.92C246.671 169.32 251.361 172.01 251.991 172.39C251.604 172.152 251.247 171.867 250.931 171.54L244.101 163.68Z" fill="black"/>
<path d="M268.86 165.45L258.35 171.52C257.12 172.293 255.733 172.785 254.29 172.96C253.661 172.991 253.033 172.88 252.453 172.634C251.873 172.388 251.356 172.014 250.94 171.54L244.1 163.68C241.986 165.626 239.665 167.336 237.18 168.78C232.887 171.253 228.98 172.403 225.46 172.23C222.052 172.105 218.816 170.698 216.4 168.29C213.621 165.361 211.62 161.782 210.58 157.88C209.119 152.716 208.425 147.366 208.52 142C208.558 129.769 211.246 117.692 216.4 106.6C218.799 101.446 221.844 96.6169 225.46 92.23C228.734 88.197 232.703 84.783 237.18 82.15C241.46 79.67 245.36 78.5334 248.88 78.74C252.275 78.9021 255.485 80.3291 257.88 82.74C260.652 85.6641 262.646 89.2364 263.68 93.13C265.148 98.2856 265.842 103.631 265.74 108.99C265.742 112.646 265.498 116.297 265.01 119.92C264.522 123.523 263.814 127.093 262.89 130.61C261.975 134.07 260.836 137.468 259.48 140.78C258.175 143.999 256.641 147.12 254.89 150.12L268.86 165.45ZM221.6 134.45C221.536 138.069 221.891 141.683 222.66 145.22C223.132 147.676 224.158 149.991 225.66 151.99C226.251 152.729 226.991 153.334 227.832 153.767C228.673 154.199 229.596 154.449 230.54 154.5C232.888 154.487 235.181 153.792 237.14 152.5C239.64 151.039 241.856 149.138 243.68 146.89C245.677 144.424 247.313 141.686 248.54 138.76C249.915 135.45 250.921 132 251.54 128.47C252.267 124.512 252.622 120.494 252.6 116.47C252.663 112.871 252.308 109.277 251.54 105.76C251.072 103.304 250.045 100.987 248.54 98.99C247.95 98.2524 247.214 97.6451 246.377 97.2062C245.541 96.7673 244.623 96.5065 243.68 96.44C241.359 96.421 239.083 97.089 237.14 98.36C234.612 99.8301 232.375 101.752 230.54 104.03C228.538 106.51 226.895 109.261 225.66 112.2C224.292 115.508 223.286 118.955 222.66 122.48C221.938 126.415 221.583 130.409 221.6 134.41V134.45Z" fill="#FAFAFA"/>
</svg>
