<svg width="500" height="500" viewBox="0 0 500 500" fill="none" xmlns="http://www.w3.org/2000/svg">
<path d="M54.9998 301.93L63.6498 296.33C63.6498 296.33 67.8498 274.02 64.7298 254.33C60.3498 226.55 41.4698 217 34.6098 219.74C27.7498 222.48 26.1298 230.74 38.5198 246.74C45.8298 256.2 55.2298 276.19 54.9998 301.93Z" fill="#FF8500"/>
<g opacity="0.3">
<path d="M54.9998 301.93L63.6498 296.33C63.6498 296.33 67.8498 274.02 64.7298 254.33C60.3498 226.55 41.4698 217 34.6098 219.74C27.7498 222.48 26.1298 230.74 38.5198 246.74C45.8298 256.2 55.2298 276.19 54.9998 301.93Z" fill="white"/>
</g>
<path d="M58.1502 290.92H58.0602C57.8982 290.895 57.7522 290.808 57.6532 290.678C57.5542 290.547 57.5101 290.383 57.5302 290.22C61.1202 264.22 50.6802 235.8 38.9402 224.33C38.8222 224.215 38.7548 224.057 38.753 223.892C38.7511 223.727 38.8149 223.568 38.9302 223.45C39.0456 223.332 39.2031 223.265 39.3682 223.263C39.5332 223.261 39.6922 223.325 39.8102 223.44C51.7602 235.11 62.4002 264 58.7602 290.38C58.7409 290.528 58.6685 290.665 58.5564 290.764C58.4442 290.864 58.3 290.919 58.1502 290.92Z" fill="white"/>
<path d="M33.2198 316C31.9198 316.74 28.2198 313.89 27.2198 313.2C25.4635 312.003 24.0447 310.374 23.0998 308.47C22.0455 306.298 21.6959 303.85 22.0998 301.47C22.3079 300.214 22.6019 298.975 22.9798 297.76C23.3298 296.56 23.6698 295.36 23.9798 294.16C24.4005 292.998 24.5775 291.763 24.4998 290.53C24.1898 288.07 21.9998 286.35 20.0198 284.86C17.8198 283.22 15.5398 281.05 15.5498 278.09C15.7075 275.791 16.6257 273.609 18.1598 271.89C19.5798 270.09 21.2598 268.51 22.5398 266.61C23.5475 265.292 24.0734 263.668 24.0298 262.01C23.8921 260.996 23.552 260.02 23.0298 259.14C22.0298 257.21 20.6098 255.44 19.8898 253.37C19.1698 251.3 19.2698 248.72 20.8898 247.24C22.2098 246.02 24.1898 245.85 25.9798 245.97C27.6624 246.176 29.2799 246.746 30.7198 247.64C35.4198 250.25 38.1098 255.82 43.0998 257.83C45.0666 258.449 47.0706 258.944 49.0998 259.31C51.0998 259.84 53.1498 260.87 54.0998 262.72C55.9298 266.38 52.5298 270.89 53.8198 274.77C54.9598 278.21 58.2998 279.52 60.1698 282.62C60.9342 283.988 61.2424 285.564 61.0498 287.12C60.8866 289.748 60.2426 292.324 59.1498 294.72C57.916 297.206 56.5301 299.614 54.9998 301.93L33.2198 316Z" fill="#FF8500"/>
<g opacity="0.65">
<path d="M33.2198 316C31.9198 316.74 28.2198 313.89 27.2198 313.2C25.4635 312.003 24.0447 310.374 23.0998 308.47C22.0455 306.298 21.6959 303.85 22.0998 301.47C22.3079 300.214 22.6019 298.975 22.9798 297.76C23.3298 296.56 23.6698 295.36 23.9798 294.16C24.4005 292.998 24.5775 291.763 24.4998 290.53C24.1898 288.07 21.9998 286.35 20.0198 284.86C17.8198 283.22 15.5398 281.05 15.5498 278.09C15.7075 275.791 16.6257 273.609 18.1598 271.89C19.5798 270.09 21.2598 268.51 22.5398 266.61C23.5475 265.292 24.0734 263.668 24.0298 262.01C23.8921 260.996 23.552 260.02 23.0298 259.14C22.0298 257.21 20.6098 255.44 19.8898 253.37C19.1698 251.3 19.2698 248.72 20.8898 247.24C22.2098 246.02 24.1898 245.85 25.9798 245.97C27.6624 246.176 29.2799 246.746 30.7198 247.64C35.4198 250.25 38.1098 255.82 43.0998 257.83C45.0666 258.449 47.0706 258.944 49.0998 259.31C51.0998 259.84 53.1498 260.87 54.0998 262.72C55.9298 266.38 52.5298 270.89 53.8198 274.77C54.9598 278.21 58.2998 279.52 60.1698 282.62C60.9342 283.988 61.2424 285.564 61.0498 287.12C60.8866 289.748 60.2426 292.324 59.1498 294.72C57.916 297.206 56.5301 299.614 54.9998 301.93L33.2198 316Z" fill="white"/>
</g>
<path d="M45.7799 308.64C45.7028 308.637 45.627 308.62 45.557 308.587C45.4869 308.555 45.424 308.509 45.3718 308.452C45.3197 308.396 45.2794 308.329 45.2533 308.257C45.2272 308.184 45.2158 308.107 45.2199 308.03C46.2199 284.79 35.2199 259.12 27.2199 251.67C27.1225 251.56 27.0696 251.418 27.0713 251.271C27.0731 251.125 27.1294 250.984 27.2293 250.877C27.3292 250.769 27.4655 250.703 27.6117 250.691C27.7579 250.678 27.9034 250.721 28.0199 250.81C36.1399 258.42 47.3199 284.51 46.3399 308.08C46.3326 308.226 46.2713 308.364 46.1678 308.468C46.0643 308.571 45.926 308.633 45.7799 308.64Z" fill="white"/>
<path d="M42.0002 280.23H41.8302C36.3358 278.709 30.693 277.787 25.0002 277.48C24.9232 277.477 24.8474 277.46 24.7773 277.427C24.7073 277.395 24.6443 277.349 24.5922 277.293C24.5401 277.236 24.4998 277.169 24.4737 277.097C24.4476 277.024 24.4362 276.947 24.4402 276.87C24.4414 276.793 24.4584 276.716 24.4901 276.645C24.5218 276.575 24.5676 276.511 24.6247 276.459C24.6818 276.406 24.749 276.366 24.8222 276.34C24.8953 276.315 24.9729 276.305 25.0502 276.31C30.8566 276.612 36.6133 277.541 42.2202 279.08C42.3669 279.13 42.4885 279.235 42.5593 279.373C42.6302 279.511 42.6448 279.671 42.6002 279.82C42.5603 279.946 42.4796 280.054 42.3709 280.128C42.2621 280.203 42.1317 280.238 42.0002 280.23Z" fill="white"/>
<path d="M253.68 485.02C381.253 485.02 484.67 425.312 484.67 351.66C484.67 278.007 381.253 218.3 253.68 218.3C126.108 218.3 22.6904 278.007 22.6904 351.66C22.6904 425.312 126.108 485.02 253.68 485.02Z" fill="#FAFAFA"/>
<path d="M130.92 294.81C179.85 266.57 259.17 266.57 308.09 294.81C349.56 318.75 355.86 355.3 327.03 383.09L434.68 444.45C441.24 448.24 441.24 454.38 434.68 458.17L425 463.76C418.44 467.55 408 467.25 401.64 463.1L307.64 397.36C258.64 425.36 179.72 425.25 130.96 397.1C82.0004 368.85 82.0004 323.06 130.92 294.81Z" fill="#E6E6E6"/>
<path d="M150.75 46.5001L142.27 51.4001C142.313 51.0282 142.336 50.6544 142.34 50.2801V47.8201C142.34 43.4401 139.27 41.6701 135.48 43.8201C133.847 44.8167 132.451 46.1579 131.39 47.7501C130.76 42.2501 126.45 40.2001 121.2 43.2201C115.53 46.5001 110.94 54.4601 110.94 61.0101V64.6801C110.901 66.1511 111.198 67.6117 111.81 68.9501L104.81 73.0201C103.694 73.7437 102.767 74.7223 102.105 75.8751C101.442 77.028 101.064 78.3219 101 79.6501C101 82.0801 102.7 83.0601 104.81 81.8501L150.81 55.2901C151.92 54.5704 152.844 53.598 153.506 52.4526C154.169 51.3072 154.55 50.0213 154.62 48.7001C154.56 46.2701 152.86 45.2901 150.75 46.5001Z" fill="#EBEBEB"/>
<path d="M38.9004 68.5599L43.6804 64.8699V54.3299C43.6804 45.9699 50.3504 36.2699 57.5804 32.0999C64.8204 27.9199 70.6904 31.3099 70.6904 39.6599V41.1899C72.2165 38.7178 74.2983 36.6359 76.7704 35.1099C81.9804 32.1099 86.2004 34.5399 86.2004 40.5499V41.2499L92.8704 37.3999C96.3004 35.3999 99.0804 37.0199 99.0804 40.9799C98.964 43.1353 98.341 45.2329 97.262 47.1025C96.1831 48.972 94.6785 50.5608 92.8704 51.7399L38.9004 82.8999C35.4704 84.8999 32.6904 83.2699 32.6904 79.3099C32.8068 77.1559 33.4299 75.0597 34.5089 73.1917C35.588 71.3238 37.0926 69.7369 38.9004 68.5599Z" fill="#EBEBEB"/>
<path d="M109.83 313.19V343.62C109.83 360.14 120.75 376.62 142.58 389.27C186.24 414.48 257.04 414.48 300.7 389.27C322.53 376.66 333.45 360.14 333.45 343.62V313.19C333.45 296.67 322.53 280.19 300.7 267.55C257.04 242.34 186.24 242.34 142.58 267.55C120.75 280.15 109.83 296.67 109.83 313.19ZM322.63 313.19C322.63 326.41 312.92 339.29 295.29 349.47C275.79 360.73 249.64 366.93 221.64 366.93C193.64 366.93 167.49 360.73 147.99 349.47C130.36 339.29 120.65 326.41 120.65 313.19C120.65 299.97 130.36 287.09 147.99 276.91C167.49 265.65 193.64 259.45 221.64 259.45C249.64 259.45 275.8 265.65 295.29 276.91C312.93 287.09 322.63 300 322.63 313.19Z" fill="#FF8500"/>
<path opacity="0.2" d="M109.83 313.19V343.62C109.83 360.14 120.75 376.62 142.58 389.27C186.24 414.48 257.04 414.48 300.7 389.27C322.53 376.66 333.45 360.14 333.45 343.62V313.19C333.45 296.67 322.53 280.19 300.7 267.55C257.04 242.34 186.24 242.34 142.58 267.55C120.75 280.15 109.83 296.67 109.83 313.19ZM322.63 313.19C322.63 326.41 312.92 339.29 295.29 349.47C275.79 360.73 249.64 366.93 221.64 366.93C193.64 366.93 167.49 360.73 147.99 349.47C130.36 339.29 120.65 326.41 120.65 313.19C120.65 299.97 130.36 287.09 147.99 276.91C167.49 265.65 193.64 259.45 221.64 259.45C249.64 259.45 275.8 265.65 295.29 276.91C312.93 287.09 322.63 300 322.63 313.19Z" fill="white"/>
<path opacity="0.6" d="M333.34 346.46C331.6 356.93 326.99 364.81 308.42 379.3C282.17 399.8 215.7 408.17 177.12 395.44C140.73 383.44 129.12 359.95 129.12 343.84L129.22 334.37C123.6 327.68 120.64 320.49 120.64 313.19C120.64 305.71 123.75 298.34 129.64 291.51L129.77 278.17H127.7C115.79 288.8 109.83 300.99 109.83 313.17V343.6C109.83 360.12 120.75 376.6 142.58 389.25C186.24 414.46 257.04 414.46 300.7 389.25C321.28 377.39 332.16 362 333.34 346.46Z" fill="#FF8500"/>
<path d="M300.711 267.55C257.041 242.34 186.251 242.34 142.591 267.55C98.9305 292.76 98.9205 333.63 142.591 358.84C186.261 384.05 257.041 384.05 300.711 358.84C344.381 333.63 344.371 292.76 300.711 267.55ZM295.301 349.47C275.801 360.73 249.641 366.93 221.651 366.93C193.661 366.93 167.501 360.73 147.991 349.47C130.361 339.29 120.651 326.41 120.651 313.19C120.651 299.97 130.361 287.09 147.991 276.91C167.491 265.65 193.651 259.45 221.651 259.45C249.651 259.45 275.801 265.65 295.301 276.91C312.931 287.09 322.641 299.98 322.641 313.19C322.641 326.4 312.931 339.29 295.301 349.47Z" fill="#FF8500"/>
<path opacity="0.5" d="M300.711 267.55C257.041 242.34 186.251 242.34 142.591 267.55C98.9305 292.76 98.9205 333.63 142.591 358.84C186.261 384.05 257.041 384.05 300.711 358.84C344.381 333.63 344.371 292.76 300.711 267.55ZM295.301 349.47C275.801 360.73 249.641 366.93 221.651 366.93C193.661 366.93 167.501 360.73 147.991 349.47C130.361 339.29 120.651 326.41 120.651 313.19C120.651 299.97 130.361 287.09 147.991 276.91C167.491 265.65 193.651 259.45 221.651 259.45C249.651 259.45 275.801 265.65 295.301 276.91C312.931 287.09 322.641 299.98 322.641 313.19C322.641 326.4 312.931 339.29 295.301 349.47Z" fill="white"/>
<path d="M322.65 313.19C322.586 318.564 321.077 323.821 318.28 328.41C313.85 320.74 306.04 313.54 295.28 307.35C275.8 296.08 249.63 289.88 221.63 289.88C193.63 289.88 167.48 296.08 147.99 307.35C137.24 313.54 129.44 320.74 124.99 328.41C122.216 323.813 120.718 318.559 120.65 313.19C120.65 299.98 130.36 287.09 148 276.9C167.49 265.66 193.65 259.45 221.64 259.45C249.63 259.45 275.81 265.66 295.29 276.9C312.94 287.09 322.65 300 322.65 313.19Z" fill="#FF8500"/>
<path opacity="0.3" d="M322.65 313.19C322.586 318.564 321.077 323.821 318.28 328.41C313.85 320.74 306.04 313.54 295.28 307.35C275.8 296.08 249.63 289.88 221.63 289.88C193.63 289.88 167.48 296.08 147.99 307.35C137.24 313.54 129.44 320.74 124.99 328.41C122.216 323.813 120.718 318.559 120.65 313.19C120.65 299.98 130.36 287.09 148 276.9C167.49 265.66 193.65 259.45 221.64 259.45C249.63 259.45 275.81 265.66 295.29 276.9C312.94 287.09 322.65 300 322.65 313.19Z" fill="white"/>
<path opacity="0.6" d="M148 276.9C130.36 287.09 120.65 299.98 120.65 313.19C120.721 318.56 122.223 323.814 125 328.41C129.46 320.74 137.26 313.54 148 307.35C152.542 304.752 157.26 302.477 162.12 300.54C157.86 302.19 144.78 306.4 149.55 293.93C155.22 279.12 182.89 263.08 203.22 260.42C182.31 262.49 163.14 268.17 148 276.9Z" fill="#FF8500"/>
<path opacity="0.4" d="M295.3 290.69C275.8 279.43 249.64 273.23 221.65 273.23C193.66 273.23 167.49 279.43 147.99 290.69C133.45 299.09 124.31 309.33 121.55 320.08C124.31 330.83 133.45 341.08 147.99 349.47C167.5 360.73 193.65 366.93 221.65 366.93C249.65 366.93 275.8 360.73 295.3 349.47C309.85 341.07 318.99 330.83 321.74 320.08C319 309.33 309.85 299.09 295.3 290.69Z" fill="white"/>
<path d="M140.521 327.06C146.771 331.96 153.861 335.06 161.09 337.52C168.34 339.921 175.766 341.753 183.301 343C198.356 345.445 213.625 346.316 228.861 345.6C236.471 345.26 244.091 344.55 251.661 343.53C259.207 342.516 266.684 341.044 274.05 339.12C281.382 337.286 288.473 334.601 295.18 331.12C296.836 330.238 298.439 329.259 299.981 328.19C301.528 327.134 302.996 325.964 304.37 324.69C305.757 323.41 306.995 321.977 308.061 320.42C309.163 318.82 310.004 317.055 310.55 315.19C310.583 317.234 310.244 319.267 309.55 321.19C308.816 323.123 307.856 324.962 306.691 326.67C305.538 328.39 304.225 329.997 302.77 331.47C301.33 332.949 299.797 334.335 298.18 335.62C291.664 340.587 284.441 344.551 276.751 347.38C269.168 350.237 261.348 352.415 253.381 353.89C245.455 355.39 237.436 356.342 229.381 356.74C213.211 357.585 197.01 355.86 181.381 351.63C173.562 349.488 166.011 346.468 158.87 342.63C155.315 340.681 151.935 338.425 148.771 335.89C147.981 335.26 147.24 334.57 146.48 333.89C145.72 333.21 145.001 332.52 144.311 331.79C142.918 330.322 141.65 328.739 140.521 327.06Z" fill="white"/>
<path d="M297.38 378.21C297.514 375.491 298.289 372.842 299.641 370.478C300.993 368.115 302.884 366.104 305.16 364.61C307.3 363.36 309.25 363.23 310.67 364.03L335.59 378.28C337 379.09 337.88 380.84 337.89 383.28C337.753 385.999 336.977 388.647 335.626 391.01C334.274 393.373 332.384 395.384 330.11 396.88C327.95 398.14 325.99 398.27 324.57 397.45L299.66 383.21C298.28 382.47 297.39 380.72 297.38 378.21Z" fill="#37474F"/>
<path d="M299.71 383.28C298.28 382.47 297.39 380.72 297.38 378.21C297.416 376.186 297.868 374.191 298.71 372.35L334.52 392.87C333.355 394.509 331.872 395.896 330.16 396.95C328 398.21 326.04 398.34 324.62 397.52L299.71 383.28Z" fill="#263238"/>
<path d="M420.44 418.81L341.14 378.4L341.04 378.34C339.2 377.34 336.7 377.52 333.95 379.12C328.33 382.4 323.8 390.32 323.83 396.82C323.83 400.08 325 402.36 326.83 403.42L401.36 451.42C403.505 452.777 405.9 453.689 408.405 454.1C410.909 454.512 413.471 454.414 415.936 453.814C418.402 453.215 420.722 452.124 422.758 450.608C424.793 449.092 426.502 447.182 427.783 444.991C429.065 442.8 429.891 440.374 430.215 437.857C430.538 435.34 430.351 432.783 429.664 430.34C428.978 427.896 427.807 425.616 426.22 423.635C424.634 421.655 422.665 420.013 420.43 418.81H420.44Z" fill="#455A64"/>
<path d="M326.841 403.44L401.371 451.44C404.141 453.18 407.317 454.169 410.585 454.312C413.853 454.455 417.103 453.746 420.015 452.255C422.927 450.763 425.401 448.541 427.195 445.806C428.99 443.07 430.043 439.915 430.251 436.65C428.821 442.86 418.561 448.14 405.841 441.03C393.121 433.92 346.001 404.13 324.591 391.8C324.088 393.42 323.825 395.104 323.811 396.8C323.821 400.1 325.001 402.38 326.841 403.44Z" fill="#37474F"/>
<path d="M326.84 403.44C324.98 402.38 323.84 400.1 323.84 396.84C323.84 390.34 328.34 382.42 333.96 379.14C336.71 377.54 339.21 377.37 341.05 378.36L348.05 381.92C346.16 380.92 343.61 381.08 340.78 382.72C335.02 386.08 330.37 394.21 330.4 400.88C330.4 404.22 331.55 406.61 333.45 407.69" fill="#FF8500"/>
<path opacity="0.2" d="M333.44 407.69C331.54 406.61 330.44 404.22 330.39 400.88C330.401 399.113 330.674 397.357 331.2 395.67C328.81 394.25 326.58 392.95 324.59 391.8C324.338 392.636 324.141 393.488 324 394.35C323.94 394.77 323.89 395.19 323.85 395.61C323.85 396.03 323.8 396.44 323.85 396.84C323.85 400.1 325.02 402.38 326.85 403.44L333.44 407.69Z" fill="black"/>
<path d="M137.21 449.76L77.2096 419.75L53.3096 430.33L137.21 449.76Z" fill="#FF8500"/>
<g opacity="0.15">
<path d="M137.21 449.76L77.2096 419.75L53.3096 430.33L137.21 449.76Z" fill="white"/>
</g>
<path d="M137.209 449.76L84.3594 414.43L93.8194 400.83L137.209 449.76Z" fill="#FF8500"/>
<g opacity="0.15">
<path d="M137.209 449.76L84.3594 414.43L93.8194 400.83L137.209 449.76Z" fill="white"/>
</g>
<path d="M84.3594 414.43L85.3494 423.82L137.209 449.76L84.3594 414.43Z" fill="#FF8500"/>
<g opacity="0.2">
<path d="M84.3594 414.43L85.3494 423.82L137.209 449.76L84.3594 414.43Z" fill="black"/>
</g>
<path d="M75.7999 412.63C75.9452 412.627 76.0841 412.57 76.1899 412.47C76.3124 412.349 76.3861 412.188 76.3972 412.016C76.4083 411.845 76.3559 411.675 76.2499 411.54L75.0999 410C75.0533 409.935 74.9933 409.881 74.924 409.841C74.8547 409.801 74.7777 409.777 74.6981 409.769C74.6185 409.762 74.5383 409.771 74.4627 409.797C74.3871 409.823 74.318 409.865 74.2599 409.92C74.138 410.04 74.0637 410.201 74.0508 410.372C74.038 410.543 74.0874 410.713 74.1899 410.85C74.5699 411.36 74.9599 411.85 75.3499 412.36C75.399 412.437 75.4652 412.501 75.5433 412.548C75.6213 412.595 75.7092 412.623 75.7999 412.63Z" fill="#455A64"/>
<path d="M70.5292 405.81C69.8159 404.77 69.1259 403.72 68.4592 402.66C68.369 402.514 68.3345 402.341 68.3621 402.172C68.3897 402.003 68.4775 401.85 68.6092 401.74C68.6715 401.691 68.7436 401.656 68.8207 401.637C68.8979 401.618 68.9781 401.616 69.0561 401.631C69.134 401.647 69.2077 401.679 69.2721 401.725C69.3365 401.771 69.3901 401.831 69.4292 401.9C70.0992 402.95 70.7792 403.99 71.4292 405.02C71.5272 405.161 71.5691 405.333 71.547 405.503C71.5248 405.673 71.44 405.829 71.3092 405.94C71.2122 406.024 71.0878 406.071 70.9592 406.07C70.8728 406.061 70.7895 406.033 70.7152 405.988C70.6408 405.943 70.5774 405.882 70.5292 405.81ZM65.2392 397.22C64.6292 396.11 64.0292 394.98 63.4592 393.85C63.3809 393.698 63.3611 393.522 63.4034 393.356C63.4458 393.191 63.5475 393.046 63.6892 392.95C63.7581 392.908 63.8352 392.881 63.9155 392.871C63.9957 392.861 64.0771 392.869 64.1541 392.894C64.231 392.918 64.3017 392.96 64.3613 393.014C64.4209 393.069 64.4679 393.136 64.4992 393.21C65.0592 394.32 65.6492 395.43 66.2492 396.53C66.3344 396.679 66.3621 396.854 66.3271 397.021C66.2921 397.189 66.1968 397.338 66.0592 397.44C65.9659 397.497 65.8588 397.529 65.7492 397.53C65.6443 397.528 65.5418 397.499 65.4521 397.444C65.3625 397.39 65.289 397.312 65.2392 397.22ZM60.7792 388.06C60.2792 386.87 59.7792 385.67 59.3592 384.48C59.2979 384.322 59.2966 384.148 59.3556 383.989C59.4146 383.831 59.5297 383.699 59.6792 383.62C59.7537 383.589 59.834 383.573 59.9149 383.574C59.9958 383.575 60.0755 383.593 60.149 383.627C60.2224 383.661 60.288 383.71 60.3414 383.771C60.3949 383.832 60.435 383.903 60.4592 383.98C60.8892 385.15 61.3592 386.33 61.8592 387.5C61.9265 387.657 61.9341 387.833 61.8807 387.995C61.8273 388.157 61.7165 388.294 61.5692 388.38C61.4916 388.419 61.4061 388.439 61.3192 388.44C61.2019 388.437 61.0882 388.399 60.9923 388.331C60.8963 388.264 60.8222 388.169 60.7792 388.06ZM57.3192 378.38C56.9592 377.13 56.6192 375.86 56.3192 374.63C56.2715 374.467 56.2885 374.292 56.3667 374.141C56.445 373.99 56.5784 373.875 56.7392 373.82C56.8175 373.799 56.8992 373.795 56.9791 373.807C57.0591 373.82 57.1357 373.848 57.2042 373.891C57.2727 373.935 57.3315 373.991 57.3771 374.058C57.4227 374.125 57.4541 374.201 57.4692 374.28C57.7592 375.5 58.0892 376.74 58.4692 377.97C58.5201 378.131 58.5094 378.305 58.4392 378.458C58.369 378.612 58.2443 378.734 58.0892 378.8H57.9092C57.7789 378.802 57.6513 378.763 57.5452 378.687C57.439 378.612 57.3598 378.504 57.3192 378.38ZM54.9992 368.27C54.7992 367 54.6192 365.7 54.4692 364.41C54.44 364.245 54.4771 364.074 54.5725 363.936C54.6679 363.797 54.814 363.702 54.9792 363.67C55.1432 363.659 55.305 363.712 55.4302 363.819C55.5554 363.925 55.634 364.076 55.6492 364.24C55.7892 365.51 55.9692 366.79 56.1692 368.04C56.2029 368.203 56.173 368.372 56.0855 368.514C55.9981 368.655 55.8599 368.758 55.6992 368.8H55.5892C55.4451 368.793 55.3078 368.736 55.2004 368.64C55.093 368.543 55.022 368.413 54.9992 368.27ZM53.9992 357.91C53.9992 356.91 53.9392 355.91 53.9392 354.84V354C53.9352 353.919 53.9473 353.837 53.9748 353.76C54.0022 353.684 54.0446 353.613 54.0994 353.553C54.1542 353.492 54.2204 353.443 54.2941 353.409C54.3679 353.374 54.4478 353.354 54.5292 353.35C54.6947 353.363 54.8484 353.44 54.9569 353.566C55.0655 353.691 55.1203 353.855 55.1092 354.02V354.84C55.1092 355.84 55.1092 356.84 55.1092 357.84C55.1232 358.007 55.0714 358.172 54.9649 358.301C54.8584 358.43 54.7056 358.512 54.5392 358.53C54.389 358.511 54.2512 358.437 54.1517 358.323C54.0522 358.208 53.998 358.062 53.9992 357.91ZM54.7892 348.22C54.6256 348.191 54.4794 348.1 54.3808 347.966C54.2822 347.832 54.2387 347.665 54.2592 347.5C54.3692 346.21 54.5092 344.9 54.6692 343.61C54.6753 343.528 54.698 343.449 54.7361 343.376C54.7741 343.304 54.8266 343.24 54.8903 343.188C54.954 343.137 55.0276 343.099 55.1065 343.077C55.1854 343.055 55.2681 343.049 55.3492 343.06C55.5126 343.094 55.6563 343.19 55.7496 343.328C55.843 343.467 55.8788 343.636 55.8492 343.8C55.6892 345.07 55.5492 346.36 55.4392 347.62C55.4321 347.775 55.368 347.922 55.2591 348.033C55.1502 348.144 55.0042 348.21 54.8492 348.22H54.7892ZM56.1892 338C56.0291 337.949 55.8944 337.839 55.8127 337.692C55.7309 337.546 55.7082 337.373 55.7492 337.21C56.0092 335.94 56.3092 334.67 56.6392 333.42C56.6542 333.341 56.6855 333.265 56.7313 333.199C56.777 333.132 56.8361 333.076 56.9048 333.034C56.9736 332.992 57.0503 332.964 57.1303 332.953C57.2103 332.942 57.2917 332.948 57.3692 332.97C57.5275 333.031 57.6574 333.149 57.7332 333.301C57.8091 333.452 57.8255 333.627 57.7792 333.79C57.4592 335.01 57.1592 336.27 56.8992 337.51C56.8784 337.648 56.8101 337.775 56.706 337.868C56.602 337.961 56.4687 338.015 56.3292 338.02L56.1892 338ZM58.8892 328.11C58.7371 328.036 58.6185 327.908 58.5573 327.75C58.4961 327.592 58.4968 327.417 58.5592 327.26C58.9892 326.06 59.4692 324.85 59.9692 323.67C59.9975 323.595 60.0409 323.527 60.0969 323.47C60.1528 323.412 60.22 323.367 60.2942 323.337C60.3684 323.307 60.448 323.293 60.5281 323.295C60.6081 323.297 60.6868 323.316 60.7592 323.35C60.9049 323.438 61.0144 323.575 61.0676 323.736C61.1208 323.898 61.1143 324.073 61.0492 324.23C60.5492 325.39 60.0492 326.57 59.6592 327.75C59.6217 327.867 59.5486 327.97 59.4499 328.043C59.3513 328.117 59.2322 328.158 59.1092 328.16C59.0328 328.163 58.957 328.146 58.8892 328.11ZM62.9992 318.82C62.8584 318.721 62.759 318.573 62.7203 318.405C62.6815 318.237 62.7061 318.061 62.7892 317.91C63.3992 316.8 64.0392 315.69 64.6892 314.62C64.7277 314.549 64.7809 314.487 64.8454 314.439C64.9099 314.391 64.9841 314.357 65.0629 314.34C65.1417 314.323 65.2233 314.323 65.3021 314.34C65.3808 314.357 65.4549 314.392 65.5192 314.44C65.6509 314.549 65.7393 314.702 65.7686 314.871C65.7979 315.039 65.7662 315.213 65.6792 315.36C65.0292 316.41 64.3992 317.5 63.8092 318.59C63.7617 318.685 63.6889 318.765 63.599 318.821C63.5091 318.878 63.4054 318.909 63.2992 318.91C63.1926 318.91 63.0884 318.879 62.9992 318.82ZM68.3092 310.33C68.188 310.211 68.1141 310.053 68.1012 309.883C68.0883 309.714 68.1374 309.546 68.2392 309.41C68.9892 308.41 69.7792 307.41 70.5692 306.47C70.6209 306.409 70.6852 306.36 70.7577 306.326C70.8303 306.293 70.9093 306.275 70.9892 306.275C71.0692 306.275 71.1482 306.293 71.2207 306.326C71.2933 306.36 71.3576 306.409 71.4092 306.47C71.5231 306.598 71.586 306.764 71.586 306.935C71.586 307.107 71.5231 307.272 71.4092 307.4C70.6292 308.33 69.8592 309.29 69.1192 310.28C69.067 310.354 68.9981 310.414 68.9181 310.456C68.8382 310.497 68.7494 310.519 68.6592 310.52C68.5829 310.519 68.5078 310.501 68.4389 310.468C68.3699 310.435 68.3087 310.388 68.2592 310.33H68.3092ZM74.7392 302.85C74.6254 302.722 74.5625 302.557 74.5625 302.385C74.5625 302.214 74.6254 302.048 74.7392 301.92C75.6192 301.05 76.5292 300.2 77.4392 299.4C77.4993 299.347 77.5701 299.307 77.6469 299.283C77.7237 299.259 77.8047 299.253 77.8844 299.263C77.9641 299.273 78.0406 299.301 78.1087 299.344C78.1768 299.386 78.235 299.443 78.2792 299.51C78.376 299.652 78.4192 299.823 78.4008 299.994C78.3825 300.164 78.3039 300.322 78.1792 300.44C77.2792 301.22 76.3892 302.05 75.5192 302.9C75.4167 303.006 75.2765 303.067 75.1292 303.07C75.0441 303.069 74.9604 303.048 74.8843 303.01C74.8081 302.972 74.7415 302.917 74.6892 302.85H74.7392ZM82.0992 296.52C82.0172 296.372 81.9902 296.199 82.0232 296.032C82.0561 295.866 82.1468 295.716 82.2792 295.61C83.2792 294.89 84.2792 294.22 85.2792 293.61C85.3477 293.569 85.424 293.544 85.5032 293.535C85.5823 293.526 85.6623 293.535 85.738 293.559C85.8137 293.584 85.8833 293.624 85.9422 293.678C86.001 293.731 86.0477 293.797 86.0792 293.87C86.1569 294.021 86.1764 294.195 86.134 294.359C86.0916 294.523 85.9902 294.666 85.8492 294.76C84.8492 295.36 83.8492 296.02 82.8492 296.76C82.7556 296.826 82.6437 296.861 82.5292 296.86C82.4271 296.848 82.3295 296.811 82.2455 296.752C82.1616 296.692 82.0941 296.613 82.0492 296.52H82.0992Z" fill="#455A64"/>
<path d="M90.8997 292.2H91.0797C91.608 292 92.1536 291.849 92.7097 291.75C92.8739 291.714 93.0176 291.616 93.1109 291.476C93.2041 291.336 93.2395 291.166 93.2097 291C93.2035 290.919 93.1811 290.84 93.1438 290.768C93.1065 290.695 93.0552 290.631 92.9927 290.579C92.9303 290.527 92.8581 290.488 92.7803 290.464C92.7025 290.44 92.6207 290.432 92.5397 290.44C91.9202 290.556 91.3115 290.723 90.7197 290.94C90.5614 291.003 90.4329 291.124 90.3605 291.278C90.288 291.432 90.277 291.608 90.3297 291.77C90.3675 291.893 90.4429 292 90.5452 292.077C90.6476 292.154 90.7716 292.197 90.8997 292.2Z" fill="#455A64"/>
<path d="M371.699 62.1498L310.199 43.2998L357.579 75.8498L371.699 62.1498Z" fill="#FF8500"/>
<path opacity="0.15" d="M371.699 62.1498L310.199 43.2998L357.579 75.8498L371.699 62.1498Z" fill="white"/>
<path d="M310.199 43.3L376.389 53.95L390.509 40.25L310.199 43.3Z" fill="#FF8500"/>
<path opacity="0.15" d="M310.199 43.3L376.389 53.95L390.509 40.25L310.199 43.3Z" fill="white"/>
<path d="M376.389 53.9498L376.449 70.3098L371.699 62.1498L310.199 43.2998L376.389 53.9498Z" fill="#FF8500"/>
<path opacity="0.2" d="M376.389 53.9498L376.449 70.3098L371.699 62.1498L310.199 43.2998L376.389 53.9498Z" fill="black"/>
<path d="M376.449 70.3099L366.989 66.7199L371.699 62.1499L376.449 70.3099Z" fill="#FF8500"/>
<path opacity="0.2" d="M371.699 62.1499L366.989 66.7199L368.499 67.2899L371.699 62.1499Z" fill="black"/>
<path d="M388.859 59.27C388.801 59.3127 388.753 59.3666 388.717 59.4285C388.681 59.4904 388.658 59.5589 388.649 59.63C388.628 59.8007 388.669 59.9732 388.764 60.1163C388.86 60.2593 389.003 60.3635 389.169 60.41L390.989 60.9C391.065 60.9241 391.146 60.9311 391.225 60.9207C391.305 60.9104 391.381 60.8828 391.448 60.8399C391.516 60.7971 391.573 60.74 391.617 60.6727C391.66 60.6053 391.688 60.5293 391.699 60.45C391.723 60.2817 391.685 60.1104 391.594 59.9672C391.502 59.8241 391.362 59.7186 391.199 59.67L389.359 59.18C389.274 59.1553 389.185 59.1506 389.098 59.1662C389.011 59.1819 388.93 59.2174 388.859 59.27Z" fill="#455A64"/>
<path d="M397.189 61.4998C398.379 61.8998 399.569 62.3198 400.739 62.7498C400.9 62.8106 401.033 62.9265 401.115 63.0768C401.198 63.2271 401.224 63.402 401.189 63.5698C401.168 63.6472 401.131 63.7192 401.08 63.781C401.029 63.8428 400.966 63.893 400.894 63.928C400.821 63.9631 400.743 63.9823 400.663 63.9843C400.583 63.9864 400.503 63.9712 400.429 63.9398C399.269 63.5098 398.089 63.0998 396.909 62.6998C396.749 62.645 396.613 62.5336 396.529 62.3864C396.444 62.2392 396.416 62.0663 396.449 61.8998C396.473 61.7715 396.544 61.657 396.649 61.5798C396.725 61.5224 396.815 61.485 396.909 61.471C397.003 61.457 397.1 61.4669 397.189 61.4998ZM406.599 65.1199C407.769 65.6399 408.919 66.1199 410.059 66.7299C410.214 66.8021 410.336 66.9288 410.402 67.0858C410.469 67.2427 410.475 67.4187 410.419 67.5798C410.389 67.6545 410.344 67.7219 410.286 67.7778C410.229 67.8337 410.16 67.8767 410.084 67.9041C410.009 67.9315 409.928 67.9426 409.848 67.9367C409.768 67.9308 409.69 67.908 409.619 67.8699C408.499 67.3199 407.359 66.7898 406.209 66.2898C406.054 66.2197 405.93 66.0963 405.858 65.9422C405.787 65.788 405.773 65.6134 405.819 65.4498C405.852 65.3419 405.919 65.2473 406.009 65.1798C406.093 65.1177 406.192 65.0793 406.296 65.0687C406.4 65.0582 406.505 65.0758 406.599 65.1199ZM415.699 69.7098C416.819 70.3498 417.919 71.0198 418.999 71.7098C419.143 71.7991 419.25 71.9374 419.299 72.0992C419.349 72.261 419.338 72.4353 419.269 72.5898C419.229 72.6606 419.175 72.7223 419.11 72.7708C419.045 72.8193 418.971 72.8537 418.891 72.8716C418.812 72.8895 418.73 72.8906 418.651 72.8748C418.571 72.859 418.496 72.8266 418.429 72.7798C417.369 72.1098 416.279 71.4598 415.179 70.7798C415.031 70.6971 414.918 70.5627 414.863 70.4022C414.808 70.2417 414.813 70.0664 414.879 69.9099C414.912 69.8265 414.968 69.7539 415.039 69.6998C415.138 69.6368 415.253 69.6042 415.371 69.6059C415.488 69.6077 415.602 69.6438 415.699 69.7098ZM424.319 75.3198C425.369 76.0898 426.399 76.8898 427.389 77.6898C427.523 77.7932 427.613 77.9434 427.641 78.1104C427.669 78.2773 427.633 78.4486 427.539 78.5898C427.49 78.6546 427.428 78.7082 427.356 78.7473C427.285 78.7864 427.206 78.81 427.125 78.8166C427.044 78.8232 426.962 78.8126 426.885 78.7856C426.809 78.7586 426.738 78.7158 426.679 78.6599C425.679 77.8699 424.679 77.0899 423.679 76.3299C423.539 76.2324 423.44 76.0857 423.403 75.9189C423.366 75.7522 423.393 75.5776 423.479 75.4298C423.508 75.3774 423.549 75.3328 423.599 75.2999C423.706 75.2278 423.833 75.191 423.962 75.1946C424.091 75.1982 424.216 75.242 424.319 75.3198ZM432.269 81.9998C433.209 82.8898 434.139 83.8098 435.039 84.7498C435.155 84.8709 435.22 85.0321 435.22 85.1998C435.22 85.3676 435.155 85.5288 435.039 85.6498C434.982 85.7079 434.913 85.754 434.838 85.7854C434.762 85.8169 434.681 85.833 434.599 85.833C434.517 85.833 434.436 85.8169 434.361 85.7854C434.285 85.754 434.217 85.7079 434.159 85.6498C433.279 84.7298 432.359 83.8198 431.439 82.9498C431.314 82.8381 431.236 82.6829 431.221 82.5157C431.206 82.3485 431.256 82.1819 431.359 82.0499L431.439 81.9698C431.557 81.8713 431.707 81.8198 431.86 81.8253C432.013 81.8309 432.159 81.8931 432.269 81.9998ZM439.359 89.6199C440.009 90.4099 440.639 91.2098 441.269 92.0298L441.769 92.6998C441.874 92.8277 441.924 92.9916 441.909 93.1562C441.894 93.3208 441.815 93.473 441.689 93.5798C441.621 93.6267 441.545 93.6595 441.464 93.6763C441.383 93.6932 441.299 93.6937 441.218 93.6779C441.137 93.662 441.06 93.6302 440.992 93.5841C440.923 93.5381 440.865 93.4789 440.819 93.4099L440.319 92.7498C439.709 91.9498 439.089 91.1598 438.449 90.3798C438.334 90.2605 438.269 90.1009 438.269 89.9348C438.269 89.7688 438.334 89.6092 438.449 89.4898C438.513 89.4324 438.589 89.389 438.67 89.3623C438.752 89.3355 438.838 89.3261 438.924 89.3346C439.01 89.343 439.092 89.3692 439.167 89.4114C439.242 89.4537 439.308 89.511 439.359 89.5798V89.6199ZM444.609 97.8198C444.756 97.7425 444.927 97.7242 445.087 97.7688C445.247 97.8134 445.384 97.9176 445.469 98.0598C446.159 99.1598 446.839 100.28 447.469 101.41C447.513 101.479 447.542 101.555 447.556 101.635C447.57 101.716 447.567 101.798 447.548 101.877C447.53 101.956 447.495 102.031 447.447 102.097C447.4 102.162 447.339 102.218 447.269 102.26C447.117 102.328 446.945 102.336 446.787 102.282C446.63 102.228 446.498 102.117 446.419 101.97C445.779 100.86 445.109 99.7498 444.419 98.6798C444.33 98.5528 444.293 98.3971 444.313 98.2435C444.333 98.0899 444.41 97.9494 444.529 97.8498L444.609 97.8198ZM449.679 106.82C449.839 106.762 450.014 106.768 450.17 106.834C450.326 106.901 450.451 107.025 450.519 107.18C451.069 108.35 451.609 109.54 452.099 110.73C452.134 110.803 452.153 110.883 452.156 110.964C452.16 111.045 452.146 111.125 452.117 111.201C452.088 111.277 452.044 111.346 451.988 111.404C451.932 111.462 451.864 111.508 451.789 111.54C451.626 111.586 451.451 111.57 451.3 111.494C451.148 111.418 451.03 111.288 450.969 111.13C450.489 109.96 449.969 108.79 449.419 107.65C449.35 107.526 449.328 107.382 449.355 107.242C449.383 107.103 449.458 106.978 449.569 106.89C449.595 106.836 449.633 106.788 449.679 106.75V106.82ZM453.529 116.32C453.696 116.288 453.868 116.32 454.012 116.409C454.156 116.498 454.262 116.637 454.309 116.8C454.689 118.02 455.049 119.27 455.359 120.51C455.383 120.587 455.391 120.668 455.381 120.748C455.371 120.828 455.345 120.905 455.303 120.974C455.262 121.043 455.206 121.102 455.14 121.148C455.074 121.194 454.998 121.225 454.919 121.24C454.752 121.262 454.583 121.22 454.444 121.124C454.305 121.028 454.207 120.884 454.169 120.72C453.859 119.5 453.509 118.27 453.169 117.08C453.127 116.965 453.122 116.839 453.154 116.721C453.186 116.603 453.254 116.498 453.349 116.42C453.394 116.349 453.456 116.291 453.529 116.25V116.32ZM455.929 126.17C456.1 126.166 456.267 126.224 456.398 126.335C456.529 126.446 456.615 126.6 456.639 126.77C456.839 128.02 456.999 129.29 457.129 130.55C457.139 130.628 457.132 130.708 457.109 130.783C457.086 130.859 457.047 130.929 456.995 130.988C456.944 131.048 456.88 131.096 456.808 131.129C456.736 131.162 456.658 131.179 456.579 131.18C456.408 131.178 456.243 131.112 456.118 130.996C455.992 130.88 455.914 130.721 455.899 130.55C455.769 129.32 455.619 128.08 455.419 126.85C455.401 126.746 455.411 126.64 455.448 126.541C455.485 126.443 455.547 126.356 455.629 126.29C455.706 126.196 455.811 126.129 455.929 126.1V126.17Z" fill="#455A64"/>
<path d="M466.88 285.83C464.2 284.23 460.42 284.45 456.22 286.83L380.06 330.83C371.93 335.52 365.33 346.68 365.33 355.75C365.33 360.18 366.91 363.28 369.47 364.75L377.64 369.46C380.31 370.98 384.04 370.74 388.18 368.35L464.35 324.35C472.48 319.66 479.07 308.5 479.07 299.43C479.07 295.03 477.51 291.92 474.97 290.43C473.58 289.67 468.22 286.63 466.88 285.83Z" fill="#E0E0E0"/>
<path d="M381.42 370C376.82 370 373.96 366.36 373.96 360.51C373.96 351.62 380.45 340.63 388.43 336.03L464.6 292.03C466.561 290.813 468.804 290.124 471.11 290.03C475.71 290.03 478.57 293.67 478.57 299.52C478.57 308.42 472.08 319.4 464.1 324.01L387.93 368.01C385.97 369.227 383.726 369.913 381.42 370Z" fill="#FAFAFA"/>
<path d="M471.11 290.49C475.4 290.49 478.11 293.94 478.11 299.49C478.11 308.23 471.73 319.02 463.89 323.49L387.72 367.49C385.836 368.666 383.679 369.334 381.46 369.43C380.51 369.462 379.565 369.276 378.699 368.886C377.832 368.496 377.066 367.912 376.46 367.18C375.039 365.23 374.333 362.85 374.46 360.44C374.46 351.71 380.84 340.92 388.68 336.44L464.85 292.44C466.734 291.264 468.891 290.596 471.11 290.5M471.11 289.5C468.714 289.591 466.383 290.308 464.35 291.58L388.18 335.58C380.05 340.28 373.46 351.43 373.46 360.5C373.46 366.85 376.69 370.5 381.46 370.5C383.855 370.407 386.184 369.694 388.22 368.43L464.39 324.43C472.52 319.74 479.11 308.58 479.11 299.51C479.11 293.16 475.88 289.51 471.11 289.51V289.5Z" fill="#EBEBEB"/>
<path d="M400.119 345.36C400.429 344.78 400.379 344.18 400.119 344.02L397.569 342.55C397.515 342.522 397.455 342.507 397.394 342.507C397.333 342.507 397.273 342.522 397.219 342.55L394.879 343.45L394.109 341.81C394.071 341.729 394.008 341.663 393.929 341.62L391.379 340.14C391.059 339.96 390.529 340.37 390.319 341.05L388.729 346.26C388.643 346.574 388.461 346.853 388.209 347.06L384.659 349.81C384.089 350.24 383.869 351.3 384.279 351.59L386.849 353.45C386.938 353.541 387.002 353.653 387.037 353.775C387.072 353.897 387.076 354.026 387.049 354.15L386.439 359.22C386.389 359.59 386.499 359.84 386.669 359.93L389.219 361.41C389.419 361.52 389.719 361.41 389.989 361.08L393.169 357.02C393.236 356.909 393.329 356.817 393.441 356.752C393.553 356.687 393.68 356.652 393.809 356.65L396.999 357C397.499 357.07 398.089 356.15 397.999 355.46L397.389 351.09C397.361 350.767 397.431 350.443 397.589 350.16L400.119 345.36Z" fill="#FF8500"/>
<path opacity="0.15" d="M400.09 344C400.035 343.975 399.975 343.962 399.915 343.962C399.854 343.962 399.795 343.975 399.74 344L396.18 345.36C396.133 345.383 396.083 345.396 396.031 345.398C395.98 345.4 395.928 345.391 395.88 345.373C395.832 345.354 395.789 345.325 395.752 345.288C395.716 345.252 395.688 345.208 395.67 345.16L394.85 343.42L397.19 342.53C397.244 342.502 397.304 342.488 397.365 342.488C397.425 342.488 397.485 342.502 397.54 342.53L400.09 344Z" fill="white"/>
<path opacity="0.15" d="M391.25 347.72C391.161 348.033 390.98 348.312 390.73 348.52L387.18 351.26C387.017 351.387 386.886 351.552 386.8 351.74L384.25 350.26C384.342 350.075 384.471 349.912 384.63 349.78L388.18 347.04C388.429 346.836 388.611 346.56 388.7 346.25L391.25 347.72Z" fill="white"/>
<path opacity="0.1" d="M393.92 341.61C393.6 341.4 393.06 341.81 392.84 342.51L391.25 347.72L388.7 346.24L390.29 341.03C390.5 340.35 391.03 339.94 391.35 340.12C391.42 340.12 393.58 341.42 393.91 341.6L393.92 341.61Z" fill="black"/>
<path opacity="0.25" d="M389.37 354.91L386.84 353.45L384.27 351.59C383.97 351.37 384.01 350.77 384.27 350.28L386.82 351.76C386.56 352.24 386.52 352.85 386.82 353.07L389.37 354.91Z" fill="black"/>
<path opacity="0.15" d="M389 360.68C389 361.05 389.06 361.3 389.25 361.4L386.69 359.92C386.589 359.835 386.515 359.723 386.476 359.597C386.437 359.471 386.435 359.337 386.47 359.21L387.08 354.14C387.105 354.02 387.102 353.897 387.071 353.779C387.04 353.66 386.981 353.551 386.9 353.46L389.43 354.92C389.512 355.009 389.571 355.116 389.602 355.233C389.633 355.35 389.636 355.472 389.61 355.59L389 360.68Z" fill="black"/>
<path d="M394.079 341.79L395.669 345.17C395.688 345.218 395.716 345.262 395.752 345.299C395.789 345.335 395.832 345.364 395.88 345.383C395.928 345.402 395.98 345.41 396.031 345.408C396.083 345.406 396.133 345.393 396.179 345.37L399.739 344.01C400.299 343.79 400.529 344.59 400.119 345.36L397.549 350.18C397.391 350.463 397.322 350.787 397.349 351.11L397.959 355.48C398.049 356.17 397.459 357.09 396.959 357.02L393.779 356.63C393.65 356.632 393.523 356.667 393.411 356.732C393.299 356.797 393.206 356.889 393.139 357L389.999 361.06C389.489 361.71 388.899 361.48 388.999 360.67L389.609 355.6C389.638 355.476 389.635 355.346 389.6 355.224C389.565 355.101 389.499 354.99 389.409 354.9L386.839 353.05C386.429 352.75 386.659 351.7 387.219 351.26L390.769 348.52C391.021 348.313 391.203 348.034 391.289 347.72L392.879 342.51C393.089 341.68 393.819 341.26 394.079 341.79Z" fill="#FF8500"/>
<path opacity="0.5" d="M394.079 341.79L395.669 345.17C395.688 345.218 395.716 345.262 395.752 345.299C395.789 345.335 395.832 345.364 395.88 345.383C395.928 345.402 395.98 345.41 396.031 345.408C396.083 345.406 396.133 345.393 396.179 345.37L399.739 344.01C400.299 343.79 400.529 344.59 400.119 345.36L397.549 350.18C397.391 350.463 397.322 350.787 397.349 351.11L397.959 355.48C398.049 356.17 397.459 357.09 396.959 357.02L393.779 356.63C393.65 356.632 393.523 356.667 393.411 356.732C393.299 356.797 393.206 356.889 393.139 357L389.999 361.06C389.489 361.71 388.899 361.48 388.999 360.67L389.609 355.6C389.638 355.476 389.635 355.346 389.6 355.224C389.565 355.101 389.499 354.99 389.409 354.9L386.839 353.05C386.429 352.75 386.659 351.7 387.219 351.26L390.769 348.52C391.021 348.313 391.203 348.034 391.289 347.72L392.879 342.51C393.089 341.68 393.819 341.26 394.079 341.79Z" fill="white"/>
<path d="M417.999 335.06C418.309 334.48 418.249 333.89 417.999 333.73L415.459 332.26C415.404 332.232 415.342 332.217 415.279 332.217C415.217 332.217 415.155 332.232 415.099 332.26L412.769 333.16L411.989 331.52C411.958 331.438 411.897 331.37 411.819 331.33L409.269 329.85C408.949 329.67 408.419 330.08 408.209 330.76L406.549 336C406.459 336.312 406.278 336.59 406.029 336.8L402.479 339.54C401.909 339.98 401.689 341.04 402.089 341.33L404.669 343.19C404.758 343.281 404.821 343.393 404.855 343.516C404.888 343.638 404.89 343.767 404.859 343.89L404.259 348.96C404.209 349.33 404.309 349.58 404.479 349.67L406.999 351.1C407.199 351.21 407.489 351.1 407.769 350.77L410.949 346.71C411.016 346.599 411.109 346.507 411.221 346.442C411.333 346.377 411.46 346.342 411.589 346.34L414.769 346.73C415.269 346.79 415.859 345.88 415.769 345.19L415.169 340.82C415.137 340.497 415.207 340.171 415.369 339.89L417.999 335.06Z" fill="#FF8500"/>
<path opacity="0.15" d="M417.94 333.72C417.885 333.695 417.825 333.682 417.765 333.682C417.705 333.682 417.645 333.695 417.59 333.72L414 335.08C413.953 335.103 413.902 335.116 413.849 335.118C413.797 335.12 413.745 335.112 413.696 335.093C413.647 335.074 413.603 335.046 413.566 335.009C413.529 334.972 413.499 334.928 413.48 334.88L412.67 333.14L415 332.25C415.056 332.222 415.118 332.208 415.18 332.208C415.242 332.208 415.304 332.222 415.36 332.25L417.94 333.72Z" fill="white"/>
<path opacity="0.15" d="M409.1 337.43C409.011 337.743 408.83 338.022 408.58 338.23L405 341C404.836 341.127 404.706 341.292 404.62 341.48L402.09 340C402.188 339.817 402.321 339.654 402.48 339.52L406.03 336.78C406.278 336.57 406.459 336.292 406.55 335.98L409.1 337.43Z" fill="white"/>
<path opacity="0.1" d="M411.77 331.32C411.45 331.11 410.91 331.52 410.69 332.22L409.1 337.43L406.55 336L408.14 330.79C408.35 330.11 408.88 329.7 409.2 329.88C409.27 329.88 411.43 331.18 411.75 331.35L411.77 331.32Z" fill="black"/>
<path opacity="0.25" d="M407.22 344.61L404.69 343.16L402.12 341.3C401.83 341.08 401.87 340.48 402.12 339.99L404.68 341.47C404.42 341.95 404.38 342.56 404.68 342.77L407.22 344.61Z" fill="black"/>
<path opacity="0.15" d="M406.809 350.38C406.759 350.76 406.869 351.01 407.049 351.11L404.5 349.63C404.33 349.53 404.229 349.29 404.279 348.92L404.89 343.85C404.913 343.73 404.908 343.607 404.877 343.489C404.846 343.372 404.789 343.262 404.709 343.17L407.239 344.62C407.321 344.709 407.38 344.816 407.412 344.933C407.443 345.049 407.446 345.172 407.42 345.29L406.809 350.38Z" fill="black"/>
<path d="M411.92 331.5L413.51 334.88C413.529 334.928 413.558 334.972 413.596 335.009C413.633 335.046 413.677 335.074 413.726 335.093C413.775 335.112 413.827 335.12 413.879 335.118C413.932 335.116 413.983 335.103 414.03 335.08L417.59 333.72C418.15 333.5 418.38 334.3 417.97 335.06L415.4 339.89C415.237 340.171 415.167 340.496 415.2 340.82L415.8 345.19C415.9 345.88 415.31 346.79 414.8 346.73L411.62 346.34C411.49 346.342 411.364 346.377 411.252 346.442C411.14 346.506 411.046 346.599 410.98 346.71L407.8 350.77C407.29 351.42 406.7 351.19 406.8 350.38L407.41 345.31C407.437 345.186 407.433 345.057 407.398 344.935C407.363 344.812 407.298 344.701 407.21 344.61L404.64 342.76C404.23 342.46 404.45 341.41 405.02 340.97L408.57 338.23C408.821 338.023 409.003 337.744 409.09 337.43L410.68 332.22C410.94 331.39 411.67 331 411.92 331.5Z" fill="#FF8500"/>
<path opacity="0.5" d="M411.92 331.5L413.51 334.88C413.529 334.928 413.558 334.972 413.596 335.009C413.633 335.046 413.677 335.074 413.726 335.093C413.775 335.112 413.827 335.12 413.879 335.118C413.932 335.116 413.983 335.103 414.03 335.08L417.59 333.72C418.15 333.5 418.38 334.3 417.97 335.06L415.4 339.89C415.237 340.171 415.167 340.496 415.2 340.82L415.8 345.19C415.9 345.88 415.31 346.79 414.8 346.73L411.62 346.34C411.49 346.342 411.364 346.377 411.252 346.442C411.14 346.506 411.046 346.599 410.98 346.71L407.8 350.77C407.29 351.42 406.7 351.19 406.8 350.38L407.41 345.31C407.437 345.186 407.433 345.057 407.398 344.935C407.363 344.812 407.298 344.701 407.21 344.61L404.64 342.76C404.23 342.46 404.45 341.41 405.02 340.97L408.57 338.23C408.821 338.023 409.003 337.744 409.09 337.43L410.68 332.22C410.94 331.39 411.67 331 411.92 331.5Z" fill="white"/>
<path d="M435.82 324.77C436.12 324.19 436.07 323.6 435.82 323.44L433.24 322C433.183 321.974 433.122 321.961 433.06 321.961C432.998 321.961 432.937 321.974 432.88 322L430.54 322.9L429.77 321.26C429.738 321.178 429.678 321.11 429.6 321.07L427.05 319.59C426.73 319.41 426.19 319.82 425.99 320.5L424.4 325.71C424.309 326.022 424.128 326.3 423.88 326.51L420.32 329.25C419.76 329.69 419.53 330.74 419.94 331.04L422.51 332.9C422.603 332.988 422.67 333.1 422.705 333.223C422.74 333.346 422.742 333.476 422.71 333.6L422.1 338.67C422.1 339.04 422.16 339.28 422.33 339.38L424.88 340.86C425.09 340.97 425.38 340.86 425.66 340.53L428.83 336.47C428.897 336.357 428.992 336.264 429.106 336.199C429.22 336.134 429.349 336.1 429.48 336.1L432.65 336.49C433.16 336.55 433.75 335.64 433.65 334.95L433.05 330.58C433.018 330.258 433.085 329.934 433.24 329.65L435.82 324.77Z" fill="#FF8500"/>
<path opacity="0.15" d="M435.79 323.43C435.733 323.405 435.672 323.392 435.61 323.392C435.548 323.392 435.487 323.405 435.43 323.43L431.88 324.79C431.833 324.813 431.782 324.826 431.73 324.828C431.677 324.831 431.625 324.822 431.576 324.803C431.528 324.785 431.483 324.756 431.446 324.719C431.409 324.683 431.379 324.638 431.36 324.59L430.54 322.85L432.88 321.96C432.934 321.933 432.994 321.918 433.055 321.918C433.116 321.918 433.176 321.933 433.23 321.96L435.79 323.43Z" fill="white"/>
<path opacity="0.15" d="M427 327.13C426.91 327.445 426.729 327.726 426.48 327.94L422.93 330.68C422.767 330.809 422.633 330.973 422.54 331.16L419.99 329.68C420.089 329.497 420.221 329.334 420.38 329.2L423.93 326.46C424.179 326.25 424.359 325.972 424.45 325.66L427 327.13Z" fill="white"/>
<path opacity="0.1" d="M429.62 321C429.3 320.79 428.75 321.2 428.54 321.89L427 327.13L424.45 325.66L426.04 320.45C426.25 319.77 426.78 319.36 427.1 319.54C427.17 319.54 429.32 320.84 429.65 321.01L429.62 321Z" fill="black"/>
<path opacity="0.25" d="M425.06 334.32L422.54 332.87L419.94 331C419.65 330.78 419.68 330.18 419.94 329.69L422.49 331.17C422.24 331.65 422.2 332.26 422.49 332.47L425.06 334.32Z" fill="black"/>
<path opacity="0.15" d="M424.66 340.09C424.61 340.47 424.72 340.72 424.9 340.82L422.35 339.34C422.18 339.24 422.08 339 422.12 338.63L422.73 333.55C422.756 333.433 422.754 333.311 422.725 333.195C422.695 333.078 422.639 332.971 422.56 332.88L425.08 334.33C425.158 334.421 425.215 334.528 425.247 334.644C425.278 334.76 425.282 334.882 425.26 335L424.66 340.09Z" fill="black"/>
<path d="M429.77 321.21L431.36 324.59C431.379 324.638 431.409 324.682 431.446 324.719C431.483 324.756 431.527 324.784 431.576 324.803C431.625 324.822 431.677 324.83 431.729 324.828C431.782 324.826 431.833 324.813 431.88 324.79L435.43 323.43C436 323.21 436.22 324.01 435.82 324.77L433.24 329.6C433.085 329.884 433.018 330.208 433.05 330.53L433.65 334.9C433.75 335.59 433.16 336.5 432.65 336.44L429.48 336.05C429.349 336.05 429.22 336.084 429.106 336.149C428.992 336.214 428.897 336.307 428.83 336.42L425.66 340.48C425.15 341.13 424.56 340.9 424.66 340.09L425.26 335.02C425.29 334.897 425.288 334.768 425.255 334.645C425.222 334.523 425.158 334.411 425.07 334.32L422.49 332.46C422.09 332.17 422.31 331.11 422.88 330.68L426.43 327.94C426.678 327.73 426.859 327.452 426.95 327.14L428.54 321.93C428.79 321.1 429.52 320.68 429.77 321.21Z" fill="#FF8500"/>
<path opacity="0.5" d="M429.77 321.21L431.36 324.59C431.379 324.638 431.409 324.682 431.446 324.719C431.483 324.756 431.527 324.784 431.576 324.803C431.625 324.822 431.677 324.83 431.729 324.828C431.782 324.826 431.833 324.813 431.88 324.79L435.43 323.43C436 323.21 436.22 324.01 435.82 324.77L433.24 329.6C433.085 329.884 433.018 330.208 433.05 330.53L433.65 334.9C433.75 335.59 433.16 336.5 432.65 336.44L429.48 336.05C429.349 336.05 429.22 336.084 429.106 336.149C428.992 336.214 428.897 336.307 428.83 336.42L425.66 340.48C425.15 341.13 424.56 340.9 424.66 340.09L425.26 335.02C425.29 334.897 425.288 334.768 425.255 334.645C425.222 334.523 425.158 334.411 425.07 334.32L422.49 332.46C422.09 332.17 422.31 331.11 422.88 330.68L426.43 327.94C426.678 327.73 426.859 327.452 426.95 327.14L428.54 321.93C428.79 321.1 429.52 320.68 429.77 321.21Z" fill="white"/>
<path d="M453.66 314.48C453.97 313.9 453.92 313.31 453.66 313.15L451.12 311.67C451.063 311.644 451.002 311.631 450.94 311.631C450.878 311.631 450.817 311.644 450.76 311.67L448.42 312.57L447.65 310.93C447.616 310.847 447.557 310.776 447.48 310.73C447.16 310.56 445 309.3 444.93 309.26C444.61 309.08 444.07 309.49 443.86 310.17L442.27 315.38C442.183 315.691 442.005 315.969 441.76 316.18L438.2 318.92C437.64 319.36 437.41 320.41 437.82 320.71L440.39 322.57C440.481 322.657 440.547 322.767 440.582 322.888C440.617 323.009 440.62 323.137 440.59 323.26L439.98 328.33C439.98 328.7 440.04 328.95 440.21 329.05L442.76 330.53C442.96 330.64 443.26 330.53 443.53 330.2L446.71 326.14C446.776 326.029 446.87 325.936 446.982 325.872C447.094 325.807 447.221 325.772 447.35 325.77L450.53 326.16C451.04 326.22 451.63 325.31 451.53 324.62L450.92 320.25C450.896 319.927 450.966 319.604 451.12 319.32L453.66 314.48Z" fill="#FF8500"/>
<path opacity="0.15" d="M453.63 313.14C453.575 313.115 453.515 313.102 453.455 313.102C453.394 313.102 453.335 313.115 453.28 313.14L449.72 314.5C449.673 314.523 449.623 314.536 449.571 314.538C449.52 314.54 449.468 314.532 449.42 314.513C449.372 314.494 449.329 314.465 449.292 314.429C449.256 314.392 449.228 314.348 449.21 314.3L448.39 312.56L450.73 311.67C450.783 311.64 450.843 311.625 450.905 311.625C450.966 311.625 451.026 311.64 451.08 311.67L453.63 313.14Z" fill="white"/>
<path opacity="0.15" d="M444.8 316.84C444.709 317.155 444.529 317.437 444.28 317.65L440.73 320.39C440.566 320.52 440.433 320.683 440.34 320.87L437.79 319.39C437.885 319.207 438.014 319.044 438.17 318.91L441.72 316.17C441.975 315.964 442.16 315.685 442.25 315.37L444.8 316.84Z" fill="white"/>
<path opacity="0.1" d="M447.47 310.74C447.15 310.53 446.6 310.94 446.39 311.63L444.8 316.84L442.25 315.37L443.84 310.16C444.04 309.48 444.58 309.07 444.9 309.25C444.97 309.25 447.12 310.55 447.45 310.72L447.47 310.74Z" fill="black"/>
<path opacity="0.25" d="M442.91 324L440.39 322.55L437.82 320.69C437.52 320.47 437.56 319.87 437.82 319.38L440.37 320.86C440.11 321.34 440.08 321.95 440.37 322.16L442.91 324Z" fill="black"/>
<path opacity="0.15" d="M442.5 329.8C442.5 330.18 442.57 330.43 442.75 330.53L440.18 329C440.01 328.9 439.91 328.66 439.95 328.29L440.56 323.21C440.584 323.093 440.581 322.972 440.551 322.856C440.522 322.74 440.467 322.632 440.39 322.54L442.91 323.99C442.989 324.081 443.045 324.189 443.075 324.305C443.104 324.421 443.106 324.543 443.08 324.66L442.5 329.8Z" fill="black"/>
<path d="M447.619 310.92L449.209 314.3C449.229 314.349 449.258 314.393 449.295 314.429C449.333 314.466 449.377 314.495 449.426 314.513C449.475 314.532 449.527 314.541 449.579 314.538C449.631 314.536 449.683 314.523 449.729 314.5L453.279 313.14C453.849 312.92 454.069 313.72 453.659 314.48L451.089 319.31C450.935 319.594 450.866 319.917 450.889 320.24L451.499 324.61C451.599 325.3 451.009 326.21 450.499 326.15L447.319 325.76C447.19 325.762 447.063 325.797 446.951 325.862C446.839 325.927 446.746 326.019 446.679 326.13L443.499 330.19C442.999 330.84 442.409 330.61 442.499 329.8L443.109 324.73C443.141 324.606 443.14 324.476 443.104 324.353C443.069 324.23 443.002 324.118 442.909 324.03L440.339 322.17C439.929 321.88 440.159 320.82 440.719 320.39L444.279 317.65C444.526 317.439 444.707 317.161 444.799 316.85L446.389 311.63C446.639 310.81 447.369 310.39 447.619 310.92Z" fill="#FF8500"/>
<path opacity="0.5" d="M447.619 310.92L449.209 314.3C449.229 314.349 449.258 314.393 449.295 314.429C449.333 314.466 449.377 314.495 449.426 314.513C449.475 314.532 449.527 314.541 449.579 314.538C449.631 314.536 449.683 314.523 449.729 314.5L453.279 313.14C453.849 312.92 454.069 313.72 453.659 314.48L451.089 319.31C450.935 319.594 450.866 319.917 450.889 320.24L451.499 324.61C451.599 325.3 451.009 326.21 450.499 326.15L447.319 325.76C447.19 325.762 447.063 325.797 446.951 325.862C446.839 325.927 446.746 326.019 446.679 326.13L443.499 330.19C442.999 330.84 442.409 330.61 442.499 329.8L443.109 324.73C443.141 324.606 443.14 324.476 443.104 324.353C443.069 324.23 443.002 324.118 442.909 324.03L440.339 322.17C439.929 321.88 440.159 320.82 440.719 320.39L444.279 317.65C444.526 317.439 444.707 317.161 444.799 316.85L446.389 311.63C446.639 310.81 447.369 310.39 447.619 310.92Z" fill="white"/>
<path d="M471.51 304.19C471.82 303.61 471.77 303.02 471.51 302.85L468.96 301.38C468.905 301.355 468.846 301.342 468.785 301.342C468.725 301.342 468.665 301.355 468.61 301.38L466.27 302.28L465.5 300.64C465.46 300.561 465.401 300.493 465.33 300.44C465 300.27 462.84 299.01 462.78 298.97C462.45 298.79 461.92 299.19 461.71 299.88L460.12 305.09C460.033 305.404 459.852 305.683 459.6 305.89L456 308.62C455.43 309.06 455.21 310.11 455.62 310.41L458.19 312.27C458.281 312.357 458.347 312.467 458.382 312.588C458.417 312.709 458.42 312.837 458.39 312.96L457.8 318C457.8 318.37 457.86 318.62 458.03 318.72L460.58 320.2C460.78 320.31 461.08 320.2 461.35 319.87L464.53 315.81C464.597 315.699 464.69 315.606 464.802 315.542C464.914 315.477 465.041 315.442 465.17 315.44L468.35 315.83C468.85 315.89 469.44 314.98 469.35 314.29L468.74 309.92C468.712 309.597 468.781 309.273 468.94 308.99L471.51 304.19Z" fill="#FF8500"/>
<path opacity="0.15" d="M471.48 302.85C471.426 302.823 471.366 302.808 471.305 302.808C471.244 302.808 471.185 302.823 471.13 302.85L467.57 304.21C467.524 304.233 467.474 304.246 467.422 304.248C467.37 304.25 467.319 304.242 467.271 304.223C467.223 304.204 467.179 304.175 467.143 304.139C467.107 304.102 467.079 304.058 467.06 304.01L466.24 302.27L468.58 301.37C468.634 301.342 468.694 301.327 468.755 301.327C468.816 301.327 468.876 301.342 468.93 301.37L471.48 302.85Z" fill="white"/>
<path opacity="0.15" d="M462.65 306.55C462.556 306.866 462.371 307.148 462.12 307.36L458.57 310.1C458.409 310.23 458.279 310.394 458.19 310.58L455.64 309.1C455.731 308.915 455.861 308.752 456.02 308.62L459.57 305.88C459.821 305.673 460.003 305.394 460.09 305.08L462.65 306.55Z" fill="white"/>
<path opacity="0.1" d="M465.32 300.44C465 300.24 464.45 300.65 464.24 301.34L462.65 306.55L460.09 305.08L461.68 299.87C461.89 299.19 462.43 298.78 462.75 298.96C462.82 298.96 464.97 300.26 465.3 300.43L465.32 300.44Z" fill="black"/>
<path opacity="0.25" d="M460.759 313.74L458.229 312.29L455.659 310.43C455.359 310.21 455.399 309.61 455.659 309.12L458.209 310.6C457.949 311.08 457.909 311.69 458.209 311.9L460.759 313.74Z" fill="black"/>
<path opacity="0.15" d="M460.35 319.51C460.35 319.89 460.41 320.14 460.6 320.23L458 318.75C457.83 318.65 457.73 318.41 457.77 318.03L458.38 312.96C458.404 312.842 458.401 312.72 458.369 312.604C458.338 312.487 458.28 312.38 458.2 312.29L460.73 313.74C460.809 313.83 460.866 313.938 460.895 314.055C460.925 314.171 460.926 314.293 460.9 314.41L460.35 319.51Z" fill="black"/>
<path d="M465.47 300.63L467.06 304.01C467.079 304.059 467.109 304.103 467.146 304.139C467.183 304.176 467.228 304.205 467.276 304.224C467.325 304.242 467.377 304.251 467.43 304.248C467.482 304.246 467.533 304.233 467.58 304.21L471.13 302.85C471.69 302.63 471.92 303.43 471.51 304.19L468.94 309C468.781 309.283 468.711 309.607 468.74 309.93L469.35 314.3C469.44 314.99 468.85 315.9 468.35 315.84L465.17 315.45C465.041 315.452 464.914 315.487 464.802 315.552C464.69 315.617 464.596 315.709 464.53 315.82L461.35 319.88C460.85 320.53 460.26 320.29 460.35 319.49L460.96 314.42C460.989 314.296 460.986 314.167 460.951 314.044C460.916 313.922 460.85 313.81 460.76 313.72L458.19 311.86C457.78 311.57 458.01 310.51 458.57 310.08L462.13 307.34C462.371 307.126 462.548 306.849 462.64 306.54L464.23 301.32C464.49 300.52 465.22 300.09 465.47 300.63Z" fill="#FF8500"/>
<path opacity="0.5" d="M465.47 300.63L467.06 304.01C467.079 304.059 467.109 304.103 467.146 304.139C467.183 304.176 467.228 304.205 467.276 304.224C467.325 304.242 467.377 304.251 467.43 304.248C467.482 304.246 467.533 304.233 467.58 304.21L471.13 302.85C471.69 302.63 471.92 303.43 471.51 304.19L468.94 309C468.781 309.283 468.711 309.607 468.74 309.93L469.35 314.3C469.44 314.99 468.85 315.9 468.35 315.84L465.17 315.45C465.041 315.452 464.914 315.487 464.802 315.552C464.69 315.617 464.596 315.709 464.53 315.82L461.35 319.88C460.85 320.53 460.26 320.29 460.35 319.49L460.96 314.42C460.989 314.296 460.986 314.167 460.951 314.044C460.916 313.922 460.85 313.81 460.76 313.72L458.19 311.86C457.78 311.57 458.01 310.51 458.57 310.08L462.13 307.34C462.371 307.126 462.548 306.849 462.64 306.54L464.23 301.32C464.49 300.52 465.22 300.09 465.47 300.63Z" fill="white"/>
<path d="M478.32 57.0001L470.32 60.4301L468.61 68.9601C468.561 69.1944 468.448 69.4105 468.283 69.5842C468.118 69.7579 467.909 69.8823 467.677 69.9436C467.446 70.0048 467.202 70.0004 466.973 69.9309C466.744 69.8614 466.538 69.7296 466.38 69.5501L460.65 63.0001L452 64.0001C451.752 64.0376 451.499 64.0016 451.272 63.8965C451.044 63.7914 450.852 63.6219 450.72 63.409C450.588 63.196 450.522 62.949 450.529 62.6986C450.536 62.4481 450.616 62.2053 450.76 62.0001L455.21 54.5301L451.59 46.6201C451.502 46.4077 451.473 46.1755 451.505 45.9479C451.538 45.7202 451.631 45.5056 451.776 45.3266C451.92 45.1475 452.11 45.0106 452.325 44.9303C452.541 44.85 452.774 44.8292 453 44.8701L461.48 46.8001L467.88 40.9101C468.056 40.7457 468.274 40.6343 468.51 40.5884C468.747 40.5426 468.991 40.5642 469.215 40.6508C469.44 40.7375 469.635 40.8856 469.779 41.0783C469.923 41.2709 470.01 41.5003 470.03 41.7401L470.82 50.4001L478.4 54.6601C478.623 54.768 478.81 54.9386 478.939 55.1509C479.067 55.3632 479.13 55.6082 479.122 55.8561C479.113 56.104 479.033 56.3441 478.891 56.5472C478.748 56.7502 478.55 56.9076 478.32 57.0001Z" fill="#E0E0E0"/>
<path d="M434.23 42.18C434.16 42.2723 434.076 42.3533 433.98 42.42C433.811 42.5422 433.61 42.6144 433.402 42.6285C433.193 42.6426 432.985 42.5981 432.8 42.5L428.35 40.16L423.89 42.5C423.706 42.5981 423.498 42.6426 423.289 42.6285C423.08 42.6144 422.88 42.5422 422.71 42.42C422.539 42.2986 422.406 42.1302 422.328 41.935C422.25 41.7399 422.23 41.5263 422.27 41.32L423.12 36.32L419.51 32.81C419.36 32.6643 419.254 32.479 419.204 32.2755C419.155 32.072 419.164 31.8586 419.23 31.66C419.293 31.4611 419.411 31.284 419.57 31.1494C419.729 31.0149 419.924 30.9284 420.13 30.9L425.13 30.18L427.36 25.66C427.452 25.4734 427.595 25.3163 427.772 25.2066C427.948 25.097 428.152 25.0393 428.36 25.04C428.568 25.0416 428.771 25.1003 428.947 25.2096C429.124 25.319 429.267 25.4748 429.36 25.66L431.59 30.18L436.59 30.9C436.797 30.9303 436.991 31.0177 437.151 31.1524C437.31 31.2871 437.429 31.4638 437.494 31.6625C437.558 31.8611 437.566 32.0739 437.516 32.2767C437.466 32.4795 437.36 32.6642 437.21 32.81L433.6 36.32L434.46 41.32C434.499 41.6257 434.416 41.9344 434.23 42.18ZM420 31.79L419.94 31.92C419.916 31.9947 419.913 32.075 419.932 32.1512C419.952 32.2275 419.993 32.2965 420.05 32.35L423.91 36.12L423 41.44C422.988 41.5183 422.998 41.5985 423.028 41.6718C423.058 41.745 423.108 41.8084 423.173 41.8549C423.237 41.9015 423.313 41.9294 423.392 41.9356C423.471 41.9418 423.55 41.926 423.62 41.89L428.4 39.38L433.17 41.89C433.239 41.9295 433.316 41.9503 433.395 41.9503C433.474 41.9503 433.552 41.9295 433.62 41.89C433.687 41.8445 433.738 41.7804 433.769 41.7057C433.799 41.631 433.807 41.549 433.79 41.47L432.88 36.15L436.74 32.38C436.796 32.3252 436.836 32.2561 436.855 32.1803C436.875 32.1046 436.873 32.0249 436.85 31.95C436.828 31.874 436.784 31.8061 436.723 31.7547C436.663 31.7032 436.589 31.6703 436.51 31.66L431.16 30.88L428.72 26C428.687 25.9274 428.634 25.866 428.566 25.8233C428.499 25.7807 428.42 25.7587 428.34 25.76C428.268 25.768 428.199 25.7942 428.139 25.8362C428.08 25.8781 428.032 25.9345 428 26L425.62 30.84L420.27 31.62C420.163 31.6418 420.067 31.7023 420 31.79Z" fill="#E0E0E0"/>
<path d="M378.54 109C371.01 104.64 360.66 105.23 349.22 111.83C326.22 125.13 307.53 157.7 307.53 184.59C307.53 198.12 312.27 207.59 319.9 212.02C321.67 213.02 328.59 217.02 328.59 217.02C328.266 220.063 327.215 222.984 325.525 225.535C323.835 228.087 321.556 230.194 318.88 231.68C318.44 231.93 318.71 232.36 319.1 232.58L329.67 238.69C329.813 238.775 329.974 238.823 330.14 238.83C340.55 238.83 352.6 231.83 355.96 217.29C357.22 216.69 358.49 216.04 359.78 215.29C382.78 202 401.47 169.42 401.47 142.54C401.47 129 396.74 119.54 389.11 115.08L378.54 109Z" fill="#37474F"/>
<path d="M359.78 117.93C336.78 131.22 318.09 163.8 318.09 190.68C318.09 208.93 326.68 219.85 339.4 220.85C338.92 226.65 337.23 233.17 329.4 237.78C328.78 238.15 329.59 238.84 330.11 238.84C340.52 238.84 352.57 231.84 355.93 217.3C357.19 216.7 358.46 216.05 359.75 215.3C382.75 202.01 401.44 169.43 401.44 142.55C401.44 115.67 382.8 104.64 359.78 117.93Z" fill="#455A64"/>
<path d="M329.43 237.78C329.05 238.02 329.22 238.37 329.54 238.61L319.1 232.61C318.71 232.37 318.44 231.96 318.88 231.7C321.561 230.211 323.844 228.098 325.534 225.538C327.225 222.979 328.273 220.05 328.59 217L329.74 217.68L330.8 218.3C333.449 219.756 336.384 220.616 339.4 220.82C338.93 226.65 337.23 233.17 329.43 237.78Z" fill="#263238"/>
<path d="M355.38 194.89C354.27 194.1 353.71 192.68 353.71 190.63C353.734 188.494 354.298 186.399 355.35 184.54C356.305 182.682 357.76 181.127 359.55 180.05C361.25 179.07 362.647 178.953 363.74 179.7C364.83 180.44 365.38 181.84 365.38 183.89C365.348 186.063 364.774 188.194 363.71 190.09C362.778 191.967 361.336 193.544 359.55 194.64C357.89 195.59 356.5 195.68 355.38 194.89ZM353.89 140.53L365.2 134L363.31 172.12L355.78 176.47L353.89 140.53Z" fill="#FAFAFA"/>
<path opacity="0.2" d="M365.34 211.65C377.62 202.65 388.21 188.38 394.69 173.06C382.41 182.07 371.82 196.33 365.34 211.65Z" fill="black"/>
<path d="M443.861 263.75C439.601 263.8 436.431 260.82 434.441 257.07C447.201 241.38 455.831 220.48 455.831 202.2C455.831 188.65 451.081 179.13 443.431 174.73L432.881 168.65C425.351 164.3 415.011 164.9 403.581 171.49C380.581 184.79 361.891 217.36 361.891 244.25C361.891 257.78 366.621 267.25 374.251 271.7C376.031 272.7 383.041 276.76 384.771 277.77C392.311 282.16 402.681 281.58 414.141 274.96C417.209 273.174 420.123 271.133 422.851 268.86C430.591 274.99 440.031 268.31 443.771 265.11C444.271 264.69 444.331 263.75 443.861 263.75Z" fill="#E0E0E0"/>
<path d="M395.691 280C381.751 280 373.101 268.65 373.101 250.39C373.101 223.75 391.661 191.39 414.461 178.2C420.841 174.52 426.941 172.65 432.591 172.65C446.521 172.65 455.181 183.99 455.181 202.26C455.181 219.73 447.041 240.6 433.941 256.71L433.671 257.05L433.871 257.43C436.221 261.86 439.631 264.34 443.491 264.43C443.463 264.514 443.415 264.59 443.351 264.65C440.691 266.93 435.411 270.74 429.941 270.74C427.505 270.751 425.14 269.917 423.251 268.38L422.841 268.06L422.431 268.39C419.728 270.625 416.845 272.632 413.811 274.39C407.441 278.08 401.341 280 395.691 280Z" fill="#FAFAFA"/>
<path d="M432.59 172V173.3C446.12 173.3 454.53 184.4 454.53 202.25C454.53 219.59 446.45 240.3 433.44 256.3L432.89 256.97L433.3 257.73C435.46 261.81 438.5 264.32 441.99 264.95C439.22 267.16 434.63 270.11 429.94 270.11C427.65 270.121 425.426 269.336 423.65 267.89L422.83 267.24L422.02 267.91C419.347 270.141 416.494 272.148 413.49 273.91C407.21 277.53 401.22 279.37 395.69 279.37C382.16 279.37 373.75 268.27 373.75 250.37C373.75 223.94 392.16 191.81 414.75 178.74C421.03 175.12 427.02 173.28 432.55 173.28V172M432.55 172C426.99 172 420.73 173.81 414.1 177.64C391.1 190.93 372.41 223.5 372.41 250.39C372.41 269.54 381.88 280.65 395.65 280.65C401.21 280.65 407.47 278.84 414.1 275.01C417.169 273.224 420.083 271.183 422.81 268.91C424.81 270.543 427.318 271.428 429.9 271.41C435.62 271.41 441.09 267.41 443.73 265.16C444.23 264.74 444.29 263.8 443.82 263.8H443.72C439.52 263.8 436.38 260.85 434.4 257.12C447.16 241.43 455.79 220.53 455.79 202.25C455.79 183.1 446.32 172 432.55 172Z" fill="#FF8500"/>
<path d="M412.001 230.85C413.214 227.94 414.607 225.108 416.171 222.37C417.249 220.491 418.23 218.559 419.111 216.58C419.718 215.223 420.041 213.757 420.061 212.27C420.061 210.27 419.461 209.04 418.261 208.56C417.061 208.08 415.481 208.43 413.491 209.56C411.523 210.715 409.801 212.244 408.421 214.06C406.88 216.073 405.622 218.287 404.681 220.64L397.331 219.13C398.975 214.787 401.305 210.736 404.231 207.13C407.094 203.592 410.586 200.612 414.531 198.34C419.198 195.674 422.934 194.84 425.741 195.84C428.548 196.84 429.954 199.7 429.961 204.42C429.974 206.551 429.698 208.674 429.141 210.73C428.648 212.593 427.978 214.405 427.141 216.14C426.351 217.76 425.321 219.69 424.071 221.93C422.859 223.997 421.764 226.131 420.791 228.32C420.12 229.901 419.78 231.603 419.791 233.32L410.621 238.62C410.584 235.966 411.053 233.329 412.001 230.85ZM411.001 256.58C409.891 255.79 409.331 254.37 409.331 252.31C409.355 250.174 409.919 248.079 410.971 246.22C411.926 244.365 413.376 242.811 415.161 241.73C416.871 240.73 418.261 240.63 419.361 241.38C420.461 242.13 421.001 243.53 421.001 245.58C420.967 247.75 420.393 249.878 419.331 251.77C418.399 253.65 416.953 255.228 415.161 256.32C413.551 257.28 412.171 257.36 411.051 256.58H411.001Z" fill="#455A64"/>
<path d="M200.78 185.3L154.78 211.94L173.05 243C173.402 243.838 174.016 244.54 174.8 245C176.98 246.23 189.89 253.71 190.6 254.12C191.154 254.439 191.773 254.629 192.41 254.675C193.048 254.721 193.688 254.622 194.282 254.386C194.875 254.149 195.408 253.781 195.839 253.308C196.27 252.836 196.588 252.273 196.77 251.66L216.61 194.48L200.78 185.3Z" fill="#FF8500"/>
<path opacity="0.2" d="M200.78 185.3L154.78 211.94L173.05 243C173.402 243.838 174.016 244.54 174.8 245C176.98 246.23 189.89 253.71 190.6 254.12C191.154 254.439 191.773 254.629 192.41 254.675C193.048 254.721 193.688 254.622 194.282 254.386C194.875 254.149 195.408 253.781 195.839 253.308C196.27 252.836 196.588 252.273 196.77 251.66L216.61 194.48L200.78 185.3Z" fill="black"/>
<path d="M170.61 221.08L188.88 252.14C189.229 252.929 189.813 253.591 190.551 254.038C191.289 254.485 192.146 254.694 193.007 254.637C193.868 254.58 194.691 254.261 195.364 253.721C196.037 253.181 196.528 252.448 196.77 251.62L216.61 194.44L170.61 221.08Z" fill="#FF8500"/>
<path d="M252.1 26L78.6299 126.13C77.4669 126.884 76.4984 127.902 75.8033 129.101C75.1082 130.3 74.7062 131.646 74.6299 133.03V253.42C74.7036 254.799 75.1049 256.141 75.8005 257.334C76.4961 258.527 77.466 259.537 78.6299 260.28L92.8999 268.28C94.1408 268.904 95.5107 269.23 96.8999 269.23C98.2891 269.23 99.6589 268.904 100.9 268.28L274.38 168.09C275.541 167.334 276.508 166.316 277.203 165.117C277.898 163.919 278.301 162.573 278.38 161.19V40.8C278.305 39.4212 277.904 38.0799 277.208 36.887C276.513 35.6942 275.543 34.684 274.38 33.94L260.12 25.94C258.871 25.3232 257.495 25.0074 256.103 25.0178C254.71 25.0282 253.339 25.3646 252.1 26Z" fill="#FF8500"/>
<path opacity="0.3" d="M278.31 40.0702C277.99 38.0702 276.36 37.3502 274.37 38.4902L100.91 138.65C99.7277 139.388 98.759 140.422 98.0996 141.65L75.8896 129C76.5562 127.846 77.4974 126.874 78.6296 126.17L252.11 26.0002C253.351 25.3781 254.721 25.0542 256.11 25.0542C257.498 25.0542 258.868 25.3781 260.11 26.0002L274.37 34.0002C275.42 34.6743 276.314 35.5643 276.993 36.6109C277.673 37.6575 278.121 38.8367 278.31 40.0702Z" fill="white"/>
<path d="M96.9199 266.4V146C96.9962 144.617 97.3983 143.273 98.0935 142.075C98.7886 140.878 99.7571 139.862 100.92 139.11L274.38 38.9999C276.57 37.7299 278.38 38.7599 278.38 41.2999V161.65C278.301 163.033 277.898 164.379 277.203 165.577C276.508 166.776 275.541 167.794 274.38 168.55L100.9 268.7C98.6999 270 96.9199 268.94 96.9199 266.4Z" fill="#FF8500"/>
<path opacity="0.2" d="M100.9 268.24C99.6541 268.849 98.286 269.165 96.8997 269.165C95.5133 269.165 94.1452 268.849 92.8997 268.24L78.6396 260.24C77.4768 259.5 76.5072 258.494 75.8115 257.304C75.1158 256.115 74.714 254.776 74.6396 253.4V133C74.7107 131.579 75.1482 130.201 75.9097 129L98.0996 141.63C97.3682 142.806 96.9611 144.155 96.9196 145.54V265.93C96.9196 268.26 98.5597 269.6 100.9 268.24Z" fill="black"/>
<path d="M145.59 170L143.86 169C143.198 168.621 142.448 168.422 141.685 168.422C140.922 168.422 140.172 168.621 139.51 169L128.94 175.1V160.66L148.51 149.37C149.426 148.829 150.185 148.059 150.711 147.134C151.238 146.21 151.513 145.164 151.51 144.1V136C151.513 134.936 151.238 133.89 150.711 132.966C150.185 132.041 149.426 131.271 148.51 130.73C147.585 130.195 146.534 129.913 145.465 129.913C144.396 129.913 143.346 130.195 142.42 130.73L115.28 146.4C113.673 147.326 112.339 148.66 111.412 150.267C110.485 151.873 109.998 153.695 110 155.55V230.74C109.995 231.805 110.27 232.854 110.796 233.78C111.323 234.706 112.082 235.479 113 236.02C113.926 236.554 114.976 236.834 116.045 236.834C117.114 236.834 118.164 236.554 119.09 236.02L125.86 232.12C126.778 231.579 127.537 230.806 128.064 229.88C128.59 228.954 128.865 227.905 128.86 226.84V197.34L145.52 187.72C146.18 187.337 146.728 186.787 147.109 186.125C147.49 185.463 147.69 184.713 147.69 183.95V173.79C147.704 173.03 147.517 172.279 147.148 171.613C146.78 170.948 146.242 170.392 145.59 170Z" fill="#E0E0E0"/>
<path opacity="0.1" d="M119.71 235.66L119.13 236C118.204 236.532 117.154 236.812 116.086 236.812C115.018 236.811 113.969 236.53 113.043 235.996C112.118 235.462 111.349 234.695 110.813 233.771C110.277 232.847 109.993 231.798 109.99 230.73V155.54C109.993 153.794 110.429 152.076 111.26 150.54L117.35 154.05C116.516 155.584 116.079 157.303 116.08 159.05V233.54C116.082 233.965 116.194 234.381 116.407 234.749C116.619 235.117 116.923 235.423 117.29 235.637C117.656 235.851 118.072 235.966 118.497 235.97C118.921 235.974 119.34 235.867 119.71 235.66Z" fill="black"/>
<path d="M128.94 160.66V182.14L145.57 172.55C145.793 172.419 146.046 172.349 146.304 172.348C146.562 172.347 146.816 172.415 147.04 172.544C147.264 172.673 147.449 172.859 147.577 173.083C147.705 173.307 147.772 173.561 147.77 173.82V184C147.769 184.759 147.57 185.505 147.191 186.163C146.812 186.821 146.267 187.368 145.61 187.75L128.94 197.37V226.86C128.944 227.922 128.669 228.967 128.143 229.891C127.616 230.814 126.857 231.582 125.94 232.12L119.78 235.68C119.41 235.894 118.99 236.008 118.562 236.008C118.134 236.009 117.714 235.896 117.344 235.682C116.973 235.468 116.666 235.16 116.453 234.789C116.24 234.418 116.128 233.997 116.13 233.57V159.05C116.13 157.195 116.618 155.374 117.545 153.768C118.472 152.162 119.805 150.828 121.41 149.9L148.29 134.38C148.625 134.186 149.005 134.085 149.391 134.085C149.778 134.085 150.157 134.187 150.492 134.381C150.827 134.575 151.104 134.853 151.297 135.188C151.49 135.523 151.591 135.903 151.59 136.29V144.12C151.593 145.179 151.317 146.221 150.79 147.141C150.264 148.06 149.505 148.826 148.59 149.36L128.94 160.66Z" fill="#FAFAFA"/>
<path d="M187 115.24C186.692 114.196 186.151 113.236 185.418 112.431C184.685 111.626 183.78 110.998 182.769 110.594C181.758 110.189 180.669 110.019 179.583 110.097C178.498 110.174 177.443 110.497 176.5 111.04L169.77 114.93C168.903 115.43 168.15 116.105 167.56 116.913C166.969 117.72 166.554 118.643 166.34 119.62L146.27 211C146.113 211.77 146.201 212.57 146.522 213.288C146.843 214.005 147.381 214.604 148.06 215L149.9 216.06C150.47 216.389 151.117 216.563 151.775 216.563C152.434 216.563 153.08 216.389 153.65 216.06L161.76 211.38C162.889 210.689 163.808 209.704 164.42 208.53C165.104 207.345 165.607 206.064 165.91 204.73L169.17 188.07L185.57 178.6L187.27 185.37C187.511 186.253 188.061 187.02 188.82 187.53C189.5 187.93 194.23 190.64 194.91 191.05C195.349 191.238 195.831 191.304 196.305 191.241C196.778 191.177 197.226 190.987 197.6 190.69L207.5 184.97L187 115.24ZM173.67 165.07L177.18 147L177.39 146L181.11 160.77L173.67 165.07Z" fill="#E0E0E0"/>
<path opacity="0.1" d="M194.83 191C193.94 190.47 189.48 187.92 188.83 187.53C188.071 187.019 187.521 186.253 187.28 185.37L185.58 178.6L190.12 175.98L193.37 188.88C193.61 189.728 194.123 190.473 194.83 191Z" fill="black"/>
<path opacity="0.1" d="M187.201 164.28L181.111 160.76L177.391 146C177.391 146 177.391 146 177.391 145.94C177.711 144.5 178.031 142.86 178.391 141.04C178.821 138.77 179.221 136.35 179.601 133.76C180.034 135.84 180.464 137.756 180.891 139.51C181.321 141.26 181.721 142.76 182.101 144.02L187.201 164.28Z" fill="black"/>
<path opacity="0.1" d="M152.47 214C152.416 214.24 152.425 214.49 152.496 214.725C152.568 214.961 152.699 215.174 152.878 215.343C153.056 215.513 153.276 215.633 153.514 215.692C153.753 215.751 154.003 215.747 154.24 215.68V215.76L153.67 216.08C153.1 216.409 152.454 216.582 151.795 216.582C151.137 216.582 150.49 216.409 149.92 216.08L148.06 215C147.381 214.604 146.843 214.005 146.522 213.288C146.201 212.57 146.113 211.77 146.27 211L166.33 119.66C166.514 118.815 166.853 118.011 167.33 117.29L173.42 120.81C172.938 121.525 172.598 122.326 172.42 123.17L152.47 214Z" fill="black"/>
<path d="M207.51 185L197.6 190.72C196.49 191.36 195.6 191.48 194.92 191.08C194.162 190.568 193.612 189.802 193.37 188.92L190.12 176L169.12 188.09L165.87 204.75C165.556 206.086 165.051 207.369 164.37 208.56C163.761 209.733 162.841 210.716 161.71 211.4L154.54 215.55C154.299 215.687 154.023 215.751 153.746 215.735C153.469 215.72 153.203 215.624 152.979 215.46C152.755 215.297 152.583 215.072 152.484 214.813C152.385 214.554 152.362 214.271 152.42 214L172.37 123.14C172.584 122.164 173 121.244 173.591 120.438C174.182 119.632 174.934 118.958 175.8 118.46L182.27 114.72C182.73 114.455 183.244 114.297 183.774 114.26C184.303 114.222 184.834 114.305 185.327 114.502C185.82 114.7 186.262 115.006 186.619 115.399C186.976 115.792 187.24 116.261 187.39 116.77L207.51 185ZM187.2 164.3L182.1 144C181.72 142.75 181.32 141.24 180.89 139.49C180.46 137.74 180.03 135.82 179.6 133.74C179.23 136.33 178.82 138.74 178.4 141.02C177.98 143.3 177.56 145.26 177.18 146.96L172.12 172.96L187.2 164.3Z" fill="#FAFAFA"/>
<path d="M254.91 150C256.656 146.998 258.19 143.877 259.5 140.66C260.853 137.344 261.988 133.943 262.9 130.48C263.82 126.98 264.521 123.427 265 119.84C265.491 116.217 265.738 112.566 265.74 108.91C265.847 103.535 265.159 98.174 263.7 92.9999C262.659 89.1117 260.666 85.5442 257.9 82.6199C257.029 81.7855 256.054 81.0663 255 80.4799L249 76.9999C247.1 75.8988 244.963 75.2711 242.77 75.1699C239.25 74.9699 235.35 76.1066 231.07 78.5799C226.591 81.2102 222.621 84.6246 219.35 88.6599C215.743 93.0386 212.705 97.857 210.31 103C205.156 114.092 202.467 126.169 202.43 138.4C202.326 143.782 203.021 149.151 204.49 154.33C205.528 158.23 207.529 161.806 210.31 164.73C211.177 165.59 212.156 166.33 213.22 166.93C214.22 167.49 218.17 169.79 219.15 170.36C221.074 171.473 223.239 172.101 225.46 172.19C228.98 172.363 232.887 171.213 237.18 168.74C239.007 167.685 240.742 166.481 242.37 165.14L244.85 167.99C245.188 168.337 245.572 168.636 245.99 168.88C246.69 169.29 251.67 172.15 252.05 172.38C252.718 172.79 253.498 172.979 254.28 172.92C255.728 172.747 257.119 172.252 258.35 171.47L268.86 165.41L254.91 150ZM245.53 124.9C244.893 128.428 243.87 131.875 242.48 135.18C241.261 138.108 239.628 140.846 237.63 143.31C235.805 145.558 233.59 147.459 231.09 148.92C229.258 150.107 227.149 150.796 224.97 150.92C223.874 149.144 223.093 147.192 222.66 145.15C221.891 141.616 221.535 138.006 221.6 134.39C221.581 130.386 221.936 126.388 222.66 122.45C223.281 118.924 224.287 115.476 225.66 112.17C226.89 109.229 228.534 106.478 230.54 104C232.377 101.722 234.613 99.7968 237.14 98.3199C238.939 97.1695 241.007 96.5077 243.14 96.3999C244.248 98.1914 245.039 100.16 245.48 102.22C246.264 105.758 246.637 109.376 246.59 113C246.602 117.004 246.247 121.001 245.53 124.94V124.9Z" fill="#E0E0E0"/>
<path opacity="0.1" d="M218.9 170.25C217.63 169.52 214.14 167.49 213.22 166.97C212.156 166.37 211.177 165.63 210.31 164.77C207.529 161.846 205.528 158.27 204.49 154.37C203.021 149.191 202.326 143.823 202.43 138.44C202.43 132.282 203.121 126.144 204.49 120.14C205.71 114.672 207.479 109.342 209.77 104.23L215.86 107.75C211.05 118.529 208.55 130.196 208.52 142C208.416 147.379 209.11 152.744 210.58 157.92C211.616 161.823 213.617 165.403 216.4 168.33C217.16 169.06 217.999 169.704 218.9 170.25Z" fill="black"/>
<path opacity="0.1" d="M248.571 98.9997C247.983 98.2624 247.248 97.6551 246.413 97.2162C245.578 96.7773 244.662 96.5163 243.721 96.4497C243.551 96.4497 243.371 96.4497 243.201 96.4497C244.304 98.2391 245.092 100.204 245.531 102.26C246.295 105.787 246.651 109.391 246.591 113C246.606 117.024 246.252 121.041 245.531 125C244.894 128.528 243.871 131.975 242.481 135.28C241.262 138.208 239.629 140.946 237.631 143.41C235.806 145.658 233.591 147.558 231.091 149.02C229.259 150.206 227.15 150.896 224.971 151.02C225.189 151.371 225.433 151.705 225.701 152.02C226.287 152.763 227.027 153.371 227.868 153.804C228.71 154.237 229.635 154.485 230.581 154.53C232.928 154.518 235.222 153.823 237.181 152.53C239.681 151.068 241.896 149.168 243.721 146.92C245.714 144.453 247.347 141.716 248.571 138.79C249.962 135.482 250.985 132.031 251.621 128.5C252.342 124.541 252.697 120.524 252.681 116.5C252.739 112.901 252.383 109.307 251.621 105.79C251.144 103.321 250.1 100.996 248.571 98.9997Z" fill="black"/>
<path opacity="0.1" d="M244.1 163.68C243.53 164.2 242.96 164.68 242.37 165.18L244.85 168.03C245.188 168.377 245.572 168.676 245.99 168.92C246.67 169.32 251.36 172.01 251.99 172.39C251.603 172.152 251.246 171.866 250.93 171.54L244.1 163.68Z" fill="black"/>
<path d="M268.86 165.45L258.35 171.52C257.12 172.293 255.733 172.784 254.29 172.96C253.661 172.991 253.033 172.879 252.453 172.633C251.873 172.387 251.356 172.014 250.94 171.54L244.1 163.68C241.986 165.626 239.665 167.336 237.18 168.78C232.887 171.253 228.98 172.403 225.46 172.23C222.052 172.104 218.816 170.697 216.4 168.29C213.621 165.361 211.62 161.782 210.58 157.88C209.119 152.716 208.425 147.365 208.52 142C208.558 129.769 211.246 117.692 216.4 106.6C218.799 101.445 221.844 96.6166 225.46 92.2297C228.734 88.1966 232.703 84.7827 237.18 82.1497C241.46 79.6697 245.36 78.533 248.88 78.7397C252.275 78.9018 255.485 80.3287 257.88 82.7397C260.652 85.6638 262.646 89.236 263.68 93.1297C265.148 98.2853 265.842 103.63 265.74 108.99C265.742 112.645 265.498 116.297 265.01 119.92C264.522 123.523 263.814 127.093 262.89 130.61C261.975 134.07 260.836 137.467 259.48 140.78C258.175 143.998 256.641 147.119 254.89 150.12L268.86 165.45ZM221.6 134.45C221.536 138.069 221.891 141.683 222.66 145.22C223.132 147.675 224.158 149.991 225.66 151.99C226.251 152.728 226.991 153.334 227.832 153.766C228.673 154.199 229.596 154.449 230.54 154.5C232.888 154.487 235.181 153.792 237.14 152.5C239.64 151.038 241.856 149.138 243.68 146.89C245.677 144.423 247.313 141.686 248.54 138.76C249.915 135.45 250.921 131.999 251.54 128.47C252.267 124.511 252.622 120.494 252.6 116.47C252.663 112.871 252.308 109.277 251.54 105.76C251.072 103.303 250.045 100.987 248.54 98.9897C247.95 98.2521 247.214 97.6447 246.377 97.2058C245.541 96.767 244.623 96.5061 243.68 96.4397C241.359 96.4206 239.083 97.0886 237.14 98.3597C234.612 99.8297 232.375 101.752 230.54 104.03C228.538 106.51 226.895 109.26 225.66 112.2C224.292 115.508 223.286 118.955 222.66 122.48C221.938 126.415 221.583 130.409 221.6 134.41V134.45Z" fill="#FAFAFA"/>
</svg>
