<svg width="125" height="100" viewBox="0 0 125 100" fill="none" xmlns="http://www.w3.org/2000/svg">
<g clip-path="url(#clip0_8_3810)">
<path d="M81.875 5L96.875 25H112.5C115.957 25 118.75 27.793 118.75 31.25V43.75C122.207 43.75 125 46.543 125 50C125 53.457 122.207 56.0742 118.75 56.25C113.047 48.6523 103.965 43.75 93.75 43.75C83.5352 43.75 74.4531 48.6523 68.5742 56.25H56.25C50.5469 48.6523 41.4648 43.75 31.25 43.75C21.0352 43.75 11.9492 48.6523 6.24805 56.25C2.79688 56.0742 0 53.457 0 50C0 46.543 2.79883 43.75 6.25 43.75V31.25C6.25 27.793 9.04883 25 12.5 25H43.75V9.375C43.75 4.19727 47.9492 0 53.125 0H71.875C75.8008 0 79.5117 1.85234 81.875 5ZM56.25 25H81.25L71.875 12.5H56.25V25ZM32.8125 50C35.1758 50 37.1289 51.7383 37.4609 54.0234C38.9453 54.4531 40.3711 55.0586 41.6992 55.7812C43.5352 54.3945 46.1523 54.5508 47.832 56.2109L50.0391 58.418C51.6992 60.0977 51.8555 62.7148 50.4688 64.5508C51.1914 65.8789 51.7969 67.3047 52.2266 68.7891C54.5117 69.1211 56.25 71.0742 56.25 73.4375V76.5625C56.25 78.9258 54.5117 80.8789 52.2266 81.2109C51.7969 82.6953 51.1914 84.1211 50.4688 85.4492C51.8555 87.2852 51.6992 89.9023 50.0391 91.582L47.832 93.7891C46.1523 95.4492 43.5352 95.6055 41.6992 94.2188C40.3711 94.9414 38.9453 95.5469 37.4609 95.9766C37.1289 98.2617 35.1758 100 32.6367 100H29.5117C27.3242 100 25.3711 98.2617 25.0391 95.9766C23.5547 95.5469 22.1289 94.9414 20.8008 94.2188C18.9629 95.6055 16.3477 95.4492 14.6777 93.7891L12.4668 91.582C10.7969 89.9023 10.6504 87.2852 12.0273 85.4492C11.2988 84.1211 10.7051 82.6953 10.2676 81.2109C7.99609 80.8789 6.07422 78.9258 6.07422 76.5625V73.4375C6.07422 71.0742 7.99609 69.1211 10.2676 68.7891C10.7051 67.3047 11.2988 65.8789 12.0273 64.5508C10.6504 62.7148 10.7969 60.0977 12.4668 58.418L14.6777 56.2109C16.3477 54.5508 18.9629 54.3945 20.8008 55.7812C22.1289 55.0586 23.5547 54.4531 25.0391 54.0234C25.3711 51.7383 27.3242 49.8242 29.5117 49.8242L32.8125 50ZM31.25 84.375C36.4258 84.375 40.625 80.1758 40.625 75C40.625 69.8242 36.4258 65.625 31.25 65.625C26.0742 65.625 21.875 69.8242 21.875 75C21.875 80.1758 26.0742 84.375 31.25 84.375ZM87.5391 54.0234C87.8711 51.7383 89.8242 50 92.1875 50H95.3125C97.6758 50 99.6289 51.7383 99.9609 54.0234C101.445 54.4531 102.871 55.0586 104.199 55.7812C106.035 54.3945 108.652 54.5508 110.332 56.2109L112.539 58.418C114.199 60.0977 114.355 62.7148 112.969 64.5508C113.691 65.8789 114.297 67.3047 114.727 68.7891C117.012 69.1211 118.75 71.0742 118.75 73.4375V76.5625C118.75 78.9258 117.012 80.8789 114.727 81.2109C114.297 82.6953 113.691 84.1211 112.969 85.4492C114.355 87.2852 114.199 89.9023 112.539 91.582L110.332 93.7891C108.652 95.4492 106.035 95.6055 104.199 94.2188C102.871 94.9414 101.445 95.5469 99.9609 95.9766C99.6289 98.2617 97.6758 100 95.3125 100H92.1875C89.8242 100 87.8711 98.2617 87.5391 95.9766C86.0547 95.5469 84.6289 94.9414 83.3008 94.2188C81.4648 95.6055 78.8477 95.4492 77.168 93.7891L74.9609 91.582C73.3008 89.9023 73.1445 87.2852 74.5312 85.4492C73.8086 84.1211 73.2031 82.6953 72.7734 81.2109C70.4883 80.8789 68.75 78.9258 68.75 76.5625V73.4375C68.75 71.0742 70.4883 69.1211 72.7734 68.7891C73.2031 67.3047 73.8086 65.8789 74.5312 64.5508C73.1445 62.7148 73.3008 60.0977 74.9609 58.418L77.168 56.2109C78.8477 54.5508 81.4648 54.3945 83.3008 55.7812C84.6289 55.0586 86.0547 54.4531 87.5391 54.0234ZM93.75 65.625C88.5742 65.625 84.375 69.8242 84.375 75C84.375 80.1758 88.5742 84.375 93.75 84.375C98.9258 84.375 103.125 80.1758 103.125 75C103.125 69.8242 98.9258 65.625 93.75 65.625Z" fill="#FAF8F5"/>
</g>
<defs>
<clipPath id="clip0_8_3810">
<rect width="125" height="100" fill="white"/>
</clipPath>
</defs>
</svg>
