<svg width="101" height="100" viewBox="0 0 101 100" fill="none" xmlns="http://www.w3.org/2000/svg">
<g clip-path="url(#clip0_8_3805)">
<path d="M65.083 4.16675H31.7497C25.9997 4.16675 21.333 8.83341 21.333 14.5834V85.4167C21.333 91.1667 25.9997 95.8334 31.7497 95.8334H65.083C70.833 95.8334 75.4997 91.1667 75.4997 85.4167V14.5834C75.4997 8.83341 70.833 4.16675 65.083 4.16675ZM48.4163 91.6667C44.958 91.6667 42.1663 88.8751 42.1663 85.4167C42.1663 81.9584 44.958 79.1667 48.4163 79.1667C51.8747 79.1667 54.6663 81.9584 54.6663 85.4167C54.6663 88.8751 51.8747 91.6667 48.4163 91.6667ZM67.1663 75.0001H29.6663V16.6667H67.1663V75.0001Z" fill="#FAF8F5"/>
</g>
<defs>
<clipPath id="clip0_8_3805">
<rect width="100" height="100" fill="white" transform="translate(0.5)"/>
</clipPath>
</defs>
</svg>
