<svg width="100" height="100" viewBox="0 0 100 100" fill="none" xmlns="http://www.w3.org/2000/svg">
<path d="M90.317 34.3516C89.9232 35.1147 89.488 35.8557 89.0133 36.5712L77.9131 52.1126C76.9849 53.4092 75.7611 54.4661 74.3431 55.1955C72.9252 55.925 71.3538 56.3061 69.7592 56.3073C68.7736 56.2914 67.7959 56.1285 66.8584 55.824V87.9586L86.1483 94.0183C86.4597 94.1125 86.7833 94.1602 87.1087 94.1596C87.5472 94.1597 87.9815 94.0735 88.3868 93.9057C88.792 93.7379 89.1602 93.4919 89.4703 93.1818C89.7804 92.8717 90.0264 92.5035 90.1942 92.0983C90.362 91.693 90.4483 91.2587 90.4481 90.8201V35.1561C90.4379 34.8835 90.3939 34.6133 90.317 34.3516Z" fill="#FAF8F5"/>
<path d="M46.8733 28.8433L39.8564 30.7749V93.3634L60.1794 87.7698V50.1141L50.5062 36.5731C48.8377 34.2374 47.6069 31.6184 46.8733 28.8433Z" fill="#FAF8F5"/>
<path d="M10.8971 25.0545C10.4791 25.3651 10.1397 25.7693 9.90595 26.2347C9.67218 26.7 9.55055 27.2136 9.55078 27.7344V83.3984C9.55058 84.1165 9.78196 84.8155 10.2105 85.3916C10.6391 85.9678 11.2421 86.3903 11.9299 86.5966L33.1763 93.2701V30.6073L13.8506 24.5362C13.352 24.3859 12.8252 24.3544 12.3123 24.4444C11.7994 24.5344 11.3147 24.7434 10.8971 25.0545Z" fill="#FAF8F5"/>
<path d="M67.0406 48.2296C67.3496 48.6623 67.7574 49.0149 68.2302 49.2582C68.7029 49.5015 69.2269 49.6284 69.7586 49.6284C70.2903 49.6284 70.8143 49.5015 71.287 49.2582C71.7597 49.0149 72.1676 48.6623 72.4766 48.2296L83.5768 32.6901C85.3899 30.1512 86.4686 27.162 86.6943 24.0504C86.9201 20.9387 86.2842 17.8251 84.8566 15.0511C83.4289 12.2772 81.2646 9.95014 78.6012 8.32547C75.9379 6.70081 72.8784 5.84131 69.7586 5.84131C66.6388 5.84131 63.5793 6.70081 60.9159 8.32547C58.2526 9.95014 56.0883 12.2772 54.6606 15.0511C53.2329 17.8251 52.5971 20.9387 52.8228 24.0504C53.0486 27.162 54.1273 30.1512 55.9404 32.6901L67.0406 48.2296ZM69.7586 17.2547C70.8595 17.2547 71.9357 17.5812 72.8511 18.1928C73.7665 18.8045 74.48 19.6738 74.9013 20.6909C75.3226 21.7081 75.4328 22.8273 75.218 23.9071C75.0032 24.9868 74.4731 25.9787 73.6946 26.7572C72.9161 27.5356 71.9243 28.0658 70.8445 28.2806C69.7647 28.4953 68.6455 28.3851 67.6284 27.9638C66.6113 27.5425 65.7419 26.829 65.1303 25.9136C64.5186 24.9982 64.1922 23.922 64.1922 22.8211C64.1921 22.0901 64.3361 21.3663 64.6158 20.6909C64.8956 20.0156 65.3056 19.4019 65.8225 18.885C66.3394 18.3681 66.953 17.9581 67.6284 17.6784C68.3037 17.3986 69.0276 17.2547 69.7586 17.2547Z" fill="#FAF8F5"/>
</svg>
