<svg width="18" height="18" viewBox="0 0 18 18" fill="none" xmlns="http://www.w3.org/2000/svg">
<g clip-path="url(#clip0_192_1681)">
<path fill-rule="evenodd" clip-rule="evenodd" d="M15.8008 0C17.0146 0 18 0.98543 18 2.19916V15.8008C18 17.0146 17.0146 18 15.8008 18H2.19916C0.98543 18 0 17.0146 0 15.8008V2.19916C0 0.98543 0.985394 0 2.19916 0L15.8008 0ZM6.87371 14.9254C11.6528 14.9254 14.2659 10.9653 14.2659 7.53314C14.2659 7.42001 14.2659 7.30684 14.2606 7.19909C14.767 6.83272 15.2088 6.37474 15.5591 5.85211C15.0957 6.05686 14.5946 6.19696 14.0666 6.26161C14.6054 5.93831 15.0149 5.43185 15.2088 4.82302C14.7078 5.11935 14.1528 5.33489 13.5602 5.4534C13.086 4.94694 12.4125 4.63444 11.6636 4.63444C10.2304 4.63444 9.06662 5.79825 9.06662 7.23143C9.06662 7.43618 9.08817 7.63552 9.13665 7.82409C6.97609 7.71634 5.06338 6.68187 3.78105 5.10859C3.56013 5.49113 3.43083 5.93831 3.43083 6.41247C3.43083 7.31225 3.88881 8.10967 4.58923 8.57303C4.16359 8.56223 3.76488 8.44372 3.41466 8.24973V8.28207C3.41466 9.54285 4.30907 10.5881 5.49981 10.8306C5.2843 10.8898 5.05262 10.9222 4.81553 10.9222C4.6485 10.9222 4.48689 10.906 4.32524 10.8737C4.65391 11.9082 5.61294 12.6571 6.74979 12.6786C5.86079 13.3737 4.74012 13.7885 3.52245 13.7885C3.31232 13.7885 3.10757 13.7778 2.90282 13.7508C4.03966 14.4944 5.40819 14.9254 6.87371 14.9254Z" fill="#A89887"/>
</g>
<defs>
<clipPath id="clip0_192_1681">
<rect width="18" height="18" fill="white"/>
</clipPath>
</defs>
</svg>
