<svg width="268" height="44" viewBox="0 0 268 44" fill="none" xmlns="http://www.w3.org/2000/svg">
<path d="M246.15 7.50433C202.279 5.20293 163.767 11.8913 139.039 26.8087C126.378 34.4465 152.828 46.4901 165.35 37.4261C177.027 28.9737 140.132 18.3052 124.55 16.656C90.7415 13.0778 58.0737 13.9391 23.75 13.9391" stroke="#1C1C1C" stroke-width="5" stroke-linecap="round"/>
<path d="M18.9511 10.0782C15.2877 11.0326 -4.55187 14.4798 5.44005 15.9411C10.5327 16.6858 15.4542 18.2084 20.5511 19.087" stroke="#1C1C1C" stroke-width="5" stroke-linecap="round"/>
<path d="M244.551 3C246.562 3.43619 264.497 6.14164 265.262 7.21836C265.961 8.20205 261.939 8.32118 260.551 8.7913C256.8 10.0615 253.782 10.3005 250.951 12.0087" stroke="#1C1C1C" stroke-width="5" stroke-linecap="round"/>
</svg>
