<svg width="360" height="472" viewBox="0 0 360 472" fill="none" xmlns="http://www.w3.org/2000/svg">
<path d="M461.741 9.74724C515.082 63.0884 548.337 126.385 559.002 185.583C569.667 244.783 557.736 299.833 520.784 336.784C483.833 373.736 428.783 385.667 369.583 375.002C310.385 364.337 247.088 331.082 193.747 277.741C140.406 224.4 107.151 161.103 96.4861 101.905C85.8211 42.7054 97.7523 -12.3446 134.704 -49.2962C171.655 -86.2477 226.705 -98.1789 285.905 -87.514C345.103 -76.8494 408.4 -43.5939 461.741 9.74724Z" stroke="white"/>
<path d="M493.741 -22.2528C547.082 31.0884 580.337 94.3849 591.002 153.583C601.667 212.783 589.736 267.833 552.784 304.784C515.833 341.736 460.783 353.667 401.583 343.002C342.385 332.337 279.088 299.082 225.747 245.741C172.406 192.4 139.151 129.103 128.486 69.9053C117.821 10.7054 129.752 -44.3446 166.704 -81.2962C203.655 -118.248 258.705 -130.179 317.905 -119.514C377.103 -108.849 440.4 -75.5939 493.741 -22.2528Z" stroke="white"/>
<path d="M525.741 -54.2528C579.082 -0.911641 612.337 62.3849 623.002 121.583C633.667 180.783 621.736 235.833 584.784 272.784C547.833 309.736 492.783 321.667 433.583 311.002C374.385 300.337 311.088 267.082 257.747 213.741C204.406 160.4 171.151 97.1031 160.486 37.9053C149.821 -21.2946 161.752 -76.3446 198.704 -113.296C235.655 -150.248 290.705 -162.179 349.905 -151.514C409.103 -140.849 472.4 -107.594 525.741 -54.2528Z" stroke="white"/>
</svg>
