<svg width="217" height="376" viewBox="0 0 217 376" fill="none" xmlns="http://www.w3.org/2000/svg">
<path d="M155.585 376L27.7233 375.414C20.3414 375.369 13.2786 372.405 8.08226 367.174C2.88589 361.942 -0.0203984 354.869 0.000107783 347.504L1.35645 27.671C1.39971 20.3023 4.36975 13.2514 9.61536 8.06425C14.861 2.87713 21.954 -0.0228595 29.3393 0.000135717L157.201 0.585608C164.579 0.631288 171.639 3.59186 176.835 8.81926C182.031 14.0467 184.939 21.1151 184.924 28.4773L183.568 348.31C183.529 355.682 180.562 362.738 175.315 367.929C170.069 373.12 162.973 376.023 155.585 376Z" fill="#455A64"/>
<path d="M157.018 11.6231L132.229 11.5079C130.597 11.5382 129.044 12.2129 127.909 13.3842C126.775 14.5555 126.153 16.1277 126.178 17.7562V22.248C126.191 23.0542 126.044 23.855 125.747 24.6046C125.449 25.3542 125.006 26.0379 124.443 26.6164C123.88 27.195 123.208 27.6571 122.466 27.9764C121.724 28.2957 120.926 28.4658 120.118 28.4771L71.7901 28.2563C70.1588 28.2086 68.6128 27.5185 67.4899 26.337C66.3669 25.1554 65.7584 23.5783 65.7972 21.9505V17.4586C65.8258 15.8415 65.215 14.2781 64.097 13.107C62.9791 11.9358 61.4438 11.251 59.8236 11.2008H51.1084L29.4166 11.0376C24.2443 11.0121 19.2736 13.0371 15.5973 16.6673C11.9211 20.2976 9.84018 25.236 9.81219 30.3967L8.49433 342.58C8.47132 347.74 10.5033 352.699 14.1435 356.365C17.7837 360.031 22.7341 362.105 27.9063 362.131L155.518 362.716C158.079 362.727 160.618 362.235 162.99 361.268C165.361 360.3 167.518 358.876 169.337 357.076C171.157 355.277 172.603 353.137 173.594 350.78C174.585 348.423 175.101 345.894 175.112 343.338L176.43 31.1645C176.442 28.6096 175.949 26.0775 174.979 23.7128C174.01 21.348 172.583 19.1969 170.78 17.3823C168.978 15.5677 166.835 14.1252 164.473 13.137C162.112 12.1488 159.579 11.6344 157.018 11.6231Z" fill="#FAFAFA"/>
<path d="M9.6582 67.8767H30.5708L49.2325 86.5063L29.8301 105.865L9.87945 85.9497L9.6582 67.8767Z" fill="#EBEBEB"/>
<path d="M53.494 78.3289L43.0088 67.8767H66.5956L53.494 78.3289Z" fill="#EBEBEB"/>
<path d="M62.6611 86.8708L81.0246 68.5483H145.186C145.186 68.5483 155.008 112.315 116.328 140.418L62.6611 86.8708Z" fill="#EBEBEB"/>
<path d="M54.802 92.7065L35.1592 112.315L89.5185 166.553L109.161 146.292L54.802 92.7065Z" fill="#EBEBEB"/>
<path d="M9.41797 123.43L21.7308 110.684L9.65845 98.6382L9.41797 123.43Z" fill="#EBEBEB"/>
<path d="M29.0973 118.199L10.1855 137.068V163.29L49.2308 203.15L82.312 172.437L29.0973 118.199Z" fill="#EBEBEB"/>
<path d="M123.687 145.917C123.687 145.917 164.204 116.279 151.102 68.5483H176.295L175.987 203.265L123.687 145.917Z" fill="#EBEBEB"/>
<path d="M116.068 153.692L96.4824 174.097L156.546 234.036L174.919 214.61L116.068 153.692Z" fill="#EBEBEB"/>
<path d="M88.2976 179.683L57.5059 210.186L119.089 271.2L149.823 241.552L88.2976 179.683Z" fill="#EBEBEB"/>
<path d="M72.1553 332.512L119.233 283.831L164.011 329.373L72.1553 332.512Z" fill="#EBEBEB"/>
<path d="M126.573 277.544L175.632 229.074C175.632 231.224 175.209 329.574 175.209 329.574L126.573 277.544Z" fill="#EBEBEB"/>
<path d="M84.604 250.324L112.414 278.072L57.5061 334.604L32.1396 304.246L84.604 250.324Z" fill="#EBEBEB"/>
<path d="M9.4668 308.181C12.0929 307.921 79.3423 245.084 79.3423 245.084L9.4668 172.84V308.181Z" fill="#EBEBEB"/>
<path d="M8.49414 322.501L24.6836 308.181L47.1065 334.604H8.49414V324.497" fill="#EBEBEB"/>
<path d="M29.4162 48.8535C27.7052 47.5939 26.0969 46.201 24.6064 44.6879C24.6064 43.9585 24.6064 44.4864 24.6064 44.3232L24.6738 44.2656L24.7892 44.1601L25.0297 43.9393L25.4914 43.5074L26.3668 42.7012L27.877 41.3575C28.3345 40.8912 28.852 40.4877 29.4162 40.1577C29.073 40.6796 28.6585 41.1513 28.1849 41.559L26.742 42.9795L25.8858 43.8049L25.4241 44.2464L25.1932 44.4672L25.0682 44.5728L25.0105 44.6304V44.2656C26.5965 45.6782 28.0695 47.2121 29.4162 48.8535Z" fill="#263238"/>
<path d="M162.404 41.5303C162.406 41.738 162.345 41.9416 162.231 42.1151C162.116 42.2886 161.953 42.4242 161.761 42.5045C161.569 42.5849 161.357 42.6064 161.153 42.5664C160.949 42.5263 160.761 42.4265 160.614 42.2796C160.467 42.1327 160.366 41.9454 160.326 41.7416C160.286 41.5378 160.308 41.3266 160.388 41.1351C160.469 40.9435 160.605 40.7802 160.779 40.666C160.953 40.5518 161.157 40.4918 161.365 40.4937C161.64 40.4937 161.905 40.6029 162.099 40.7973C162.294 40.9917 162.404 41.2554 162.404 41.5303Z" fill="#263238"/>
<path d="M162.108 44.3809C162.254 44.5271 162.354 44.7135 162.395 44.9165C162.436 45.1195 162.415 45.33 162.336 45.5213C162.256 45.7126 162.122 45.8761 161.95 45.9911C161.777 46.1062 161.574 46.1676 161.367 46.1676C161.159 46.1676 160.957 46.1062 160.784 45.9911C160.612 45.8761 160.477 45.7126 160.398 45.5213C160.319 45.33 160.298 45.1195 160.339 44.9165C160.379 44.7135 160.479 44.5271 160.626 44.3809C160.824 44.1875 161.09 44.0791 161.367 44.0791C161.644 44.0791 161.91 44.1875 162.108 44.3809Z" fill="#263238"/>
<path d="M162.405 48.7C162.38 48.9589 162.259 49.1993 162.066 49.3742C161.873 49.5491 161.622 49.6461 161.361 49.6461C161.1 49.6461 160.849 49.5491 160.656 49.3742C160.463 49.1993 160.342 48.9589 160.317 48.7C160.303 48.5548 160.32 48.4084 160.366 48.27C160.412 48.1316 160.487 48.0043 160.585 47.8964C160.683 47.7885 160.803 47.7022 160.937 47.6432C161.07 47.5842 161.215 47.5537 161.361 47.5537C161.507 47.5537 161.652 47.5842 161.785 47.6432C161.919 47.7022 162.039 47.7885 162.137 47.8964C162.235 48.0043 162.31 48.1316 162.356 48.27C162.402 48.4084 162.419 48.5548 162.405 48.7Z" fill="#263238"/>
<path d="M112.433 112.939C112.433 95.4517 94.0212 84.3756 75.2441 93.1385C70.9954 95.1188 67.5197 98.4417 65.3554 102.593C60.6322 111.72 62.7197 122.144 67.0003 130.801L81.6218 167.763C82.0835 168.94 82.8905 169.952 83.9373 170.665C84.9841 171.378 86.2222 171.759 87.4896 171.759C88.7571 171.759 89.9952 171.378 91.042 170.665C92.0888 169.952 92.8958 168.94 93.3575 167.763L107.681 130.609C112.644 119.283 112.433 112.939 112.433 112.939ZM94.8293 128.2C82.2086 135.523 69.4148 121.99 76.3311 108.63C77.2425 106.868 78.6326 105.398 80.3424 104.387C92.9727 97.0641 105.767 110.597 98.8406 123.958C97.9331 125.722 96.542 127.193 94.8293 128.2Z" fill="#FF8500"/>
<ellipse cx="151.481" cy="151.435" rx="41.4332" ry="41.6935" fill="#5E3AED"/>
<path opacity="0.4" d="M200.036 205.89C198.426 205.838 196.896 205.176 195.751 204.036L185.939 192.567C183.835 190.644 183.663 187.374 185.553 185.238C186.438 184.342 187.641 183.839 188.895 183.839C190.15 183.839 191.353 184.342 192.237 185.238L204.577 195.111C206.355 196.931 206.903 199.631 205.978 202.007C205.052 204.382 202.825 205.988 200.293 206.106L200.036 205.89Z" fill="#5E3AED"/>
</svg>
