<svg width="392" height="317" viewBox="0 0 392 317" fill="none" xmlns="http://www.w3.org/2000/svg">
<path d="M133.741 257.761C187.082 311.102 220.337 374.398 231.002 433.596C241.667 492.796 229.736 547.846 192.784 584.797C155.833 621.749 100.783 633.68 41.5826 623.015C-17.6151 612.351 -80.9116 579.095 -134.253 525.754C-187.594 472.413 -220.849 409.116 -231.514 349.919C-242.179 290.719 -230.248 235.669 -193.296 198.717C-156.345 161.766 -101.295 149.834 -42.0947 160.499C17.1031 171.164 80.3996 204.419 133.741 257.761Z" stroke="white"/>
<path d="M165.741 225.761C219.082 279.102 252.337 342.398 263.002 401.596C273.667 460.796 261.736 515.846 224.784 552.797C187.833 589.749 132.783 601.68 73.5826 591.015C14.3849 580.351 -48.9116 547.095 -102.253 493.754C-155.594 440.413 -188.849 377.116 -199.514 317.919C-210.179 258.719 -198.248 203.669 -161.296 166.717C-124.345 129.766 -69.2946 117.834 -10.0947 128.499C49.1031 139.164 112.4 172.419 165.741 225.761Z" stroke="white"/>
<path d="M197.741 193.761C251.082 247.102 284.337 310.398 295.002 369.596C305.667 428.796 293.736 483.846 256.784 520.797C219.833 557.749 164.783 569.68 105.583 559.015C46.3849 548.351 -16.9116 515.095 -70.2527 461.754C-123.594 408.413 -156.849 345.116 -167.514 285.919C-178.179 226.719 -166.248 171.669 -129.296 134.717C-92.3446 97.7656 -37.2946 85.8344 21.9053 96.4994C81.1031 107.164 144.4 140.419 197.741 193.761Z" stroke="white"/>
</svg>
