<svg width="268" height="44" viewBox="0 0 268 44" fill="none" xmlns="http://www.w3.org/2000/svg">
<path d="M246.151 7.50439C202.28 5.203 163.768 11.8914 139.04 26.8088C126.379 34.4465 152.829 46.4902 165.351 37.4262C177.028 28.9738 140.133 18.3052 124.551 16.6561C90.7425 13.0779 58.0747 13.9392 23.751 13.9392" stroke="#1C1C1C" stroke-width="5" stroke-linecap="round"/>
<path d="M18.9511 10.0782C15.2877 11.0326 -4.55187 14.4798 5.44005 15.9411C10.5327 16.6858 15.4542 18.2084 20.5511 19.087" stroke="#1C1C1C" stroke-width="5" stroke-linecap="round"/>
<path d="M244.551 3C246.562 3.43619 264.497 6.14164 265.262 7.21836C265.961 8.20205 261.939 8.32118 260.551 8.7913C256.8 10.0615 253.782 10.3005 250.951 12.0087" stroke="#1C1C1C" stroke-width="5" stroke-linecap="round"/>
</svg>
