<svg width="360" height="472" viewBox="0 0 360 472" fill="none" xmlns="http://www.w3.org/2000/svg">
<path d="M461.741 9.76055C515.082 63.1017 548.337 126.398 559.002 185.596C569.667 244.796 557.736 299.846 520.784 336.797C483.833 373.749 428.783 385.68 369.583 375.015C310.385 364.351 247.088 331.095 193.747 277.754C140.406 224.413 107.151 161.116 96.4861 101.919C85.8211 42.7187 97.7523 -12.3313 134.704 -49.2829C171.655 -86.2344 226.705 -98.1656 285.905 -87.5006C345.103 -76.8361 408.4 -43.5806 461.741 9.76055Z" stroke="white"/>
<path d="M493.741 -22.2395C547.082 31.1017 580.337 94.3982 591.002 153.596C601.667 212.796 589.736 267.846 552.784 304.797C515.833 341.749 460.783 353.68 401.583 343.015C342.385 332.351 279.088 299.095 225.747 245.754C172.406 192.413 139.151 129.116 128.486 69.9186C117.821 10.7187 129.752 -44.3313 166.704 -81.2829C203.655 -118.234 258.705 -130.166 317.905 -119.501C377.103 -108.836 440.4 -75.5806 493.741 -22.2395Z" stroke="white"/>
<path d="M525.741 -54.2395C579.082 -0.898335 612.337 62.3982 623.002 121.596C633.667 180.796 621.736 235.846 584.784 272.797C547.833 309.749 492.783 321.68 433.583 311.015C374.385 300.351 311.088 267.095 257.747 213.754C204.406 160.413 171.151 97.1164 160.486 37.9186C149.821 -21.2813 161.752 -76.3313 198.704 -113.283C235.655 -150.234 290.705 -162.166 349.905 -151.501C409.103 -140.836 472.4 -107.581 525.741 -54.2395Z" stroke="white"/>
</svg>
