<svg width="24" height="24" viewBox="0 0 24 24" fill="none" xmlns="http://www.w3.org/2000/svg">
<path d="M6.54632 12.5704H11.1417V17.1659C11.1417 17.6329 11.5259 18.0247 12.0006 18.0247C12.4752 18.0247 12.8594 17.6329 12.8594 17.1659V12.5704H17.4548C17.9219 12.5704 18.3136 12.1862 18.3136 11.7116C18.3136 11.237 17.9219 10.8528 17.4548 10.8528H12.8594V6.25738C12.8594 5.7903 12.4752 5.39856 12.0006 5.39856C11.5259 5.39856 11.1417 5.7903 11.1417 6.25738V10.8528H6.54632C6.07924 10.8528 5.6875 11.237 5.6875 11.7116C5.6875 12.1862 6.07924 12.5704 6.54632 12.5704Z" fill="#1A0F91"/>
</svg>
