<svg width="24" height="24" viewBox="0 0 24 24" fill="none" xmlns="http://www.w3.org/2000/svg">
<path d="M6.54632 12.5706H11.1417V17.166C11.1417 17.6331 11.5259 18.0248 12.0006 18.0248C12.4752 18.0248 12.8594 17.6331 12.8594 17.166V12.5706H17.4548C17.9219 12.5706 18.3136 12.1863 18.3136 11.7117C18.3136 11.2371 17.9219 10.8529 17.4548 10.8529H12.8594V6.2575C12.8594 5.79042 12.4752 5.39868 12.0006 5.39868C11.5259 5.39868 11.1417 5.79042 11.1417 6.2575V10.8529H6.54632C6.07924 10.8529 5.6875 11.2371 5.6875 11.7117C5.6875 12.1863 6.07924 12.5706 6.54632 12.5706Z" fill="#1A0F91"/>
</svg>
