<svg width="24" height="24" viewBox="0 0 24 24" fill="none" xmlns="http://www.w3.org/2000/svg">
<path d="M6.54632 12.5684H11.1417V17.1638C11.1417 17.6309 11.5259 18.0226 12.0006 18.0226C12.4752 18.0226 12.8594 17.6309 12.8594 17.1638V12.5684H17.4548C17.9219 12.5684 18.3136 12.1842 18.3136 11.7095C18.3136 11.2349 17.9219 10.8507 17.4548 10.8507H12.8594V6.2553C12.8594 5.78823 12.4752 5.39648 12.0006 5.39648C11.5259 5.39648 11.1417 5.78823 11.1417 6.2553V10.8507H6.54632C6.07924 10.8507 5.6875 11.2349 5.6875 11.7095C5.6875 12.1842 6.07924 12.5684 6.54632 12.5684Z" fill="#1A0F91"/>
</svg>
