<svg width="24" height="24" viewBox="0 0 24 24" fill="none" xmlns="http://www.w3.org/2000/svg">
<path d="M6.54632 12.5665H11.1417V17.1619C11.1417 17.629 11.5259 18.0207 12.0006 18.0207C12.4752 18.0207 12.8594 17.629 12.8594 17.1619V12.5665H17.4548C17.9219 12.5665 18.3136 12.1823 18.3136 11.7077C18.3136 11.233 17.9219 10.8488 17.4548 10.8488H12.8594V6.25341C12.8594 5.78633 12.4752 5.39459 12.0006 5.39459C11.5259 5.39459 11.1417 5.78633 11.1417 6.25341V10.8488H6.54632C6.07924 10.8488 5.6875 11.233 5.6875 11.7077C5.6875 12.1823 6.07924 12.5665 6.54632 12.5665Z" fill="#1A0F91"/>
</svg>
