<svg width="24" height="24" viewBox="0 0 24 24" fill="none" xmlns="http://www.w3.org/2000/svg">
<path d="M6.54632 12.5685H11.1417V17.1639C11.1417 17.631 11.5259 18.0227 12.0006 18.0227C12.4752 18.0227 12.8594 17.631 12.8594 17.1639V12.5685H17.4548C17.9219 12.5685 18.3136 12.1843 18.3136 11.7097C18.3136 11.2351 17.9219 10.8508 17.4548 10.8508H12.8594V6.25542C12.8594 5.78835 12.4752 5.39661 12.0006 5.39661C11.5259 5.39661 11.1417 5.78835 11.1417 6.25542V10.8508H6.54632C6.07924 10.8508 5.6875 11.2351 5.6875 11.7097C5.6875 12.1843 6.07924 12.5685 6.54632 12.5685Z" fill="#1A0F91"/>
</svg>
