<svg width="24" height="24" viewBox="0 0 24 24" fill="none" xmlns="http://www.w3.org/2000/svg">
<path d="M6.54534 12.5723H11.1408V17.1677C11.1408 17.6348 11.525 18.0265 11.9996 18.0265C12.4742 18.0265 12.8584 17.6348 12.8584 17.1677V12.5723H17.4538C17.9209 12.5723 18.3126 12.1881 18.3126 11.7134C18.3126 11.2388 17.9209 10.8546 17.4538 10.8546H12.8584V6.25921C12.8584 5.79213 12.4742 5.40039 11.9996 5.40039C11.525 5.40039 11.1408 5.79213 11.1408 6.25921V10.8546H6.54534C6.07826 10.8546 5.68652 11.2388 5.68652 11.7134C5.68652 12.1881 6.07826 12.5723 6.54534 12.5723Z" fill="#1A0F91"/>
</svg>
