<svg width="24" height="24" viewBox="0 0 24 24" fill="none" xmlns="http://www.w3.org/2000/svg">
<path d="M6.54534 12.5684H11.1408V17.1638C11.1408 17.6309 11.525 18.0226 11.9996 18.0226C12.4742 18.0226 12.8584 17.6309 12.8584 17.1638V12.5684H17.4538C17.9209 12.5684 18.3126 12.1842 18.3126 11.7095C18.3126 11.2349 17.9209 10.8507 17.4538 10.8507H12.8584V6.2553C12.8584 5.78823 12.4742 5.39648 11.9996 5.39648C11.525 5.39648 11.1408 5.78823 11.1408 6.2553V10.8507H6.54534C6.07826 10.8507 5.68652 11.2349 5.68652 11.7095C5.68652 12.1842 6.07826 12.5684 6.54534 12.5684Z" fill="#1A0F91"/>
</svg>
