<svg width="24" height="24" viewBox="0 0 24 24" fill="none" xmlns="http://www.w3.org/2000/svg">
<path d="M6.54534 12.5703H11.1408V17.1657C11.1408 17.6328 11.525 18.0246 11.9996 18.0246C12.4742 18.0246 12.8584 17.6328 12.8584 17.1657V12.5703H17.4538C17.9209 12.5703 18.3126 12.1861 18.3126 11.7115C18.3126 11.2369 17.9209 10.8527 17.4538 10.8527H12.8584V6.25725C12.8584 5.79018 12.4742 5.39844 11.9996 5.39844C11.525 5.39844 11.1408 5.79018 11.1408 6.25725V10.8527H6.54534C6.07826 10.8527 5.68652 11.2369 5.68652 11.7115C5.68652 12.1861 6.07826 12.5703 6.54534 12.5703Z" fill="#1A0F91"/>
</svg>
