<svg width="24" height="24" viewBox="0 0 24 24" fill="none" xmlns="http://www.w3.org/2000/svg">
<path d="M6.54632 12.5725H11.1417V17.1679C11.1417 17.635 11.5259 18.0268 12.0006 18.0268C12.4752 18.0268 12.8594 17.635 12.8594 17.1679V12.5725H17.4548C17.9219 12.5725 18.3136 12.1883 18.3136 11.7137C18.3136 11.2391 17.9219 10.8549 17.4548 10.8549H12.8594V6.25945C12.8594 5.79238 12.4752 5.40063 12.0006 5.40063C11.5259 5.40063 11.1417 5.79238 11.1417 6.25945V10.8549H6.54632C6.07924 10.8549 5.6875 11.2391 5.6875 11.7137C5.6875 12.1883 6.07924 12.5725 6.54632 12.5725Z" fill="#1A0F91"/>
</svg>
