<svg width="24" height="24" viewBox="0 0 24 24" fill="none" xmlns="http://www.w3.org/2000/svg">
<path d="M6.54534 12.5664H11.1408V17.1618C11.1408 17.6289 11.525 18.0206 11.9996 18.0206C12.4742 18.0206 12.8584 17.6289 12.8584 17.1618V12.5664H17.4538C17.9209 12.5664 18.3126 12.1822 18.3126 11.7076C18.3126 11.233 17.9209 10.8488 17.4538 10.8488H12.8584V6.25335C12.8584 5.78627 12.4742 5.39453 11.9996 5.39453C11.525 5.39453 11.1408 5.78627 11.1408 6.25335V10.8488H6.54534C6.07826 10.8488 5.68652 11.233 5.68652 11.7076C5.68652 12.1822 6.07826 12.5664 6.54534 12.5664Z" fill="#1A0F91"/>
</svg>
