<svg width="24" height="24" viewBox="0 0 24 24" fill="none" xmlns="http://www.w3.org/2000/svg">
<path d="M6.54632 12.5664H11.1417V17.1618C11.1417 17.6289 11.5259 18.0206 12.0006 18.0206C12.4752 18.0206 12.8594 17.6289 12.8594 17.1618V12.5664H17.4548C17.9219 12.5664 18.3136 12.1822 18.3136 11.7076C18.3136 11.233 17.9219 10.8488 17.4548 10.8488H12.8594V6.25335C12.8594 5.78627 12.4752 5.39453 12.0006 5.39453C11.5259 5.39453 11.1417 5.78627 11.1417 6.25335V10.8488H6.54632C6.07924 10.8488 5.6875 11.233 5.6875 11.7076C5.6875 12.1822 6.07924 12.5664 6.54632 12.5664Z" fill="#1A0F91"/>
</svg>
