<svg width="24" height="24" viewBox="0 0 24 24" fill="none" xmlns="http://www.w3.org/2000/svg">
<path d="M6.54534 12.5645H11.1408V17.1599C11.1408 17.627 11.525 18.0187 11.9996 18.0187C12.4742 18.0187 12.8584 17.627 12.8584 17.1599V12.5645H17.4538C17.9209 12.5645 18.3126 12.1802 18.3126 11.7056C18.3126 11.231 17.9209 10.8468 17.4538 10.8468H12.8584V6.2514C12.8584 5.78432 12.4742 5.39258 11.9996 5.39258C11.525 5.39258 11.1408 5.78432 11.1408 6.2514V10.8468H6.54534C6.07826 10.8468 5.68652 11.231 5.68652 11.7056C5.68652 12.1802 6.07826 12.5645 6.54534 12.5645Z" fill="#1A0F91"/>
</svg>
