<svg width="24" height="25" viewBox="0 0 24 25" fill="none" xmlns="http://www.w3.org/2000/svg">
<path d="M6.54632 12.5745H11.1417V17.1699C11.1417 17.637 11.5259 18.0287 12.0006 18.0287C12.4752 18.0287 12.8594 17.637 12.8594 17.1699V12.5745H17.4548C17.9219 12.5745 18.3136 12.1903 18.3136 11.7156C18.3136 11.241 17.9219 10.8568 17.4548 10.8568H12.8594V6.2614C12.8594 5.79433 12.4752 5.40259 12.0006 5.40259C11.5259 5.40259 11.1417 5.79433 11.1417 6.2614V10.8568H6.54632C6.07924 10.8568 5.6875 11.241 5.6875 11.7156C5.6875 12.1903 6.07924 12.5745 6.54632 12.5745Z" fill="#1A0F91"/>
</svg>
