<svg width="24" height="24" viewBox="0 0 24 24" fill="none" xmlns="http://www.w3.org/2000/svg">
<path d="M6.54632 12.5724H11.1417V17.1679C11.1417 17.6349 11.5259 18.0267 12.0006 18.0267C12.4752 18.0267 12.8594 17.6349 12.8594 17.1679V12.5724H17.4548C17.9219 12.5724 18.3136 12.1882 18.3136 11.7136C18.3136 11.239 17.9219 10.8548 17.4548 10.8548H12.8594V6.25939C12.8594 5.79231 12.4752 5.40057 12.0006 5.40057C11.5259 5.40057 11.1417 5.79231 11.1417 6.25939V10.8548H6.54632C6.07924 10.8548 5.6875 11.239 5.6875 11.7136C5.6875 12.1882 6.07924 12.5724 6.54632 12.5724Z" fill="#1A0F91"/>
</svg>
