<svg width="24" height="25" viewBox="0 0 24 25" fill="none" xmlns="http://www.w3.org/2000/svg">
<path d="M6.54534 12.5742H11.1408V17.1696C11.1408 17.6367 11.525 18.0285 11.9996 18.0285C12.4742 18.0285 12.8584 17.6367 12.8584 17.1696V12.5742H17.4538C17.9209 12.5742 18.3126 12.19 18.3126 11.7154C18.3126 11.2408 17.9209 10.8566 17.4538 10.8566H12.8584V6.26116C12.8584 5.79408 12.4742 5.40234 11.9996 5.40234C11.525 5.40234 11.1408 5.79408 11.1408 6.26116V10.8566H6.54534C6.07826 10.8566 5.68652 11.2408 5.68652 11.7154C5.68652 12.19 6.07826 12.5742 6.54534 12.5742Z" fill="#1A0F91"/>
</svg>
