<svg width="24" height="24" viewBox="0 0 24 24" fill="none" xmlns="http://www.w3.org/2000/svg">
<path d="M6.54632 12.5645H11.1417V17.1599C11.1417 17.627 11.5259 18.0187 12.0006 18.0187C12.4752 18.0187 12.8594 17.627 12.8594 17.1599V12.5645H17.4548C17.9219 12.5645 18.3136 12.1802 18.3136 11.7056C18.3136 11.231 17.9219 10.8468 17.4548 10.8468H12.8594V6.2514C12.8594 5.78432 12.4752 5.39258 12.0006 5.39258C11.5259 5.39258 11.1417 5.78432 11.1417 6.2514V10.8468H6.54632C6.07924 10.8468 5.6875 11.231 5.6875 11.7056C5.6875 12.1802 6.07924 12.5645 6.54632 12.5645Z" fill="#1A0F91"/>
</svg>
