<svg width="18" height="18" viewBox="0 0 18 18" fill="none" xmlns="http://www.w3.org/2000/svg">
<path d="M9.5625 0C4.89375 0 1.125 3.76875 1.125 8.4375C1.125 10.35 1.74375 12.15 2.925 13.6125L1.74375 17.2125C1.6875 17.4375 1.74375 17.6625 1.9125 17.8313C1.96875 17.9438 2.1375 18 2.25 18C2.30625 18 2.41875 18 2.475 17.9438L6.35625 16.2C7.36875 16.65 8.4375 16.875 9.5625 16.875C14.2312 16.875 18 13.1062 18 8.4375C18 3.76875 14.2312 0 9.5625 0ZM14.4563 11.5312C14.2313 12.2063 13.3875 12.7688 12.6562 12.8812C12.4875 12.9375 12.3188 12.9375 12.0938 12.9375C11.6438 12.9375 10.9688 12.825 9.7875 12.3187C8.4375 11.7562 7.0875 10.575 6.01875 9.05625V9C5.68125 8.49375 5.0625 7.5375 5.0625 6.525C5.0625 5.2875 5.68125 4.66875 5.90625 4.3875C6.1875 4.10625 6.58125 3.9375 7.03125 3.9375C7.14375 3.9375 7.2 3.9375 7.3125 3.9375C7.70625 3.9375 7.9875 4.05 8.26875 4.6125L8.49375 5.0625C8.6625 5.5125 8.8875 6.01875 8.94375 6.075C9.1125 6.4125 9.1125 6.69375 8.94375 6.975C8.8875 7.14375 8.775 7.25625 8.6625 7.36875C8.60625 7.48125 8.55 7.5375 8.49375 7.5375C8.4375 7.59375 8.4375 7.59375 8.38125 7.65C8.55 7.93125 8.8875 8.4375 9.3375 8.83125C10.0125 9.45 10.5188 9.61875 10.8 9.73125C10.9125 9.61875 11.025 9.39375 11.1937 9.225L11.25 9.1125C11.5312 8.71875 11.9812 8.60625 12.4313 8.775C12.6562 8.8875 13.8938 9.45 13.8938 9.45L14.0062 9.50625C14.175 9.61875 14.4 9.675 14.5125 9.9C14.7375 10.4062 14.5688 11.1375 14.4563 11.5312Z" fill="#A89887"/>
</svg>
