<svg width="33" height="32" viewBox="0 0 33 32" fill="none" xmlns="http://www.w3.org/2000/svg">
<path d="M24.0806 17.2251C24.0456 13.7075 26.9491 12.0204 27.0789 11.9352C25.4471 9.54927 22.9049 9.2219 22.0001 9.18464C19.8382 8.96507 17.7797 10.458 16.683 10.458C15.5886 10.458 13.8941 9.21682 12.1014 9.24843C9.74317 9.28342 7.5695 10.62 6.35595 12.731C3.90683 16.9796 5.72942 23.276 8.11588 26.7242C9.28259 28.4096 10.6739 30.3061 12.4994 30.2367C14.2587 30.1673 14.9225 29.0988 17.0493 29.0988C19.1762 29.0988 19.7733 30.2367 21.6343 30.2011C23.5263 30.1667 24.7258 28.4835 25.8829 26.7913C27.2223 24.8333 27.7738 22.9373 27.8065 22.8414C27.7653 22.8222 24.1184 21.4252 24.0806 17.2251Z" fill="black"/>
<path d="M20.5835 6.9027C21.5515 5.72753 22.2074 4.09459 22.029 2.46899C20.632 2.52544 18.941 3.3975 17.9379 4.57155C17.0393 5.61351 16.2536 7.27241 16.4642 8.86866C18.0226 8.98945 19.6121 8.07561 20.5835 6.9027Z" fill="black"/>
</svg>
