<svg width="32" height="32" viewBox="0 0 32 32" fill="none" xmlns="http://www.w3.org/2000/svg">
<path d="M23.5806 17.2251C23.5456 13.7075 26.4491 12.0204 26.5789 11.9352C24.9471 9.54926 22.4049 9.22188 21.5001 9.18463C19.3382 8.96506 17.2797 10.458 16.183 10.458C15.0886 10.458 13.3941 9.2168 11.6014 9.24841C9.24317 9.28341 7.0695 10.62 5.85595 12.731C3.40683 16.9796 5.22942 23.276 7.61588 26.7241C8.78259 28.4096 10.1739 30.3061 11.9994 30.2367C13.7587 30.1673 14.4225 29.0988 16.5493 29.0988C18.6762 29.0988 19.2733 30.2367 21.1343 30.2011C23.0263 30.1667 24.2258 28.4835 25.3829 26.7913C26.7223 24.8333 27.2738 22.9373 27.3065 22.8413C27.2653 22.8221 23.6184 21.4252 23.5806 17.2251Z" fill="white"/>
<path d="M20.0835 6.90258C21.0515 5.72741 21.7074 4.09448 21.529 2.46888C20.132 2.52532 18.441 3.39739 17.4379 4.57143C16.5393 5.61339 15.7536 7.27229 15.9642 8.86854C17.5226 8.98933 19.1121 8.0755 20.0835 6.90258Z" fill="white"/>
</svg>
