<svg width="100" height="100" viewBox="0 0 100 100" fill="none" xmlns="http://www.w3.org/2000/svg">
<path d="M77.0837 37.5001C82.8366 37.5001 87.5003 32.8364 87.5003 27.0834C87.5003 21.3304 82.8366 16.6667 77.0837 16.6667C71.3307 16.6667 66.667 21.3304 66.667 27.0834C66.667 32.8364 71.3307 37.5001 77.0837 37.5001Z" fill="#FAF8F5"/>
<path d="M22.9167 37.5001C28.6696 37.5001 33.3333 32.8364 33.3333 27.0834C33.3333 21.3304 28.6696 16.6667 22.9167 16.6667C17.1637 16.6667 12.5 21.3304 12.5 27.0834C12.5 32.8364 17.1637 37.5001 22.9167 37.5001Z" fill="#FAF8F5"/>
<path d="M50 33.3333C56.9036 33.3333 62.5 27.7368 62.5 20.8333C62.5 13.9297 56.9036 8.33325 50 8.33325C43.0964 8.33325 37.5 13.9297 37.5 20.8333C37.5 27.7368 43.0964 33.3333 50 33.3333Z" fill="#FAF8F5"/>
<path d="M77.083 41.6667C74.9997 41.6667 70.4163 42.5 68.7497 43.75C68.7497 43.75 70.833 48.3333 70.833 54.1667C70.833 54.1667 65.833 37.5 49.9997 37.5C34.1663 37.5 29.1663 54.1667 29.1663 54.1667C29.1663 48.3333 31.2497 43.75 31.2497 43.75C29.583 42.5 24.9997 41.6667 22.9163 41.6667C15.833 41.6667 8.33301 50 8.33301 55.4167V79.1667C8.33301 83.75 12.083 87.5 16.6663 87.5H28.7497C32.4997 83.75 39.1663 79.1667 49.9997 79.1667C60.833 79.1667 67.4997 83.75 71.2497 87.5H83.333C87.9163 87.5 91.6663 83.75 91.6663 79.1667V55.4167C91.6663 50 83.333 41.6667 77.083 41.6667ZM49.9997 75C44.1663 75 39.583 70.4167 39.583 64.5833C39.583 58.75 44.1663 54.1667 49.9997 54.1667C55.833 54.1667 60.4163 58.75 60.4163 64.5833C60.4163 70.4167 55.833 75 49.9997 75Z" fill="#FAF8F5"/>
</svg>
