<svg width="81" height="81" viewBox="0 0 81 81" fill="none" xmlns="http://www.w3.org/2000/svg">
<path d="M40.8604 4.35999C45.5879 4.35999 50.2692 5.29115 54.637 7.10032C59.0047 8.90949 62.9733 11.5612 66.3162 14.9041C69.6591 18.2471 72.3108 22.2157 74.12 26.5834C75.9292 30.9511 76.8604 35.6324 76.8604 40.36C76.8604 45.0876 75.9292 49.7689 74.12 54.1366C72.3108 58.5043 69.6591 62.4729 66.3162 65.8158C62.9733 69.1587 59.0047 71.8105 54.6369 73.6197C50.2692 75.4288 45.5879 76.36 40.8603 76.36C36.1328 76.36 31.4515 75.4288 27.0837 73.6196C22.716 71.8105 18.7474 69.1587 15.4045 65.8158C12.0616 62.4729 9.40985 58.5043 7.60068 54.1366C5.79151 49.7689 4.86035 45.0876 4.86035 40.36C4.86035 35.6324 5.79152 30.9511 7.6007 26.5834C9.40987 22.2156 12.0616 18.247 15.4045 14.9041C18.7474 11.5612 22.716 8.90948 27.0838 7.10031C31.4515 5.29115 36.1328 4.35998 40.8604 4.35999L40.8604 4.35999Z" stroke="#EAECF0" stroke-width="8" stroke-linecap="round" stroke-linejoin="round"/>
<path d="M40.8604 4.35999C48.4628 4.35999 55.8701 6.76676 62.0206 11.2354C68.1711 15.704 72.7491 22.005 75.0984 29.2354C77.4477 36.4657 77.4477 44.2542 75.0984 51.4846C72.7491 58.715 68.1711 65.016 62.0206 69.4846" stroke="#800020" stroke-width="8" stroke-linecap="round" stroke-linejoin="round"/>
</svg>
