<svg width="394" height="394" viewBox="0 0 394 394" fill="none" xmlns="http://www.w3.org/2000/svg">
<path d="M133.174 27.3751C134.319 26.6887 135.552 26.1587 136.838 25.7991L137.587 22.1822L143.701 22.0719L144.584 25.6652C145.88 25.9848 147.128 26.475 148.295 27.123L151.384 25.0978L155.789 29.353L153.875 32.505C154.561 33.6477 155.091 34.8774 155.451 36.1613L159.067 36.9099L159.178 43.0248L155.584 43.8995C155.266 45.1961 154.776 46.4443 154.127 47.611L156.152 50.7078L151.897 55.1048L148.745 53.19C147.602 53.8768 146.372 54.4069 145.088 54.766L144.3 58.3829L138.185 58.4932L137.303 54.9C136.009 54.5803 134.764 54.0901 133.599 53.4422L130.502 55.4673L126.082 51.22L127.997 48.068C127.31 46.9224 126.78 45.69 126.421 44.4038L122.804 43.6158L122.693 37.5009L126.287 36.6184C126.606 35.3222 127.096 34.0741 127.744 32.9069L125.719 29.81L130.022 25.4603L133.174 27.3751ZM136.436 35.523C135.534 36.4565 134.929 37.6366 134.697 38.914C134.466 40.1913 134.618 41.5087 135.135 42.6994C135.653 43.8901 136.511 44.9008 137.603 45.6036C138.694 46.3063 139.97 46.6697 141.268 46.6476C142.566 46.6256 143.828 46.2192 144.895 45.4798C145.962 44.7403 146.786 43.7011 147.262 42.4935C147.739 41.2859 147.846 39.9642 147.572 38.6954C147.297 37.4266 146.652 36.2678 145.719 35.3654C145.098 34.7624 144.364 34.2879 143.559 33.9694C142.754 33.6508 141.894 33.4943 141.029 33.5089C140.163 33.5236 139.309 33.709 138.516 34.0547C137.722 34.4003 137.005 34.8993 136.405 35.523H136.436Z" fill="#E0E0E0"/>
<path d="M134.59 230.317C135.25 229.919 135.961 229.611 136.702 229.403L137.136 227.314L140.666 227.251L141.17 229.324C141.919 229.505 142.64 229.786 143.314 230.159L145.094 228.993L147.632 231.443L146.568 233.248C146.966 233.908 147.273 234.618 147.482 235.36L149.57 235.793L149.633 239.323L147.561 239.828C147.38 240.576 147.099 241.297 146.726 241.971L147.892 243.752L145.441 246.289L143.621 245.186C142.96 245.583 142.25 245.893 141.509 246.108L141.052 248.22L137.522 248.283L137.017 246.211C136.269 246.03 135.548 245.749 134.874 245.375L133.093 246.542L130.556 244.091L131.659 242.271C131.262 241.609 130.952 240.899 130.737 240.159L128.657 239.725L128.594 236.195L130.666 235.691C130.847 234.942 131.128 234.221 131.501 233.547L130.335 231.767L132.786 229.229L134.606 230.332L134.59 230.317ZM136.474 235.045C135.952 235.584 135.602 236.265 135.467 237.003C135.333 237.741 135.421 238.503 135.72 239.191C136.018 239.879 136.515 240.463 137.145 240.869C137.776 241.275 138.513 241.484 139.263 241.471C140.013 241.458 140.743 241.222 141.359 240.794C141.975 240.366 142.45 239.765 142.724 239.067C142.999 238.369 143.059 237.605 142.899 236.872C142.739 236.139 142.365 235.47 141.824 234.95C141.469 234.603 141.049 234.329 140.587 234.144C140.126 233.959 139.633 233.867 139.136 233.873C138.639 233.879 138.148 233.982 137.691 234.178C137.235 234.374 136.821 234.657 136.474 235.013V235.045Z" fill="#E0E0E0"/>
<path d="M57.746 46.8309C58.1969 46.5582 58.6818 46.3462 59.1881 46.2005L59.4875 44.7742H61.8909L62.2534 46.1453C62.7641 46.275 63.2565 46.4683 63.7191 46.7205L64.9326 45.9325L66.6662 47.6031L65.8782 48.8481C66.1508 49.299 66.3628 49.7839 66.5086 50.2902L67.9349 50.5896V52.9536L66.5165 53.3003C66.3931 53.8119 66.2023 54.3047 65.9491 54.766L66.7371 55.9795L65.0666 57.7131L63.8215 56.9251C63.3707 57.1978 62.8858 57.4097 62.3795 57.5555L62.08 58.9818H59.716L59.3693 57.5634C58.8578 57.44 58.3649 57.2492 57.9036 56.9961L56.6901 57.7841L54.9565 56.1056L55.7445 54.8684C55.4719 54.4176 55.2599 53.9327 55.1141 53.4264L53.6878 53.127L53.6484 50.763L55.059 50.4162C55.1887 49.9056 55.3819 49.4132 55.6342 48.9506L54.8462 47.7371L56.5168 46.0035L57.7618 46.7915L57.746 46.8309ZM59.0305 50.038C58.6755 50.4057 58.4376 50.8705 58.3467 51.3734C58.2558 51.8764 58.3161 52.395 58.5199 52.8637C58.7237 53.3324 59.0619 53.7301 59.4917 54.0067C59.9215 54.2832 60.4237 54.4261 60.9347 54.4173C61.4457 54.4085 61.9426 54.2483 62.3627 53.9572C62.7827 53.666 63.107 53.2568 63.2945 52.7813C63.482 52.3059 63.5244 51.7855 63.4162 51.286C63.308 50.7865 63.0542 50.3302 62.6868 49.975C62.4427 49.7389 62.1544 49.5532 61.8385 49.4286C61.5225 49.304 61.1851 49.2429 60.8456 49.2488C60.506 49.2546 60.1709 49.3273 59.8595 49.4628C59.548 49.5982 59.2663 49.7937 59.0305 50.038Z" fill="#E0E0E0"/>
<path d="M175.378 41.764C176.267 41.2268 177.224 40.8107 178.223 40.5268L178.806 37.7137L183.534 37.627L184.219 40.4244C185.23 40.6714 186.202 41.0531 187.111 41.5591L189.475 39.9831L192.966 43.34L191.485 45.767C192.024 46.6578 192.44 47.6173 192.722 48.6196L195.543 49.2027L195.622 53.9307L192.832 54.6163C192.578 55.6319 192.191 56.6096 191.682 57.524L193.258 59.9353L189.956 63.3552L187.497 61.8659C186.608 62.4014 185.651 62.8174 184.653 63.103L184.062 65.9162L179.334 66.0029L178.648 63.2055C177.627 62.9643 176.643 62.5852 175.725 62.0786L173.361 63.6546L169.933 60.3529L171.422 57.8944C170.886 57.0021 170.47 56.043 170.185 55.0418L167.372 54.4587L167.285 49.7307L170.083 49.0451C170.33 48.0372 170.711 47.0671 171.217 46.161L169.641 43.7498L172.943 40.3298L175.378 41.764ZM177.915 48.068C177.214 48.7951 176.745 49.7139 176.566 50.7079C176.387 51.702 176.507 52.7268 176.911 53.6527C177.314 54.5786 177.983 55.3639 178.833 55.9095C179.683 56.455 180.676 56.7362 181.686 56.7174C182.696 56.6987 183.678 56.3809 184.507 55.8042C185.336 55.2275 185.976 54.4178 186.345 53.4776C186.714 52.5374 186.795 51.5088 186.58 50.5221C186.364 49.5353 185.861 48.6347 185.133 47.934C184.647 47.4721 184.074 47.1107 183.448 46.8706C182.822 46.6304 182.154 46.5162 181.483 46.5345C180.813 46.5528 180.153 46.7033 179.54 46.9772C178.928 47.2512 178.376 47.6433 177.915 48.131V48.068Z" fill="#EBEBEB"/>
<path d="M301.183 159.255C302.323 158.568 303.55 158.038 304.831 157.679L305.619 154.062L311.726 153.952L312.609 157.545C313.906 157.861 315.155 158.351 316.32 159.003L319.401 156.977L323.799 161.225L321.892 164.377C322.574 165.522 323.104 166.751 323.468 168.033L327.084 168.821L327.195 174.928L323.602 175.811C323.285 177.106 322.795 178.351 322.144 179.514L324.169 182.603L319.929 186.953L316.777 185.038C315.634 185.724 314.405 186.254 313.121 186.614L312.333 190.231L306.226 190.334L305.344 186.756C304.05 186.436 302.804 185.946 301.64 185.298L298.551 187.323L294.154 183.076L296.069 179.924C295.382 178.784 294.852 177.557 294.493 176.276L290.876 175.488L290.773 169.42L294.359 168.537C294.678 167.241 295.169 165.993 295.817 164.826L293.791 161.745L298.039 157.348L301.191 159.263L301.183 159.255ZM304.437 167.395C303.538 168.328 302.935 169.507 302.705 170.783C302.475 172.059 302.629 173.375 303.147 174.563C303.664 175.752 304.523 176.76 305.613 177.461C306.704 178.162 307.978 178.523 309.274 178.5C310.571 178.477 311.831 178.07 312.896 177.331C313.961 176.592 314.783 175.553 315.258 174.347C315.733 173.141 315.839 171.821 315.564 170.554C315.289 169.287 314.645 168.13 313.712 167.229C313.093 166.63 312.362 166.159 311.56 165.842C310.758 165.526 309.902 165.371 309.04 165.387C308.179 165.402 307.329 165.587 306.539 165.932C305.749 166.277 305.035 166.774 304.437 167.395Z" fill="#E0E0E0"/>
<path d="M344.358 40.3614C344.362 37.8161 343.78 35.3041 342.655 33.0207C341.531 30.7373 339.895 28.744 337.875 27.1959C335.854 25.6478 333.504 24.5866 331.007 24.0949C328.51 23.6031 325.932 23.6941 323.476 24.3606C321.02 25.0272 318.75 26.2514 316.844 27.9381C314.938 29.6247 313.446 31.7284 312.486 34.0854C311.525 36.4424 311.121 38.9892 311.305 41.5278C311.489 44.0664 312.256 46.5283 313.547 48.722L313.594 48.7851C314.225 49.8568 315.02 50.6211 315.824 51.7401L325.446 64.4742C325.725 64.8356 326.083 65.1282 326.493 65.3296C326.903 65.5309 327.353 65.6356 327.81 65.6356C328.266 65.6356 328.717 65.5309 329.127 65.3296C329.536 65.1282 329.895 64.8356 330.174 64.4742L339.63 51.9528C340.489 50.9477 341.291 49.8954 342.033 48.8008L342.072 48.7536C343.573 46.2118 344.363 43.3131 344.358 40.3614ZM327.81 47.5637C326.37 47.5621 324.963 47.1338 323.767 46.3328C322.57 45.5318 321.638 44.3941 321.088 43.0635C320.539 41.7329 320.395 40.2691 320.677 38.8573C320.959 37.4454 321.653 36.1488 322.672 35.1313C323.69 34.1138 324.988 33.4211 326.4 33.1408C327.812 32.8605 329.276 33.0051 330.606 33.5564C331.936 34.1078 333.072 35.041 333.872 36.2382C334.672 37.4354 335.099 38.8428 335.099 40.2826C335.099 41.2394 334.91 42.1868 334.544 43.0708C334.177 43.9547 333.64 44.7577 332.963 45.4339C332.286 46.1101 331.483 46.6463 330.598 47.0117C329.714 47.3772 328.767 47.5647 327.81 47.5637Z" fill="#E0E0E0"/>
<path d="M53.0096 278.519C54.6865 277.353 55.9844 275.72 56.7422 273.824C57.5 271.927 57.6844 269.85 57.2727 267.849C56.1931 262.183 50.9687 258.393 45.6969 259.41C40.4252 260.426 36.9501 265.832 38.0297 271.505C38.3823 273.535 39.3289 275.414 40.7499 276.905C42.1708 278.396 44.0022 279.432 46.0121 279.882C31.6548 284.988 35.4608 300.937 35.4608 300.937L70.4717 294.286C70.4717 294.286 68.1077 277.88 53.0096 278.519Z" fill="#EBEBEB"/>
<path d="M95.4272 346.507L88.2564 344.726C88.2564 344.726 86.7671 350.778 80.4473 349.336C79.2254 349.081 78.1135 348.451 77.2661 347.535C76.4187 346.618 75.8781 345.46 75.7193 344.222C75.5702 343.185 75.6689 342.127 76.0072 341.136C76.3455 340.144 76.9138 339.247 77.6657 338.517C79.3835 336.799 82.5198 335.625 87.1217 337.682L91.1326 321.425L84.0012 319.668L81.6372 329.195C81.6372 329.195 71.0071 329.313 68.2964 340.329C65.696 350.873 74.5452 355.648 78.5955 356.641C81.7002 357.405 92.4249 359.257 95.4272 346.507Z" fill="#EBEBEB"/>
<path d="M84.7364 316.302L91.9668 318.083L93.6312 311.327L86.4008 309.546L84.7364 316.302Z" fill="#EBEBEB"/>
<path d="M368.878 371.069C368.878 371.18 292.174 371.274 197.583 371.274C102.991 371.274 26.2793 371.148 26.2793 371.069C26.2793 370.99 102.96 370.864 197.583 370.864C292.206 370.864 368.878 370.951 368.878 371.069Z" fill="black"/>
<path d="M45.7035 172.73H62.1649L60.7149 180.113H31.0625L32.2366 174.243L50.0848 160.256C54.4976 156.725 55.8451 154.661 55.8451 152.084C55.8451 149.507 53.883 147.774 50.0848 147.774C48.4817 147.798 46.9039 148.177 45.465 148.884C44.0261 149.591 42.7619 150.609 41.7635 151.863L35.6644 147.443C38.8164 143.132 44.6713 140.28 51.4244 140.28C59.7063 140.28 65.1277 144.7 65.1277 150.8C65.1277 155.441 63.008 159.357 56.1209 164.676L45.7035 172.73Z" fill="#F2E7DA"/>
<path d="M101.383 171.894H94.9532L93.3299 180.113H84.4886L86.167 171.894H65.0723L66.2464 165.795L89.3033 140.95H99.2005L77.7197 164.503H88.0109L89.4687 157.174H97.9161L96.4583 164.503H102.896L101.383 171.894Z" fill="#F2E7DA"/>
<path d="M127.23 133.007H135.402L106.648 185.708H98.5L127.23 133.007Z" fill="#F2E7DA"/>
<path d="M164.55 140.95L163.376 146.828L142.455 180.113H132.384L152.462 148.333H139.768L138.475 154.716H130.422L133.172 140.95H164.55Z" fill="#F2E7DA"/>
<path d="M27.3984 211.011L29.6915 206.661C31.7352 207.967 34.1062 208.669 36.5314 208.686C38.7693 208.686 40.0616 207.985 40.0616 206.866C40.0616 204.1 30.0698 205.629 30.0698 199.167C30.0698 194.731 33.86 191.823 39.9434 191.823C42.5235 191.737 45.0791 192.347 47.3427 193.588L45.2309 197.906C43.5351 196.862 41.58 196.316 39.5888 196.33C37.1775 196.33 35.8852 197.213 35.8852 198.332C35.8852 201.153 45.877 199.537 45.877 205.881C45.877 210.286 42.0001 213.193 35.9798 213.193C32.4495 213.209 29.2502 212.271 27.3984 211.011Z" fill="#F2E7DA"/>
<path d="M56.2389 196.732L55.5691 200.199H64.702L63.8273 204.541H54.6865L53.9458 208.308H64.7335L63.7879 212.799H47.2793L51.4242 192.272H67.523L66.6089 196.771L56.2389 196.732Z" fill="#F2E7DA"/>
<path d="M82.5271 206.629L86.0258 212.799H79.9425L76.885 207.339H73.9537L72.8662 212.799H67.0508L71.1563 192.272H79.9425C85.1984 192.272 88.2243 194.715 88.2243 198.828C88.2656 200.574 87.7297 202.285 86.6996 203.696C85.6695 205.106 84.2029 206.137 82.5271 206.629ZM79.1229 196.819H76.0655L74.8599 202.839H78.3271C80.8881 202.839 82.3853 201.61 82.3853 199.348C82.3537 197.615 81.1166 196.819 79.1229 196.819Z" fill="#F2E7DA"/>
<path d="M113.715 192.272L100.863 212.799H95.1341L90.4219 192.272H96.387L99.3263 205.668L107.726 192.272H113.715Z" fill="#F2E7DA"/>
<path d="M114.946 192.272H120.769L116.624 212.799H110.809L114.946 192.272Z" fill="#F2E7DA"/>
<path d="M121.674 204.163C121.674 197.024 126.93 191.823 134.566 191.823C138.356 191.823 141.445 193.21 142.91 195.7L138.687 199.049C138.215 198.285 137.546 197.662 136.75 197.246C135.954 196.83 135.06 196.636 134.164 196.685C130.168 196.685 127.521 199.766 127.521 203.816C127.521 206.582 129.404 208.434 132.548 208.434C133.508 208.438 134.457 208.229 135.325 207.82C136.194 207.411 136.96 206.813 137.568 206.07L141.003 209.443C138.687 212.24 135.661 213.264 131.989 213.264C125.701 213.209 121.674 209.537 121.674 204.163Z" fill="#F2E7DA"/>
<path d="M151.399 196.732L150.721 200.199H159.854L159.003 204.541H149.838L149.106 208.308H159.885L158.948 212.799H142.471L146.568 192.272H162.667L161.761 196.771L151.399 196.732Z" fill="#F2E7DA"/>
<path d="M49.7624 129.358H38.2812C38.2812 113.377 44.7507 97.0501 56.027 84.5209C67.8943 71.3534 83.2997 64.1038 99.367 64.1038C132.203 64.1038 155.142 88.0748 155.142 122.416H143.684C143.684 94.4182 125.883 75.6086 99.3906 75.6086C73.4182 75.5849 49.7624 101.211 49.7624 129.358Z" fill="#FF8500"/>
<path d="M56.0578 126.167C57.8938 126.167 59.3831 126.348 59.3753 126.513C59.3674 126.679 57.8859 126.805 56.0578 126.805C54.2296 126.805 52.7324 126.655 52.7324 126.458C52.7324 126.261 54.2296 126.135 56.0578 126.167Z" fill="#263238"/>
<path d="M63.9855 100.998C65.5615 102.007 66.6253 103.039 66.4519 103.315C66.2786 103.59 64.8759 103.031 63.2999 102.078C61.7239 101.124 60.6759 100.076 60.8414 99.7608C61.0068 99.4456 62.4489 99.9972 63.9855 100.998Z" fill="#263238"/>
<path d="M83.8425 83.6541C84.5911 85.3325 84.9615 86.8061 84.6305 86.9322C84.2995 87.0582 83.4564 85.8368 82.6526 84.1899C81.8489 82.543 81.4785 81.0379 81.8646 80.9118C82.2507 80.7858 83.1018 81.952 83.8425 83.6541Z" fill="#263238"/>
<path d="M110.005 81.5895C109.548 83.3704 108.925 84.7415 108.618 84.6785C108.311 84.6154 108.374 83.1025 108.768 81.298C109.162 79.4934 109.776 78.146 110.155 78.2169C110.533 78.2878 110.462 79.8165 110.005 81.5895Z" fill="#263238"/>
<path d="M131.375 96.6088C129.846 97.6174 128.467 98.2321 128.286 97.9799C128.105 97.7278 129.168 96.6403 130.65 95.5608C132.131 94.4812 133.518 93.8744 133.739 94.1896C133.959 94.5048 132.903 95.5923 131.375 96.6088Z" fill="#263238"/>
<path d="M138.413 121.352C136.585 121.352 135.096 121.21 135.096 121.053C135.096 120.895 136.577 120.737 138.413 120.714C140.249 120.69 141.731 120.824 141.739 121.013C141.746 121.202 140.265 121.352 138.413 121.352Z" fill="#263238"/>
<path d="M96.2545 124.772C95.6825 124.776 95.1264 124.584 94.6785 124.228L75.3804 109.256C74.8454 108.838 74.4983 108.225 74.4156 107.551C74.3328 106.877 74.5212 106.198 74.9391 105.663C75.3571 105.128 75.9705 104.781 76.6444 104.698C77.3183 104.615 77.9974 104.804 78.5324 105.222L96.1363 118.87L120.446 96.5458C120.942 96.0849 121.602 95.8402 122.278 95.8653C122.955 95.8904 123.594 96.1834 124.055 96.6797C124.516 97.1761 124.761 97.8352 124.736 98.512C124.711 99.1888 124.418 99.8279 123.921 100.289L98.0197 124.086C97.54 124.531 96.9087 124.776 96.2545 124.772Z" fill="#FF8500"/>
<path d="M109.343 47.2248H87.2163C86.8725 47.2248 86.5938 47.5036 86.5938 47.8474V55.8613C86.5938 56.2051 86.8725 56.4838 87.2163 56.4838H109.343C109.687 56.4838 109.966 56.2051 109.966 55.8613V47.8474C109.966 47.5036 109.687 47.2248 109.343 47.2248Z" fill="#FF8500"/>
<path d="M104.316 51.8583H92.2363V62.8115H104.316V51.8583Z" fill="#FF8500"/>
<path d="M48.416 75.5612L39.3417 86.799C38.989 87.2358 39.0572 87.8758 39.494 88.2285L45.6984 93.2384C46.1352 93.5911 46.7752 93.5229 47.1279 93.0861L56.2021 81.8483C56.5548 81.4115 56.4867 80.7715 56.0499 80.4188L49.8455 75.4089C49.4087 75.0562 48.7687 75.1244 48.416 75.5612Z" fill="#FF8500"/>
<path d="M109.343 56.4838C109.343 56.6178 104.387 56.7202 98.3113 56.7202C92.2358 56.7202 87.2793 56.6178 87.2793 56.4838C87.2793 56.3499 92.2279 56.2474 98.3113 56.2474C104.395 56.2474 109.343 56.3578 109.343 56.4838Z" fill="#263238"/>
<path d="M48.2093 91.1558C48.0833 91.2977 46.4127 90.0211 44.3481 88.4688C42.2836 86.9164 40.6051 85.6556 40.7076 85.498C40.81 85.3404 42.6618 86.3648 44.75 87.9329C46.8382 89.501 48.3275 91.0219 48.2093 91.1558Z" fill="#263238"/>
<path d="M50.1332 88.3269C50.0071 88.4688 48.3366 87.1922 46.272 85.6398C44.2075 84.0875 42.5211 82.8267 42.6236 82.6691C42.726 82.5115 44.5857 83.5359 46.6739 85.1119C48.7621 86.6879 50.2514 88.193 50.1332 88.3269Z" fill="#263238"/>
<path d="M52.4883 85.955C52.3701 86.0969 50.6996 84.8203 48.635 83.268C46.5705 81.7156 44.9157 80.4548 44.9866 80.2972C45.0575 80.1396 46.9487 81.164 49.029 82.74C51.1093 84.316 52.6144 85.8211 52.4883 85.955Z" fill="#263238"/>
<path d="M54.7744 83.1261C54.6562 83.268 52.9778 81.9914 50.9132 80.439C48.8487 78.8867 47.1702 77.6259 47.2805 77.4683C47.3909 77.3107 49.2427 78.3351 51.323 79.9111C53.4033 81.4871 54.8926 82.9922 54.7744 83.1261Z" fill="#263238"/>
<path d="M153.824 79.113L144.057 68.4723C143.677 68.0587 143.034 68.0312 142.62 68.4109L136.746 73.8035C136.332 74.1832 136.304 74.8262 136.684 75.2398L146.452 85.8805C146.831 86.2941 147.474 86.3216 147.888 85.942L153.763 80.5493C154.176 80.1697 154.204 79.5266 153.824 79.113Z" fill="#FF8500"/>
<path d="M138.428 76.6094C138.31 76.4675 139.815 75.0334 141.659 73.1894C143.503 71.3455 144.992 69.9035 145.134 70.0374C145.276 70.1714 143.992 71.8498 142.124 73.678C140.257 75.5062 138.539 76.7433 138.428 76.6094Z" fill="#263238"/>
<path d="M140.941 78.9261C140.815 78.7842 142.328 77.3501 144.164 75.5062C146 73.6622 147.505 72.2202 147.647 72.3542C147.789 72.4881 146.496 74.1666 144.637 75.9947C142.777 77.8229 141.051 79.06 140.941 78.9261Z" fill="#263238"/>
<path d="M142.935 81.6132C142.809 81.4713 144.322 80.0372 146.158 78.1932C147.994 76.3493 149.499 74.9073 149.641 75.0412C149.783 75.1752 148.49 76.8458 146.623 78.6739C144.755 80.5021 143.045 81.7471 142.935 81.6132Z" fill="#263238"/>
<path d="M145.394 84.316C145.268 84.1742 146.781 82.74 148.617 80.8961C150.453 79.0522 151.958 77.6101 152.1 77.7441C152.242 77.878 150.949 79.5565 149.082 81.3846C147.214 83.2128 145.504 84.4263 145.394 84.316Z" fill="#263238"/>
<path d="M89.6981 56.476C89.5169 56.476 89.3672 54.4272 89.3672 51.9134C89.3672 49.3997 89.5169 47.343 89.6981 47.343C89.8794 47.343 90.037 49.3918 90.037 51.9134C90.037 54.435 89.8873 56.476 89.6981 56.476Z" fill="#263238"/>
<path d="M94.0321 56.476C93.8509 56.476 93.7012 54.4272 93.7012 51.9134C93.7012 49.3997 93.8509 47.343 94.0321 47.343C94.2134 47.343 94.3631 49.3918 94.3631 51.9134C94.3631 54.435 94.2134 56.476 94.0321 56.476Z" fill="#263238"/>
<path d="M98.3583 56.476C98.1771 56.476 98.0273 54.4272 98.0273 51.9134C98.0273 49.3997 98.1771 47.343 98.3583 47.343C98.5395 47.343 98.6893 49.3918 98.6893 51.9134C98.6893 54.435 98.5474 56.476 98.3583 56.476Z" fill="#263238"/>
<path d="M102.692 56.476C102.503 56.476 102.361 54.4272 102.361 51.9134C102.361 49.3997 102.503 47.343 102.692 47.343C102.881 47.343 103.023 49.3918 103.023 51.9134C103.023 54.435 102.874 56.476 102.692 56.476Z" fill="#263238"/>
<path d="M107.018 56.476C106.837 56.476 106.688 54.4272 106.688 51.9134C106.688 49.3997 106.837 47.343 107.018 47.343C107.2 47.343 107.349 49.3918 107.349 51.9134C107.349 54.435 107.168 56.476 107.018 56.476Z" fill="#263238"/>
<path d="M100.938 125.432C103.196 123.173 103.196 119.511 100.938 117.252C98.6788 114.993 95.0166 114.993 92.7578 117.252C90.4991 119.511 90.4991 123.173 92.7578 125.432C95.0166 127.69 98.6788 127.69 100.938 125.432Z" fill="#FF8500"/>
<path d="M102.63 121.352C102.575 121.352 102.583 120.84 102.339 119.965C101.988 118.745 101.243 117.675 100.219 116.923C99.3983 116.314 98.4245 115.945 97.4062 115.857C96.3878 115.768 95.365 115.965 94.4519 116.424C93.5387 116.884 92.7712 117.588 92.2348 118.458C91.6985 119.328 91.4145 120.33 91.4145 121.352C91.4145 122.374 91.6985 123.376 92.2348 124.246C92.7712 125.116 93.5387 125.82 94.4519 126.28C95.365 126.739 96.3878 126.936 97.4062 126.847C98.4245 126.759 99.3983 126.39 100.219 125.781C101.241 125.028 101.986 123.958 102.339 122.739C102.583 121.864 102.575 121.352 102.63 121.352C102.685 121.352 102.63 121.478 102.63 121.722C102.643 122.083 102.606 122.444 102.52 122.794C102.237 124.11 101.501 125.284 100.44 126.112C99.6468 126.734 98.7093 127.146 97.7145 127.308C96.7198 127.471 95.7 127.379 94.7503 127.041C93.5745 126.625 92.5566 125.854 91.8368 124.835C91.117 123.816 90.7305 122.599 90.7305 121.352C90.7305 120.105 91.117 118.888 91.8368 117.869C92.5566 116.85 93.5745 116.079 94.7503 115.663C95.6997 115.326 96.7186 115.234 97.713 115.395C98.7073 115.556 99.645 115.965 100.44 116.585C101.5 117.416 102.236 118.593 102.52 119.91C102.606 120.26 102.643 120.621 102.63 120.982C102.67 121.21 102.654 121.352 102.63 121.352Z" fill="#263238"/>
<path d="M300.44 141.162L310.322 139.586C316.798 144.812 324.995 147.426 333.302 146.914C341.608 146.403 349.422 142.802 355.209 136.821C360.995 130.84 364.335 122.911 364.571 114.592C364.808 106.274 361.924 98.1677 356.487 91.8674C351.05 85.5672 343.453 81.5287 335.189 80.5459C326.925 79.563 318.593 81.7069 311.83 86.5561C305.067 91.4053 300.362 98.609 298.641 106.751C296.92 114.893 298.306 123.384 302.528 130.556L300.44 141.162Z" fill="white"/>
<path d="M300.44 141.162C300.44 141.162 300.44 140.942 300.551 140.493L300.929 138.475C301.268 136.663 301.772 134.007 302.426 130.54C302.428 130.529 302.432 130.518 302.438 130.508C302.445 130.499 302.453 130.491 302.463 130.485C302.472 130.479 302.483 130.475 302.495 130.474C302.506 130.472 302.518 130.473 302.529 130.477C302.536 130.473 302.544 130.471 302.552 130.471C302.56 130.471 302.569 130.473 302.576 130.477L302.434 130.587C299.614 125.827 298.019 120.442 297.793 114.914C297.723 113.194 297.789 111.471 297.99 109.761C298.224 107.93 298.598 106.12 299.109 104.347C300.97 97.9181 304.718 92.1961 309.869 87.9222C315.02 83.6484 321.335 81.0194 327.997 80.376C333.224 79.8827 338.493 80.6297 343.377 82.5562C348.261 84.4827 352.622 87.5343 356.105 91.4632L357.444 93.0392C357.862 93.5908 358.232 94.166 358.642 94.7176C359.42 95.839 360.128 97.0075 360.762 98.2163C361.108 98.7994 361.329 99.4456 361.621 100.052C361.912 100.659 362.212 101.266 362.409 101.912C362.876 103.163 363.263 104.442 363.567 105.742C364.779 110.793 364.82 116.054 363.685 121.123C362.166 127.715 358.682 133.691 353.694 138.26C348.706 142.83 342.45 145.779 335.751 146.718C333.91 146.968 332.053 147.076 330.195 147.041C328.471 146.959 326.752 146.775 325.05 146.489C319.628 145.48 314.546 143.128 310.267 139.649H310.338L302.946 140.76L301.063 141.036L300.44 141.123L301.094 141.005L302.993 140.69L310.306 139.476H310.377C314.652 142.897 319.71 145.202 325.097 146.182C326.786 146.463 328.492 146.64 330.203 146.71C332.048 146.74 333.892 146.626 335.719 146.371C342.338 145.413 348.512 142.478 353.434 137.95C358.356 133.423 361.794 127.513 363.299 120.997C364.412 115.986 364.366 110.787 363.165 105.797C362.856 104.515 362.475 103.253 362.023 102.014C361.826 101.376 361.495 100.793 361.235 100.178C360.974 99.5638 360.722 98.9413 360.383 98.366C359.759 97.1719 359.059 96.019 358.287 94.9146C357.893 94.363 357.499 93.7956 357.105 93.2519L355.782 91.6759C352.341 87.7949 348.035 84.7787 343.212 82.8717C338.389 80.9647 333.185 80.2204 328.02 80.6991C323.449 81.1508 319.02 82.5458 315.015 84.796C311.01 87.0461 307.515 90.1025 304.751 93.772C302.342 96.9822 300.542 100.606 299.44 104.465C298.93 106.221 298.554 108.012 298.313 109.824C298.104 111.52 298.03 113.23 298.092 114.938C298.285 120.427 299.83 125.784 302.592 130.532C302.607 130.548 302.615 130.569 302.615 130.591C302.615 130.613 302.607 130.634 302.592 130.65C302.576 130.663 302.557 130.67 302.536 130.67C302.516 130.67 302.497 130.663 302.481 130.65L302.623 130.603C301.93 134.031 301.394 136.663 301.047 138.483C300.866 139.374 300.724 140.059 300.629 140.516C300.535 140.973 300.44 141.162 300.44 141.162Z" fill="#263238"/>
<path d="M341.33 114.638C341.329 113.969 341.526 113.314 341.897 112.757C342.267 112.2 342.795 111.766 343.413 111.509C344.031 111.252 344.712 111.184 345.368 111.314C346.025 111.445 346.628 111.767 347.101 112.24C347.574 112.713 347.896 113.316 348.027 113.973C348.157 114.629 348.089 115.31 347.832 115.928C347.575 116.546 347.141 117.074 346.584 117.444C346.027 117.815 345.372 118.012 344.703 118.011C343.809 118.009 342.952 117.653 342.32 117.021C341.688 116.389 341.332 115.532 341.33 114.638Z" fill="#263238"/>
<path d="M327.807 114.638C327.805 113.969 328.002 113.315 328.373 112.758C328.743 112.201 329.27 111.766 329.888 111.509C330.506 111.252 331.186 111.184 331.842 111.314C332.498 111.443 333.101 111.765 333.575 112.237C334.048 112.71 334.371 113.312 334.502 113.968C334.633 114.624 334.567 115.304 334.311 115.922C334.055 116.54 333.622 117.069 333.066 117.441C332.51 117.812 331.856 118.011 331.187 118.011C330.292 118.011 329.433 117.656 328.8 117.024C328.166 116.391 327.809 115.533 327.807 114.638Z" fill="#263238"/>
<path d="M314.324 116.325C313.99 115.746 313.835 115.08 313.878 114.413C313.922 113.746 314.163 113.107 314.57 112.576C314.977 112.046 315.532 111.648 316.165 111.433C316.798 111.218 317.481 111.196 318.126 111.369C318.772 111.542 319.352 111.902 319.793 112.405C320.234 112.908 320.516 113.53 320.603 114.193C320.69 114.856 320.579 115.53 320.283 116.129C319.988 116.729 319.521 117.227 318.942 117.562C318.165 118.008 317.243 118.128 316.378 117.896C315.512 117.664 314.774 117.099 314.324 116.325Z" fill="#263238"/>
<path d="M78.2395 235.612C76.1671 234.627 72.6763 232.57 70.5171 231.767C68.3829 230.853 66.0018 230.692 63.764 231.31C62.4953 231.735 61.2266 232.752 61.2188 234.091L69.6898 240.34L78.2395 238.086V235.612Z" fill="#FF9A6C"/>
<path d="M68.9736 235.525C68.9736 235.525 53.7573 232.224 51.2199 230.923C48.6826 229.623 35.4599 223.004 33.2456 223.004C31.0314 223.004 29.1402 223.603 28.7383 225.809L31.6302 228.055L32.0006 229.206L36.9492 231.782L37.8239 233.406L50.4319 240.135C50.4319 240.135 63.6546 246.849 65.861 247.227C68.0674 247.605 79.0836 248.527 83.7958 252.538L102.708 244.769C102.708 244.769 97.247 237.015 93.0391 235.1C89.2882 233.398 82.9921 233.398 78.5872 235.202L68.9736 235.525Z" fill="#FFBF9D"/>
<path d="M81.6289 248.22C81.6289 248.22 105.702 300.717 109.579 311.26C109.579 311.26 136.489 306.831 137.411 291.899L102.739 244.619L81.6289 248.22Z" fill="#FFBF9D"/>
<path d="M59.2737 236.715C59.2737 236.715 59.1791 236.715 59.0136 236.715C58.7674 236.691 58.5245 236.64 58.2887 236.565C57.4256 236.303 56.5872 235.965 55.7828 235.557C54.7584 235.06 53.5685 234.406 52.2605 233.674C51.6064 233.311 50.9209 232.925 50.2038 232.555C49.4867 232.184 48.7066 231.861 47.9107 231.514C46.4371 230.847 44.9144 230.294 43.3561 229.86C41.9298 229.505 40.5587 229.237 39.5264 229.584C39.126 229.744 38.7627 229.985 38.4591 230.291C38.1555 230.598 37.918 230.963 37.7613 231.365C37.6448 231.672 37.5107 231.972 37.3594 232.263C37.3594 232.263 37.3594 232.168 37.3988 232.011C37.4514 231.769 37.5226 231.532 37.6115 231.302C37.7508 230.934 37.939 230.587 38.171 230.269C38.4777 229.835 38.9052 229.501 39.4003 229.308C40.0111 229.103 40.6602 229.039 41.2994 229.119C42.0142 229.189 42.7227 229.313 43.4191 229.489C45.0107 229.909 46.5655 230.457 48.0683 231.128C48.8563 231.475 49.6443 231.798 50.3771 232.184C51.11 232.57 51.7877 232.972 52.4417 233.343C53.7419 234.091 54.9081 234.769 55.9089 235.289C56.6843 235.712 57.4873 236.084 58.3123 236.4C58.9269 236.629 59.2737 236.676 59.2737 236.715Z" fill="#FF9A6C"/>
<path d="M44.758 229.166C44.0161 229.016 43.2979 228.767 42.6225 228.425C40.9973 227.658 39.3262 226.993 37.6187 226.432C36.6845 226.167 35.7081 226.084 34.7425 226.188C34.3573 226.199 33.9784 226.289 33.6289 226.452C33.2794 226.614 32.9666 226.846 32.7095 227.133C32.4013 227.56 32.1988 228.055 32.1185 228.575C32.1114 228.777 32.0714 228.977 32.0003 229.166C31.9634 228.966 31.9634 228.76 32.0003 228.559C32.0298 227.997 32.2094 227.453 32.5204 226.983C32.7616 226.655 33.0741 226.386 33.4345 226.195C33.8466 225.999 34.2888 225.874 34.7425 225.825C35.7589 225.697 36.7906 225.775 37.7763 226.054C39.508 226.609 41.1855 227.321 42.788 228.181C43.4619 228.474 44.1195 228.803 44.758 229.166Z" fill="#FF9A6C"/>
<path d="M82.7397 234.036C82.7397 234.036 82.527 234.162 82.1251 234.304C81.5488 234.512 80.9623 234.691 80.3679 234.84C78.4116 235.349 76.4066 235.647 74.3869 235.73C72.3678 235.817 70.3451 235.696 68.3509 235.368C67.5629 235.234 66.9797 235.1 66.5621 234.982C66.3387 234.948 66.1228 234.876 65.9238 234.769C65.9238 234.706 66.8694 234.887 68.3981 235.076C70.3791 235.321 72.3768 235.403 74.3712 235.32C76.367 235.218 78.3513 234.954 80.3048 234.532C81.7626 234.249 82.6846 233.981 82.7397 234.036Z" fill="#FF9A6C"/>
<path d="M306.878 202.871L271.859 195.621L263.191 189.12L216.935 198.04C216.195 199.396 208.701 209.86 208.701 209.86L190.482 216.046C182.739 218.081 175.828 222.49 170.719 228.654C165.862 234.653 161.882 241.313 158.899 248.433C150.704 267.668 138.876 289.889 138.876 289.889L131.461 277.943L100.209 292.663C100.209 292.663 118.514 329.565 124.574 334.837C131.311 340.692 146.803 341.369 157.512 330.448C163.966 323.86 182.618 297.825 186.503 291.308L192.271 318.557L197.574 349.659L189.001 371.069H314.135L308.958 350.833C308.958 350.833 314.056 298.093 315.467 288.274C318.784 265.115 306.878 202.871 306.878 202.871Z" fill="#FF8500"/>
<path d="M306.878 202.871C306.878 202.871 331.937 209.9 337.453 234.808C340.794 249.898 352.141 292.915 356.136 328.328C358.5 349.383 358.437 368.839 358.5 371.069H320.046L303.75 209.9L306.878 202.871Z" fill="#FF8500"/>
<path d="M242.61 224.257C242.61 224.257 242.61 224.352 242.508 224.517L242.153 225.242C241.838 225.88 241.365 226.818 240.853 228.008C239.742 230.372 238.434 233.878 236.322 237.795L236.219 237.992L236.046 237.842C233.446 235.628 230.625 232.964 227.709 230.088C222.548 224.966 218.024 220.199 214.683 216.818L210.704 212.823L209.609 211.743C209.475 211.624 209.354 211.492 209.246 211.349C209.398 211.445 209.538 211.559 209.664 211.688L210.798 212.713C211.776 213.611 213.162 214.943 214.872 216.613C218.269 219.947 222.831 224.682 227.977 229.797C230.892 232.673 233.698 235.313 236.267 237.566L235.983 237.614C238.111 233.752 239.466 230.262 240.632 227.913C241.207 226.723 241.688 225.809 242.035 225.187C242.192 224.911 242.326 224.675 242.437 224.493C242.486 224.409 242.544 224.329 242.61 224.257Z" fill="black"/>
<path d="M272.349 196.511C272.346 196.697 272.322 196.882 272.278 197.063C272.199 197.457 272.104 197.977 271.986 198.639C271.702 199.994 271.198 201.949 270.552 204.328C269.189 209.056 266.982 215.589 264.248 222.642C262.806 226.377 261.387 229.907 260.064 233.035L259.961 233.28L259.764 233.106C256.195 229.954 252.995 227.472 250.828 225.628C249.741 224.706 248.89 223.965 248.315 223.445L247.676 222.846C247.527 222.705 247.456 222.634 247.463 222.626C247.554 222.673 247.639 222.731 247.716 222.799L248.393 223.359L250.97 225.455C253.184 227.251 256.407 229.686 260.016 232.822L259.717 232.893C261.017 229.741 262.428 226.227 263.862 222.5C266.565 215.408 268.81 208.985 270.237 204.25C270.946 201.886 271.466 199.947 271.813 198.6C271.962 197.961 272.088 197.449 272.183 197.024C272.225 196.849 272.281 196.678 272.349 196.511Z" fill="black"/>
<path d="M191.286 315.066C191.254 315.012 191.23 314.954 191.216 314.893L191.05 314.357C190.908 313.831 190.711 313.138 190.459 312.277C190.191 311.378 189.931 310.267 189.616 308.975C189.301 307.682 188.962 306.201 188.623 304.562C186.88 296.012 185.653 287.365 184.951 278.668C184.061 268.479 183.864 259.22 183.911 252.53C183.911 249.181 183.997 246.471 184.092 244.603C184.139 243.689 184.171 242.972 184.194 242.444C184.194 242.223 184.194 242.034 184.234 241.884C184.226 241.822 184.226 241.758 184.234 241.695C184.24 241.761 184.24 241.827 184.234 241.892V242.452C184.234 242.98 184.234 243.697 184.234 244.603C184.234 246.479 184.171 249.181 184.187 252.53C184.187 259.213 184.455 268.464 185.345 278.629C186.054 287.313 187.237 295.952 188.891 304.507C189.214 306.146 189.513 307.659 189.821 308.92C190.128 310.18 190.357 311.339 190.609 312.237L191.129 314.333L191.247 314.877C191.286 315.003 191.294 315.066 191.286 315.066Z" fill="black"/>
<path d="M308.959 230.498C309.006 230.566 309.043 230.64 309.069 230.719C309.14 230.884 309.235 231.097 309.345 231.365C309.597 231.964 309.936 232.807 310.377 233.871C310.598 234.422 310.858 235.021 311.11 235.691L311.859 237.897C312.127 238.685 312.41 239.544 312.718 240.442C313.025 241.341 313.23 242.326 313.506 243.342C315.87 251.451 317.052 263.184 316.374 276.021C315.696 288.857 314.183 300.449 313.222 308.77C312.741 312.931 312.347 316.311 312.072 318.675C311.938 319.818 311.827 320.724 311.749 321.362L311.654 322.063C311.648 322.144 311.632 322.223 311.607 322.3C311.596 322.221 311.596 322.142 311.607 322.063L311.662 321.354C311.725 320.708 311.812 319.778 311.914 318.659C312.135 316.295 312.481 312.923 312.931 308.738C313.789 300.37 315.239 288.818 315.933 276.005C316.626 263.192 315.46 251.522 313.198 243.413L312.41 240.513L311.622 237.976C311.37 237.188 311.134 236.439 310.913 235.762C310.693 235.084 310.425 234.477 310.212 233.926C309.802 232.846 309.487 232.003 309.251 231.396C309.156 231.12 309.077 230.908 309.014 230.734C308.984 230.659 308.965 230.579 308.959 230.498Z" fill="black"/>
<path d="M139.081 316.721C138.971 316.721 138.837 310.716 138.79 303.325C138.742 295.933 138.79 289.929 138.908 289.929C139.026 289.929 139.152 295.933 139.199 303.325C139.247 310.716 139.199 316.721 139.081 316.721Z" fill="black"/>
<path d="M252.789 353.087V352.756C252.789 352.52 252.852 352.204 252.9 351.795C253.01 350.928 253.16 349.691 253.357 348.099C253.459 347.311 253.569 346.405 253.696 345.436C253.822 344.466 253.916 343.395 254.034 342.284C254.263 339.998 254.578 337.406 254.822 334.522C254.941 333.088 255.059 331.575 255.193 330.007C255.327 328.438 255.39 326.799 255.492 325.105C255.729 321.717 255.831 318.084 255.965 314.27C256.138 306.634 256.115 298.234 255.721 289.432C255.327 280.63 254.523 272.262 253.633 264.673C253.136 260.883 252.703 257.282 252.143 253.933C251.883 252.255 251.655 250.631 251.355 249.079C251.056 247.527 250.811 246.037 250.567 244.611C250.087 241.766 249.535 239.213 249.086 236.959C248.857 235.833 248.652 234.785 248.455 233.807C248.258 232.83 248.046 231.971 247.864 231.183L247.076 227.551C246.998 227.149 246.927 226.834 246.879 226.605C246.832 226.377 246.824 226.274 246.824 226.274C246.864 226.377 246.896 226.482 246.919 226.589L247.163 227.527L248.038 231.152L248.66 233.768C248.865 234.729 249.086 235.77 249.33 236.92C249.795 239.166 250.37 241.719 250.867 244.564C251.129 245.987 251.392 247.477 251.655 249.032C251.938 250.608 252.167 252.184 252.443 253.886C253.01 257.243 253.459 260.844 253.971 264.634C254.878 272.23 255.65 280.607 256.091 289.417C256.532 298.226 256.501 306.642 256.304 314.286C256.154 318.108 256.044 321.74 255.792 325.129C255.681 326.823 255.603 328.462 255.469 330.038C255.335 331.614 255.193 333.119 255.067 334.561C254.846 337.445 254.507 340.077 254.279 342.315C254.145 343.458 254.019 344.521 253.908 345.467C253.798 346.413 253.648 347.327 253.53 348.131C253.302 349.707 253.12 350.952 253.002 351.81L252.852 352.772C252.84 352.879 252.819 352.984 252.789 353.087Z" fill="black"/>
<path d="M269.449 268.03H269.607L270.103 267.975L272.034 267.755L279.417 266.967L305.697 264.24H305.894V264.437C306.091 272.388 306.328 281.387 306.572 290.93V291.016L306.517 291.071L303.365 294.484L291.876 306.761L291.773 306.871L291.639 306.8L272.278 297.186L272.191 297.147V297.076C271.348 288.29 270.615 281.024 270.166 275.926C269.93 273.42 269.749 271.45 269.623 270.087C269.567 269.433 269.52 268.929 269.489 268.558C269.457 268.188 269.489 268.054 269.489 268.054C269.489 268.054 269.489 268.243 269.56 268.59C269.63 268.937 269.662 269.48 269.741 270.166C269.883 271.545 270.095 273.523 270.371 276.044C270.899 281.103 271.648 288.329 272.562 297.068L272.467 296.934L291.852 306.493L291.624 306.532L303.089 294.208L306.241 290.804L306.186 290.945C305.957 281.403 305.737 272.412 305.547 264.453L305.752 264.626L279.551 267.132L272.121 267.825L270.143 267.999L269.63 268.046L269.449 268.03Z" fill="black"/>
<path d="M305.941 273.578C305.495 273.702 305.039 273.789 304.578 273.838C303.695 273.98 302.419 274.161 300.835 274.366C297.683 274.768 293.278 275.233 288.432 275.698L276.013 276.911L272.254 277.305C271.798 277.378 271.337 277.413 270.875 277.408C271.321 277.283 271.777 277.197 272.238 277.147C273.121 277.006 274.397 276.824 275.981 276.62C279.133 276.218 283.538 275.753 288.392 275.288L300.803 274.074L304.562 273.68C305.018 273.607 305.479 273.573 305.941 273.578Z" fill="black"/>
<g opacity="0.3">
<path d="M313.553 304.57L314.877 320.669C317.8 306.879 322.394 292.056 321.677 277.983C320.96 263.909 319.636 250.442 311.709 237.7C315.155 247.294 316.736 257.457 316.366 267.644C315.641 284.113 313.553 304.57 313.553 304.57Z" fill="black"/>
</g>
<path d="M133.864 274.602C133.439 273.632 132.686 272.843 131.737 272.372C130.634 271.994 129.436 272.53 128.388 273.05L99.7992 287.281C97.9159 288.219 95.8592 289.33 95.1658 291.3C94.2596 293.822 95.9538 296.485 97.5298 298.652C100.162 302.269 103.314 306.209 107.774 306.721L132.367 289.858C135.37 289.417 137.237 286.068 137.095 283.034C136.953 280 135.393 277.234 133.864 274.602Z" fill="#FF8500"/>
<path d="M136.97 284.909C136.897 285.011 136.813 285.103 136.718 285.185L135.93 285.918C135.252 286.548 134.251 287.439 132.999 288.51C130.485 290.662 126.915 293.522 122.755 296.438C118.594 299.353 114.788 301.757 111.896 303.38C110.462 304.207 109.288 304.854 108.468 305.279L107.523 305.76C107.302 305.87 107.184 305.917 107.176 305.902C107.267 305.816 107.37 305.744 107.483 305.689L108.389 305.137L111.746 303.128C114.575 301.426 118.428 298.983 122.542 296.075C126.655 293.168 130.248 290.354 132.786 288.266L135.804 285.768L136.592 285.098C136.86 284.972 136.962 284.894 136.97 284.909Z" fill="black"/>
<g opacity="0.3">
<path d="M271.977 198.316C268.613 209.49 263.9 222.129 259.921 232.988C256.533 230.112 251.789 226.306 248.393 223.422C251.316 229.22 254.825 234.705 258.865 239.788C259.338 240.379 259.968 241.026 260.701 240.884C261.434 240.742 261.765 239.985 262.017 239.308L268.219 222.894C271.119 215.219 273.916 206.267 271.977 198.316Z" fill="black"/>
</g>
<path d="M218.788 76.7512C229.032 73.8041 238.614 76.7512 248.062 81.6526C257.511 86.5539 265.13 94.6467 270.063 104.063C275.264 113.984 277.565 125.544 275.682 136.584C273.798 147.624 267.558 158.026 258.212 164.164C245.438 172.58 227.834 172.139 214.683 164.345C201.531 156.552 192.871 142.187 190.578 127.065C189.002 116.648 190.278 105.663 195.14 96.333C200.002 87.0031 208.599 79.4383 218.78 76.7433" fill="#263238"/>
<path d="M252.421 108.815C250.443 105.009 250.529 100.494 249.45 96.333C247.086 87.1843 238.733 80.573 229.655 77.9332C221.216 75.4668 211.453 77.3186 202.075 81.558C195.661 84.4657 189.822 88.9258 185.992 94.8358C183.487 98.7972 181.966 103.3 181.555 107.969C181.144 112.637 181.854 117.337 183.628 121.675L230.428 109.367C235.297 112.519 240.285 115.773 245.92 117.247C247.559 117.754 249.3 117.832 250.979 117.475C251.811 117.278 252.57 116.846 253.164 116.23C253.758 115.613 254.162 114.839 254.328 114C254.525 112.125 253.28 110.478 252.421 108.815Z" fill="#263238"/>
<path d="M263.585 191.799L251.505 106.837C250.969 102.818 249.141 98.7206 245.099 98.9097L202.547 94.8121C189.214 95.4268 182.957 112.936 184.139 126.198C185.455 140.965 187.638 158.94 191.034 169.593C197.866 191.003 215.115 191.224 215.115 191.224C215.115 191.224 216.163 195.479 217.479 203.438L245.059 221.783L263.585 191.799Z" fill="#FFBF9D"/>
<path d="M194.423 142.36C194.528 143.095 194.917 143.759 195.506 144.211C196.095 144.663 196.837 144.867 197.575 144.779C197.937 144.754 198.291 144.656 198.615 144.491C198.938 144.326 199.226 144.098 199.46 143.821C199.695 143.543 199.871 143.221 199.979 142.874C200.087 142.527 200.124 142.162 200.088 141.801C199.981 141.066 199.591 140.402 199.003 139.949C198.415 139.497 197.674 139.29 196.936 139.374C196.574 139.401 196.221 139.501 195.897 139.667C195.574 139.832 195.287 140.061 195.053 140.339C194.818 140.617 194.642 140.939 194.534 141.286C194.426 141.633 194.388 141.998 194.423 142.36Z" fill="#263238"/>
<path d="M189.459 134.913C189.861 135.229 191.752 133.337 194.786 132.873C197.82 132.408 200.263 133.598 200.538 133.172C200.672 132.983 200.215 132.384 199.144 131.817C197.694 131.113 196.063 130.871 194.471 131.123C192.894 131.357 191.434 132.089 190.302 133.211C189.475 134.062 189.262 134.748 189.459 134.913Z" fill="#263238"/>
<path d="M222.421 137.805C222.525 138.542 222.913 139.208 223.502 139.662C224.091 140.115 224.834 140.32 225.573 140.232C225.935 140.207 226.289 140.109 226.613 139.944C226.936 139.78 227.224 139.552 227.458 139.274C227.693 138.996 227.869 138.674 227.977 138.328C228.085 137.981 228.122 137.615 228.086 137.254C227.982 136.518 227.594 135.851 227.005 135.398C226.416 134.944 225.673 134.739 224.934 134.827C224.572 134.853 224.219 134.952 223.896 135.117C223.572 135.282 223.285 135.51 223.051 135.787C222.817 136.065 222.64 136.386 222.532 136.733C222.424 137.079 222.386 137.444 222.421 137.805Z" fill="#263238"/>
<path d="M218.277 130.903C218.679 131.218 220.578 129.327 223.604 128.862C226.63 128.397 229.08 129.587 229.356 129.161C229.49 128.972 229.033 128.373 227.961 127.806C226.509 127.101 224.875 126.858 223.281 127.112C221.684 127.348 220.206 128.091 219.065 129.232C218.277 130.02 218.064 130.808 218.277 130.903Z" fill="#263238"/>
<path d="M211.752 155.071C211.752 154.897 209.806 154.858 206.701 154.937C205.913 154.937 205.125 154.937 204.944 154.424C204.762 153.912 204.873 153.014 205.109 152.06C205.55 150.08 206.015 148.002 206.504 145.827C208.395 136.954 209.656 129.713 209.286 129.642C208.915 129.571 207.103 136.734 205.204 145.559C204.755 147.742 204.321 149.83 203.919 151.824C203.762 152.746 203.407 153.818 203.982 154.913C204.133 155.17 204.342 155.389 204.593 155.552C204.843 155.715 205.128 155.817 205.424 155.851C205.869 155.911 206.319 155.911 206.764 155.851C209.861 155.52 211.768 155.236 211.752 155.071Z" fill="#263238"/>
<path d="M215.123 191.224C225.484 189.8 235.245 185.525 243.318 178.876C243.318 178.876 236.438 196.094 216.526 197.827L215.123 191.224Z" fill="#FF9A6C"/>
<path d="M214.146 162.178C214.611 161.365 215.275 160.684 216.076 160.199C216.877 159.714 217.789 159.44 218.725 159.405C219.405 159.365 220.086 159.464 220.726 159.696C221.367 159.928 221.954 160.287 222.452 160.752C222.934 161.196 223.268 161.777 223.409 162.417C223.549 163.057 223.491 163.724 223.24 164.33C222.602 165.598 220.931 166.126 219.426 165.906C217.918 165.618 216.482 165.034 215.202 164.188C214.821 163.992 214.481 163.725 214.201 163.4C214.064 163.25 213.974 163.063 213.944 162.863C213.913 162.662 213.942 162.457 214.028 162.273" fill="#FF9A6C"/>
<path d="M220.987 155.803C220.482 155.851 220.987 159.144 218.52 161.902C216.054 164.66 212.516 164.842 212.555 165.299C212.555 165.519 213.438 165.819 214.919 165.638C216.85 165.37 218.625 164.429 219.931 162.982C221.184 161.595 221.848 159.775 221.783 157.907C221.696 156.513 221.207 155.756 220.987 155.803Z" fill="#263238"/>
<path d="M217.409 121.856C217.835 122.644 220.797 121.785 224.414 121.667C228.031 121.549 231.057 122.085 231.412 121.273C231.569 120.887 230.955 120.194 229.67 119.571C227.975 118.831 226.133 118.486 224.285 118.562C222.436 118.639 220.629 119.135 219.001 120.012C217.779 120.737 217.22 121.486 217.409 121.856Z" fill="#263238"/>
<path d="M188.331 121.541C188.97 122.148 190.948 121.116 193.453 120.698C195.959 120.28 198.181 120.454 198.528 119.658C198.694 119.272 198.252 118.641 197.228 118.129C195.862 117.541 194.352 117.371 192.889 117.64C191.426 117.909 190.076 118.606 189.009 119.642C188.213 120.485 188.032 121.242 188.331 121.541Z" fill="#263238"/>
<path d="M259.308 101.542C253.571 89.375 232.815 74.269 219.64 76.9718L200.105 92.5427C201.278 96.076 203.384 99.2269 206.2 101.662C209.015 104.098 212.437 105.728 216.102 106.38C220.002 107.026 224.573 106.735 227.236 109.666C229.9 112.597 229.261 117.641 231.838 120.753C235.408 125.071 243.414 123.779 246.298 128.586C247.567 130.682 247.417 133.408 248.709 135.489C250.443 138.255 258.394 141.005 261.317 139.602C264.241 138.199 263.579 132.967 264.217 130.075C265.312 125.15 264.272 122.81 263.358 120.257C261.223 114.205 262.05 107.341 259.308 101.542Z" fill="#263238"/>
<path d="M252.594 143.416C252.35 141.777 253.65 137.64 255.226 137.112C259.434 135.788 267.259 134.945 269 145.882C271.364 160.854 255.888 160.137 255.786 159.712C255.683 159.286 253.445 149.042 252.594 143.416Z" fill="#FFBF9D"/>
<path d="M259.449 153.329C259.512 153.266 259.741 153.471 260.237 153.597C260.899 153.768 261.601 153.672 262.192 153.329C263.673 152.502 264.603 149.783 264.248 147.072C264.081 145.786 263.629 144.553 262.924 143.463C262.711 143.018 262.392 142.632 261.995 142.338C261.598 142.044 261.135 141.851 260.647 141.777C260.335 141.745 260.022 141.823 259.763 141.999C259.503 142.175 259.314 142.437 259.229 142.738C259.095 143.187 259.229 143.471 259.158 143.526C259.087 143.581 258.803 143.329 258.819 142.691C258.845 142.309 259.001 141.948 259.26 141.667C259.621 141.287 260.116 141.066 260.639 141.052C261.806 140.95 263.003 141.84 263.728 142.935C264.572 144.13 265.113 145.512 265.304 146.962C265.69 149.988 264.595 153.053 262.53 154.054C262.149 154.235 261.732 154.33 261.309 154.33C260.887 154.33 260.469 154.235 260.088 154.054C259.536 153.66 259.402 153.361 259.449 153.329Z" fill="#FF9A6C"/>
<path d="M203.95 87.5074C203.265 93.8114 194.857 102.676 191.342 107.901C184.589 117.869 183.391 121.06 185.771 141.359C181.295 134.764 177.702 128.208 177.103 120.257C176.504 112.306 178.506 104.055 183.36 97.7356C188.214 91.4159 196.023 87.2552 203.99 87.4916" fill="#263238"/>
<path d="M239.654 66.129C242.806 62.6539 247.36 60.3923 252.088 59.2103C258.826 57.524 266.225 57.981 272.356 60.9124C278.486 63.8438 283.23 69.344 284.467 75.648C285.075 78.8863 284.789 82.2292 283.64 85.317C282.49 88.4049 280.52 91.121 277.942 93.1731C281.448 96.5718 285.722 99.0748 290.401 100.47C289.124 102.385 286.768 103.504 284.388 103.906C281.996 104.205 279.574 104.189 277.186 103.858C278.816 106.295 281.256 108.075 284.073 108.886C280.195 109.781 276.151 109.648 272.34 108.5C268.613 107.37 265.046 105.768 261.725 103.732C250.197 97.0422 243.838 91.1795 236.052 80.8803C235.036 76.436 236.478 69.6119 239.654 66.129Z" fill="#263238"/>
<path d="M264.508 97.712C256.045 85.3483 245.273 78.7369 235.525 76.6803L264.508 97.712Z" fill="#263238"/>
<path d="M235.525 76.6803C235.972 76.8591 236.434 76.9988 236.904 77.0979C237.795 77.3501 239.079 77.7362 240.624 78.3272C244.645 79.8893 248.425 82.0116 251.853 84.6312C255.281 87.2444 258.405 90.2339 261.167 93.5435C262.207 94.8279 263.05 95.9075 263.594 96.6167C263.865 97.0186 264.171 97.3957 264.508 97.7435C264.28 97.3125 264.017 96.9013 263.72 96.5142C263.216 95.7262 262.412 94.6624 261.395 93.3622C258.703 89.9533 255.601 86.8885 252.16 84.2372C248.691 81.5913 244.838 79.4919 240.734 78.012C239.496 77.5716 238.233 77.2058 236.952 76.9167C236.483 76.7999 236.006 76.7209 235.525 76.6803Z" fill="#455A64"/>
<path d="M274.594 108.248L274.405 108.311L273.853 108.531C273.38 108.736 272.671 109.004 271.741 109.319C269.113 110.199 266.388 110.755 263.625 110.974C259.529 111.279 255.41 111.014 251.387 110.186C246.46 109.151 241.642 107.649 236.998 105.702C232.034 103.677 227.353 101.597 223.185 99.5559C219.482 97.7645 215.918 95.6994 212.523 93.378C210.24 91.8058 208.085 90.0563 206.077 88.1457C205.352 87.4759 204.832 86.9164 204.501 86.5697L204.084 86.152C203.989 86.0654 203.942 86.0181 203.934 86.026C203.926 86.0338 203.934 86.0811 204.052 86.1836L204.438 86.6327C204.777 87.0267 205.281 87.602 206.014 88.2954C207.989 90.2617 210.127 92.0569 212.405 93.6617C215.788 96.0386 219.353 98.1464 223.066 99.9657C227.243 102.038 231.916 104.134 236.888 106.167C241.561 108.12 246.411 109.616 251.371 110.635C255.434 111.446 259.592 111.674 263.719 111.313C266.478 111.061 269.195 110.462 271.804 109.532C272.726 109.177 273.428 108.886 273.892 108.649L274.42 108.389C274.539 108.287 274.602 108.255 274.594 108.248Z" fill="#455A64"/>
<path d="M229.946 182.454L228.52 179.664C228.622 179.609 238.519 174.534 242.325 171.335C251.293 163.802 259.535 151.769 259.622 151.635L262.222 153.408C261.876 153.92 253.657 165.921 244.35 173.738C240.253 177.158 230.363 182.241 229.946 182.454Z" fill="#455A64"/>
<path d="M237.313 173.746C237.313 173.746 223.791 179.782 223.791 181.122C223.791 182.461 225.934 185.141 227.542 185.007C229.149 184.873 233.799 182.256 234.634 181.185C235.469 180.113 236.951 177.355 238.574 176.016L237.313 173.746Z" fill="#263238"/>
<path d="M262.112 133.172L258.96 133.022C259.074 123.933 257.508 114.901 254.342 106.38C247.502 88.7603 234.35 79.3043 215.265 78.2642C213.529 78.188 211.79 78.307 210.08 78.6188L211.459 77.3107C212.127 76.6799 212.904 76.1753 213.752 75.8214C214.914 75.3355 216.178 75.1408 217.432 75.254C241.529 77.3422 252.419 92.6609 257.313 105.332C260.646 114.228 262.274 123.673 262.112 133.172Z" fill="#455A64"/>
<path d="M260.537 161.832C266.051 161.832 270.521 155.404 270.521 147.474C270.521 139.545 266.051 133.117 260.537 133.117C255.023 133.117 250.553 139.545 250.553 147.474C250.553 155.404 255.023 161.832 260.537 161.832Z" fill="#455A64"/>
<path d="M270.521 147.474C270.511 147.409 270.511 147.343 270.521 147.277C270.521 147.12 270.521 146.93 270.473 146.694C270.438 145.95 270.362 145.208 270.245 144.472C269.838 141.757 268.781 139.181 267.164 136.962C266.619 136.245 265.99 135.597 265.288 135.032C264.525 134.43 263.664 133.964 262.743 133.653C261.758 133.333 260.714 133.234 259.686 133.361C258.598 133.524 257.557 133.914 256.628 134.504C254.661 135.872 253.143 137.791 252.263 140.02C251.279 142.393 250.772 144.937 250.772 147.506C250.772 150.075 251.279 152.619 252.263 154.992C253.142 157.221 254.661 159.14 256.628 160.508C257.557 161.098 258.598 161.487 259.686 161.65C260.714 161.774 261.757 161.674 262.743 161.359C263.664 161.048 264.525 160.581 265.288 159.98C265.988 159.413 266.617 158.765 267.164 158.049C268.781 155.831 269.838 153.254 270.245 150.54C270.361 149.803 270.438 149.062 270.473 148.317C270.473 148.081 270.473 147.892 270.521 147.734C270.51 147.669 270.51 147.602 270.521 147.537C270.533 147.602 270.533 147.669 270.521 147.734V148.317C270.512 149.068 270.46 149.818 270.363 150.563C270.011 153.326 268.976 155.959 267.353 158.223C266.801 158.965 266.161 159.637 265.446 160.224C264.658 160.86 263.765 161.354 262.806 161.682C261.773 162.021 260.679 162.131 259.599 162.005C258.459 161.841 257.366 161.439 256.392 160.823C254.353 159.436 252.775 157.471 251.861 155.181C250.847 152.76 250.324 150.162 250.324 147.537C250.324 144.913 250.847 142.314 251.861 139.894C252.775 137.603 254.353 135.639 256.392 134.252C257.366 133.636 258.459 133.233 259.599 133.07C260.679 132.943 261.773 133.054 262.806 133.393C263.765 133.721 264.658 134.214 265.446 134.85C266.163 135.436 266.803 136.108 267.353 136.852C268.978 139.115 270.013 141.747 270.363 144.511C270.459 145.254 270.512 146.001 270.521 146.749V147.34C270.526 147.385 270.526 147.43 270.521 147.474Z" fill="#263238"/>
<path d="M262.072 155.811C265.584 155.811 268.431 151.719 268.431 146.67C268.431 141.622 265.584 137.53 262.072 137.53C258.56 137.53 255.713 141.622 255.713 146.67C255.713 151.719 258.56 155.811 262.072 155.811Z" fill="#455A64"/>
<path d="M268.433 146.67C268.386 146.67 268.433 145.977 268.204 144.756C267.941 143.043 267.265 141.421 266.234 140.028C265.534 139.072 264.562 138.35 263.445 137.955C262.825 137.756 262.169 137.694 261.522 137.774C260.84 137.875 260.188 138.12 259.607 138.491C258.371 139.352 257.414 140.558 256.857 141.958C256.234 143.456 255.915 145.064 255.919 146.686C255.912 148.309 256.231 149.917 256.857 151.414C257.414 152.814 258.371 154.02 259.607 154.881C260.188 155.253 260.84 155.497 261.522 155.598C262.169 155.679 262.825 155.617 263.445 155.417C264.562 155.022 265.534 154.3 266.234 153.345C267.265 151.952 267.941 150.329 268.204 148.617C268.401 147.395 268.386 146.702 268.433 146.71C268.443 146.875 268.443 147.041 268.433 147.206C268.432 147.686 268.4 148.165 268.338 148.64C268.129 150.408 267.476 152.095 266.439 153.542C265.717 154.563 264.7 155.338 263.524 155.764C262.86 155.99 262.155 156.065 261.459 155.985C260.721 155.87 260.015 155.601 259.387 155.197C258.077 154.308 257.062 153.048 256.471 151.58C255.821 150.029 255.486 148.364 255.486 146.682C255.486 145.001 255.821 143.336 256.471 141.785C257.062 140.316 258.077 139.057 259.387 138.168C260.012 137.764 260.716 137.496 261.451 137.38C262.15 137.3 262.858 137.375 263.524 137.601C264.7 138.026 265.717 138.802 266.439 139.823C267.476 141.27 268.129 142.956 268.338 144.724C268.4 145.2 268.432 145.679 268.433 146.158C268.443 146.329 268.443 146.5 268.433 146.67Z" fill="#263238"/>
<path d="M262.514 153.242C265.038 153.242 267.084 150.3 267.084 146.67C267.084 143.041 265.038 140.099 262.514 140.099C259.99 140.099 257.943 143.041 257.943 146.67C257.943 150.3 259.99 153.242 262.514 153.242Z" fill="#455A64"/>
<path d="M267.084 146.67C267.044 146.67 267.044 146.174 266.903 145.299C266.7 144.07 266.208 142.906 265.468 141.903C264.97 141.223 264.278 140.709 263.483 140.429C263.03 140.285 262.55 140.244 262.079 140.311C261.608 140.378 261.159 140.55 260.764 140.816C259.054 141.942 258.148 144.306 258.14 146.663C258.132 149.019 259.054 151.391 260.764 152.517C261.159 152.783 261.608 152.955 262.079 153.022C262.55 153.089 263.03 153.048 263.483 152.904C264.278 152.624 264.97 152.11 265.468 151.43C266.208 150.427 266.7 149.263 266.903 148.034C267.044 147.159 267.044 146.663 267.084 146.67C267.103 146.788 267.103 146.908 267.084 147.025C267.088 147.37 267.069 147.715 267.029 148.057C266.887 149.338 266.42 150.561 265.673 151.611C265.141 152.338 264.403 152.887 263.554 153.187C263.07 153.35 262.556 153.406 262.048 153.353C261.511 153.278 260.995 153.09 260.536 152.801C259.582 152.155 258.843 151.239 258.416 150.169C257.942 149.047 257.697 147.841 257.697 146.623C257.697 145.405 257.942 144.199 258.416 143.077C258.843 142.008 259.582 141.091 260.536 140.445C260.995 140.156 261.511 139.968 262.048 139.894C262.556 139.84 263.07 139.896 263.554 140.059C264.403 140.359 265.141 140.909 265.673 141.635C266.42 142.685 266.887 143.908 267.029 145.189C267.069 145.532 267.088 145.876 267.084 146.221C267.112 146.37 267.112 146.522 267.084 146.67Z" fill="#263238"/>
</svg>
