<svg width="31" height="25" viewBox="0 0 31 25" fill="none" xmlns="http://www.w3.org/2000/svg">
<g clip-path="url(#clip0_8_1333)">
<rect y="0.904297" width="24" height="24" rx="5" fill="white"/>
<path d="M19.6651 9.62616C19.5787 9.28848 19.4027 8.97909 19.155 8.72923C18.9073 8.47937 18.5966 8.2979 18.2542 8.20313C17.0034 7.9043 12 7.9043 12 7.9043C12 7.9043 6.99662 7.9043 5.74578 8.23159C5.40343 8.32636 5.09271 8.50783 4.84499 8.75769C4.59727 9.00755 4.42133 9.31694 4.33494 9.65462C4.10602 10.8966 3.99404 12.1565 4.00042 13.4185C3.99226 14.69 4.10424 15.9596 4.33494 17.2109C4.43018 17.5381 4.61006 17.8357 4.8572 18.075C5.10434 18.3143 5.41039 18.4872 5.74578 18.577C6.99662 18.9043 12 18.9043 12 18.9043C12 18.9043 17.0034 18.9043 18.2542 18.577C18.5966 18.4822 18.9073 18.3008 19.155 18.0509C19.4027 17.801 19.5787 17.4917 19.6651 17.154C19.8922 15.9213 20.0042 14.671 19.9996 13.4185C20.0077 12.147 19.8958 10.8775 19.6651 9.62616V9.62616Z" stroke="black" stroke-linecap="round" stroke-linejoin="round"/>
<path d="M10 15.9043L15 13.4043L10 10.9043V15.9043Z" stroke="black" stroke-linecap="round" stroke-linejoin="round"/>
</g>
<defs>
<clipPath id="clip0_8_1333">
<rect y="0.904297" width="31" height="24" fill="white"/>
</clipPath>
</defs>
</svg>
