<svg width="31" height="25" viewBox="0 0 31 25" fill="none" xmlns="http://www.w3.org/2000/svg">
<g clip-path="url(#clip0_8_3241)">
<rect y="0.916748" width="24" height="24" rx="5" fill="white"/>
<path d="M19.6651 9.63861C19.5787 9.30093 19.4027 8.99154 19.155 8.74168C18.9073 8.49182 18.5966 8.31035 18.2542 8.21558C17.0034 7.91675 12 7.91675 12 7.91675C12 7.91675 6.99662 7.91675 5.74578 8.24404C5.40343 8.33881 5.09271 8.52028 4.84499 8.77014C4.59727 9.02 4.42133 9.32939 4.33494 9.66707C4.10602 10.9091 3.99404 12.169 4.00042 13.431C3.99226 14.7025 4.10424 15.972 4.33494 17.2233C4.43018 17.5505 4.61006 17.8482 4.8572 18.0875C5.10434 18.3268 5.41039 18.4997 5.74578 18.5895C6.99662 18.9167 12 18.9167 12 18.9167C12 18.9167 17.0034 18.9167 18.2542 18.5895C18.5966 18.4947 18.9073 18.3132 19.155 18.0634C19.4027 17.8135 19.5787 17.5041 19.6651 17.1664C19.8922 15.9338 20.0042 14.6835 19.9996 13.431C20.0077 12.1595 19.8958 10.8899 19.6651 9.63861V9.63861Z" stroke="black" stroke-linecap="round" stroke-linejoin="round"/>
<path d="M10 15.9167L15 13.4167L10 10.9167V15.9167Z" stroke="black" stroke-linecap="round" stroke-linejoin="round"/>
</g>
<defs>
<clipPath id="clip0_8_3241">
<rect y="0.916748" width="31" height="24" fill="white"/>
</clipPath>
</defs>
</svg>
