<svg width="31" height="25" viewBox="0 0 31 25" fill="none" xmlns="http://www.w3.org/2000/svg">
<g clip-path="url(#clip0_8_1482)">
<rect y="0.916504" width="24" height="24" rx="5" fill="white"/>
<path d="M19.6651 9.63837C19.5787 9.30069 19.4027 8.9913 19.155 8.74144C18.9073 8.49158 18.5966 8.3101 18.2542 8.21534C17.0034 7.9165 12 7.9165 12 7.9165C12 7.9165 6.99662 7.9165 5.74578 8.2438C5.40343 8.33856 5.09271 8.52004 4.84499 8.7699C4.59727 9.01976 4.42133 9.32915 4.33494 9.66683C4.10602 10.9088 3.99404 12.1687 4.00042 13.4307C3.99226 14.7022 4.10424 15.9718 4.33494 17.2231C4.43018 17.5503 4.61006 17.8479 4.8572 18.0872C5.10434 18.3265 5.41039 18.4994 5.74578 18.5892C6.99662 18.9165 12 18.9165 12 18.9165C12 18.9165 17.0034 18.9165 18.2542 18.5892C18.5966 18.4944 18.9073 18.313 19.155 18.0631C19.4027 17.8133 19.5787 17.5039 19.6651 17.1662C19.8922 15.9335 20.0042 14.6832 19.9996 13.4307C20.0077 12.1592 19.8958 10.8897 19.6651 9.63837V9.63837Z" stroke="black" stroke-linecap="round" stroke-linejoin="round"/>
<path d="M10 15.9165L15 13.4165L10 10.9165V15.9165Z" stroke="black" stroke-linecap="round" stroke-linejoin="round"/>
</g>
<defs>
<clipPath id="clip0_8_1482">
<rect y="0.916504" width="31" height="24" fill="white"/>
</clipPath>
</defs>
</svg>
