<svg width="31" height="25" viewBox="0 0 31 25" fill="none" xmlns="http://www.w3.org/2000/svg">
<g clip-path="url(#clip0_8_2917)">
<rect y="0.903809" width="24" height="24" rx="5" fill="white"/>
<path d="M19.6651 9.62567C19.5787 9.28799 19.4027 8.9786 19.155 8.72874C18.9073 8.47888 18.5966 8.29741 18.2542 8.20264C17.0034 7.90381 12 7.90381 12 7.90381C12 7.90381 6.99662 7.90381 5.74578 8.2311C5.40343 8.32587 5.09271 8.50734 4.84499 8.7572C4.59727 9.00706 4.42133 9.31645 4.33494 9.65413C4.10602 10.8961 3.99404 12.156 4.00042 13.418C3.99226 14.6895 4.10424 15.9591 4.33494 17.2104C4.43018 17.5376 4.61006 17.8352 4.8572 18.0745C5.10434 18.3138 5.41039 18.4867 5.74578 18.5765C6.99662 18.9038 12 18.9038 12 18.9038C12 18.9038 17.0034 18.9038 18.2542 18.5765C18.5966 18.4818 18.9073 18.3003 19.155 18.0504C19.4027 17.8006 19.5787 17.4912 19.6651 17.1535C19.8922 15.9209 20.0042 14.6705 19.9996 13.418C20.0077 12.1465 19.8958 10.877 19.6651 9.62567V9.62567Z" stroke="black" stroke-linecap="round" stroke-linejoin="round"/>
<path d="M10 15.9038L15 13.4038L10 10.9038V15.9038Z" stroke="black" stroke-linecap="round" stroke-linejoin="round"/>
</g>
<defs>
<clipPath id="clip0_8_2917">
<rect y="0.903809" width="31" height="24" fill="white"/>
</clipPath>
</defs>
</svg>
