<svg width="18" height="15" viewBox="0 0 18 15" fill="none" xmlns="http://www.w3.org/2000/svg">
<path d="M17 0.924033C16.3036 1.41341 15.5324 1.7877 14.7164 2.0325C14.2784 1.5308 13.6962 1.17521 13.0488 1.01382C12.4013 0.852425 11.7196 0.893022 11.0961 1.13012C10.4725 1.36721 9.93705 1.78936 9.56217 2.33948C9.18729 2.8896 8.99105 3.54113 9 4.20597V4.93046C7.72192 4.96347 6.45547 4.6811 5.31346 4.10849C4.17145 3.53587 3.18932 2.6908 2.45455 1.64852C2.45455 1.64852 -0.454545 8.16892 6.09091 11.0669C4.59311 12.0797 2.80884 12.5875 1 12.5159C7.54545 16.1383 15.5455 12.5159 15.5455 4.18423C15.5448 3.98243 15.5253 3.78112 15.4873 3.58291C16.2295 2.8537 16.7533 1.93304 17 0.924033V0.924033Z" stroke="black" stroke-linecap="round" stroke-linejoin="round"/>
</svg>
