<svg width="47" height="8" viewBox="0 0 47 8" fill="none" xmlns="http://www.w3.org/2000/svg">
<path d="M46 2.63302C36.6934 2.18851 27.4668 1.35968 18.1432 1.17522C12.7839 1.06919 -3.24334 0.758823 2.06164 1.35744C10.7813 2.34139 19.7933 2.30977 28.5727 2.97144C31.9743 3.22781 35.3486 3.57145 38.733 3.93464C40.0354 4.0744 41.0526 4.31058 38.9685 4.22099C29.6669 3.82115 20.4135 2.93256 11.1117 2.50286C10.1191 2.45701 7.17815 2.43466 8.13429 2.64604C11.639 3.42085 15.3989 3.72609 18.9843 4.15591C23.3018 4.67349 27.6892 4.99674 31.9707 5.6788C33.5087 5.9238 35.5685 6.00025 37.0004 6.49881C39.5342 7.38108 31.4517 6.83846 28.6736 6.79818C24.0502 6.73116 19.432 6.52464 14.8125 6.38167" stroke="url(#paint0_linear_8_4367)" stroke-linecap="round"/>
<defs>
<linearGradient id="paint0_linear_8_4367" x1="23.5" y1="1" x2="23.5" y2="7" gradientUnits="userSpaceOnUse">
<stop stop-color="#FF8500"/>
<stop offset="1" stop-color="#995000"/>
</linearGradient>
</defs>
</svg>
