<svg width="157" height="129" viewBox="0 0 157 129" fill="none" xmlns="http://www.w3.org/2000/svg">
<path d="M-22.0005 7.62021C8.0462 24.2545 43.6062 38.8675 78.5018 29.5184C83.9433 28.0605 96.4147 22.6147 93.1522 14.8157C90.2891 7.97152 78.2706 1.97209 71.3305 3.44458C53.2672 7.27704 31.4767 17.8293 42.7477 39.9125C55.0177 63.9533 83.421 84.5741 105.985 98.4951C116.93 105.247 130.639 112.512 143.108 115.852C151.385 118.07 145.371 113.93 141.606 109.996C136.252 104.4 123.889 91.4805 135.743 103.868C140.559 108.901 146.616 113.646 152.228 116.927C158.227 120.435 145.546 118.554 143.799 118.838C138.294 119.732 130.441 122.275 126.34 126.199" stroke="#FF8500" stroke-opacity="0.8" stroke-width="5" stroke-linecap="round"/>
</svg>
