<svg width="84" height="8" viewBox="0 0 84 8" fill="none" xmlns="http://www.w3.org/2000/svg">
<path d="M83 2.63302C66.0413 2.18851 49.2285 1.35968 32.2388 1.17522C22.4728 1.06919 -6.73231 0.758823 2.93455 1.35744C18.8238 2.34139 35.2455 2.30977 51.2436 2.97144C57.4421 3.22781 63.5908 3.57145 69.7579 3.93464C72.1312 4.0744 73.9848 4.31058 70.1871 4.22099C53.2375 3.82115 36.3758 2.93256 19.4258 2.50286C17.617 2.45701 12.258 2.43466 14.0003 2.64604C20.3866 3.42085 27.238 3.72609 33.7714 4.15591C41.6388 4.67349 49.6336 4.99674 57.4355 5.6788C60.238 5.9238 63.9915 6.00025 66.6007 6.49881C71.2179 7.38108 56.4898 6.83846 51.4275 6.79818C43.0025 6.73116 34.5872 6.52464 26.1695 6.38167" stroke="url(#paint0_linear_8_3121)" stroke-linecap="round"/>
<defs>
<linearGradient id="paint0_linear_8_3121" x1="42" y1="1" x2="42" y2="7" gradientUnits="userSpaceOnUse">
<stop stop-color="#FF8500"/>
<stop offset="1" stop-color="#995000"/>
</linearGradient>
</defs>
</svg>
