<svg width="18" height="15" viewBox="0 0 18 15" fill="none" xmlns="http://www.w3.org/2000/svg">
<path d="M17 0.923789C16.3036 1.41317 15.5324 1.78746 14.7164 2.03226C14.2784 1.53056 13.6962 1.17496 13.0488 1.01357C12.4013 0.852181 11.7196 0.892778 11.0961 1.12987C10.4725 1.36697 9.93705 1.78912 9.56217 2.33924C9.18729 2.88935 8.99105 3.54089 9 4.20572V4.93021C7.72192 4.96323 6.45547 4.68085 5.31346 4.10824C4.17145 3.53563 3.18932 2.69055 2.45455 1.64828C2.45455 1.64828 -0.454545 8.16868 6.09091 11.0666C4.59311 12.0794 2.80884 12.5873 1 12.5156C7.54545 16.1381 15.5455 12.5156 15.5455 4.18399C15.5448 3.98219 15.5253 3.78088 15.4873 3.58266C16.2295 2.85346 16.7533 1.93279 17 0.923789V0.923789Z" stroke="black" stroke-linecap="round" stroke-linejoin="round"/>
</svg>
