<svg width="88" height="8" viewBox="0 0 88 8" fill="none" xmlns="http://www.w3.org/2000/svg">
<path d="M87 2.63302C69.2141 2.18851 51.5811 1.35968 33.7626 1.17522C23.5203 1.06919 -7.1095 0.758823 3.02892 1.35744C19.6932 2.34139 36.916 2.30977 53.6945 2.97144C60.1954 3.22781 66.644 3.57145 73.112 3.93464C75.601 4.0744 77.545 4.31058 73.5621 4.22099C55.7856 3.82115 38.1014 2.93256 20.3246 2.50286C18.4276 2.45701 12.8071 2.43466 14.6344 2.64604C21.3323 3.42085 28.5179 3.72609 35.37 4.15591C43.6212 4.67349 52.006 4.99674 60.1884 5.6788C63.1276 5.9238 67.0643 6.00025 69.8007 6.49881C74.6432 7.38108 59.1966 6.83846 53.8874 6.79818C45.0514 6.73116 36.2256 6.52464 27.3973 6.38167" stroke="url(#paint0_linear_8_3288)" stroke-linecap="round"/>
<defs>
<linearGradient id="paint0_linear_8_3288" x1="44" y1="1" x2="44" y2="7" gradientUnits="userSpaceOnUse">
<stop stop-color="#FF8500"/>
<stop offset="1" stop-color="#995000"/>
</linearGradient>
</defs>
</svg>
