<svg width="18" height="15" viewBox="0 0 18 15" fill="none" xmlns="http://www.w3.org/2000/svg">
<path d="M17 0.911582C16.3036 1.40096 15.5324 1.77525 14.7164 2.02005C14.2784 1.51835 13.6962 1.16276 13.0488 1.00137C12.4013 0.839974 11.7196 0.880571 11.0961 1.11767C10.4725 1.35476 9.93705 1.77691 9.56217 2.32703C9.18729 2.87714 8.99105 3.52868 9 4.19352V4.91801C7.72192 4.95102 6.45547 4.66865 5.31346 4.09603C4.17145 3.52342 3.18932 2.67835 2.45455 1.63607C2.45455 1.63607 -0.454545 8.15647 6.09091 11.0544C4.59311 12.0672 2.80884 12.5751 1 12.5034C7.54545 16.1259 15.5455 12.5034 15.5455 4.17178C15.5448 3.96998 15.5253 3.76867 15.4873 3.57046C16.2295 2.84125 16.7533 1.92059 17 0.911582V0.911582Z" stroke="black" stroke-linecap="round" stroke-linejoin="round"/>
</svg>
