<svg width="169" height="119" viewBox="0 0 169 119" fill="none" xmlns="http://www.w3.org/2000/svg">
<path d="M-57.8553 115.766C-47.1138 112.969 -22.1621 108.436 -23.9175 92.237C-24.9059 83.1149 -35.5921 84.1575 -39.11 91.3669C-42.1286 97.5532 -40.8815 112.025 -32.6024 114.008C-14.7047 118.295 3.00265 109.955 18.7156 102.506C41.6562 91.6304 63.989 71.1866 75.0084 47.8953C79.2891 38.8472 91.5675 0.809776 68.9842 2.62417C33.1733 5.50132 31.5526 55.2855 48.1961 78.481C55.17 88.2004 69.9294 93.3007 81.3688 93.6892C94.0052 94.1184 112.168 82.6701 113.153 68.9955C113.963 57.7496 102.327 63.396 100.294 70.9482C97.3127 82.0223 107.671 88.8009 117.514 87.955C133.624 86.5706 145.448 76.1671 154.877 63.7752C157.659 60.1186 162.965 50.576 163.49 45.8563C163.967 41.5639 164.084 44.1921 163.763 47.0849C163.461 49.7949 165.514 52.2788 165.813 55.0409C165.918 56.0122 164.022 50.1253 163.828 48.3359C162.906 39.8264 152.26 47.9954 147.594 49.466" stroke="#FF8500" stroke-width="5" stroke-linecap="round"/>
</svg>
