<svg width="125" height="100" viewBox="0 0 125 100" fill="none" xmlns="http://www.w3.org/2000/svg">
<path d="M-61.7883 -3.74198C-46.8076 -5.46456 -36.8168 -3.89769 -24.4016 4.70606C-13.1899 12.4758 -4.08982 25.8476 4.12631 36.5889C14.2986 49.8876 37.94 70.1538 55.5558 59.2777C69.234 50.8327 69.4426 30.5743 52.8061 25.6563C46.3925 23.7602 38.9993 29.2633 38.2376 35.8291C37.4149 42.9206 43.5551 50.4521 48.1538 55.101C60.5042 67.5862 78.6796 60.0942 93.2765 65.954C106.914 71.4286 112.552 82.6281 117.155 95.8722C117.549 97.0067 119.801 92.5258 120.466 91.469C122.903 87.5951 122.596 89.8017 120.753 92.7308C119.568 94.6146 118.04 99.2442 116.172 96.5752C114.824 94.6497 111.08 92.0503 109.023 90.7558" stroke="#FF8500" stroke-width="5" stroke-linecap="round"/>
</svg>
