<svg width="222" height="35" viewBox="0 0 222 35" fill="none" xmlns="http://www.w3.org/2000/svg">
<path d="M220.5 10.4373C175.208 8.14064 130.305 3.85832 84.9304 2.90531C58.8482 2.35751 -19.1509 0.753921 6.66666 3.8468C49.1025 8.93049 92.9606 8.76715 135.687 12.1858C152.242 13.5104 168.663 15.2858 185.134 17.1623C191.472 17.8844 196.423 19.1046 186.28 18.6418C141.012 16.5759 95.9792 11.9849 50.7104 9.7648C45.8796 9.52788 31.567 9.41241 36.2202 10.5045C53.2765 14.5077 71.5747 16.0848 89.0236 18.3055C110.035 20.9797 131.387 22.6498 152.224 26.1738C159.709 27.4397 169.733 27.8346 176.702 30.4105C189.033 34.9689 149.698 32.1654 136.178 31.9573C113.677 31.611 91.2025 30.544 68.721 29.8053" stroke="#FF8500" stroke-width="3" stroke-linecap="round"/>
</svg>
