<svg width="18" height="15" viewBox="0 0 18 15" fill="none" xmlns="http://www.w3.org/2000/svg">
<path d="M17 0.911094C16.3036 1.40047 15.5324 1.77476 14.7164 2.01956C14.2784 1.51786 13.6962 1.16227 13.0488 1.00088C12.4013 0.839486 11.7196 0.880083 11.0961 1.11718C10.4725 1.35427 9.93705 1.77642 9.56217 2.32654C9.18729 2.87666 8.99105 3.52819 9 4.19303V4.91752C7.72192 4.95053 6.45547 4.66816 5.31346 4.09555C4.17145 3.52293 3.18932 2.67786 2.45455 1.63558C2.45455 1.63558 -0.454545 8.15598 6.09091 11.0539C4.59311 12.0668 2.80884 12.5746 1 12.5029C7.54545 16.1254 15.5455 12.5029 15.5455 4.17129C15.5448 3.96949 15.5253 3.76818 15.4873 3.56997C16.2295 2.84077 16.7533 1.9201 17 0.911094V0.911094Z" stroke="black" stroke-linecap="round" stroke-linejoin="round"/>
</svg>
