<svg width="36" height="8" viewBox="0 0 36 8" fill="none" xmlns="http://www.w3.org/2000/svg">
<path d="M35 2.63302C27.9683 2.18851 20.9972 1.35968 13.9527 1.17522C9.90337 1.06919 -2.20608 0.758823 1.80213 1.35744C8.39034 2.34139 15.1994 2.30977 21.8327 2.97144C24.4028 3.22781 26.9523 3.57145 29.5094 3.93464C30.4934 4.0744 31.262 4.31058 29.6873 4.22099C22.6594 3.82115 15.668 2.93256 8.63997 2.50286C7.88999 2.45701 5.66794 2.43466 6.39035 2.64604C9.03836 3.42085 11.8792 3.72609 14.5881 4.15591C17.8503 4.67349 21.1652 4.99674 24.4001 5.6788C25.5621 5.9238 27.1184 6.00025 28.2003 6.49881C30.1148 7.38108 24.008 6.83846 21.909 6.79818C18.4157 6.73116 14.9264 6.52464 11.4361 6.38167" stroke="url(#paint0_linear_8_3170)" stroke-linecap="round"/>
<defs>
<linearGradient id="paint0_linear_8_3170" x1="18" y1="1" x2="18" y2="7" gradientUnits="userSpaceOnUse">
<stop stop-color="#FF8500"/>
<stop offset="1" stop-color="#995000"/>
</linearGradient>
</defs>
</svg>
