<svg width="85" height="84" viewBox="0 0 85 84" fill="none" xmlns="http://www.w3.org/2000/svg">
<path d="M41.9941 14.4C41.9941 13.8545 41.8287 13.8364 41.7851 14.38L40.0469 40.3055L41.7778 41.3182L41.9941 14.4Z" fill="black"/>
<path d="M33.8773 46.3636L41.1792 42.3182L39.521 41.3964L33.6719 46.1818C33.3464 46.4618 33.4919 46.5782 33.8773 46.3636Z" fill="black"/>
<path d="M42.122 0.514546C18.9675 0.503637 0.1875 19.0909 0.1875 42C0.1875 64.9091 18.9548 83.4782 42.122 83.4855C65.2893 83.4927 84.073 64.9091 84.073 42C84.073 19.0909 65.3057 0.514546 42.122 0.514546ZM42.122 81.9055C26.3639 81.9055 13.9984 73.7145 8.11114 62.4509L9.02023 62.1182C10.5511 64.6127 12.5493 66.8073 15.2348 69.7727C18.5457 73.4091 29.013 80.4327 42.113 80.4327C48.7252 80.4569 55.2338 78.7905 61.0209 75.5918C66.808 72.3931 71.6814 67.7682 75.1784 62.1564C75.7075 62.0073 75.8766 61.7782 75.7002 61.3182C78.8493 55.7709 80.9875 48.8018 80.9875 41.9927C80.9875 37.7036 80.3584 34.2145 79.3602 31.0964C78.7423 29.1756 77.9902 27.3007 77.1093 25.4855C77.0101 25.325 76.959 25.1395 76.962 24.9509C77.1206 25.0707 77.2483 25.2265 77.3348 25.4055C77.9439 26.5164 79.3075 29.2382 79.9475 31.0091C80.8111 33.3727 82.3511 36.6455 82.3511 41.9927C82.3602 63.8182 64.4784 81.9182 42.122 81.9055ZM8.54205 61.4873L37.9111 40.3782L35.3984 38.9455L9.23295 60.6945C6.29477 55.3691 4.25295 48.5327 4.25295 42.0309C4.25295 21.44 20.6457 4.77091 41.402 4.64364L36.0475 37.9436L38.5493 39.3982L41.913 4.64909C41.9766 4.21091 42.2766 4.21091 42.2766 4.64909L42.4748 41.2927L48.4348 37.7945L42.7239 4.63636C63.1239 5.18182 80.0257 21.6345 80.0257 41.9655C80.0257 48.5218 78.0439 55.3691 75.0439 60.7273L48.9057 38.9582L46.3893 40.3946L74.4839 60.7673C75.1584 61.2473 74.9511 61.4655 74.2329 61.0655L42.6857 42.8727V49.6909L74.3057 61.7709C67.6784 72.5782 55.7257 79.4909 42.0402 79.4909C28.3257 79.4909 16.5657 72.5818 9.93841 61.7582L41.6148 49.6691V42.8527L8.81114 61.8C8.03295 62.2291 7.82568 61.9891 8.54205 61.4873ZM7.73477 61.8909C6.3475 59.0164 4.88568 54.9655 4.28023 51.76C4.25072 51.5913 4.25816 51.4183 4.30205 51.2527C4.40303 51.4046 4.48085 51.5707 4.53295 51.7455C5.48386 54.6873 6.31477 57.3327 8.48386 61.3073L7.73477 61.8909ZM82.2911 34.9618C82.1909 34.817 82.1136 34.6575 82.062 34.4891C78.9966 25.0345 76.3857 21.32 71.353 15.7964C64.722 8.52364 53.8984 2.9 42.3784 2.88727C20.3602 2.88546 2.49841 20.7527 2.49841 42.7673C2.49841 49.3127 3.92568 54.9655 5.07295 57.8055C6.41841 61.0982 8.74568 65.5327 8.86205 65.7327C8.94352 65.8965 8.98584 66.077 8.98568 66.26C8.83428 66.1391 8.70666 65.9911 8.60932 65.8236C7.94205 64.8545 5.2075 59.9291 4.36023 57.7764C2.49841 53.0909 1.13114 47.98 1.13114 42.6164C1.13114 19.9255 19.4948 1.52546 42.202 1.52546C62.4857 1.52546 78.8384 15.6164 82.2911 34.4764C82.3253 34.6364 82.3253 34.8018 82.2911 34.9618Z" fill="black"/>
<path d="M66.4589 55.8054L44.8407 41.3182L43.0625 42.3345L66.3552 55.9709C66.7698 56.2091 66.857 56.0618 66.4589 55.8054Z" fill="black"/>
</svg>
