<svg width="85" height="84" viewBox="0 0 85 84" fill="none" xmlns="http://www.w3.org/2000/svg">
<path d="M42.5638 0.394547C19.6311 0.394547 0.976562 19.0509 0.976562 41.98C0.976562 64.9091 19.6311 83.5655 42.5638 83.5655C65.4966 83.5655 84.1493 64.9073 84.1493 41.98C84.1493 19.0527 65.4929 0.394547 42.5638 0.394547ZM42.5638 82.4182C20.2711 82.4182 2.12565 64.2727 2.12565 41.98C2.12565 19.6873 20.2711 1.54546 42.5638 1.54546C64.8566 1.54546 82.9984 19.68 82.9984 41.98C82.9984 64.28 64.862 82.4182 42.5638 82.4182Z" fill="black"/>
<path d="M18.8565 25.6546C18.8983 25.6873 18.942 25.7236 18.982 25.7509C18.982 25.7509 19.0129 25.7236 19.0147 25.7182C19.8256 24.7055 20.6383 23.6891 21.4474 22.6818C21.7438 22.3182 22.042 21.9418 22.3365 21.5709C22.4796 21.391 22.572 21.1761 22.604 20.9484C22.6359 20.7208 22.6064 20.4887 22.5183 20.2764C22.4146 20.0539 22.2483 19.8666 22.0396 19.7374C21.831 19.6082 21.5891 19.5428 21.3438 19.5491C21.1442 19.5609 20.9498 19.6176 20.7751 19.7148C20.6004 19.8121 20.4499 19.9475 20.3347 20.1109L19.2583 21.4564C18.5311 22.3655 17.7856 23.2927 17.0547 24.2109C17.4347 24.5182 17.8183 24.8218 18.1983 25.1309C18.4183 25.2964 18.6329 25.4746 18.8565 25.6546Z" fill="black"/>
<path d="M42.5661 2.27274C20.637 2.27274 2.85156 20.0473 2.85156 41.98C2.85156 63.9127 20.637 81.6946 42.5661 81.6946C64.4952 81.6946 82.2825 63.9091 82.2825 41.98C82.2825 20.0509 64.4988 2.27274 42.5661 2.27274ZM36.1516 4.74546L39.8752 4.33455L42.5661 12.1909L45.257 4.33455L48.9788 4.74546L49.3879 15.9091L46.4934 15.4982L46.2152 8.04364L43.5988 15.4982H41.5279L38.9097 8.04364L38.6334 15.4982L35.7407 15.9091L36.1516 4.74546ZM11.0807 23.1364C10.7825 22.8927 10.4861 22.6509 10.1843 22.4091C10.1457 22.3822 10.1092 22.3524 10.0752 22.32L10.2316 22.1291C11.0025 21.1618 11.7716 20.2 12.5479 19.2382C13.4461 18.1109 14.3449 16.9867 15.2443 15.8655C15.4261 15.6546 15.5897 15.4382 15.7625 15.22C16.0686 14.8417 16.4695 14.5512 16.9243 14.3782C17.2809 14.2467 17.6614 14.1922 18.0406 14.2182C18.4198 14.2442 18.7893 14.3502 19.1246 14.5291C19.46 14.708 19.7537 14.9559 19.9865 15.2564C20.2192 15.5569 20.3858 15.9033 20.4752 16.2727C20.5864 16.7672 20.5644 17.2823 20.4116 17.7655C20.4788 17.7109 20.5425 17.6509 20.6097 17.5982C21.033 17.2858 21.5308 17.09 22.0534 17.0304C22.576 16.9707 23.1052 17.0492 23.5879 17.2581C24.0707 17.467 24.4902 17.799 24.8044 18.2208C25.1187 18.6426 25.3168 19.1395 25.3788 19.6618C25.4234 20.0602 25.3901 20.4635 25.2807 20.8491C25.0534 21.5927 24.5261 22.1582 24.0497 22.7455C23.1273 23.9018 22.2037 25.0533 21.2788 26.2C20.5134 27.1655 19.7388 28.1236 18.9716 29.0873C18.9116 29.16 18.857 29.2309 18.7897 29.3C18.7788 29.3182 18.7134 29.2491 18.7007 29.2364C18.4134 29.0055 18.1279 28.7818 17.8425 28.5509L14.4752 25.8546C13.3497 24.9527 12.217 24.0364 11.0807 23.1364ZM42.5661 66.8055C37.6564 66.8062 32.8567 65.351 28.774 62.6238C24.6914 59.8967 21.5091 56.0201 19.6296 51.4844C17.7502 46.9486 17.258 41.9574 18.2152 37.1419C19.1725 32.3264 21.5363 27.9029 25.0076 24.4308C28.4789 20.9587 32.9019 18.594 37.7172 17.6357C42.5325 16.6773 47.5238 17.1685 52.06 19.0469C56.5961 20.9254 60.4734 24.1068 63.2014 28.1889C65.9295 32.2709 67.3857 37.0703 67.3861 41.98C67.3866 48.5633 64.772 54.8772 60.1174 59.5329C55.4628 64.1885 49.1494 66.8045 42.5661 66.8055ZM66.2025 29.1491L64.777 26.7091L69.6861 20.2618L62.3279 23.6382L60.2607 21.7273L66.9734 12.9055L69.0443 14.8182L65.1697 19.9091L71.3643 17.0655L73.1825 19.3236L69.0497 24.7527L74.8679 22.0818L76.2916 24.5236L66.2025 29.1491Z" fill="black"/>
<path d="M18.7709 18.5655C18.8274 18.342 18.8207 18.1073 18.7516 17.8874C18.6824 17.6675 18.5535 17.4712 18.3793 17.3203C18.205 17.1695 17.9923 17.07 17.7648 17.033C17.5373 16.996 17.304 17.023 17.0909 17.1109C16.7436 17.2564 16.5345 17.5618 16.3055 17.8509C15.4327 18.9418 14.5618 20.0236 13.6964 21.1127C13.6267 21.1923 13.5611 21.2755 13.5 21.3618L14.0327 21.7891C14.4982 22.1673 14.9691 22.5364 15.4327 22.9109C15.8945 22.3382 16.3418 21.7636 16.8073 21.1891C17.2727 20.6145 17.7255 20.0473 18.1855 19.4764C18.4127 19.1818 18.6691 18.9273 18.7709 18.5655Z" fill="black"/>
<path d="M42.5637 17.5455V41.98H18.1328C18.3037 35.5541 20.9324 29.4384 25.4774 24.8926C30.0225 20.3469 36.1378 17.7173 42.5637 17.5455Z" fill="url(#paint0_linear_1288_578)"/>
<path d="M66.9989 41.98C66.8267 48.4066 64.1968 54.5225 59.6509 59.0684C55.105 63.6144 48.9891 66.2442 42.5625 66.4164V41.98H66.9989Z" fill="url(#paint1_linear_1288_578)"/>
<defs>
<linearGradient id="paint0_linear_1288_578" x1="25.4964" y1="24.7873" x2="42.6074" y2="42.3382" gradientUnits="userSpaceOnUse">
<stop stop-color="#46BEE1"/>
<stop offset="0.62" stop-color="#3394BC"/>
<stop offset="1" stop-color="#2678A3"/>
</linearGradient>
<linearGradient id="paint1_linear_1288_578" x1="42.168" y1="42.7382" x2="60.2534" y2="59.1709" gradientUnits="userSpaceOnUse">
<stop stop-color="#3091BA"/>
<stop offset="1" stop-color="#00448B"/>
</linearGradient>
</defs>
</svg>
