<svg width="30" height="31" viewBox="0 0 30 31" fill="none" xmlns="http://www.w3.org/2000/svg">
<path d="M16.024 30.5H1.65577C0.741046 30.5 0 29.7585 0 28.8441V2.15576C0 1.24116 0.741162 0.5 1.65577 0.5H28.3443C29.2587 0.5 30 1.24116 30 2.15576V28.8441C30 29.7586 29.2586 30.5 28.3443 30.5H20.6996V18.8823H24.5991L25.183 14.3547H20.6996V11.4642C20.6996 10.1533 21.0636 9.26001 22.9433 9.26001L25.3408 9.25896V5.20943C24.9262 5.15425 23.503 5.03098 21.8472 5.03098C18.3905 5.03098 16.024 7.14095 16.024 11.0158V14.3547H12.1145V18.8823H16.024V30.5Z" fill="#332414"/>
</svg>
