<svg width="124" height="44" viewBox="0 0 124 44" fill="none" xmlns="http://www.w3.org/2000/svg">
<rect width="124" height="44" rx="12" fill="#262422"/>
<path d="M25.685 22.919C25.6587 20.2808 27.8363 19.0154 27.9337 18.9515C26.7099 17.1621 24.8032 16.9165 24.1246 16.8886C22.5032 16.7239 20.9593 17.8436 20.1368 17.8436C19.3159 17.8436 18.0451 16.9127 16.7006 16.9364C14.9319 16.9627 13.3016 17.9651 12.3915 19.5484C10.5546 22.7348 11.9216 27.4571 13.7114 30.0432C14.5865 31.3073 15.63 32.7297 16.999 32.6776C18.3186 32.6256 18.8164 31.8242 20.4115 31.8242C22.0066 31.8242 22.4545 32.6776 23.8502 32.651C25.2693 32.6251 26.1688 31.3628 27.0367 30.0936C28.0412 28.6251 28.4548 27.2031 28.4794 27.1311C28.4485 27.1167 25.7133 26.069 25.685 22.919Z" fill="white"/>
<path d="M23.0607 15.1768C23.7867 14.2955 24.2786 13.0708 24.1448 11.8516C23.0971 11.8939 21.8288 12.5479 21.0765 13.4285C20.4026 14.2099 19.8133 15.4541 19.9712 16.6513C21.14 16.7419 22.3321 16.0565 23.0607 15.1768Z" fill="white"/>
<path d="M36.89 18V10.9H39.3C40.0533 10.9 40.68 11.06 41.18 11.38C41.6867 11.6933 42.0667 12.12 42.32 12.66C42.5733 13.1933 42.7 13.7867 42.7 14.44C42.7 15.16 42.56 15.7867 42.28 16.32C42.0067 16.8533 41.6133 17.2667 41.1 17.56C40.5933 17.8533 39.9933 18 39.3 18H36.89ZM42 14.44C42 13.8733 41.8933 13.37 41.68 12.93C41.4733 12.49 41.17 12.1467 40.77 11.9C40.37 11.6467 39.88 11.52 39.3 11.52H37.59V17.38H39.3C39.8867 17.38 40.38 17.25 40.78 16.99C41.18 16.73 41.4833 16.38 41.69 15.94C41.8967 15.4933 42 14.9933 42 14.44ZM46.1184 18.1C45.7451 18.1 45.3984 18.03 45.0784 17.89C44.7651 17.7433 44.4918 17.5467 44.2584 17.3C44.0318 17.0467 43.8551 16.76 43.7284 16.44C43.6018 16.1133 43.5384 15.77 43.5384 15.41C43.5384 15.0367 43.6018 14.69 43.7284 14.37C43.8551 14.0433 44.0351 13.7567 44.2684 13.51C44.5018 13.2567 44.7751 13.06 45.0884 12.92C45.4084 12.7733 45.7551 12.7 46.1284 12.7C46.5018 12.7 46.8451 12.7733 47.1584 12.92C47.4718 13.06 47.7451 13.2567 47.9784 13.51C48.2118 13.7567 48.3918 14.0433 48.5184 14.37C48.6451 14.69 48.7084 15.0367 48.7084 15.41C48.7084 15.77 48.6451 16.1133 48.5184 16.44C48.3918 16.76 48.2118 17.0467 47.9784 17.3C47.7518 17.5467 47.4784 17.7433 47.1584 17.89C46.8451 18.03 46.4984 18.1 46.1184 18.1ZM44.2284 15.42C44.2284 15.8067 44.3118 16.16 44.4784 16.48C44.6518 16.7933 44.8818 17.0433 45.1684 17.23C45.4551 17.41 45.7718 17.5 46.1184 17.5C46.4651 17.5 46.7818 17.4067 47.0684 17.22C47.3551 17.0333 47.5851 16.78 47.7584 16.46C47.9318 16.1333 48.0184 15.78 48.0184 15.4C48.0184 15.0133 47.9318 14.66 47.7584 14.34C47.5851 14.02 47.3551 13.7667 47.0684 13.58C46.7818 13.3933 46.4651 13.3 46.1184 13.3C45.7718 13.3 45.4551 13.3967 45.1684 13.59C44.8884 13.7833 44.6618 14.04 44.4884 14.36C44.3151 14.6733 44.2284 15.0267 44.2284 15.42ZM56.2299 12.79H56.8999L54.6599 18H54.0699L52.9799 15.41L51.8999 18H51.3099L49.0699 12.79H49.7299L51.6299 17.3L52.5899 14.95L51.7099 12.8H52.3199L52.9799 14.49L53.6499 12.8H54.2499L53.3799 14.95L54.3399 17.3L56.2299 12.79ZM62.1847 18H61.5047V15.09C61.5047 14.4767 61.4147 14.03 61.2347 13.75C61.0547 13.4633 60.7714 13.32 60.3847 13.32C60.118 13.32 59.8547 13.3867 59.5947 13.52C59.3347 13.6467 59.1047 13.8233 58.9047 14.05C58.7114 14.27 58.5714 14.5233 58.4847 14.81V18H57.8047V12.79H58.4247V13.97C58.5647 13.7167 58.748 13.4967 58.9747 13.31C59.2014 13.1167 59.458 12.9667 59.7447 12.86C60.0314 12.7533 60.328 12.7 60.6347 12.7C60.9214 12.7 61.1647 12.7533 61.3647 12.86C61.5647 12.9667 61.7247 13.12 61.8447 13.32C61.9647 13.5133 62.0514 13.75 62.1047 14.03C62.158 14.3033 62.1847 14.61 62.1847 14.95V18ZM63.6648 10.7H64.3448V16.82C64.3448 17.08 64.3914 17.25 64.4848 17.33C64.5781 17.41 64.6914 17.45 64.8248 17.45C64.9448 17.45 65.0648 17.4367 65.1848 17.41C65.3048 17.3833 65.4081 17.3567 65.4948 17.33L65.6148 17.88C65.4881 17.9333 65.3314 17.9767 65.1448 18.01C64.9648 18.0433 64.8081 18.06 64.6748 18.06C64.3681 18.06 64.1214 17.97 63.9348 17.79C63.7548 17.61 63.6648 17.3633 63.6648 17.05V10.7ZM68.5794 18.1C68.206 18.1 67.8594 18.03 67.5394 17.89C67.226 17.7433 66.9527 17.5467 66.7194 17.3C66.4927 17.0467 66.316 16.76 66.1894 16.44C66.0627 16.1133 65.9994 15.77 65.9994 15.41C65.9994 15.0367 66.0627 14.69 66.1894 14.37C66.316 14.0433 66.496 13.7567 66.7294 13.51C66.9627 13.2567 67.236 13.06 67.5494 12.92C67.8694 12.7733 68.216 12.7 68.5894 12.7C68.9627 12.7 69.306 12.7733 69.6194 12.92C69.9327 13.06 70.206 13.2567 70.4394 13.51C70.6727 13.7567 70.8527 14.0433 70.9794 14.37C71.106 14.69 71.1694 15.0367 71.1694 15.41C71.1694 15.77 71.106 16.1133 70.9794 16.44C70.8527 16.76 70.6727 17.0467 70.4394 17.3C70.2127 17.5467 69.9394 17.7433 69.6194 17.89C69.306 18.03 68.9594 18.1 68.5794 18.1ZM66.6894 15.42C66.6894 15.8067 66.7727 16.16 66.9394 16.48C67.1127 16.7933 67.3427 17.0433 67.6294 17.23C67.916 17.41 68.2327 17.5 68.5794 17.5C68.926 17.5 69.2427 17.4067 69.5294 17.22C69.816 17.0333 70.046 16.78 70.2194 16.46C70.3927 16.1333 70.4794 15.78 70.4794 15.4C70.4794 15.0133 70.3927 14.66 70.2194 14.34C70.046 14.02 69.816 13.7667 69.5294 13.58C69.2427 13.3933 68.926 13.3 68.5794 13.3C68.2327 13.3 67.916 13.3967 67.6294 13.59C67.3494 13.7833 67.1227 14.04 66.9494 14.36C66.776 14.6733 66.6894 15.0267 66.6894 15.42ZM71.8866 16.5C71.8866 16.1733 71.98 15.8933 72.1666 15.66C72.3533 15.42 72.61 15.2367 72.9366 15.11C73.27 14.9767 73.6533 14.91 74.0866 14.91C74.34 14.91 74.6033 14.93 74.8766 14.97C75.15 15.01 75.3933 15.07 75.6066 15.15V14.71C75.6066 14.27 75.4766 13.92 75.2166 13.66C74.9566 13.4 74.5966 13.27 74.1366 13.27C73.8566 13.27 73.58 13.3233 73.3066 13.43C73.04 13.53 72.76 13.68 72.4666 13.88L72.2066 13.4C72.5466 13.1667 72.88 12.9933 73.2066 12.88C73.5333 12.76 73.8666 12.7 74.2066 12.7C74.8466 12.7 75.3533 12.8833 75.7266 13.25C76.1 13.6167 76.2866 14.1233 76.2866 14.77V17.18C76.2866 17.2733 76.3066 17.3433 76.3466 17.39C76.3866 17.43 76.45 17.4533 76.5366 17.46V18C76.4633 18.0067 76.4 18.0133 76.3466 18.02C76.2933 18.0267 76.2533 18.0267 76.2266 18.02C76.06 18.0133 75.9333 17.96 75.8466 17.86C75.76 17.76 75.7133 17.6533 75.7066 17.54L75.6966 17.16C75.4633 17.46 75.16 17.6933 74.7866 17.86C74.4133 18.02 74.0333 18.1 73.6466 18.1C73.3133 18.1 73.01 18.03 72.7366 17.89C72.47 17.7433 72.26 17.55 72.1066 17.31C71.96 17.0633 71.8866 16.7933 71.8866 16.5ZM75.3766 16.9C75.45 16.8067 75.5066 16.7167 75.5466 16.63C75.5866 16.5433 75.6066 16.4667 75.6066 16.4V15.64C75.38 15.5533 75.1433 15.4867 74.8966 15.44C74.6566 15.3933 74.4133 15.37 74.1666 15.37C73.68 15.37 73.2866 15.4667 72.9866 15.66C72.6866 15.8533 72.5366 16.1167 72.5366 16.45C72.5366 16.6433 72.5866 16.8267 72.6866 17C72.7866 17.1667 72.9333 17.3067 73.1266 17.42C73.32 17.5267 73.5466 17.58 73.8066 17.58C74.1333 17.58 74.4366 17.5167 74.7166 17.39C75.0033 17.2633 75.2233 17.1 75.3766 16.9ZM77.4059 15.41C77.4059 14.9167 77.5059 14.4667 77.7059 14.06C77.9125 13.6467 78.1959 13.3167 78.5559 13.07C78.9159 12.8233 79.3259 12.7 79.7859 12.7C80.2192 12.7 80.6059 12.8167 80.9459 13.05C81.2925 13.2767 81.5625 13.5533 81.7559 13.88V10.7H82.4359V17.18C82.4359 17.2733 82.4559 17.3433 82.4959 17.39C82.5359 17.43 82.5959 17.4533 82.6759 17.46V18C82.5425 18.02 82.4392 18.0267 82.3659 18.02C82.2259 18.0133 82.1025 17.9567 81.9959 17.85C81.8892 17.7433 81.8359 17.6267 81.8359 17.5V16.99C81.6292 17.33 81.3492 17.6 80.9959 17.8C80.6425 18 80.2759 18.1 79.8959 18.1C79.5359 18.1 79.2025 18.0267 78.8959 17.88C78.5959 17.7333 78.3325 17.5333 78.1059 17.28C77.8859 17.0267 77.7125 16.74 77.5859 16.42C77.4659 16.0933 77.4059 15.7567 77.4059 15.41ZM81.7559 16.21V14.6C81.6692 14.36 81.5292 14.1433 81.3359 13.95C81.1425 13.75 80.9225 13.5933 80.6759 13.48C80.4359 13.36 80.1959 13.3 79.9559 13.3C79.6759 13.3 79.4225 13.36 79.1959 13.48C78.9692 13.5933 78.7725 13.75 78.6059 13.95C78.4459 14.15 78.3225 14.3767 78.2359 14.63C78.1492 14.8833 78.1059 15.1433 78.1059 15.41C78.1059 15.69 78.1525 15.9567 78.2459 16.21C78.3459 16.4633 78.4859 16.69 78.6659 16.89C78.8459 17.0833 79.0525 17.2333 79.2859 17.34C79.5192 17.4467 79.7725 17.5 80.0459 17.5C80.2192 17.5 80.3992 17.4667 80.5859 17.4C80.7725 17.3333 80.9492 17.2433 81.1159 17.13C81.2892 17.01 81.4325 16.87 81.5459 16.71C81.6592 16.55 81.7292 16.3833 81.7559 16.21ZM88.7454 18.1C88.3721 18.1 88.0254 18.03 87.7054 17.89C87.3921 17.7433 87.1187 17.5467 86.8854 17.3C86.6587 17.0467 86.4821 16.76 86.3554 16.44C86.2287 16.1133 86.1654 15.77 86.1654 15.41C86.1654 15.0367 86.2287 14.69 86.3554 14.37C86.4821 14.0433 86.6621 13.7567 86.8954 13.51C87.1287 13.2567 87.4021 13.06 87.7154 12.92C88.0354 12.7733 88.3821 12.7 88.7554 12.7C89.1287 12.7 89.4721 12.7733 89.7854 12.92C90.0987 13.06 90.3721 13.2567 90.6054 13.51C90.8387 13.7567 91.0187 14.0433 91.1454 14.37C91.2721 14.69 91.3354 15.0367 91.3354 15.41C91.3354 15.77 91.2721 16.1133 91.1454 16.44C91.0187 16.76 90.8387 17.0467 90.6054 17.3C90.3787 17.5467 90.1054 17.7433 89.7854 17.89C89.4721 18.03 89.1254 18.1 88.7454 18.1ZM86.8554 15.42C86.8554 15.8067 86.9387 16.16 87.1054 16.48C87.2787 16.7933 87.5087 17.0433 87.7954 17.23C88.0821 17.41 88.3987 17.5 88.7454 17.5C89.0921 17.5 89.4087 17.4067 89.6954 17.22C89.9821 17.0333 90.2121 16.78 90.3854 16.46C90.5587 16.1333 90.6454 15.78 90.6454 15.4C90.6454 15.0133 90.5587 14.66 90.3854 14.34C90.2121 14.02 89.9821 13.7667 89.6954 13.58C89.4087 13.3933 89.0921 13.3 88.7454 13.3C88.3987 13.3 88.0821 13.3967 87.7954 13.59C87.5154 13.7833 87.2887 14.04 87.1154 14.36C86.9421 14.6733 86.8554 15.0267 86.8554 15.42ZM96.8527 18H96.1727V15.09C96.1727 14.4767 96.0827 14.03 95.9027 13.75C95.7227 13.4633 95.4393 13.32 95.0527 13.32C94.786 13.32 94.5227 13.3867 94.2627 13.52C94.0027 13.6467 93.7727 13.8233 93.5727 14.05C93.3793 14.27 93.2393 14.5233 93.1527 14.81V18H92.4727V12.79H93.0927V13.97C93.2327 13.7167 93.416 13.4967 93.6427 13.31C93.8693 13.1167 94.126 12.9667 94.4127 12.86C94.6993 12.7533 94.996 12.7 95.3027 12.7C95.5893 12.7 95.8327 12.7533 96.0327 12.86C96.2327 12.9667 96.3927 13.12 96.5127 13.32C96.6327 13.5133 96.7193 13.75 96.7727 14.03C96.826 14.3033 96.8527 14.61 96.8527 14.95V18Z" fill="#CCC8C4"/>
<path d="M40.0388 23.06H41.5228L45.3868 33H43.7348L42.6848 30.298H38.8488L37.8128 33H36.1468L40.0388 23.06ZM42.3768 29.136L40.7808 24.782L39.1288 29.136H42.3768ZM50.5781 33.14C49.9901 33.14 49.4721 33 49.0241 32.72C48.5761 32.44 48.2214 32.076 47.9601 31.628V35.982H46.4201V25.678H47.7781V26.994C48.0581 26.5553 48.4221 26.2053 48.8701 25.944C49.3181 25.6827 49.8174 25.552 50.3681 25.552C50.8721 25.552 51.3341 25.6547 51.7541 25.86C52.1741 26.056 52.5381 26.3313 52.8461 26.686C53.1541 27.0407 53.3921 27.4467 53.5601 27.904C53.7374 28.352 53.8261 28.828 53.8261 29.332C53.8261 30.032 53.6861 30.6713 53.4061 31.25C53.1354 31.8287 52.7528 32.2907 52.2581 32.636C51.7728 32.972 51.2128 33.14 50.5781 33.14ZM50.0741 31.824C50.4008 31.824 50.6948 31.754 50.9561 31.614C51.2268 31.474 51.4554 31.2873 51.6421 31.054C51.8381 30.8207 51.9874 30.5547 52.0901 30.256C52.1928 29.9573 52.2441 29.6493 52.2441 29.332C52.2441 28.996 52.1881 28.6787 52.0761 28.38C51.9641 28.0813 51.8008 27.82 51.5861 27.596C51.3808 27.372 51.1381 27.1947 50.8581 27.064C50.5874 26.9333 50.2888 26.868 49.9621 26.868C49.7661 26.868 49.5608 26.9053 49.3461 26.98C49.1314 27.0547 48.9308 27.1573 48.7441 27.288C48.5574 27.4187 48.3941 27.5727 48.2541 27.75C48.1141 27.9273 48.0161 28.114 47.9601 28.31V30.228C48.0908 30.5267 48.2634 30.7973 48.4781 31.04C48.6928 31.2733 48.9401 31.4647 49.2201 31.614C49.5001 31.754 49.7848 31.824 50.0741 31.824ZM59.3691 33.14C58.7811 33.14 58.2631 33 57.8151 32.72C57.3671 32.44 57.0124 32.076 56.7511 31.628V35.982H55.2111V25.678H56.5691V26.994C56.8491 26.5553 57.2131 26.2053 57.6611 25.944C58.1091 25.6827 58.6084 25.552 59.1591 25.552C59.6631 25.552 60.1251 25.6547 60.5451 25.86C60.9651 26.056 61.3291 26.3313 61.6371 26.686C61.9451 27.0407 62.1831 27.4467 62.3511 27.904C62.5284 28.352 62.6171 28.828 62.6171 29.332C62.6171 30.032 62.4771 30.6713 62.1971 31.25C61.9264 31.8287 61.5438 32.2907 61.0491 32.636C60.5638 32.972 60.0038 33.14 59.3691 33.14ZM58.8651 31.824C59.1918 31.824 59.4858 31.754 59.7471 31.614C60.0178 31.474 60.2464 31.2873 60.4331 31.054C60.6291 30.8207 60.7784 30.5547 60.8811 30.256C60.9838 29.9573 61.0351 29.6493 61.0351 29.332C61.0351 28.996 60.9791 28.6787 60.8671 28.38C60.7551 28.0813 60.5918 27.82 60.3771 27.596C60.1718 27.372 59.9291 27.1947 59.6491 27.064C59.3784 26.9333 59.0798 26.868 58.7531 26.868C58.5571 26.868 58.3518 26.9053 58.1371 26.98C57.9224 27.0547 57.7218 27.1573 57.5351 27.288C57.3484 27.4187 57.1851 27.5727 57.0451 27.75C56.9051 27.9273 56.8071 28.114 56.7511 28.31V30.228C56.8818 30.5267 57.0544 30.7973 57.2691 31.04C57.4838 31.2733 57.7311 31.4647 58.0111 31.614C58.2911 31.754 58.5758 31.824 58.8651 31.824ZM64.0161 22.78H65.5561V30.886C65.5561 31.2593 65.6121 31.4973 65.7241 31.6C65.8361 31.7027 65.9761 31.754 66.1441 31.754C66.3308 31.754 66.5035 31.7353 66.6621 31.698C66.8301 31.6607 66.9748 31.614 67.0961 31.558L67.3201 32.776C67.0961 32.8693 66.8301 32.9487 66.5221 33.014C66.2141 33.0793 65.9388 33.112 65.6961 33.112C65.1735 33.112 64.7628 32.9673 64.4641 32.678C64.1655 32.3793 64.0161 31.9687 64.0161 31.446V22.78ZM71.5311 33.14C70.9617 33.14 70.4437 33.042 69.9771 32.846C69.5197 32.6407 69.1231 32.3653 68.7871 32.02C68.4511 31.6653 68.1897 31.264 68.0031 30.816C67.8257 30.3587 67.7371 29.8733 67.7371 29.36C67.7371 28.6693 67.8957 28.0393 68.2131 27.47C68.5304 26.8913 68.9737 26.4293 69.5431 26.084C70.1124 25.7293 70.7797 25.552 71.5451 25.552C72.3104 25.552 72.9684 25.7293 73.5191 26.084C74.0791 26.4293 74.5131 26.8867 74.8211 27.456C75.1291 28.0253 75.2831 28.6367 75.2831 29.29C75.2831 29.402 75.2784 29.5093 75.2691 29.612C75.2597 29.7053 75.2504 29.7847 75.2411 29.85H69.3751C69.4031 30.2793 69.5197 30.6573 69.7251 30.984C69.9397 31.3013 70.2104 31.5533 70.5371 31.74C70.8637 31.9173 71.2137 32.006 71.5871 32.006C71.9977 32.006 72.3851 31.9033 72.7491 31.698C73.1224 31.4927 73.3744 31.222 73.5051 30.886L74.8211 31.264C74.6624 31.6187 74.4197 31.9407 74.0931 32.23C73.7757 32.51 73.3977 32.734 72.9591 32.902C72.5204 33.0607 72.0444 33.14 71.5311 33.14ZM69.3331 28.828H73.7571C73.7291 28.408 73.6077 28.0393 73.3931 27.722C73.1877 27.3953 72.9217 27.1433 72.5951 26.966C72.2777 26.7793 71.9231 26.686 71.5311 26.686C71.1484 26.686 70.7937 26.7793 70.4671 26.966C70.1497 27.1433 69.8884 27.3953 69.6831 27.722C69.4777 28.0393 69.3611 28.408 69.3331 28.828ZM86.0742 25.398C85.9809 25.2953 85.8456 25.188 85.6682 25.076C85.4909 24.9547 85.2809 24.8427 85.0382 24.74C84.7956 24.6373 84.5342 24.5533 84.2542 24.488C83.9742 24.4227 83.6849 24.39 83.3862 24.39C82.7329 24.39 82.2476 24.5113 81.9302 24.754C81.6129 24.9967 81.4542 25.3327 81.4542 25.762C81.4542 26.0793 81.5429 26.3313 81.7202 26.518C81.8976 26.6953 82.1682 26.8447 82.5322 26.966C82.8962 27.0873 83.3536 27.218 83.9042 27.358C84.5762 27.5167 85.1596 27.708 85.6542 27.932C86.1489 28.1467 86.5269 28.436 86.7882 28.8C87.0496 29.164 87.1802 29.6447 87.1802 30.242C87.1802 30.746 87.0869 31.18 86.9002 31.544C86.7136 31.908 86.4522 32.2067 86.1162 32.44C85.7802 32.664 85.3929 32.832 84.9542 32.944C84.5156 33.0467 84.0442 33.098 83.5402 33.098C83.0456 33.098 82.5509 33.0467 82.0562 32.944C81.5709 32.8413 81.1042 32.692 80.6562 32.496C80.2176 32.2907 79.8116 32.0433 79.4382 31.754L80.1522 30.41C80.2736 30.5313 80.4462 30.6667 80.6702 30.816C80.9036 30.956 81.1696 31.0913 81.4682 31.222C81.7762 31.3527 82.1076 31.4647 82.4622 31.558C82.8262 31.642 83.1949 31.684 83.5682 31.684C84.1936 31.684 84.6696 31.5767 84.9962 31.362C85.3322 31.138 85.5002 30.8207 85.5002 30.41C85.5002 30.074 85.3929 29.808 85.1782 29.612C84.9636 29.4067 84.6509 29.234 84.2402 29.094C83.8296 28.954 83.3396 28.814 82.7702 28.674C82.1169 28.4967 81.5709 28.3053 81.1322 28.1C80.6936 27.8853 80.3622 27.6147 80.1382 27.288C79.9236 26.952 79.8162 26.5273 79.8162 26.014C79.8162 25.3607 79.9749 24.81 80.2922 24.362C80.6096 23.9047 81.0389 23.564 81.5802 23.34C82.1309 23.1067 82.7469 22.99 83.4282 22.99C83.8762 22.99 84.3009 23.0413 84.7022 23.144C85.1036 23.2373 85.4769 23.368 85.8222 23.536C86.1769 23.704 86.4989 23.8953 86.7882 24.11L86.0742 25.398ZM92.4804 32.622C92.3498 32.6873 92.1864 32.7573 91.9904 32.832C91.7944 32.9067 91.5704 32.972 91.3184 33.028C91.0758 33.084 90.8238 33.112 90.5624 33.112C90.2451 33.112 89.9511 33.056 89.6804 32.944C89.4098 32.832 89.1904 32.6547 89.0224 32.412C88.8638 32.16 88.7844 31.838 88.7844 31.446V26.868H87.8184V25.678H88.7844V23.27H90.3244V25.678H91.9204V26.868H90.3244V30.956C90.3431 31.208 90.4224 31.3947 90.5624 31.516C90.7118 31.6373 90.8938 31.698 91.1084 31.698C91.3231 31.698 91.5284 31.6607 91.7244 31.586C91.9204 31.5113 92.0651 31.4507 92.1584 31.404L92.4804 32.622ZM93.015 30.858C93.015 30.3913 93.1457 29.9853 93.407 29.64C93.6777 29.2853 94.0464 29.0147 94.513 28.828C94.9797 28.632 95.521 28.534 96.137 28.534C96.4637 28.534 96.795 28.5573 97.131 28.604C97.4764 28.6507 97.7797 28.7253 98.041 28.828V28.366C98.041 27.8527 97.887 27.4513 97.579 27.162C97.271 26.8727 96.8277 26.728 96.249 26.728C95.8384 26.728 95.451 26.8027 95.087 26.952C94.723 27.092 94.3357 27.2927 93.925 27.554L93.407 26.518C93.8924 26.1913 94.3777 25.9487 94.863 25.79C95.3577 25.6313 95.8757 25.552 96.417 25.552C97.397 25.552 98.167 25.8133 98.727 26.336C99.2964 26.8493 99.581 27.582 99.581 28.534V31.264C99.581 31.4413 99.609 31.5673 99.665 31.642C99.7304 31.7167 99.8377 31.7587 99.987 31.768V33C99.847 33.028 99.721 33.0467 99.609 33.056C99.497 33.0653 99.4037 33.07 99.329 33.07C99.0024 33.07 98.755 32.9907 98.587 32.832C98.419 32.6733 98.321 32.4867 98.293 32.272L98.251 31.852C97.9337 32.2627 97.5277 32.58 97.033 32.804C96.5384 33.028 96.039 33.14 95.535 33.14C95.0497 33.14 94.6157 33.042 94.233 32.846C93.8504 32.6407 93.5517 32.3653 93.337 32.02C93.1224 31.6747 93.015 31.2873 93.015 30.858ZM97.677 31.306C97.789 31.1847 97.8777 31.0633 97.943 30.942C98.0084 30.8207 98.041 30.7133 98.041 30.62V29.78C97.7797 29.6773 97.5044 29.6027 97.215 29.556C96.9257 29.5 96.641 29.472 96.361 29.472C95.801 29.472 95.3437 29.584 94.989 29.808C94.6437 30.032 94.471 30.34 94.471 30.732C94.471 30.9467 94.527 31.152 94.639 31.348C94.7604 31.544 94.9284 31.7027 95.143 31.824C95.367 31.9453 95.6424 32.006 95.969 32.006C96.305 32.006 96.627 31.9407 96.935 31.81C97.243 31.6793 97.4904 31.5113 97.677 31.306ZM105.565 27.008C104.968 27.0173 104.436 27.1527 103.969 27.414C103.512 27.6753 103.185 28.044 102.989 28.52V33H101.449V25.678H102.877V27.316C103.129 26.812 103.461 26.4107 103.871 26.112C104.282 25.804 104.716 25.636 105.173 25.608C105.267 25.608 105.341 25.608 105.397 25.608C105.463 25.608 105.519 25.6127 105.565 25.622V27.008ZM109.867 33.14C109.298 33.14 108.78 33.042 108.313 32.846C107.856 32.6407 107.459 32.3653 107.123 32.02C106.787 31.6653 106.526 31.264 106.339 30.816C106.162 30.3587 106.073 29.8733 106.073 29.36C106.073 28.6693 106.232 28.0393 106.549 27.47C106.866 26.8913 107.31 26.4293 107.879 26.084C108.448 25.7293 109.116 25.552 109.881 25.552C110.646 25.552 111.304 25.7293 111.855 26.084C112.415 26.4293 112.849 26.8867 113.157 27.456C113.465 28.0253 113.619 28.6367 113.619 29.29C113.619 29.402 113.614 29.5093 113.605 29.612C113.596 29.7053 113.586 29.7847 113.577 29.85H107.711C107.739 30.2793 107.856 30.6573 108.061 30.984C108.276 31.3013 108.546 31.5533 108.873 31.74C109.2 31.9173 109.55 32.006 109.923 32.006C110.334 32.006 110.721 31.9033 111.085 31.698C111.458 31.4927 111.71 31.222 111.841 30.886L113.157 31.264C112.998 31.6187 112.756 31.9407 112.429 32.23C112.112 32.51 111.734 32.734 111.295 32.902C110.856 33.0607 110.38 33.14 109.867 33.14ZM107.669 28.828H112.093C112.065 28.408 111.944 28.0393 111.729 27.722C111.524 27.3953 111.258 27.1433 110.931 26.966C110.614 26.7793 110.259 26.686 109.867 26.686C109.484 26.686 109.13 26.7793 108.803 26.966C108.486 27.1433 108.224 27.3953 108.019 27.722C107.814 28.0393 107.697 28.408 107.669 28.828Z" fill="white"/>
</svg>
