<svg width="124" height="44" viewBox="0 0 124 44" fill="none" xmlns="http://www.w3.org/2000/svg">
<rect width="124" height="44" rx="12" fill="#262422"/>
<path d="M10.1217 10.4614C9.84477 10.7383 9.66016 11.1999 9.66016 11.7537V32.1537C9.66016 32.7076 9.84477 33.1691 10.1217 33.446L10.214 33.5383L21.6602 22.0922V21.9999V21.9076L10.1217 10.4614Z" fill="url(#paint0_linear_1220_3869)"/>
<path d="M25.4448 25.9692L21.6602 22.1846V22V21.9077L25.4448 18.123H25.5371L30.0602 20.7077C31.3525 21.4461 31.3525 22.6461 30.0602 23.3846L25.4448 25.9692Z" fill="url(#paint1_linear_1220_3869)"/>
<path d="M25.5365 25.8769L21.5672 22L10.1211 33.5385C10.4903 34 11.2288 34 12.0596 33.5385L25.5365 25.8769Z" fill="url(#paint2_linear_1220_3869)"/>
<path d="M25.5365 18.1229L12.0596 10.4614C11.2288 9.99985 10.4903 9.99985 10.1211 10.4614L21.5672 21.9998L25.5365 18.1229Z" fill="url(#paint3_linear_1220_3869)"/>
<path d="M36.89 18V10.9H39.3C40.0533 10.9 40.68 11.06 41.18 11.38C41.6867 11.6933 42.0667 12.12 42.32 12.66C42.5733 13.1933 42.7 13.7867 42.7 14.44C42.7 15.16 42.56 15.7867 42.28 16.32C42.0067 16.8533 41.6133 17.2667 41.1 17.56C40.5933 17.8533 39.9933 18 39.3 18H36.89ZM42 14.44C42 13.8733 41.8933 13.37 41.68 12.93C41.4733 12.49 41.17 12.1467 40.77 11.9C40.37 11.6467 39.88 11.52 39.3 11.52H37.59V17.38H39.3C39.8867 17.38 40.38 17.25 40.78 16.99C41.18 16.73 41.4833 16.38 41.69 15.94C41.8967 15.4933 42 14.9933 42 14.44ZM46.1184 18.1C45.7451 18.1 45.3984 18.03 45.0784 17.89C44.7651 17.7433 44.4918 17.5467 44.2584 17.3C44.0318 17.0467 43.8551 16.76 43.7284 16.44C43.6018 16.1133 43.5384 15.77 43.5384 15.41C43.5384 15.0367 43.6018 14.69 43.7284 14.37C43.8551 14.0433 44.0351 13.7567 44.2684 13.51C44.5018 13.2567 44.7751 13.06 45.0884 12.92C45.4084 12.7733 45.7551 12.7 46.1284 12.7C46.5018 12.7 46.8451 12.7733 47.1584 12.92C47.4718 13.06 47.7451 13.2567 47.9784 13.51C48.2118 13.7567 48.3918 14.0433 48.5184 14.37C48.6451 14.69 48.7084 15.0367 48.7084 15.41C48.7084 15.77 48.6451 16.1133 48.5184 16.44C48.3918 16.76 48.2118 17.0467 47.9784 17.3C47.7518 17.5467 47.4784 17.7433 47.1584 17.89C46.8451 18.03 46.4984 18.1 46.1184 18.1ZM44.2284 15.42C44.2284 15.8067 44.3118 16.16 44.4784 16.48C44.6518 16.7933 44.8818 17.0433 45.1684 17.23C45.4551 17.41 45.7718 17.5 46.1184 17.5C46.4651 17.5 46.7818 17.4067 47.0684 17.22C47.3551 17.0333 47.5851 16.78 47.7584 16.46C47.9318 16.1333 48.0184 15.78 48.0184 15.4C48.0184 15.0133 47.9318 14.66 47.7584 14.34C47.5851 14.02 47.3551 13.7667 47.0684 13.58C46.7818 13.3933 46.4651 13.3 46.1184 13.3C45.7718 13.3 45.4551 13.3967 45.1684 13.59C44.8884 13.7833 44.6618 14.04 44.4884 14.36C44.3151 14.6733 44.2284 15.0267 44.2284 15.42ZM56.2299 12.79H56.8999L54.6599 18H54.0699L52.9799 15.41L51.8999 18H51.3099L49.0699 12.79H49.7299L51.6299 17.3L52.5899 14.95L51.7099 12.8H52.3199L52.9799 14.49L53.6499 12.8H54.2499L53.3799 14.95L54.3399 17.3L56.2299 12.79ZM62.1847 18H61.5047V15.09C61.5047 14.4767 61.4147 14.03 61.2347 13.75C61.0547 13.4633 60.7714 13.32 60.3847 13.32C60.118 13.32 59.8547 13.3867 59.5947 13.52C59.3347 13.6467 59.1047 13.8233 58.9047 14.05C58.7114 14.27 58.5714 14.5233 58.4847 14.81V18H57.8047V12.79H58.4247V13.97C58.5647 13.7167 58.748 13.4967 58.9747 13.31C59.2014 13.1167 59.458 12.9667 59.7447 12.86C60.0314 12.7533 60.328 12.7 60.6347 12.7C60.9214 12.7 61.1647 12.7533 61.3647 12.86C61.5647 12.9667 61.7247 13.12 61.8447 13.32C61.9647 13.5133 62.0514 13.75 62.1047 14.03C62.158 14.3033 62.1847 14.61 62.1847 14.95V18ZM63.6648 10.7H64.3448V16.82C64.3448 17.08 64.3914 17.25 64.4848 17.33C64.5781 17.41 64.6914 17.45 64.8248 17.45C64.9448 17.45 65.0648 17.4367 65.1848 17.41C65.3048 17.3833 65.4081 17.3567 65.4948 17.33L65.6148 17.88C65.4881 17.9333 65.3314 17.9767 65.1448 18.01C64.9648 18.0433 64.8081 18.06 64.6748 18.06C64.3681 18.06 64.1214 17.97 63.9348 17.79C63.7548 17.61 63.6648 17.3633 63.6648 17.05V10.7ZM68.5794 18.1C68.206 18.1 67.8594 18.03 67.5394 17.89C67.226 17.7433 66.9527 17.5467 66.7194 17.3C66.4927 17.0467 66.316 16.76 66.1894 16.44C66.0627 16.1133 65.9994 15.77 65.9994 15.41C65.9994 15.0367 66.0627 14.69 66.1894 14.37C66.316 14.0433 66.496 13.7567 66.7294 13.51C66.9627 13.2567 67.236 13.06 67.5494 12.92C67.8694 12.7733 68.216 12.7 68.5894 12.7C68.9627 12.7 69.306 12.7733 69.6194 12.92C69.9327 13.06 70.206 13.2567 70.4394 13.51C70.6727 13.7567 70.8527 14.0433 70.9794 14.37C71.106 14.69 71.1694 15.0367 71.1694 15.41C71.1694 15.77 71.106 16.1133 70.9794 16.44C70.8527 16.76 70.6727 17.0467 70.4394 17.3C70.2127 17.5467 69.9394 17.7433 69.6194 17.89C69.306 18.03 68.9594 18.1 68.5794 18.1ZM66.6894 15.42C66.6894 15.8067 66.7727 16.16 66.9394 16.48C67.1127 16.7933 67.3427 17.0433 67.6294 17.23C67.916 17.41 68.2327 17.5 68.5794 17.5C68.926 17.5 69.2427 17.4067 69.5294 17.22C69.816 17.0333 70.046 16.78 70.2194 16.46C70.3927 16.1333 70.4794 15.78 70.4794 15.4C70.4794 15.0133 70.3927 14.66 70.2194 14.34C70.046 14.02 69.816 13.7667 69.5294 13.58C69.2427 13.3933 68.926 13.3 68.5794 13.3C68.2327 13.3 67.916 13.3967 67.6294 13.59C67.3494 13.7833 67.1227 14.04 66.9494 14.36C66.776 14.6733 66.6894 15.0267 66.6894 15.42ZM71.8866 16.5C71.8866 16.1733 71.98 15.8933 72.1666 15.66C72.3533 15.42 72.61 15.2367 72.9366 15.11C73.27 14.9767 73.6533 14.91 74.0866 14.91C74.34 14.91 74.6033 14.93 74.8766 14.97C75.15 15.01 75.3933 15.07 75.6066 15.15V14.71C75.6066 14.27 75.4766 13.92 75.2166 13.66C74.9566 13.4 74.5966 13.27 74.1366 13.27C73.8566 13.27 73.58 13.3233 73.3066 13.43C73.04 13.53 72.76 13.68 72.4666 13.88L72.2066 13.4C72.5466 13.1667 72.88 12.9933 73.2066 12.88C73.5333 12.76 73.8666 12.7 74.2066 12.7C74.8466 12.7 75.3533 12.8833 75.7266 13.25C76.1 13.6167 76.2866 14.1233 76.2866 14.77V17.18C76.2866 17.2733 76.3066 17.3433 76.3466 17.39C76.3866 17.43 76.45 17.4533 76.5366 17.46V18C76.4633 18.0067 76.4 18.0133 76.3466 18.02C76.2933 18.0267 76.2533 18.0267 76.2266 18.02C76.06 18.0133 75.9333 17.96 75.8466 17.86C75.76 17.76 75.7133 17.6533 75.7066 17.54L75.6966 17.16C75.4633 17.46 75.16 17.6933 74.7866 17.86C74.4133 18.02 74.0333 18.1 73.6466 18.1C73.3133 18.1 73.01 18.03 72.7366 17.89C72.47 17.7433 72.26 17.55 72.1066 17.31C71.96 17.0633 71.8866 16.7933 71.8866 16.5ZM75.3766 16.9C75.45 16.8067 75.5066 16.7167 75.5466 16.63C75.5866 16.5433 75.6066 16.4667 75.6066 16.4V15.64C75.38 15.5533 75.1433 15.4867 74.8966 15.44C74.6566 15.3933 74.4133 15.37 74.1666 15.37C73.68 15.37 73.2866 15.4667 72.9866 15.66C72.6866 15.8533 72.5366 16.1167 72.5366 16.45C72.5366 16.6433 72.5866 16.8267 72.6866 17C72.7866 17.1667 72.9333 17.3067 73.1266 17.42C73.32 17.5267 73.5466 17.58 73.8066 17.58C74.1333 17.58 74.4366 17.5167 74.7166 17.39C75.0033 17.2633 75.2233 17.1 75.3766 16.9ZM77.4059 15.41C77.4059 14.9167 77.5059 14.4667 77.7059 14.06C77.9125 13.6467 78.1959 13.3167 78.5559 13.07C78.9159 12.8233 79.3259 12.7 79.7859 12.7C80.2192 12.7 80.6059 12.8167 80.9459 13.05C81.2925 13.2767 81.5625 13.5533 81.7559 13.88V10.7H82.4359V17.18C82.4359 17.2733 82.4559 17.3433 82.4959 17.39C82.5359 17.43 82.5959 17.4533 82.6759 17.46V18C82.5425 18.02 82.4392 18.0267 82.3659 18.02C82.2259 18.0133 82.1025 17.9567 81.9959 17.85C81.8892 17.7433 81.8359 17.6267 81.8359 17.5V16.99C81.6292 17.33 81.3492 17.6 80.9959 17.8C80.6425 18 80.2759 18.1 79.8959 18.1C79.5359 18.1 79.2025 18.0267 78.8959 17.88C78.5959 17.7333 78.3325 17.5333 78.1059 17.28C77.8859 17.0267 77.7125 16.74 77.5859 16.42C77.4659 16.0933 77.4059 15.7567 77.4059 15.41ZM81.7559 16.21V14.6C81.6692 14.36 81.5292 14.1433 81.3359 13.95C81.1425 13.75 80.9225 13.5933 80.6759 13.48C80.4359 13.36 80.1959 13.3 79.9559 13.3C79.6759 13.3 79.4225 13.36 79.1959 13.48C78.9692 13.5933 78.7725 13.75 78.6059 13.95C78.4459 14.15 78.3225 14.3767 78.2359 14.63C78.1492 14.8833 78.1059 15.1433 78.1059 15.41C78.1059 15.69 78.1525 15.9567 78.2459 16.21C78.3459 16.4633 78.4859 16.69 78.6659 16.89C78.8459 17.0833 79.0525 17.2333 79.2859 17.34C79.5192 17.4467 79.7725 17.5 80.0459 17.5C80.2192 17.5 80.3992 17.4667 80.5859 17.4C80.7725 17.3333 80.9492 17.2433 81.1159 17.13C81.2892 17.01 81.4325 16.87 81.5459 16.71C81.6592 16.55 81.7292 16.3833 81.7559 16.21ZM88.7454 18.1C88.3721 18.1 88.0254 18.03 87.7054 17.89C87.3921 17.7433 87.1187 17.5467 86.8854 17.3C86.6587 17.0467 86.4821 16.76 86.3554 16.44C86.2287 16.1133 86.1654 15.77 86.1654 15.41C86.1654 15.0367 86.2287 14.69 86.3554 14.37C86.4821 14.0433 86.6621 13.7567 86.8954 13.51C87.1287 13.2567 87.4021 13.06 87.7154 12.92C88.0354 12.7733 88.3821 12.7 88.7554 12.7C89.1287 12.7 89.4721 12.7733 89.7854 12.92C90.0987 13.06 90.3721 13.2567 90.6054 13.51C90.8387 13.7567 91.0187 14.0433 91.1454 14.37C91.2721 14.69 91.3354 15.0367 91.3354 15.41C91.3354 15.77 91.2721 16.1133 91.1454 16.44C91.0187 16.76 90.8387 17.0467 90.6054 17.3C90.3787 17.5467 90.1054 17.7433 89.7854 17.89C89.4721 18.03 89.1254 18.1 88.7454 18.1ZM86.8554 15.42C86.8554 15.8067 86.9387 16.16 87.1054 16.48C87.2787 16.7933 87.5087 17.0433 87.7954 17.23C88.0821 17.41 88.3987 17.5 88.7454 17.5C89.0921 17.5 89.4087 17.4067 89.6954 17.22C89.9821 17.0333 90.2121 16.78 90.3854 16.46C90.5587 16.1333 90.6454 15.78 90.6454 15.4C90.6454 15.0133 90.5587 14.66 90.3854 14.34C90.2121 14.02 89.9821 13.7667 89.6954 13.58C89.4087 13.3933 89.0921 13.3 88.7454 13.3C88.3987 13.3 88.0821 13.3967 87.7954 13.59C87.5154 13.7833 87.2887 14.04 87.1154 14.36C86.9421 14.6733 86.8554 15.0267 86.8554 15.42ZM96.8527 18H96.1727V15.09C96.1727 14.4767 96.0827 14.03 95.9027 13.75C95.7227 13.4633 95.4393 13.32 95.0527 13.32C94.786 13.32 94.5227 13.3867 94.2627 13.52C94.0027 13.6467 93.7727 13.8233 93.5727 14.05C93.3793 14.27 93.2393 14.5233 93.1527 14.81V18H92.4727V12.79H93.0927V13.97C93.2327 13.7167 93.416 13.4967 93.6427 13.31C93.8693 13.1167 94.126 12.9667 94.4127 12.86C94.6993 12.7533 94.996 12.7 95.3027 12.7C95.5893 12.7 95.8327 12.7533 96.0327 12.86C96.2327 12.9667 96.3927 13.12 96.5127 13.32C96.6327 13.5133 96.7193 13.75 96.7727 14.03C96.826 14.3033 96.8527 14.61 96.8527 14.95V18Z" fill="#CCC8C4"/>
<path d="M41.2103 33.07C40.5569 33.07 39.9456 32.9347 39.3763 32.664C38.8069 32.3933 38.3076 32.02 37.8783 31.544C37.4583 31.068 37.1269 30.5267 36.8843 29.92C36.6509 29.3133 36.5343 28.6693 36.5343 27.988C36.5343 27.3067 36.6509 26.6673 36.8843 26.07C37.1269 25.4727 37.4583 24.9407 37.8783 24.474C38.3076 24.0073 38.8069 23.6433 39.3763 23.382C39.9549 23.1207 40.5849 22.99 41.2663 22.99C42.2089 22.99 43.0023 23.1907 43.6463 23.592C44.2996 23.984 44.7896 24.5067 45.1163 25.16L43.9123 26.028C43.6509 25.4867 43.2776 25.0807 42.7923 24.81C42.3163 24.5393 41.7936 24.404 41.2243 24.404C40.7576 24.404 40.3329 24.502 39.9503 24.698C39.5676 24.894 39.2363 25.1647 38.9563 25.51C38.6856 25.846 38.4803 26.2333 38.3403 26.672C38.2003 27.1013 38.1303 27.554 38.1303 28.03C38.1303 28.534 38.2096 29.0053 38.3683 29.444C38.5269 29.8827 38.7509 30.27 39.0403 30.606C39.3296 30.9327 39.6703 31.1893 40.0623 31.376C40.4543 31.5627 40.8789 31.656 41.3363 31.656C41.8776 31.656 42.3909 31.5207 42.8763 31.25C43.3709 30.97 43.8329 30.5547 44.2623 30.004V31.6C43.3943 32.58 42.3769 33.07 41.2103 33.07ZM44.1083 29.136H42.0223V27.974H45.4243V33H44.1083V29.136ZM50.3068 33.14C49.7281 33.14 49.2101 33.042 48.7528 32.846C48.2954 32.6407 47.8988 32.3607 47.5628 32.006C47.2361 31.6513 46.9841 31.25 46.8068 30.802C46.6294 30.3447 46.5408 29.8593 46.5408 29.346C46.5408 28.8327 46.6294 28.3473 46.8068 27.89C46.9841 27.4327 47.2361 27.0313 47.5628 26.686C47.8988 26.3313 48.2954 26.056 48.7528 25.86C49.2194 25.6547 49.7374 25.552 50.3068 25.552C50.8761 25.552 51.3894 25.6547 51.8468 25.86C52.3134 26.056 52.7101 26.3313 53.0368 26.686C53.3728 27.0313 53.6294 27.4327 53.8068 27.89C53.9841 28.3473 54.0728 28.8327 54.0728 29.346C54.0728 29.8593 53.9841 30.3447 53.8068 30.802C53.6294 31.25 53.3728 31.6513 53.0368 32.006C52.7101 32.3607 52.3134 32.6407 51.8468 32.846C51.3894 33.042 50.8761 33.14 50.3068 33.14ZM48.1228 29.36C48.1228 29.8267 48.2208 30.2467 48.4168 30.62C48.6128 30.9933 48.8741 31.2873 49.2008 31.502C49.5274 31.7167 49.8961 31.824 50.3068 31.824C50.7081 31.824 51.0721 31.7167 51.3988 31.502C51.7348 31.278 52.0008 30.9793 52.1968 30.606C52.3928 30.2233 52.4908 29.8033 52.4908 29.346C52.4908 28.8793 52.3928 28.4593 52.1968 28.086C52.0008 27.7127 51.7348 27.4187 51.3988 27.204C51.0721 26.98 50.7081 26.868 50.3068 26.868C49.8961 26.868 49.5274 26.98 49.2008 27.204C48.8741 27.428 48.6128 27.7267 48.4168 28.1C48.2208 28.464 48.1228 28.884 48.1228 29.36ZM58.7286 33.14C58.15 33.14 57.632 33.042 57.1746 32.846C56.7173 32.6407 56.3206 32.3607 55.9846 32.006C55.658 31.6513 55.406 31.25 55.2286 30.802C55.0513 30.3447 54.9626 29.8593 54.9626 29.346C54.9626 28.8327 55.0513 28.3473 55.2286 27.89C55.406 27.4327 55.658 27.0313 55.9846 26.686C56.3206 26.3313 56.7173 26.056 57.1746 25.86C57.6413 25.6547 58.1593 25.552 58.7286 25.552C59.298 25.552 59.8113 25.6547 60.2686 25.86C60.7353 26.056 61.132 26.3313 61.4586 26.686C61.7946 27.0313 62.0513 27.4327 62.2286 27.89C62.406 28.3473 62.4946 28.8327 62.4946 29.346C62.4946 29.8593 62.406 30.3447 62.2286 30.802C62.0513 31.25 61.7946 31.6513 61.4586 32.006C61.132 32.3607 60.7353 32.6407 60.2686 32.846C59.8113 33.042 59.298 33.14 58.7286 33.14ZM56.5446 29.36C56.5446 29.8267 56.6426 30.2467 56.8386 30.62C57.0346 30.9933 57.296 31.2873 57.6226 31.502C57.9493 31.7167 58.318 31.824 58.7286 31.824C59.13 31.824 59.494 31.7167 59.8206 31.502C60.1566 31.278 60.4226 30.9793 60.6186 30.606C60.8146 30.2233 60.9126 29.8033 60.9126 29.346C60.9126 28.8793 60.8146 28.4593 60.6186 28.086C60.4226 27.7127 60.1566 27.4187 59.8206 27.204C59.494 26.98 59.13 26.868 58.7286 26.868C58.318 26.868 57.9493 26.98 57.6226 27.204C57.296 27.428 57.0346 27.7267 56.8386 28.1C56.6426 28.464 56.5446 28.884 56.5446 29.36ZM66.7585 33.07C66.2639 33.07 65.8112 32.972 65.4005 32.776C64.9899 32.5707 64.6352 32.2953 64.3365 31.95C64.0472 31.6047 63.8185 31.208 63.6505 30.76C63.4919 30.312 63.4125 29.8407 63.4125 29.346C63.4125 28.8233 63.4965 28.3333 63.6645 27.876C63.8325 27.4187 64.0659 27.0173 64.3645 26.672C64.6725 26.3173 65.0319 26.042 65.4425 25.846C65.8532 25.65 66.3105 25.552 66.8145 25.552C67.4025 25.552 67.9159 25.692 68.3545 25.972C68.8025 26.252 69.1712 26.616 69.4605 27.064V25.678H70.8185V32.79C70.8185 33.4993 70.6459 34.1013 70.3005 34.596C69.9645 35.0907 69.5025 35.4687 68.9145 35.73C68.3265 35.9913 67.6639 36.122 66.9265 36.122C66.1145 36.122 65.4425 35.982 64.9105 35.702C64.3785 35.422 63.9259 35.0393 63.5525 34.554L64.4205 33.742C64.7005 34.134 65.0599 34.4327 65.4985 34.638C65.9465 34.8433 66.4225 34.946 66.9265 34.946C67.3465 34.946 67.7339 34.8667 68.0885 34.708C68.4525 34.5587 68.7419 34.3207 68.9565 33.994C69.1712 33.6767 69.2785 33.2753 69.2785 32.79V31.67C69.0172 32.1087 68.6579 32.454 68.2005 32.706C67.7432 32.9487 67.2625 33.07 66.7585 33.07ZM67.2625 31.824C67.4959 31.824 67.7199 31.7867 67.9345 31.712C68.1492 31.628 68.3452 31.5207 68.5225 31.39C68.7092 31.25 68.8679 31.096 68.9985 30.928C69.1292 30.7507 69.2225 30.564 69.2785 30.368V28.45C69.1572 28.1327 68.9845 27.8573 68.7605 27.624C68.5365 27.3813 68.2845 27.1947 68.0045 27.064C67.7245 26.9333 67.4399 26.868 67.1505 26.868C66.8145 26.868 66.5112 26.9427 66.2405 27.092C65.9792 27.232 65.7552 27.4233 65.5685 27.666C65.3819 27.8993 65.2372 28.1653 65.1345 28.464C65.0319 28.7627 64.9805 29.0707 64.9805 29.388C64.9805 29.724 65.0365 30.0367 65.1485 30.326C65.2699 30.6153 65.4332 30.8767 65.6385 31.11C65.8439 31.334 66.0865 31.5113 66.3665 31.642C66.6465 31.7633 66.9452 31.824 67.2625 31.824ZM72.6792 22.78H74.2192V30.886C74.2192 31.2593 74.2752 31.4973 74.3872 31.6C74.4992 31.7027 74.6392 31.754 74.8072 31.754C74.9939 31.754 75.1665 31.7353 75.3252 31.698C75.4932 31.6607 75.6379 31.614 75.7592 31.558L75.9832 32.776C75.7592 32.8693 75.4932 32.9487 75.1852 33.014C74.8772 33.0793 74.6019 33.112 74.3592 33.112C73.8365 33.112 73.4259 32.9673 73.1272 32.678C72.8285 32.3793 72.6792 31.9687 72.6792 31.446V22.78ZM80.1941 33.14C79.6248 33.14 79.1068 33.042 78.6401 32.846C78.1828 32.6407 77.7861 32.3653 77.4501 32.02C77.1141 31.6653 76.8528 31.264 76.6661 30.816C76.4888 30.3587 76.4001 29.8733 76.4001 29.36C76.4001 28.6693 76.5588 28.0393 76.8761 27.47C77.1935 26.8913 77.6368 26.4293 78.2061 26.084C78.7755 25.7293 79.4428 25.552 80.2081 25.552C80.9735 25.552 81.6315 25.7293 82.1821 26.084C82.7421 26.4293 83.1761 26.8867 83.4841 27.456C83.7921 28.0253 83.9461 28.6367 83.9461 29.29C83.9461 29.402 83.9415 29.5093 83.9321 29.612C83.9228 29.7053 83.9135 29.7847 83.9041 29.85H78.0381C78.0661 30.2793 78.1828 30.6573 78.3881 30.984C78.6028 31.3013 78.8735 31.5533 79.2001 31.74C79.5268 31.9173 79.8768 32.006 80.2501 32.006C80.6608 32.006 81.0481 31.9033 81.4121 31.698C81.7855 31.4927 82.0375 31.222 82.1681 30.886L83.4841 31.264C83.3255 31.6187 83.0828 31.9407 82.7561 32.23C82.4388 32.51 82.0608 32.734 81.6221 32.902C81.1835 33.0607 80.7075 33.14 80.1941 33.14ZM77.9961 28.828H82.4201C82.3921 28.408 82.2708 28.0393 82.0561 27.722C81.8508 27.3953 81.5848 27.1433 81.2581 26.966C80.9408 26.7793 80.5861 26.686 80.1941 26.686C79.8115 26.686 79.4568 26.7793 79.1301 26.966C78.8128 27.1433 78.5515 27.3953 78.3461 27.722C78.1408 28.0393 78.0241 28.408 77.9961 28.828ZM88.8573 33V23.06H93.0293C93.4773 23.06 93.888 23.1533 94.2613 23.34C94.6346 23.5267 94.9613 23.774 95.2413 24.082C95.5213 24.39 95.736 24.7353 95.8853 25.118C96.0346 25.5007 96.1093 25.8927 96.1093 26.294C96.1093 26.8447 95.9833 27.372 95.7313 27.876C95.4886 28.3707 95.1386 28.772 94.6813 29.08C94.2333 29.388 93.7106 29.542 93.1133 29.542H90.4253V33H88.8573ZM90.4253 28.156H93.0153C93.314 28.156 93.5753 28.0767 93.7993 27.918C94.0233 27.75 94.196 27.526 94.3173 27.246C94.448 26.966 94.5133 26.6487 94.5133 26.294C94.5133 25.93 94.4386 25.608 94.2893 25.328C94.14 25.048 93.944 24.8333 93.7013 24.684C93.468 24.5253 93.2113 24.446 92.9313 24.446H90.4253V28.156ZM97.398 22.78H98.938V30.886C98.938 31.2593 98.994 31.4973 99.106 31.6C99.218 31.7027 99.358 31.754 99.526 31.754C99.7126 31.754 99.8853 31.7353 100.044 31.698C100.212 31.6607 100.357 31.614 100.478 31.558L100.702 32.776C100.478 32.8693 100.212 32.9487 99.904 33.014C99.596 33.0793 99.3206 33.112 99.078 33.112C98.5553 33.112 98.1446 32.9673 97.846 32.678C97.5473 32.3793 97.398 31.9687 97.398 31.446V22.78ZM101.063 30.858C101.063 30.3913 101.194 29.9853 101.455 29.64C101.726 29.2853 102.094 29.0147 102.561 28.828C103.028 28.632 103.569 28.534 104.185 28.534C104.512 28.534 104.843 28.5573 105.179 28.604C105.524 28.6507 105.828 28.7253 106.089 28.828V28.366C106.089 27.8527 105.935 27.4513 105.627 27.162C105.319 26.8727 104.876 26.728 104.297 26.728C103.886 26.728 103.499 26.8027 103.135 26.952C102.771 27.092 102.384 27.2927 101.973 27.554L101.455 26.518C101.94 26.1913 102.426 25.9487 102.911 25.79C103.406 25.6313 103.924 25.552 104.465 25.552C105.445 25.552 106.215 25.8133 106.775 26.336C107.344 26.8493 107.629 27.582 107.629 28.534V31.264C107.629 31.4413 107.657 31.5673 107.713 31.642C107.778 31.7167 107.886 31.7587 108.035 31.768V33C107.895 33.028 107.769 33.0467 107.657 33.056C107.545 33.0653 107.452 33.07 107.377 33.07C107.05 33.07 106.803 32.9907 106.635 32.832C106.467 32.6733 106.369 32.4867 106.341 32.272L106.299 31.852C105.982 32.2627 105.576 32.58 105.081 32.804C104.586 33.028 104.087 33.14 103.583 33.14C103.098 33.14 102.664 33.042 102.281 32.846C101.898 32.6407 101.6 32.3653 101.385 32.02C101.17 31.6747 101.063 31.2873 101.063 30.858ZM105.725 31.306C105.837 31.1847 105.926 31.0633 105.991 30.942C106.056 30.8207 106.089 30.7133 106.089 30.62V29.78C105.828 29.6773 105.552 29.6027 105.263 29.556C104.974 29.5 104.689 29.472 104.409 29.472C103.849 29.472 103.392 29.584 103.037 29.808C102.692 30.032 102.519 30.34 102.519 30.732C102.519 30.9467 102.575 31.152 102.687 31.348C102.808 31.544 102.976 31.7027 103.191 31.824C103.415 31.9453 103.69 32.006 104.017 32.006C104.353 32.006 104.675 31.9407 104.983 31.81C105.291 31.6793 105.538 31.5113 105.725 31.306ZM109.489 34.722C109.629 34.7407 109.765 34.7593 109.895 34.778C110.035 34.806 110.147 34.82 110.231 34.82C110.39 34.82 110.525 34.7687 110.637 34.666C110.759 34.5727 110.88 34.3953 111.001 34.134C111.123 33.8727 111.272 33.4947 111.449 33L108.439 25.678H110.049L112.289 31.432L114.277 25.678H115.761L112.443 34.694C112.341 34.9647 112.191 35.212 111.995 35.436C111.799 35.6693 111.557 35.8513 111.267 35.982C110.978 36.1127 110.637 36.178 110.245 36.178C110.133 36.178 110.017 36.1687 109.895 36.15C109.774 36.1313 109.639 36.1033 109.489 36.066V34.722Z" fill="white"/>
<defs>
<linearGradient id="paint0_linear_1220_3869" x1="20.5904" y1="11.577" x2="5.09896" y2="27.0684" gradientUnits="userSpaceOnUse">
<stop stop-color="#00A0FF"/>
<stop offset="0.00657445" stop-color="#00A1FF"/>
<stop offset="0.2601" stop-color="#00BEFF"/>
<stop offset="0.5122" stop-color="#00D2FF"/>
<stop offset="0.7604" stop-color="#00DFFF"/>
<stop offset="1" stop-color="#00E3FF"/>
</linearGradient>
<linearGradient id="paint1_linear_1220_3869" x1="31.6994" y1="22.0002" x2="9.36376" y2="22.0002" gradientUnits="userSpaceOnUse">
<stop stop-color="#FFE000"/>
<stop offset="0.4087" stop-color="#FFBD00"/>
<stop offset="0.7754" stop-color="#FFA500"/>
<stop offset="1" stop-color="#FF9C00"/>
</linearGradient>
<linearGradient id="paint2_linear_1220_3869" x1="23.3842" y1="24.1184" x2="2.37657" y2="45.126" gradientUnits="userSpaceOnUse">
<stop stop-color="#FF3A44"/>
<stop offset="1" stop-color="#C31162"/>
</linearGradient>
<linearGradient id="paint3_linear_1220_3869" x1="7.20297" y1="3.69985" x2="16.5837" y2="13.0806" gradientUnits="userSpaceOnUse">
<stop stop-color="#32A071"/>
<stop offset="0.0685" stop-color="#2DA771"/>
<stop offset="0.4762" stop-color="#15CF74"/>
<stop offset="0.8009" stop-color="#06E775"/>
<stop offset="1" stop-color="#00F076"/>
</linearGradient>
</defs>
</svg>
