<svg width="76" height="62" viewBox="0 0 76 62" fill="none" xmlns="http://www.w3.org/2000/svg">
<path d="M55.1953 5.7C53.4953 13.35 52.6953 16.925 51.3953 22.425C50.0953 27.925 48.8953 32.7 47.1703 35.1C46.476 36.0255 45.5887 36.7889 44.5699 37.3371C43.5511 37.8854 42.4252 38.2054 41.2703 38.275C40.1848 38.4221 39.0907 38.4973 37.9953 38.5C36.8765 38.526 35.7573 38.4759 34.6453 38.35C33.4872 38.279 32.3582 37.9586 31.3355 37.4105C30.3129 36.8625 29.4208 36.0999 28.7203 35.175C26.9203 32.675 25.8703 27.825 24.5703 22.5C23.2703 17.175 22.4703 13.425 20.7703 5.775H18.2703C17.2203 5.775 16.4203 5.925 15.5703 6.025C15.5703 6.025 16.5703 21.8 17.0203 28.525C17.4703 35.25 18.3203 47.425 19.0703 56.375C20.3526 56.5831 21.6469 56.7084 22.9453 56.75C25.4453 56.9 26.5953 56.9 26.5953 56.9C27.4219 52.8414 28.6877 48.8848 30.3703 45.1C30.8138 44.426 31.4137 43.8694 32.119 43.4776C32.8242 43.0858 33.6138 42.8705 34.4203 42.85C35.6146 42.6987 36.8166 42.6153 38.0203 42.6C39.2333 42.5876 40.4455 42.6712 41.6453 42.85C42.4518 42.8705 43.2414 43.0858 43.9466 43.4776C44.6519 43.8694 45.2519 44.426 45.6953 45.1C47.3798 48.8818 48.6375 52.8396 49.4453 56.9C49.4453 56.9 50.5703 56.9 53.0703 56.75C55.5703 56.6 56.9203 56.375 56.9203 56.375C57.6703 47.425 58.5203 35.575 58.9703 28.525C59.4203 21.85 60.4453 6.025 60.4453 6.025C59.5703 6.025 58.7203 5.825 57.7203 5.775H55.2203" fill="black"/>
<path d="M75.0973 15C74.0973 5 67.3722 2.87499 61.5222 1.87499C58.5472 1.37499 53.2972 0.974994 49.9472 0.824994C46.5972 0.674994 39.9472 0.524994 37.9472 0.524994C35.9472 0.524994 28.9222 0.524994 25.9722 0.824994C22.6222 0.974994 17.3472 1.37499 14.3972 1.87499C8.52225 2.87499 1.89724 4.97499 0.822244 15C0.535925 18.3251 0.435769 21.6637 0.522244 25C0.522244 31.375 1.17224 35.625 1.47224 38.65C1.8521 42.4812 2.5716 46.2711 3.62224 49.975C4.25912 52.7448 5.79803 55.2247 7.99724 57.025C10.6237 58.7606 13.6046 59.8881 16.7222 60.325C23.7566 61.1662 30.8382 61.5503 37.9222 61.475C45.0069 61.5753 52.0901 61.1911 59.1222 60.325C62.3 59.9427 65.3417 58.8117 67.9972 57.025C70.2105 55.2721 71.7835 52.838 72.4723 50.1C73.5188 46.3952 74.2383 42.6056 74.6223 38.775C74.9223 35.8 75.4722 31.5 75.5722 25.125C75.5722 21.275 75.4222 17.625 75.1722 15.125M71.4722 31.975C71.2352 37.4716 70.4564 42.9313 69.1472 48.275C68.5494 50.699 67.2851 52.9073 65.4972 54.65C63.0127 56.5841 60.0121 57.7408 56.8722 57.975C50.5978 58.6801 44.2858 58.9973 37.9722 58.925C31.6587 58.9973 25.3467 58.6801 19.0722 57.975C15.9491 57.7341 12.9664 56.5775 10.4972 54.65C8.70048 52.8683 7.44386 50.615 6.87224 48.15C5.54939 42.8098 4.77868 37.3478 4.57224 31.85C4.20095 26.2358 4.28456 20.6007 4.82224 15C5.57224 8.7 8.67224 5.54999 15.3472 4.37499C19.0803 3.77525 22.8449 3.39128 26.6222 3.22499C29.8472 3.02499 35.0472 2.925 37.9972 2.925C40.9472 2.925 46.1722 2.92499 49.3222 3.22499C53.066 3.39613 56.7971 3.78008 60.4972 4.37499C67.1472 5.6 70.2472 8.75 71.0723 15C71.6107 20.6007 71.6943 26.2358 71.3223 31.85" fill="black"/>
</svg>
