<svg width="76" height="40" viewBox="0 0 76 40" fill="none" xmlns="http://www.w3.org/2000/svg">
<path d="M38 39.2C58.7 39.2 75.5 30.6 75.5 20C75.5 9.4 58.7 0.800003 38 0.800003C17.3 0.800003 0.5 9.4 0.5 20C0.5 30.6 17.3 39.2 38 39.2ZM45.05 29.775C44.3665 32.1241 42.8914 34.1645 40.875 35.55C40.0884 35.9101 39.2393 36.1139 38.375 36.15H38C31.6554 36.1948 25.3384 35.3104 19.25 33.525H19.05C18.55 33.375 18.3 33.125 18.3 32.85C18.3052 32.7346 18.3346 32.6215 18.3863 32.5181C18.4379 32.4148 18.5108 32.3234 18.6 32.25L18.95 31.95C22.5966 29.1643 26.6644 26.9785 31 25.475C33.8564 24.2464 36.8077 23.2514 39.825 22.5C41.725 22.1 48.775 21 45.05 29.675M64 10.325C64.0638 10.2029 64.1563 10.0982 64.2695 10.0198C64.3827 9.94145 64.5133 9.89174 64.65 9.875C64.9269 9.8826 65.1958 9.96935 65.425 10.125C69.825 12.85 72.425 16.225 72.425 19.9C72.425 26.525 63.925 32.2 51.75 34.7C50.975 34.85 50.45 34.85 50.275 34.7C50.1 34.55 50.1 34.375 50.275 34.1C50.3676 33.9392 50.4765 33.7884 50.6 33.65C55.9567 26.7086 60.3623 19.0828 63.7 10.975L64 10.375M31.05 10.125C31.7335 7.77588 33.2086 5.73551 35.225 4.35C36.0091 3.98615 36.8607 3.79029 37.725 3.775H38C44.346 3.70167 50.6693 4.54367 56.775 6.275H56.975C57.475 6.425 57.725 6.65 57.725 6.95C57.7152 7.06704 57.6813 7.18078 57.6254 7.28405C57.5694 7.38732 57.4927 7.47787 57.4 7.55L57.075 7.85C53.4208 10.6177 49.3546 12.7942 45.025 14.3C42.2004 15.5825 39.284 16.6521 36.3 17.5C34.375 17.9 27.325 18.975 31.05 10.3M24.25 5.3C25.025 5.15 25.55 5.15 25.75 5.3C25.8113 5.38804 25.8442 5.49273 25.8442 5.6C25.8442 5.70727 25.8113 5.81197 25.75 5.9C25.662 6.05611 25.5526 6.19915 25.425 6.325C20.0683 13.2664 15.6627 20.8922 12.325 29C12.325 29.25 12.1 29.475 12.025 29.625C11.97 29.7465 11.8825 29.8504 11.7723 29.9254C11.662 30.0004 11.5332 30.0435 11.4 30.05C11.0726 30.0695 10.7502 29.962 10.5 29.75C6.1 27.05 3.5 23.65 3.5 20C3.5 13.375 12 7.675 24.175 5.2" fill="black"/>
</svg>
