<svg width="30" height="31" viewBox="0 0 30 31" fill="none" xmlns="http://www.w3.org/2000/svg">
<path fill-rule="evenodd" clip-rule="evenodd" d="M15 0.5C10.9262 0.5 10.4154 0.517268 8.81552 0.590267C7.21894 0.663087 6.12854 0.916679 5.17443 1.28751C4.18805 1.67079 3.35153 2.18369 2.51758 3.01758C1.68369 3.85153 1.17079 4.68805 0.787511 5.67443C0.416679 6.62854 0.163087 7.71894 0.0902669 9.31552C0.0172675 10.9154 0 11.4262 0 15.5C0 19.5738 0.0172675 20.0846 0.0902669 21.6845C0.163087 23.2811 0.416679 24.3715 0.787511 25.3256C1.17079 26.312 1.68369 27.1485 2.51758 27.9824C3.35153 28.8163 4.18805 29.3292 5.17443 29.7125C6.12854 30.0833 7.21894 30.3369 8.81552 30.4097C10.4154 30.4827 10.9262 30.5 15 30.5C19.0738 30.5 19.5846 30.4827 21.1845 30.4097C22.7811 30.3369 23.8715 30.0833 24.8256 29.7125C25.812 29.3292 26.6485 28.8163 27.4824 27.9824C28.3163 27.1485 28.8292 26.312 29.2125 25.3256C29.5833 24.3715 29.8369 23.2811 29.9097 21.6845C29.9827 20.0846 30 19.5738 30 15.5C30 11.4262 29.9827 10.9154 29.9097 9.31552C29.8369 7.71894 29.5833 6.62854 29.2125 5.67443C28.8292 4.68805 28.3163 3.85153 27.4824 3.01758C26.6485 2.18369 25.812 1.67079 24.8256 1.28751C23.8715 0.916679 22.7811 0.663087 21.1845 0.590267C19.5846 0.517268 19.0738 0.5 15 0.5ZM15 3.20264C19.0051 3.20264 19.4795 3.21794 21.0612 3.2901C22.5237 3.35679 23.318 3.60115 23.8465 3.80658C24.5467 4.07869 25.0464 4.40373 25.5712 4.92866C26.0961 5.45353 26.4212 5.95321 26.6933 6.65337C26.8987 7.18193 27.1431 7.97617 27.2098 9.43865C27.2819 11.0203 27.2972 11.4948 27.2972 15.5C27.2972 19.5051 27.2819 19.9795 27.2098 21.5612C27.1431 23.0237 26.8987 23.818 26.6933 24.3465C26.4212 25.0467 26.0961 25.5464 25.5712 26.0712C25.0464 26.5961 24.5467 26.9212 23.8465 27.1933C23.318 27.3987 22.5237 27.6431 21.0612 27.7098C19.4798 27.7819 19.0054 27.7972 15 27.7972C10.9945 27.7972 10.5202 27.7819 8.93865 27.7098C7.47617 27.6431 6.68193 27.3987 6.15337 27.1933C5.45321 26.9212 4.95353 26.5961 4.42866 26.0712C3.90379 25.5464 3.57869 25.0467 3.30658 24.3465C3.10115 23.818 2.85679 23.0237 2.7901 21.5612C2.71794 19.9795 2.70264 19.5051 2.70264 15.5C2.70264 11.4948 2.71794 11.0203 2.7901 9.43865C2.85679 7.97617 3.10115 7.18193 3.30658 6.65337C3.57869 5.95321 3.90373 5.45353 4.42866 4.92866C4.95353 4.40373 5.45321 4.07869 6.15337 3.80658C6.68193 3.60115 7.47617 3.35679 8.93865 3.2901C10.5203 3.21794 10.9948 3.20264 15 3.20264ZM7.29736 15.5001C7.29736 11.246 10.746 7.79736 15.0001 7.79736C19.2542 7.79736 22.7028 11.246 22.7028 15.5001C22.7028 19.7542 19.2542 23.2028 15.0001 23.2028C10.746 23.2028 7.29736 19.7542 7.29736 15.5001ZM15 20.5C12.2386 20.5 10 18.2614 10 15.5C10 12.7386 12.2386 10.5 15 10.5C17.7614 10.5 20 12.7386 20 15.5C20 18.2614 17.7614 20.5 15 20.5ZM23.0066 9.29288C24.0008 9.29288 24.8067 8.48703 24.8067 7.4929C24.8067 6.49878 24.0008 5.69287 23.0066 5.69287C22.0126 5.69287 21.2067 6.49878 21.2067 7.4929C21.2067 8.48703 22.0126 9.29288 23.0066 9.29288Z" fill="#332414"/>
</svg>
