<svg width="76" height="38" viewBox="0 0 76 38" fill="none" xmlns="http://www.w3.org/2000/svg">
<path d="M44.351 28.5C44.2964 28.4717 44.251 28.4284 44.2201 28.3753C44.1891 28.3222 44.1738 28.2614 44.176 28.2C44.176 28.2 44.751 26.325 45.451 24.2L47.951 16.7L49.526 12.025C49.701 11.475 49.876 10.95 49.876 10.875C49.8941 10.8096 49.8941 10.7404 49.876 10.675C49.876 10.675 49.601 10.55 49.401 10.55H49.001V9.42499H56.501L56.701 9.54999C56.701 9.54999 57.151 10.85 59.076 16.575C62.201 25.9 62.901 28.05 62.901 28.15C62.9027 28.2177 62.8847 28.2845 62.8492 28.3421C62.8137 28.3998 62.7622 28.446 62.701 28.475C62.701 28.475 61.926 28.475 60.326 28.475C59.4967 28.5916 58.6552 28.5916 57.826 28.475L57.601 28.3C57.601 28.3 57.251 27.325 56.901 26.225C53.601 15.95 53.701 16.225 53.626 16.225C53.551 16.225 53.476 16.225 53.376 16.225C53.276 16.225 53.201 16.7 51.401 22.35L50.151 26.275C49.976 26.775 49.776 27.45 49.676 27.75C49.576 28.05 49.401 28.475 49.201 28.575C49.001 28.675 44.551 28.575 44.426 28.575L44.351 28.5Z" fill="black"/>
<path d="M35.5016 28.325C35.5016 28.325 35.5016 26.3 35.5016 19.5V10.8H35.3766C35.2516 10.8 35.2266 10.675 34.8516 10.675H34.4766V9.54999H40.5016H40.6266L40.7516 9.67499V28.325H40.6266H38.0016C37.1689 28.373 36.3342 28.373 35.5016 28.325Z" fill="black"/>
<path d="M15.0508 28.5C15.0508 28.5 14.9258 28.5 14.8758 28.375C14.7177 25.4354 14.7177 22.4895 14.8758 19.55V10.8C14.8758 10.8 14.7508 10.675 14.3508 10.675H13.9258V9.54999H19.8758H20.0008V12.7C20.0008 16.175 20.0008 16.05 20.2508 16.05C20.5008 16.05 20.4508 16.05 21.3258 14.75C23.6008 11.525 24.8508 9.74999 24.9758 9.74999C25.1008 9.74999 25.1258 9.47499 28.0008 9.47499H30.5008C30.5416 9.53368 30.5636 9.60348 30.5636 9.67499C30.5636 9.7465 30.5416 9.8163 30.5008 9.87499C30.5008 9.87499 29.3508 11.6 25.5008 17.375C25.0758 18.025 24.9508 18.225 24.9508 18.325C25.3637 19.1024 25.8492 19.839 26.4008 20.525C28.2991 22.9235 30.0603 25.4275 31.6758 28.025C31.6977 28.063 31.7093 28.1061 31.7093 28.15C31.7093 28.1939 31.6977 28.237 31.6758 28.275H28.9758C26.3008 28.275 26.2508 28.275 26.0758 28.275C25.9622 28.2438 25.8588 28.1835 25.7758 28.1C25.7758 28.1 24.4758 26.5 23.0008 24.45L20.3008 20.7C20.254 20.6542 20.1912 20.6285 20.1258 20.6285C20.0603 20.6285 19.9975 20.6542 19.9508 20.7C19.9508 20.7 19.9508 21.625 19.9508 24.525V28.225H15.0508V28.5Z" fill="black"/>
<path d="M35.9251 37.775C33.3661 37.7138 30.8124 37.5135 28.2751 37.175C17.9251 35.775 9.27512 32.175 4.45012 27.425C2.56832 25.6657 1.25397 23.3852 0.675126 20.875C0.441625 19.6359 0.441625 18.3641 0.675126 17.125C1.01532 15.5276 1.68827 14.0199 2.65013 12.7C5.66856 8.95726 9.65441 6.1127 14.1751 4.47499C24.1602 0.710865 34.8969 -0.625874 45.5001 0.574993C58.5751 1.87499 69.3251 6.64999 73.6001 13.075C74.542 14.3849 75.1581 15.9006 75.3972 17.4962C75.6364 19.0918 75.4917 20.7215 74.9751 22.25C74.252 24.2266 73.0894 26.0132 71.5751 27.475C67.0001 32.025 58.9501 35.475 49.3001 37C44.8845 37.6806 40.416 37.9567 35.9501 37.825L35.9251 37.775ZM41.6251 35.275C46.3674 35.0094 51.0599 34.1699 55.6001 32.775C58.7954 31.8088 61.8412 30.4037 64.6501 28.6C65.7511 27.8752 66.7733 27.0373 67.7001 26.1C68.7314 25.1265 69.5783 23.9746 70.2001 22.7C70.833 21.493 71.1637 20.1504 71.1637 18.7875C71.1637 17.4246 70.833 16.082 70.2001 14.875C69.565 13.6306 68.7192 12.5057 67.7001 11.55C65.8902 9.77789 63.7941 8.32412 61.5001 7.24999C55.9542 4.62797 49.9692 3.05966 43.8501 2.62499C39.9496 2.27501 36.0256 2.27501 32.1251 2.62499C22.6501 3.47499 14.6251 6.29999 9.47513 10.45C8.65557 11.1445 7.89466 11.9054 7.20012 12.725C5.60218 14.572 4.77045 16.9599 4.87512 19.4C5.14986 21.9798 6.36994 24.3665 8.30013 26.1C10.063 27.8294 12.0985 29.2568 14.3251 30.325C20.8377 33.4382 27.934 35.142 35.1501 35.325C36.0751 35.325 40.7251 35.325 41.6251 35.325V35.275Z" fill="black"/>
</svg>
