<svg width="30" height="27" viewBox="0 0 30 27" fill="none" xmlns="http://www.w3.org/2000/svg">
<path fillRule="evenodd" clipRule="evenodd" d="M3.53128 6.45202H3.48895C1.3723 6.45202 0 5.06721 0 3.31186C0 1.52235 1.41286 0.166565 3.57185 0.166565C5.72907 0.166565 7.0555 1.51894 7.09784 3.30673C7.09784 5.06209 5.72907 6.45202 3.53128 6.45202ZM29.9999 26.8335H23.3695V17.4591C23.3695 15.0053 22.3323 13.3302 20.0517 13.3302C18.3072 13.3302 17.337 14.4606 16.8855 15.55C16.7364 15.8943 16.7391 16.3578 16.7419 16.8354V16.8356C16.7422 16.9004 16.7426 16.9654 16.7426 17.0305V26.8335H10.174C10.174 26.8335 10.2586 10.2276 10.174 8.71817H16.7426V11.5612C17.1307 10.3181 19.2297 8.54401 22.5793 8.54401C26.735 8.54401 29.9999 11.1497 29.9999 16.7607V26.8335ZM6.60408 8.71826H0.756836V26.8336H6.60408V8.71826Z" fill="#332414"/>
</svg>
