<svg width="54" height="54" viewBox="0 0 54 54" fill="none" xmlns="http://www.w3.org/2000/svg">
<circle cx="27" cy="27" r="27" fill="#007AB9"/>
<path d="M16.3919 19.7838C18.2652 19.7838 19.7838 18.2652 19.7838 16.3919C19.7838 14.5186 18.2652 13 16.3919 13C14.5186 13 13 14.5186 13 16.3919C13 18.2652 14.5186 19.7838 16.3919 19.7838Z" fill="white"/>
<path d="M22.9864 22.3541V41.1724H28.8292V31.8664C28.8292 29.4108 29.2912 27.0327 32.3359 27.0327C35.3387 27.0327 35.3759 29.8402 35.3759 32.0214V41.174H41.2218V30.8541C41.2218 25.7848 40.1305 21.889 34.2055 21.889C31.3608 21.889 29.454 23.4501 28.6742 24.9275H28.5951V22.3541H22.9864ZM13.4648 22.3541H19.317V41.1724H13.4648V22.3541Z" fill="white"/>
</svg>
