<svg width="32" height="33" viewBox="0 0 32 33" fill="none" xmlns="http://www.w3.org/2000/svg">
<path d="M27.4935 11.7667C26.0935 5.60667 20.7201 2.83333 16.0001 2.83333C16.0001 2.83333 16.0001 2.83333 15.9868 2.83333C11.2801 2.83333 5.89346 5.59333 4.49346 11.7533C2.93346 18.6333 7.14679 24.46 10.9601 28.1267C12.3735 29.4867 14.1868 30.1667 16.0001 30.1667C17.8135 30.1667 19.6268 29.4867 21.0268 28.1267C24.8401 24.46 29.0535 18.6467 27.4935 11.7667ZM16.0001 18.4467C13.6801 18.4467 11.8001 16.5667 11.8001 14.2467C11.8001 11.9267 13.6801 10.0467 16.0001 10.0467C18.3201 10.0467 20.2001 11.9267 20.2001 14.2467C20.2001 16.5667 18.3201 18.4467 16.0001 18.4467Z" fill="#332414"/>
</svg>
