<svg width="32" height="33" viewBox="0 0 32 33" fill="none" xmlns="http://www.w3.org/2000/svg">
<path d="M23.4946 14.8333C22.9213 14.8333 22.468 14.3667 22.468 13.8067C22.468 13.3133 21.9746 12.2867 21.148 11.3933C20.3346 10.5267 19.4413 10.02 18.6946 10.02C18.1213 10.02 17.668 9.55333 17.668 8.99333C17.668 8.43333 18.1346 7.96667 18.6946 7.96667C20.028 7.96667 21.428 8.68667 22.6546 9.98C23.8013 11.1933 24.5346 12.7 24.5346 13.7933C24.5346 14.3667 24.068 14.8333 23.4946 14.8333Z" fill="#332414"/>
<path d="M28.3064 14.8333C27.733 14.8333 27.2797 14.3667 27.2797 13.8067C27.2797 9.07333 23.4264 5.23333 18.7064 5.23333C18.133 5.23333 17.6797 4.76667 17.6797 4.20667C17.6797 3.64667 18.133 3.16667 18.693 3.16667C24.5597 3.16667 29.333 7.94 29.333 13.8067C29.333 14.3667 28.8664 14.8333 28.3064 14.8333Z" fill="#332414"/>
<path d="M14.7346 20.4333L12.268 22.9C11.748 23.42 10.9213 23.42 10.388 22.9133C10.2413 22.7667 10.0946 22.6333 9.94797 22.4867C8.57464 21.1 7.33464 19.6467 6.22797 18.1267C5.13464 16.6067 4.25464 15.0867 3.61464 13.58C2.98797 12.06 2.66797 10.6067 2.66797 9.22C2.66797 8.31333 2.82797 7.44667 3.14797 6.64667C3.46797 5.83333 3.97464 5.08667 4.6813 4.42C5.53464 3.58 6.46797 3.16667 7.45464 3.16667C7.82797 3.16667 8.2013 3.24667 8.53464 3.40667C8.8813 3.56667 9.18797 3.80667 9.42797 4.15333L12.5213 8.51333C12.7613 8.84667 12.9346 9.15333 13.0546 9.44667C13.1746 9.72667 13.2413 10.0067 13.2413 10.26C13.2413 10.58 13.148 10.9 12.9613 11.2067C12.788 11.5133 12.5346 11.8333 12.2146 12.1533L11.2013 13.2067C11.0546 13.3533 10.988 13.5267 10.988 13.74C10.988 13.8467 11.0013 13.94 11.028 14.0467C11.068 14.1533 11.108 14.2333 11.1346 14.3133C11.3746 14.7533 11.788 15.3267 12.3746 16.02C12.9746 16.7133 13.6146 17.42 14.308 18.1267C14.4413 18.26 14.588 18.3933 14.7213 18.5267C15.2546 19.0467 15.268 19.9 14.7346 20.4333Z" fill="#332414"/>
<path d="M29.2941 24.94C29.2941 25.3133 29.2274 25.7 29.0941 26.0733C29.0541 26.18 29.0141 26.2867 28.9608 26.3933C28.7341 26.8733 28.4408 27.3267 28.0541 27.7533C27.4008 28.4733 26.6808 28.9933 25.8674 29.3267C25.8541 29.3267 25.8408 29.34 25.8274 29.34C25.0408 29.66 24.1874 29.8333 23.2674 29.8333C21.9074 29.8333 20.4541 29.5133 18.9208 28.86C17.3874 28.2067 15.8541 27.3267 14.3341 26.22C13.8141 25.8333 13.2941 25.4467 12.8008 25.0333L17.1608 20.6733C17.5341 20.9533 17.8674 21.1667 18.1474 21.3133C18.2141 21.34 18.2941 21.38 18.3874 21.42C18.4941 21.46 18.6008 21.4733 18.7208 21.4733C18.9474 21.4733 19.1208 21.3933 19.2674 21.2467L20.2808 20.2467C20.6141 19.9133 20.9341 19.66 21.2408 19.5C21.5474 19.3133 21.8541 19.22 22.1874 19.22C22.4408 19.22 22.7074 19.2733 23.0008 19.3933C23.2941 19.5133 23.6008 19.6867 23.9341 19.9133L28.3474 23.0467C28.6941 23.2867 28.9341 23.5667 29.0808 23.9C29.2141 24.2333 29.2941 24.5667 29.2941 24.94Z" fill="#332414"/>
</svg>
