<svg width="589" height="555" viewBox="0 0 589 555" fill="none" xmlns="http://www.w3.org/2000/svg">
<path d="M589 433.467H0V433.762H589V433.467Z" fill="#EBEBEB"/>
<path d="M529.984 452.421H490.969V452.716H529.984V452.421Z" fill="#EBEBEB"/>
<path d="M390.174 455.625H379.938V455.92H390.174V455.625Z" fill="#EBEBEB"/>
<path d="M489.786 441.49H467.18V441.784H489.786V441.49Z" fill="#EBEBEB"/>
<path d="M112.675 443.469H61.7969V443.763H112.675V443.469Z" fill="#EBEBEB"/>
<path d="M130.629 443.469H123.172V443.763H130.629V443.469Z" fill="#EBEBEB"/>
<path d="M265.23 448.44H154.875V448.734H265.23V448.44Z" fill="#EBEBEB"/>
<path d="M279.182 380.928H51.7224C49.9405 380.925 48.2327 380.215 46.9738 378.954C45.7149 377.693 45.0078 375.984 45.0078 374.202V54.4575C45.0233 52.6858 45.7372 50.9918 46.9944 49.7434C48.2517 48.495 49.9507 47.7931 51.7224 47.79H279.182C280.966 47.79 282.677 48.4987 283.939 49.7602C285.2 51.0216 285.909 52.7325 285.909 54.5164V374.202C285.909 375.986 285.2 377.697 283.939 378.958C282.677 380.22 280.966 380.928 279.182 380.928ZM51.7224 48.0256C50.0186 48.0288 48.3857 48.7078 47.182 49.9137C45.9783 51.1195 45.3023 52.7537 45.3023 54.4575V374.202C45.3023 375.906 45.9783 377.54 47.182 378.746C48.3857 379.952 50.0186 380.631 51.7224 380.634H279.182C280.887 380.631 282.521 379.952 283.727 378.747C284.933 377.541 285.611 375.907 285.614 374.202V54.4575C285.611 52.7526 284.933 51.1185 283.727 49.9129C282.521 48.7074 280.887 48.0288 279.182 48.0256H51.7224Z" fill="#EBEBEB"/>
<path d="M534.003 380.928H306.531C304.748 380.925 303.039 380.216 301.778 378.955C300.517 377.694 299.808 375.985 299.805 374.202V54.4575C299.823 52.6848 300.54 50.9908 301.799 49.7427C303.058 48.4946 304.758 47.793 306.531 47.79H534.003C535.773 47.7962 537.469 48.4995 538.723 49.7476C539.978 50.9956 540.69 52.6879 540.706 54.4575V374.202C540.706 375.982 540 377.689 538.744 378.95C537.488 380.211 535.783 380.922 534.003 380.928ZM306.531 48.0256C304.826 48.0288 303.192 48.7074 301.986 49.9129C300.781 51.1185 300.102 52.7526 300.099 54.4575V374.202C300.102 375.907 300.781 377.541 301.986 378.747C303.192 379.952 304.826 380.631 306.531 380.634H534.003C535.708 380.631 537.342 379.952 538.547 378.747C539.753 377.541 540.432 375.907 540.435 374.202V54.4575C540.432 52.7526 539.753 51.1185 538.547 49.9129C537.342 48.7074 535.708 48.0288 534.003 48.0256H306.531Z" fill="#EBEBEB"/>
<path d="M172.589 429.132H194.5V314.56H172.589V429.132Z" fill="#F0F0F0"/>
<path d="M94.7689 433.444H190.305V429.132H94.7689V433.444Z" fill="#F0F0F0"/>
<path d="M172.591 314.572H90.5547V429.144H172.591V314.572Z" fill="#F5F5F5"/>
<path d="M168.95 352.197V386.76H94.2413V352.197H168.997M169.527 351.667H93.6641V387.29H169.48V351.714L169.527 351.667Z" fill="#E0E0E0"/>
<path d="M134.799 369.514C134.799 370.152 134.61 370.776 134.255 371.307C133.901 371.838 133.396 372.251 132.807 372.496C132.217 372.74 131.568 372.804 130.942 372.679C130.316 372.555 129.741 372.247 129.289 371.796C128.838 371.345 128.53 370.769 128.406 370.143C128.281 369.517 128.345 368.868 128.589 368.278C128.834 367.689 129.247 367.185 129.778 366.83C130.309 366.475 130.933 366.286 131.571 366.286C132.428 366.286 133.248 366.626 133.854 367.231C134.459 367.837 134.799 368.658 134.799 369.514Z" fill="#E0E0E0"/>
<path d="M169.48 318.341H93.6641V344.622H169.48V318.341Z" fill="#F0F0F0"/>
<path d="M169.48 394.334H93.6641V420.615H169.48V394.334Z" fill="#F0F0F0"/>
<path d="M109.661 318.341H93.6641V344.622H109.661V318.341Z" fill="#E0E0E0"/>
<path d="M109.661 394.334H93.6641V420.615H109.661V394.334Z" fill="#E0E0E0"/>
<path d="M270.801 430.993C274.324 430.984 277.7 429.577 280.187 427.081C282.674 424.586 284.069 421.205 284.065 417.682V304.017C284.059 300.501 282.66 297.131 280.174 294.644C277.687 292.158 274.317 290.759 270.801 290.753H198.602V430.993H270.801Z" fill="#E6E6E6"/>
<path d="M198.6 290.753C195.085 290.762 191.717 292.162 189.231 294.648C186.746 297.133 185.345 300.502 185.336 304.017V414.749C185.336 419.057 187.047 423.189 190.094 426.236C193.14 429.282 197.272 430.993 201.581 430.993H211.865V304.017C211.855 300.502 210.455 297.133 207.969 294.648C205.484 292.162 202.115 290.762 198.6 290.753Z" fill="#E0E0E0"/>
<path d="M488.717 340.77L493.429 282.789C493.668 280.357 493.391 277.901 492.616 275.582C491.842 273.264 490.587 271.135 488.934 269.334C487.281 267.533 485.267 266.101 483.023 265.131C480.78 264.162 478.357 263.676 475.912 263.706H307.246C302.068 263.806 297.107 265.805 293.306 269.323C289.506 272.842 287.13 277.634 286.631 282.789L281.919 340.77C281.764 342.413 281.956 344.07 282.482 345.633C283.008 347.197 283.856 348.633 284.972 349.848C286.088 351.063 287.447 352.029 288.961 352.686C290.474 353.342 292.109 353.673 293.758 353.658H474.793C478.291 353.593 481.643 352.244 484.211 349.867C486.779 347.491 488.382 344.253 488.717 340.77Z" fill="#E0E0E0"/>
<path d="M465.147 340.77L469.859 282.789C470.097 280.358 469.821 277.903 469.047 275.585C468.273 273.268 467.02 271.139 465.368 269.338C463.716 267.538 461.704 266.106 459.461 265.135C457.219 264.164 454.797 263.677 452.354 263.706H283.676C278.498 263.806 273.537 265.805 269.736 269.323C265.935 272.842 263.56 277.634 263.061 282.789L258.349 340.77C258.194 342.408 258.384 344.06 258.907 345.619C259.429 347.179 260.272 348.612 261.382 349.826C262.492 351.04 263.843 352.008 265.35 352.668C266.856 353.328 268.484 353.665 270.129 353.658H451.235C454.731 353.59 458.08 352.24 460.645 349.863C463.21 347.487 464.812 344.251 465.147 340.77Z" fill="#F0F0F0"/>
<path d="M234.838 299.128C234.838 299.128 231.374 296.525 232.623 295.135C233.872 293.745 239.561 296.383 239.561 296.383C239.561 296.383 271.603 292.355 290.451 293.073C290.581 290.541 293.09 289.539 295.163 290.01C297.236 290.482 295.163 294.605 295.163 294.605C295.163 294.605 308.38 328.295 307.956 345.259C310.077 347.073 312.173 348.357 310.018 349.229C309.328 349.453 308.594 349.502 307.88 349.373C307.167 349.243 306.497 348.939 305.93 348.486C305.93 348.486 263.392 354.706 246.088 351.561C244.91 353.917 242.424 353.422 240.999 352.739C239.573 352.056 241.953 348.687 241.953 348.687C241.953 348.687 231.304 319.26 234.838 299.128Z" fill="white"/>
<path d="M497.213 430.993C500.735 430.981 504.109 429.573 506.595 427.078C509.081 424.583 510.477 421.204 510.477 417.682V304.017C510.468 300.502 509.067 297.133 506.582 294.648C504.096 292.162 500.728 290.762 497.213 290.753H434.461V430.993H497.213Z" fill="#E6E6E6"/>
<path d="M437.547 366.604V355.154C437.547 350.99 434.171 347.615 430.008 347.615H228.958C224.795 347.615 221.419 350.99 221.419 355.154V366.604C221.419 370.768 224.795 374.143 228.958 374.143H430.008C434.171 374.143 437.547 370.768 437.547 366.604Z" fill="#EBEBEB"/>
<path d="M437.547 426.965V378.172C437.547 375.947 435.743 374.143 433.518 374.143H234.801C232.576 374.143 230.773 375.947 230.773 378.172V426.965C230.773 429.19 232.576 430.993 234.801 430.993H433.518C435.743 430.993 437.547 429.19 437.547 426.965Z" fill="#F0F0F0"/>
<path d="M434.46 290.753C430.945 290.762 427.576 292.162 425.091 294.648C422.605 297.133 421.205 300.502 421.195 304.017V430.993H447.724V304.017C447.715 300.502 446.314 297.133 443.829 294.648C441.343 292.162 437.975 290.762 434.46 290.753Z" fill="#E0E0E0"/>
<path d="M492.24 433.444H208.13C207.808 433.444 207.49 433.38 207.192 433.257C206.895 433.134 206.625 432.954 206.397 432.726C206.17 432.498 205.989 432.228 205.866 431.931C205.743 431.634 205.68 431.315 205.68 430.993H494.761C494.759 431.321 494.693 431.645 494.565 431.946C494.437 432.247 494.25 432.52 494.015 432.748C493.78 432.976 493.502 433.155 493.198 433.275C492.893 433.394 492.567 433.452 492.24 433.444Z" fill="#E0E0E0"/>
<path d="M164.061 236.506L440.102 236.506V82.8237L164.061 82.8237V236.506Z" fill="#E0E0E0"/>
<path d="M148.899 236.506L438.711 236.506V82.8237L148.899 82.8237V236.506Z" fill="#F5F5F5"/>
<path d="M433.977 231.77V87.5593L153.636 87.5593V231.77L433.977 231.77Z" fill="white"/>
<path d="M200.742 111.791H291.118C316.512 111.791 340.866 121.878 358.822 139.835C376.778 157.791 386.866 182.145 386.866 207.539H296.49C271.096 207.539 246.742 197.451 228.786 179.495C210.83 161.539 200.742 137.185 200.742 111.791Z" fill="#F5F5F5"/>
<path d="M387.458 216.468H296.493C270.953 216.443 246.465 206.287 228.404 188.228C210.343 170.169 200.184 145.683 200.156 120.143V119.554H291.121C316.661 119.582 341.146 129.739 359.207 147.797C377.267 165.855 387.427 190.339 387.458 215.879V216.468ZM201.334 120.732C201.518 145.858 211.621 169.893 229.444 187.604C247.268 205.315 271.367 215.266 296.493 215.29H386.28C386.097 190.164 375.993 166.129 358.17 148.418C340.347 130.707 316.248 120.756 291.121 120.732H201.334Z" fill="white"/>
<path d="M387.458 199.752H296.493C270.953 199.727 246.465 189.571 228.404 171.512C210.343 153.454 200.184 128.967 200.156 103.427V102.838H291.121C316.661 102.866 341.146 113.023 359.207 131.081C377.267 149.139 387.427 173.624 387.458 199.163V199.752ZM201.334 104.016C201.518 129.142 211.621 153.177 229.444 170.888C247.268 188.599 271.367 198.55 296.493 198.574H386.28C386.097 173.448 375.993 149.413 358.17 131.702C340.347 113.991 316.248 104.04 291.121 104.016H201.334Z" fill="white"/>
<path d="M294.496 486.666C420.639 486.666 522.899 480.695 522.899 473.331C522.899 465.966 420.639 459.996 294.496 459.996C168.353 459.996 66.0938 465.966 66.0938 473.331C66.0938 480.695 168.353 486.666 294.496 486.666Z" fill="#F5F5F5"/>
<path d="M509.376 139.544H137.776C133.762 139.544 130.508 142.799 130.508 146.813V388.138C130.508 392.152 133.762 395.406 137.776 395.406H509.376C513.39 395.406 516.644 392.152 516.644 388.138V146.813C516.644 142.799 513.39 139.544 509.376 139.544Z" fill="#263238"/>
<path d="M375.611 465.226H288.851L273.867 313.358H360.627L375.611 465.226Z" fill="#263238"/>
<path d="M373.295 465.226H286.535L271.539 313.358H358.299L373.295 465.226Z" fill="#FF8500"/>
<path d="M392.577 470.339H281.539L282.717 465.226H388.537C389.163 465.227 389.781 465.369 390.345 465.643C390.908 465.916 391.402 466.314 391.79 466.806C392.178 467.298 392.449 467.872 392.583 468.483C392.718 469.095 392.711 469.729 392.566 470.339H392.577Z" fill="#263238"/>
<path d="M373.749 470.339H262.688C263.035 468.882 263.863 467.585 265.039 466.657C266.215 465.729 267.669 465.225 269.167 465.226H374.974L373.749 470.339Z" fill="#FF8500"/>
<path d="M382.998 465.226H371.889C371.262 465.225 370.642 465.366 370.077 465.639C369.512 465.912 369.017 466.309 368.628 466.802C368.239 467.294 367.966 467.868 367.831 468.481C367.697 469.093 367.702 469.729 367.848 470.339H384.211" fill="#263238"/>
<path opacity="0.2" d="M358.299 313.347H271.539L280.362 402.674H367.122L358.299 313.347Z" fill="black"/>
<path d="M507.243 139.544H135.643C131.629 139.544 128.375 142.799 128.375 146.813V388.138C128.375 392.152 131.629 395.406 135.643 395.406H507.243C511.258 395.406 514.512 392.152 514.512 388.138V146.813C514.512 142.799 511.258 139.544 507.243 139.544Z" fill="#FF8500"/>
<path opacity="0.2" d="M321.45 384.733C325.223 384.733 328.282 381.674 328.282 377.901C328.282 374.128 325.223 371.069 321.45 371.069C317.676 371.069 314.617 374.128 314.617 377.901C314.617 381.674 317.676 384.733 321.45 384.733Z" fill="black"/>
<path opacity="0.9" d="M508.071 154.576H134.563C132.858 154.576 131.477 155.958 131.477 157.662V355.625C131.477 357.329 132.858 358.711 134.563 358.711H508.071C509.776 358.711 511.158 357.329 511.158 355.625V157.662C511.158 155.958 509.776 154.576 508.071 154.576Z" fill="white"/>
<path d="M331.262 316.374C322.307 315.483 313.619 312.824 305.699 308.552C298.093 304.444 291.378 298.866 285.944 292.143C280.746 285.687 276.882 278.263 274.576 270.302C273.026 264.942 272.233 259.391 272.22 253.81H284.554L260.582 212.286L236.609 253.81H249.485C250.884 262.024 253.546 269.971 257.378 277.37C262.145 286.566 268.687 294.725 276.626 301.378C284.306 307.8 293.182 312.637 302.742 315.608C311.954 318.459 321.638 319.46 331.238 318.553C331.491 318.517 331.725 318.4 331.906 318.22C332.087 318.039 332.204 317.805 332.239 317.552C332.259 317.267 332.169 316.986 331.987 316.767C331.805 316.547 331.545 316.407 331.262 316.374Z" fill="#FF8500"/>
<path d="M393.374 259.418C391.971 251.204 389.305 243.256 385.47 235.858C380.699 226.664 374.158 218.505 366.221 211.85C358.544 205.437 349.671 200.608 340.117 197.643C330.906 194.789 321.222 193.784 311.621 194.687C311.368 194.722 311.134 194.839 310.953 195.02C310.773 195.201 310.656 195.435 310.62 195.688C310.6 195.976 310.694 196.261 310.881 196.481C311.068 196.701 311.334 196.839 311.621 196.866C320.574 197.763 329.262 200.421 337.184 204.688C344.785 208.808 351.495 214.394 356.927 221.121C362.125 227.576 365.989 235 368.295 242.961C369.845 248.322 370.638 253.873 370.651 259.453H358.293L382.266 300.978L406.25 259.453L393.374 259.418Z" fill="#FF8500"/>
<g opacity="0.3">
<path d="M210.033 232.112L262.23 154.54H196.662L145.467 230.592L143.299 233.832L131.602 251.219V348.663L143.299 331.276L210.033 232.112Z" fill="white"/>
<path d="M324.167 154.54L257.728 253.269L190.559 353.081L186.789 358.676H218.913L257.728 301.025L356.291 154.54H324.167Z" fill="white"/>
</g>
<path d="M189.86 215.584H89.129C82.0636 215.584 76.3359 221.312 76.3359 228.377V458.653C76.3359 465.718 82.0636 471.446 89.129 471.446H189.86C196.925 471.446 202.653 465.718 202.653 458.653V228.377C202.653 221.312 196.925 215.584 189.86 215.584Z" fill="#263238"/>
<path d="M201.846 260.549H200.137C198.81 260.549 197.734 261.624 197.734 262.952V293.968C197.734 295.296 198.81 296.372 200.137 296.372H201.846C203.173 296.372 204.249 295.296 204.249 293.968V262.952C204.249 261.624 203.173 260.549 201.846 260.549Z" fill="#263238"/>
<path d="M76.5924 260.549H74.6251C73.3695 260.549 72.3516 261.566 72.3516 262.822V275.768C72.3516 277.024 73.3695 278.042 74.6251 278.042H76.5924C77.848 278.042 78.8659 277.024 78.8659 275.768V262.822C78.8659 261.566 77.848 260.549 76.5924 260.549Z" fill="#263238"/>
<path d="M76.5924 283.673H74.6251C73.3695 283.673 72.3516 284.691 72.3516 285.946V298.892C72.3516 300.148 73.3695 301.166 74.6251 301.166H76.5924C77.848 301.166 78.8659 300.148 78.8659 298.892V285.946C78.8659 284.691 77.848 283.673 76.5924 283.673Z" fill="#263238"/>
<path d="M187.727 215.584H86.9962C79.9308 215.584 74.2031 221.312 74.2031 228.377V458.653C74.2031 465.718 79.9308 471.446 86.9962 471.446H187.727C194.792 471.446 200.52 465.718 200.52 458.653V228.377C200.52 221.312 194.792 215.584 187.727 215.584Z" fill="#FF8500"/>
<path opacity="0.9" d="M195.689 230.592H79.0317C77.3271 230.592 75.9453 231.974 75.9453 233.678V453.788C75.9453 455.492 77.3271 456.874 79.0317 456.874H195.689C197.394 456.874 198.775 455.492 198.775 453.788V233.678C198.775 231.974 197.394 230.592 195.689 230.592Z" fill="white"/>
<path d="M142.327 370.432C137.788 369.985 133.383 368.639 129.369 366.474C125.528 364.415 122.137 361.612 119.391 358.228C116.767 354.969 114.817 351.221 113.654 347.202C112.881 344.497 112.485 341.699 112.476 338.886H118.708L106.657 317.894L94.5469 338.85H101.049C101.756 343.001 103.099 347.019 105.031 350.76C107.444 355.402 110.75 359.522 114.761 362.882C118.637 366.115 123.113 368.553 127.931 370.056C132.585 371.497 137.477 372.001 142.327 371.54C142.455 371.526 142.575 371.468 142.665 371.376C142.756 371.283 142.811 371.162 142.821 371.033C142.829 370.961 142.823 370.888 142.802 370.818C142.782 370.749 142.747 370.684 142.701 370.628C142.655 370.572 142.598 370.526 142.534 370.492C142.469 370.459 142.399 370.438 142.327 370.432Z" fill="#FF8500"/>
<path d="M173.673 341.689C172.972 337.54 171.628 333.526 169.691 329.791C167.282 325.15 163.979 321.03 159.972 317.67C156.099 314.423 151.618 311.981 146.791 310.484C142.142 309.04 137.253 308.531 132.407 308.988C132.278 309.003 132.158 309.061 132.066 309.153C131.974 309.245 131.916 309.365 131.901 309.494C131.888 309.643 131.933 309.79 132.028 309.905C132.123 310.019 132.259 310.092 132.407 310.107C136.923 310.547 141.307 311.876 145.306 314.018C149.144 316.081 152.535 318.883 155.284 322.264C157.91 325.526 159.86 329.278 161.021 333.302C161.795 336.002 162.192 338.797 162.199 341.607H155.967L168.077 362.575L180.234 341.689H173.673Z" fill="#FF8500"/>
<g opacity="0.3">
<path d="M198.34 232.112C198.069 231.649 197.682 231.264 197.217 230.998C196.752 230.731 196.225 230.591 195.689 230.592H133.785L131.606 233.832L75.9453 316.539V413.995L131.606 331.276L198.34 232.112Z" fill="white"/>
<path d="M131.606 353.081L75.9453 435.788V453.788C75.9453 454.606 76.2705 455.391 76.8493 455.97C77.4281 456.549 78.2131 456.874 79.0317 456.874H93.8862L159.972 358.676L198.775 301.06V253.269L131.606 353.081Z" fill="white"/>
</g>
<path opacity="0.2" d="M125.219 221.498H149.509C149.927 221.501 150.327 221.668 150.622 221.964C150.917 222.259 151.085 222.659 151.088 223.076C151.085 223.494 150.917 223.894 150.622 224.189C150.327 224.485 149.927 224.652 149.509 224.655H125.219C124.808 224.643 124.419 224.471 124.133 224.176C123.847 223.882 123.687 223.487 123.688 223.076C123.69 222.667 123.851 222.274 124.136 221.98C124.422 221.686 124.809 221.513 125.219 221.498Z" fill="black"/>
<g opacity="0.1">
<path d="M423.916 65.8134C420.567 65.8258 417.309 66.9063 414.616 68.8978C411.924 70.8893 409.936 73.6879 408.944 76.8865C408.461 76.8159 407.966 76.7688 407.459 76.7334L397.234 112.073C399.989 113.623 403.097 114.434 406.258 114.429H414.775L428.628 66.6144C427.11 66.1001 425.519 65.8297 423.916 65.8134Z" fill="white"/>
<path d="M442.732 73.5646C441.073 73.5663 439.428 73.8532 437.867 74.4127C436.402 71.5357 434.092 69.1761 431.246 67.651L417.711 114.37H432.33L444.11 73.6352C443.652 73.5875 443.192 73.5639 442.732 73.5646Z" fill="white"/>
</g>
<path d="M381.673 99.1743C381.442 99.1733 381.215 99.1041 381.023 98.9754C380.83 98.8466 380.68 98.664 380.591 98.4503C380.502 98.2366 380.477 98.0014 380.521 97.774C380.565 97.5466 380.675 97.3371 380.837 97.1717C380.946 97.0613 381.077 96.9736 381.22 96.9138C381.364 96.854 381.518 96.8232 381.673 96.8232C381.829 96.8232 381.983 96.854 382.126 96.9138C382.27 96.9736 382.4 97.0613 382.51 97.1717C382.672 97.3371 382.781 97.5466 382.825 97.774C382.869 98.0014 382.845 98.2366 382.755 98.4503C382.666 98.664 382.516 98.8466 382.323 98.9754C382.131 99.1041 381.905 99.1733 381.673 99.1743Z" fill="#FF8500"/>
<path d="M98.6926 204.24C98.6926 203.928 98.8167 203.628 99.0376 203.407C99.2585 203.186 99.5582 203.062 99.8706 203.062C100.183 203.062 100.483 203.186 100.704 203.407C100.924 203.628 101.049 203.928 101.049 204.24C101.049 204.553 100.924 204.852 100.704 205.073C100.483 205.294 100.183 205.418 99.8706 205.418C99.5582 205.418 99.2585 205.294 99.0376 205.073C98.8167 204.852 98.6926 204.553 98.6926 204.24ZM98.6926 199.528C98.6926 199.216 98.8167 198.916 99.0376 198.695C99.2585 198.474 99.5582 198.35 99.8706 198.35C100.183 198.35 100.483 198.474 100.704 198.695C100.924 198.916 101.049 199.216 101.049 199.528C101.049 199.841 100.924 200.14 100.704 200.361C100.483 200.582 100.183 200.706 99.8706 200.706C99.7139 200.706 99.5588 200.675 99.4143 200.614C99.2698 200.554 99.1389 200.465 99.0292 200.353C98.9195 200.241 98.8332 200.108 98.7754 199.963C98.7176 199.817 98.6895 199.661 98.6926 199.505V199.528ZM98.6926 194.816C98.6926 194.504 98.8167 194.204 99.0376 193.983C99.2585 193.762 99.5582 193.638 99.8706 193.638C100.183 193.638 100.483 193.762 100.704 193.983C100.924 194.204 101.049 194.504 101.049 194.816C101.049 195.129 100.924 195.428 100.704 195.649C100.483 195.87 100.183 195.994 99.8706 195.994C99.7119 195.994 99.5547 195.962 99.4086 195.9C99.2626 195.838 99.1305 195.747 99.0205 195.633C98.9105 195.518 98.8247 195.383 98.7684 195.234C98.712 195.086 98.6863 194.928 98.6926 194.769V194.816ZM98.6926 190.104C98.6926 189.792 98.8167 189.492 99.0376 189.271C99.2585 189.05 99.5582 188.926 99.8706 188.926C100.183 188.926 100.483 189.05 100.704 189.271C100.924 189.492 101.049 189.792 101.049 190.104C101.049 190.417 100.924 190.716 100.704 190.937C100.483 191.158 100.183 191.282 99.8706 191.282C99.7087 191.283 99.5485 191.25 99.3999 191.185C99.2513 191.121 99.1176 191.027 99.0071 190.909C98.8965 190.79 98.8116 190.65 98.7574 190.498C98.7033 190.345 98.6813 190.183 98.6926 190.022V190.104ZM98.6926 185.392C98.6926 185.08 98.8167 184.78 99.0376 184.559C99.2585 184.338 99.5582 184.214 99.8706 184.214C100.183 184.214 100.483 184.338 100.704 184.559C100.924 184.78 101.049 185.08 101.049 185.392C101.049 185.705 100.924 186.004 100.704 186.225C100.483 186.446 100.183 186.57 99.8706 186.57C99.7066 186.571 99.5442 186.537 99.3939 186.472C99.2436 186.406 99.1087 186.309 98.9978 186.189C98.8869 186.068 98.8025 185.925 98.7499 185.77C98.6974 185.614 98.6778 185.45 98.6926 185.286V185.392ZM98.6926 180.68C98.6926 180.368 98.8167 180.068 99.0376 179.847C99.2585 179.626 99.5582 179.502 99.8706 179.502C100.183 179.502 100.483 179.626 100.704 179.847C100.924 180.068 101.049 180.368 101.049 180.68C101.049 180.993 100.924 181.292 100.704 181.513C100.483 181.734 100.183 181.858 99.8706 181.858C99.7044 181.859 99.5398 181.825 99.3877 181.758C99.2357 181.691 99.0995 181.592 98.9882 181.469C98.877 181.345 98.7931 181.2 98.7422 181.041C98.6912 180.883 98.6743 180.716 98.6926 180.551V180.68ZM98.6926 175.968C98.6926 175.656 98.8167 175.356 99.0376 175.135C99.2585 174.914 99.5582 174.79 99.8706 174.79C100.183 174.79 100.483 174.914 100.704 175.135C100.924 175.356 101.049 175.656 101.049 175.968C101.049 176.281 100.924 176.58 100.704 176.801C100.483 177.022 100.183 177.146 99.8706 177.146C99.7021 177.148 99.5353 177.113 99.3814 177.044C99.2275 176.976 99.0901 176.875 98.9784 176.749C98.8668 176.623 98.7835 176.474 98.7342 176.313C98.6849 176.152 98.6707 175.982 98.6926 175.815V175.968ZM98.6926 171.256C98.6926 170.944 98.8167 170.644 99.0376 170.423C99.2585 170.202 99.5582 170.078 99.8706 170.078C100.183 170.078 100.483 170.202 100.704 170.423C100.924 170.644 101.049 170.944 101.049 171.256C101.049 171.569 100.924 171.868 100.704 172.089C100.483 172.31 100.183 172.434 99.8706 172.434C99.6998 172.436 99.5307 172.401 99.3749 172.331C99.2191 172.261 99.0804 172.158 98.9683 172.029C98.8563 171.9 98.7736 171.749 98.726 171.585C98.6784 171.421 98.667 171.248 98.6926 171.079V171.256ZM98.6926 166.544C98.6926 166.232 98.8167 165.932 99.0376 165.711C99.2585 165.49 99.5582 165.366 99.8706 165.366C100.183 165.366 100.483 165.49 100.704 165.711C100.924 165.932 101.049 166.232 101.049 166.544C101.049 166.857 100.924 167.156 100.704 167.377C100.483 167.598 100.183 167.722 99.8706 167.722C99.6975 167.725 99.526 167.689 99.3683 167.618C99.2105 167.546 99.0704 167.441 98.9579 167.31C98.8455 167.178 98.7634 167.023 98.7175 166.856C98.6717 166.689 98.6632 166.514 98.6926 166.344V166.544ZM98.6926 161.832C98.6926 161.52 98.8167 161.22 99.0376 160.999C99.2585 160.778 99.5582 160.654 99.8706 160.654C100.183 160.654 100.483 160.778 100.704 160.999C100.924 161.22 101.049 161.52 101.049 161.832C101.049 162.145 100.924 162.444 100.704 162.665C100.483 162.886 100.183 163.01 99.8706 163.01C99.6951 163.013 99.5212 162.977 99.3614 162.905C99.2017 162.832 99.0602 162.725 98.9473 162.59C98.8343 162.456 98.7529 162.298 98.7088 162.128C98.6648 161.958 98.6592 161.781 98.6926 161.608V161.832ZM98.6926 157.12C98.6926 156.808 98.8167 156.508 99.0376 156.287C99.2585 156.066 99.5582 155.942 99.8706 155.942C100.183 155.942 100.483 156.066 100.704 156.287C100.924 156.508 101.049 156.808 101.049 157.12C101.049 157.433 100.924 157.732 100.704 157.953C100.483 158.174 100.183 158.298 99.8706 158.298C99.6927 158.302 99.5162 158.266 99.3544 158.192C99.1926 158.118 99.0496 158.008 98.9362 157.871C98.8229 157.734 98.7421 157.573 98.6999 157.4C98.6577 157.227 98.6552 157.047 98.6926 156.873V157.12ZM98.6926 152.408C98.6926 152.096 98.8167 151.796 99.0376 151.575C99.2585 151.354 99.5582 151.23 99.8706 151.23C100.183 151.23 100.483 151.354 100.704 151.575C100.924 151.796 101.049 152.096 101.049 152.408C101.049 152.721 100.924 153.02 100.704 153.241C100.483 153.462 100.183 153.586 99.8706 153.586C99.6902 153.591 99.5111 153.554 99.3472 153.479C99.1832 153.404 99.0387 153.292 98.9249 153.152C98.8111 153.012 98.7309 152.847 98.6906 152.672C98.6504 152.496 98.651 152.313 98.6926 152.137V152.408ZM98.6926 147.696C98.6926 147.384 98.8167 147.084 99.0376 146.863C99.2585 146.642 99.5582 146.518 99.8706 146.518C100.183 146.518 100.483 146.642 100.704 146.863C100.924 147.084 101.049 147.384 101.049 147.696C101.049 148.009 100.924 148.308 100.704 148.529C100.483 148.75 100.183 148.874 99.8706 148.874C99.6877 148.88 99.5059 148.843 99.3397 148.767C99.1736 148.69 99.0275 148.576 98.9132 148.433C98.7989 148.29 98.7194 148.122 98.6811 147.943C98.6428 147.764 98.6468 147.579 98.6926 147.402V147.696ZM98.6926 142.984C98.6926 142.672 98.8167 142.372 99.0376 142.151C99.2585 141.93 99.5582 141.806 99.8706 141.806C100.183 141.806 100.483 141.93 100.704 142.151C100.924 142.372 101.049 142.672 101.049 142.984C101.049 143.297 100.924 143.596 100.704 143.817C100.483 144.038 100.183 144.162 99.8706 144.162C99.6851 144.169 99.5006 144.132 99.3321 144.054C99.1636 143.976 99.0159 143.86 98.9011 143.714C98.7863 143.568 98.7075 143.397 98.6713 143.215C98.6351 143.033 98.6424 142.845 98.6926 142.666V142.984ZM98.6926 138.272C98.6926 137.96 98.8167 137.66 99.0376 137.439C99.2585 137.218 99.5582 137.094 99.8706 137.094C100.183 137.094 100.483 137.218 100.704 137.439C100.924 137.66 101.049 137.96 101.049 138.272C101.049 138.585 100.924 138.884 100.704 139.105C100.483 139.326 100.183 139.45 99.8706 139.45C99.6825 139.458 99.4951 139.421 99.3242 139.342C99.1534 139.263 99.004 139.144 98.8886 138.995C98.7732 138.846 98.6952 138.672 98.6611 138.487C98.627 138.301 98.6378 138.111 98.6926 137.931V138.272ZM98.6926 133.56C98.6926 133.248 98.8167 132.948 99.0376 132.727C99.2585 132.506 99.5582 132.382 99.8706 132.382C100.183 132.382 100.483 132.506 100.704 132.727C100.924 132.948 101.049 133.248 101.049 133.56C101.049 133.873 100.924 134.172 100.704 134.393C100.483 134.614 100.183 134.738 99.8706 134.738C99.6798 134.748 99.4895 134.711 99.3162 134.63C99.1428 134.55 98.9917 134.428 98.8757 134.276C98.7598 134.125 98.6825 133.947 98.6506 133.758C98.6187 133.57 98.6331 133.377 98.6926 133.195V133.56ZM98.6926 128.848C98.6926 128.536 98.8167 128.236 99.0376 128.015C99.2585 127.794 99.5582 127.67 99.8706 127.67C100.183 127.67 100.483 127.794 100.704 128.015C100.924 128.236 101.049 128.536 101.049 128.848C101.049 129.161 100.924 129.46 100.704 129.681C100.483 129.902 100.183 130.026 99.8706 130.026C99.677 130.037 99.4837 130 99.3078 129.918C99.1319 129.837 98.9789 129.713 98.8624 129.558C98.7459 129.403 98.6694 129.222 98.6398 129.03C98.6102 128.838 98.6283 128.642 98.6926 128.459V128.848ZM98.6926 124.136C98.6926 123.824 98.8167 123.524 99.0376 123.303C99.2585 123.082 99.5582 122.958 99.8706 122.958C100.183 122.958 100.483 123.082 100.704 123.303C100.924 123.524 101.049 123.824 101.049 124.136C101.049 124.449 100.924 124.748 100.704 124.969C100.483 125.19 100.183 125.314 99.8706 125.314C99.6742 125.327 99.4777 125.29 99.2992 125.207C99.1207 125.124 98.9658 124.998 98.8486 124.84C98.7314 124.682 98.6558 124.497 98.6285 124.302C98.6013 124.107 98.6233 123.908 98.6926 123.724V124.136ZM99.8706 120.602C99.5582 120.602 99.2585 120.478 99.0376 120.257C98.8167 120.036 98.6926 119.737 98.6926 119.424C98.6926 119.112 98.8167 118.812 99.0376 118.591C99.2585 118.37 99.5582 118.246 99.8706 118.246C100.183 118.246 100.483 118.37 100.704 118.591C100.924 118.812 101.049 119.112 101.049 119.424C101.049 119.737 100.924 120.036 100.704 120.257C100.483 120.478 100.183 120.602 99.8706 120.602ZM100.212 115.89C100.061 115.854 99.9187 115.789 99.793 115.698C99.6674 115.606 99.561 115.491 99.4799 115.359C99.3989 115.226 99.3449 115.079 99.321 114.926C99.297 114.772 99.3037 114.616 99.3405 114.465C99.4157 114.162 99.608 113.901 99.8753 113.74C100.143 113.579 100.463 113.53 100.766 113.605C101.068 113.678 101.33 113.867 101.493 114.132C101.657 114.397 101.708 114.715 101.638 115.018C101.575 115.282 101.424 115.516 101.21 115.681C100.995 115.847 100.73 115.933 100.46 115.926C100.332 115.788 100.239 115.623 100.189 115.443L100.212 115.89ZM101.579 111.355C101.299 111.216 101.086 110.971 100.987 110.675C100.888 110.379 100.91 110.056 101.049 109.776C101.188 109.497 101.432 109.284 101.728 109.185C102.024 109.085 102.347 109.107 102.627 109.246C102.907 109.385 103.119 109.63 103.219 109.926C103.318 110.222 103.296 110.545 103.157 110.825C103.061 111.021 102.912 111.187 102.727 111.304C102.542 111.42 102.328 111.483 102.109 111.484C101.866 111.358 101.671 111.155 101.555 110.907L101.579 111.355ZM103.935 107.244C103.694 107.048 103.54 106.764 103.507 106.455C103.474 106.147 103.564 105.837 103.758 105.594C103.855 105.473 103.975 105.373 104.112 105.298C104.248 105.224 104.397 105.177 104.552 105.161C104.706 105.144 104.862 105.159 105.011 105.203C105.16 105.247 105.298 105.32 105.419 105.418C105.54 105.515 105.641 105.635 105.715 105.771C105.789 105.908 105.836 106.057 105.853 106.212C105.869 106.366 105.855 106.522 105.811 106.671C105.767 106.82 105.694 106.958 105.596 107.079C105.485 107.215 105.345 107.326 105.186 107.401C105.027 107.476 104.853 107.515 104.677 107.515C104.5 107.464 104.338 107.372 104.203 107.248C104.068 107.123 103.964 106.968 103.899 106.796L103.935 107.244ZM107.115 103.71C106.924 103.464 106.838 103.153 106.875 102.844C106.913 102.535 107.071 102.253 107.316 102.06C107.56 101.868 107.87 101.78 108.179 101.815C108.488 101.85 108.77 102.006 108.965 102.249C109.062 102.37 109.134 102.509 109.177 102.659C109.221 102.808 109.234 102.964 109.216 103.119C109.199 103.273 109.151 103.422 109.075 103.558C109 103.694 108.898 103.814 108.776 103.91C108.565 104.068 108.31 104.155 108.046 104.157C107.819 104.124 107.606 104.025 107.434 103.872C107.263 103.719 107.14 103.519 107.08 103.297L107.115 103.71ZM110.991 100.988C110.857 100.707 110.841 100.384 110.944 100.091C111.048 99.7973 111.264 99.5567 111.545 99.4217C111.782 99.2618 112.07 99.1939 112.354 99.2308C112.638 99.2677 112.899 99.4067 113.088 99.622C113.22 99.9047 113.235 100.229 113.129 100.522C113.023 100.816 112.805 101.056 112.522 101.189C112.366 101.269 112.192 101.309 112.016 101.307C111.787 101.301 111.565 101.229 111.377 101.099C111.189 100.969 111.042 100.788 110.956 100.576L110.991 100.988ZM115.373 99.1979C115.338 99.0471 115.333 98.8908 115.359 98.7381C115.384 98.5854 115.44 98.4393 115.522 98.308C115.604 98.1767 115.711 98.0629 115.837 97.973C115.963 97.8832 116.106 97.819 116.257 97.7843C116.408 97.7496 116.565 97.7452 116.719 97.7715C116.872 97.7977 117.019 97.8541 117.15 97.9374C117.281 98.0206 117.395 98.1291 117.484 98.2564C117.574 98.3838 117.637 98.5277 117.67 98.6796C117.627 98.9119 117.516 99.1259 117.35 99.294C117.184 99.462 116.971 99.5763 116.74 99.622C116.654 99.6342 116.566 99.6342 116.48 99.622C116.225 99.6253 115.975 99.5455 115.769 99.3947C115.563 99.2438 115.412 99.0301 115.338 98.7856L115.373 99.1979ZM375.782 97.9964C375.782 97.6839 375.906 97.3843 376.127 97.1634C376.348 96.9425 376.647 96.8184 376.96 96.8184C377.272 96.8184 377.572 96.9425 377.793 97.1634C378.014 97.3843 378.138 97.6839 378.138 97.9964C378.138 98.3088 378.014 98.6084 377.793 98.8293C377.572 99.0502 377.272 99.1744 376.96 99.1744C376.647 99.1744 376.348 99.0502 376.127 98.8293C375.906 98.6084 375.782 98.3088 375.782 97.9964ZM371.07 97.9964C371.07 97.6839 371.194 97.3843 371.415 97.1634C371.636 96.9425 371.935 96.8184 372.248 96.8184C372.56 96.8184 372.86 96.9425 373.081 97.1634C373.302 97.3843 373.426 97.6839 373.426 97.9964C373.426 98.3088 373.302 98.6084 373.081 98.8293C372.86 99.0502 372.56 99.1744 372.248 99.1744C371.935 99.1744 371.636 99.0502 371.415 98.8293C371.194 98.6084 371.07 98.3088 371.07 97.9964ZM366.358 97.9964C366.358 97.6839 366.482 97.3843 366.703 97.1634C366.924 96.9425 367.223 96.8184 367.536 96.8184C367.848 96.8184 368.148 96.9425 368.369 97.1634C368.59 97.3843 368.714 97.6839 368.714 97.9964C368.714 98.3088 368.59 98.6084 368.369 98.8293C368.148 99.0502 367.848 99.1744 367.536 99.1744C367.375 99.184 367.214 99.1607 367.063 99.1058C366.912 99.0509 366.774 98.9657 366.657 98.8554C366.54 98.745 366.447 98.6118 366.383 98.4641C366.319 98.3164 366.287 98.1572 366.287 97.9964H366.358ZM361.646 97.9964C361.646 97.6839 361.77 97.3843 361.991 97.1634C362.212 96.9425 362.511 96.8184 362.824 96.8184C363.136 96.8184 363.436 96.9425 363.657 97.1634C363.878 97.3843 364.002 97.6839 364.002 97.9964C364.002 98.3088 363.878 98.6084 363.657 98.8293C363.436 99.0502 363.136 99.1744 362.824 99.1744C362.661 99.1874 362.498 99.1666 362.344 99.1133C362.19 99.0599 362.049 98.9752 361.929 98.8645C361.81 98.7538 361.714 98.6195 361.649 98.47C361.584 98.3206 361.551 98.1593 361.552 97.9964H361.646ZM356.934 97.9964C356.934 97.6839 357.058 97.3843 357.279 97.1634C357.5 96.9425 357.799 96.8184 358.112 96.8184C358.424 96.8184 358.724 96.9425 358.945 97.1634C359.166 97.3843 359.29 97.6839 359.29 97.9964C359.29 98.3088 359.166 98.6084 358.945 98.8293C358.724 99.0502 358.424 99.1744 358.112 99.1744C357.947 99.1909 357.782 99.1727 357.625 99.1209C357.468 99.0691 357.324 98.985 357.202 98.8739C357.079 98.7628 356.982 98.6273 356.915 98.4761C356.849 98.3249 356.815 98.1615 356.816 97.9964H356.934ZM352.222 97.9964C352.222 97.6839 352.346 97.3843 352.567 97.1634C352.788 96.9425 353.087 96.8184 353.4 96.8184C353.712 96.8184 354.012 96.9425 354.233 97.1634C354.454 97.3843 354.578 97.6839 354.578 97.9964C354.578 98.3088 354.454 98.6084 354.233 98.8293C354.012 99.0502 353.712 99.1744 353.4 99.1744C353.234 99.1944 353.065 99.1789 352.905 99.1288C352.746 99.0786 352.599 98.995 352.474 98.8836C352.349 98.7721 352.249 98.6354 352.182 98.4824C352.114 98.3294 352.079 98.1637 352.08 97.9964H352.222ZM347.51 97.9964C347.51 97.6839 347.634 97.3843 347.855 97.1634C348.076 96.9425 348.375 96.8184 348.688 96.8184C349 96.8184 349.3 96.9425 349.521 97.1634C349.742 97.3843 349.866 97.6839 349.866 97.9964C349.866 98.3088 349.742 98.6084 349.521 98.8293C349.3 99.0502 349 99.1744 348.688 99.1744C348.52 99.1981 348.349 99.1853 348.186 99.1369C348.024 99.0884 347.873 99.0054 347.746 98.8935C347.618 98.7817 347.517 98.6436 347.447 98.4888C347.378 98.3339 347.343 98.166 347.345 97.9964H347.51ZM342.798 97.9964C342.798 97.6839 342.922 97.3843 343.143 97.1634C343.364 96.9425 343.663 96.8184 343.976 96.8184C344.288 96.8184 344.588 96.9425 344.809 97.1634C345.03 97.3843 345.154 97.6839 345.154 97.9964C345.154 98.3088 345.03 98.6084 344.809 98.8293C344.588 99.0502 344.288 99.1744 343.976 99.1744C343.806 99.2019 343.632 99.1919 343.467 99.1452C343.301 99.0984 343.148 99.016 343.018 98.9038C342.888 98.7915 342.784 98.6521 342.713 98.4954C342.642 98.3386 342.607 98.1683 342.609 97.9964H342.798ZM338.086 97.9964C338.086 97.6839 338.21 97.3843 338.431 97.1634C338.652 96.9425 338.951 96.8184 339.264 96.8184C339.576 96.8184 339.876 96.9425 340.097 97.1634C340.318 97.3843 340.442 97.6839 340.442 97.9964C340.442 98.3088 340.318 98.6084 340.097 98.8293C339.876 99.0502 339.576 99.1744 339.264 99.1744C339.092 99.2058 338.916 99.1987 338.748 99.1537C338.579 99.1088 338.423 99.027 338.29 98.9143C338.157 98.8016 338.051 98.6608 337.979 98.5021C337.907 98.3434 337.871 98.1706 337.874 97.9964H338.086ZM333.374 97.9964C333.374 97.6839 333.498 97.3843 333.719 97.1634C333.94 96.9425 334.239 96.8184 334.552 96.8184C334.864 96.8184 335.164 96.9425 335.385 97.1634C335.606 97.3843 335.73 97.6839 335.73 97.9964C335.73 98.3088 335.606 98.6084 335.385 98.8293C335.164 99.0502 334.864 99.1744 334.552 99.1744C334.378 99.2118 334.198 99.2093 334.025 99.1671C333.852 99.1249 333.691 99.0441 333.554 98.9307C333.416 98.8174 333.307 98.6744 333.233 98.5126C333.159 98.3507 333.122 98.1743 333.126 97.9964H333.374ZM328.662 97.9964C328.662 97.6839 328.786 97.3843 329.007 97.1634C329.228 96.9425 329.527 96.8184 329.84 96.8184C330.152 96.8184 330.452 96.9425 330.673 97.1634C330.894 97.3843 331.018 97.6839 331.018 97.9964C331.018 98.3088 330.894 98.6084 330.673 98.8293C330.452 99.0502 330.152 99.1744 329.84 99.1744C329.664 99.2159 329.481 99.2166 329.305 99.1763C329.13 99.136 328.965 99.0559 328.825 98.9421C328.685 98.8282 328.573 98.6838 328.498 98.5198C328.423 98.3558 328.386 98.1767 328.391 97.9964H328.662ZM323.95 97.9964C323.95 97.6839 324.074 97.3843 324.295 97.1634C324.516 96.9425 324.815 96.8184 325.128 96.8184C325.44 96.8184 325.74 96.9425 325.961 97.1634C326.182 97.3843 326.306 97.6839 326.306 97.9964C326.306 98.3088 326.182 98.6084 325.961 98.8293C325.74 99.0502 325.44 99.1744 325.128 99.1744C324.951 99.2202 324.765 99.2241 324.586 99.1858C324.407 99.1476 324.24 99.0681 324.097 98.9538C323.954 98.8395 323.84 98.6934 323.763 98.5272C323.686 98.361 323.649 98.1793 323.655 97.9964H323.95ZM319.238 97.9964C319.238 97.6839 319.362 97.3843 319.583 97.1634C319.804 96.9425 320.103 96.8184 320.416 96.8184C320.728 96.8184 321.028 96.9425 321.249 97.1634C321.47 97.3843 321.594 97.6839 321.594 97.9964C321.594 98.3088 321.47 98.6084 321.249 98.8293C321.028 99.0502 320.728 99.1744 320.416 99.1744C320.237 99.2246 320.049 99.2319 319.867 99.1957C319.685 99.1594 319.514 99.0807 319.368 98.9659C319.222 98.851 319.106 98.7033 319.028 98.5349C318.95 98.3664 318.913 98.1819 318.92 97.9964H319.238ZM314.526 97.9964C314.526 97.6839 314.65 97.3843 314.871 97.1634C315.092 96.9425 315.391 96.8184 315.704 96.8184C316.016 96.8184 316.316 96.9425 316.537 97.1634C316.758 97.3843 316.882 97.6839 316.882 97.9964C316.882 98.3088 316.758 98.6084 316.537 98.8293C316.316 99.0502 316.016 99.1744 315.704 99.1744C315.524 99.2291 315.333 99.2399 315.148 99.2058C314.962 99.1717 314.788 99.0937 314.639 98.9783C314.49 98.863 314.371 98.7136 314.292 98.5427C314.213 98.3719 314.176 98.1845 314.184 97.9964H314.526ZM309.814 97.9964C309.814 97.6839 309.938 97.3843 310.159 97.1634C310.38 96.9425 310.679 96.8184 310.992 96.8184C311.304 96.8184 311.604 96.9425 311.825 97.1634C312.046 97.3843 312.17 97.6839 312.17 97.9964C312.17 98.3088 312.046 98.6084 311.825 98.8293C311.604 99.0502 311.304 99.1744 310.992 99.1744C310.81 99.2338 310.617 99.2482 310.428 99.2163C310.24 99.1844 310.062 99.1072 309.91 98.9912C309.758 98.8753 309.637 98.7241 309.557 98.5508C309.476 98.3775 309.439 98.1872 309.449 97.9964H309.814ZM305.102 97.9964C305.102 97.6839 305.226 97.3843 305.447 97.1634C305.668 96.9425 305.967 96.8184 306.28 96.8184C306.592 96.8184 306.892 96.9425 307.113 97.1634C307.334 97.3843 307.458 97.6839 307.458 97.9964C307.458 98.3088 307.334 98.6084 307.113 98.8293C306.892 99.0502 306.592 99.1744 306.28 99.1744C306.097 99.2387 305.901 99.2568 305.709 99.2272C305.518 99.1976 305.336 99.1211 305.181 99.0046C305.026 98.888 304.902 98.735 304.821 98.5592C304.739 98.3833 304.702 98.19 304.713 97.9964H305.102ZM300.39 97.9964C300.39 97.6839 300.514 97.3843 300.735 97.1634C300.956 96.9425 301.255 96.8184 301.568 96.8184C301.88 96.8184 302.18 96.9425 302.401 97.1634C302.622 97.3843 302.746 97.6839 302.746 97.9964C302.746 98.3088 302.622 98.6084 302.401 98.8293C302.18 99.0502 301.88 99.1744 301.568 99.1744C301.384 99.2437 301.185 99.2657 300.99 99.2384C300.795 99.2112 300.61 99.1355 300.452 99.0184C300.294 98.9012 300.167 98.7463 300.085 98.5678C300.002 98.3892 299.965 98.1928 299.977 97.9964H300.39ZM295.678 97.9964C295.678 97.6839 295.802 97.3843 296.023 97.1634C296.244 96.9425 296.543 96.8184 296.856 96.8184C297.168 96.8184 297.468 96.9425 297.689 97.1634C297.91 97.3843 298.034 97.6839 298.034 97.9964C298.034 98.3088 297.91 98.6084 297.689 98.8293C297.468 99.0502 297.168 99.1744 296.856 99.1744C296.67 99.2488 296.469 99.2749 296.271 99.2501C296.072 99.2253 295.884 99.1505 295.722 99.0327C295.561 98.9149 295.432 98.7579 295.348 98.5766C295.264 98.3954 295.228 98.1957 295.242 97.9964H295.678ZM290.966 97.9964C290.966 97.6839 291.09 97.3843 291.311 97.1634C291.532 96.9425 291.831 96.8184 292.144 96.8184C292.456 96.8184 292.756 96.9425 292.977 97.1634C293.198 97.3843 293.322 97.6839 293.322 97.9964C293.322 98.3088 293.198 98.6084 292.977 98.8293C292.756 99.0502 292.456 99.1744 292.144 99.1744C291.957 99.2542 291.753 99.2844 291.551 99.2622C291.35 99.24 291.157 99.166 290.993 99.0475C290.828 98.929 290.697 98.77 290.611 98.5858C290.526 98.4017 290.49 98.1986 290.506 97.9964H290.966ZM286.254 97.9964C286.254 97.6839 286.378 97.3843 286.599 97.1634C286.82 96.9425 287.119 96.8184 287.432 96.8184C287.744 96.8184 288.044 96.9425 288.265 97.1634C288.486 97.3843 288.61 97.6839 288.61 97.9964C288.61 98.3088 288.486 98.6084 288.265 98.8293C288.044 99.0502 287.744 99.1744 287.432 99.1744C287.244 99.2597 287.037 99.2943 286.832 99.2748C286.627 99.2552 286.431 99.1822 286.263 99.0629C286.094 98.9437 285.961 98.7825 285.874 98.5953C285.788 98.4081 285.752 98.2016 285.771 97.9964H286.254ZM281.542 97.9964C281.542 97.6839 281.666 97.3843 281.887 97.1634C282.108 96.9425 282.407 96.8184 282.72 96.8184C283.032 96.8184 283.332 96.9425 283.553 97.1634C283.774 97.3843 283.898 97.6839 283.898 97.9964C283.898 98.3088 283.774 98.6084 283.553 98.8293C283.332 99.0502 283.032 99.1744 282.72 99.1744C282.531 99.2654 282.322 99.3046 282.113 99.2879C281.904 99.2711 281.704 99.199 281.532 99.079C281.361 98.959 281.224 98.7954 281.137 98.6051C281.049 98.4148 281.014 98.2047 281.035 97.9964H281.542ZM276.83 97.9964C276.83 97.6839 276.954 97.3843 277.175 97.1634C277.396 96.9425 277.695 96.8184 278.008 96.8184C278.32 96.8184 278.62 96.9425 278.841 97.1634C279.062 97.3843 279.186 97.6839 279.186 97.9964C279.186 98.3088 279.062 98.6084 278.841 98.8293C278.62 99.0502 278.32 99.1744 278.008 99.1744C277.818 99.2714 277.606 99.3154 277.394 99.3015C277.182 99.2877 276.977 99.2166 276.802 99.0957C276.627 98.9749 276.487 98.8089 276.399 98.6154C276.311 98.4218 276.276 98.2079 276.3 97.9964H276.83ZM272.118 97.9964C272.118 97.6839 272.242 97.3843 272.463 97.1634C272.684 96.9425 272.983 96.8184 273.296 96.8184C273.608 96.8184 273.908 96.9425 274.129 97.1634C274.35 97.3843 274.474 97.6839 274.474 97.9964C274.474 98.3088 274.35 98.6084 274.129 98.8293C273.908 99.0502 273.608 99.1744 273.296 99.1744C273.106 99.2776 272.891 99.3266 272.675 99.3158C272.459 99.305 272.25 99.2349 272.071 99.1133C271.892 98.9916 271.75 98.823 271.661 98.6259C271.571 98.4289 271.538 98.2111 271.564 97.9964H272.118ZM267.406 97.9964C267.406 97.6839 267.53 97.3843 267.751 97.1634C267.972 96.9425 268.271 96.8184 268.584 96.8184C268.896 96.8184 269.196 96.9425 269.417 97.1634C269.638 97.3843 269.762 97.6839 269.762 97.9964C269.762 98.3088 269.638 98.6084 269.417 98.8293C269.196 99.0502 268.896 99.1744 268.584 99.1744C268.393 99.2841 268.175 99.3383 267.956 99.3308C267.736 99.3232 267.522 99.2542 267.34 99.1316C267.157 99.009 267.012 98.8376 266.922 98.637C266.832 98.4364 266.799 98.2144 266.829 97.9964H267.406ZM262.694 97.9964C262.694 97.6839 262.818 97.3843 263.039 97.1634C263.26 96.9425 263.559 96.8184 263.872 96.8184C264.184 96.8184 264.484 96.9425 264.705 97.1634C264.926 97.3843 265.05 97.6839 265.05 97.9964C265.05 98.3088 264.926 98.6084 264.705 98.8293C264.484 99.0502 264.184 99.1744 263.872 99.1744C263.681 99.2909 263.46 99.3507 263.236 99.3465C263.013 99.3423 262.795 99.2745 262.608 99.1508C262.421 99.0272 262.274 98.853 262.182 98.6485C262.091 98.444 262.06 98.2178 262.093 97.9964H262.694ZM257.982 97.9964C257.982 97.6839 258.106 97.3843 258.327 97.1634C258.548 96.9425 258.847 96.8184 259.16 96.8184C259.472 96.8184 259.772 96.9425 259.993 97.1634C260.214 97.3843 260.338 97.6839 260.338 97.9964C260.338 98.3088 260.214 98.6084 259.993 98.8293C259.772 99.0502 259.472 99.1744 259.16 99.1744C258.968 99.2981 258.745 99.3637 258.517 99.3631C258.289 99.3625 258.066 99.2958 257.876 99.1712C257.685 99.0465 257.534 98.8691 257.442 98.6606C257.35 98.4521 257.321 98.2213 257.357 97.9964H257.982ZM253.27 97.9964C253.27 97.6839 253.394 97.3843 253.615 97.1634C253.836 96.9425 254.135 96.8184 254.448 96.8184C254.76 96.8184 255.06 96.9425 255.281 97.1634C255.502 97.3843 255.626 97.6839 255.626 97.9964C255.626 98.3088 255.502 98.6084 255.281 98.8293C255.06 99.0502 254.76 99.1744 254.448 99.1744C254.256 99.3056 254.03 99.3774 253.798 99.3807C253.566 99.3839 253.338 99.3185 253.143 99.1926C252.948 99.0668 252.794 98.8861 252.702 98.6733C252.609 98.4604 252.581 98.2249 252.622 97.9964H253.27ZM248.558 97.9964C248.558 97.6839 248.682 97.3843 248.903 97.1634C249.124 96.9425 249.423 96.8184 249.736 96.8184C250.048 96.8184 250.348 96.9425 250.569 97.1634C250.79 97.3843 250.914 97.6839 250.914 97.9964C250.914 98.3088 250.79 98.6084 250.569 98.8293C250.348 99.0502 250.048 99.1744 249.736 99.1744C249.545 99.3178 249.314 99.3997 249.076 99.4092C248.837 99.4187 248.601 99.3554 248.399 99.2276C248.197 99.0997 248.038 98.9135 247.945 98.6936C247.851 98.4737 247.827 98.2305 247.875 97.9964H248.558ZM243.846 97.9964C243.846 97.6839 243.97 97.3843 244.191 97.1634C244.412 96.9425 244.711 96.8184 245.024 96.8184C245.336 96.8184 245.636 96.9425 245.857 97.1634C246.078 97.3843 246.202 97.6839 246.202 97.9964C246.202 98.3088 246.078 98.6084 245.857 98.8293C245.636 99.0502 245.336 99.1744 245.024 99.1744C244.833 99.3266 244.6 99.416 244.356 99.4301C244.113 99.4442 243.871 99.3823 243.664 99.253C243.457 99.1237 243.296 98.9333 243.202 98.7083C243.107 98.4832 243.086 98.2344 243.139 97.9964H243.846ZM239.134 97.9964C239.134 97.6839 239.258 97.3843 239.479 97.1634C239.7 96.9425 239.999 96.8184 240.312 96.8184C240.624 96.8184 240.924 96.9425 241.145 97.1634C241.366 97.3843 241.49 97.6839 241.49 97.9964C241.49 98.3088 241.366 98.6084 241.145 98.8293C240.924 99.0502 240.624 99.1744 240.312 99.1744C240.122 99.3362 239.886 99.4336 239.637 99.4527C239.389 99.4718 239.141 99.4115 238.928 99.2806C238.716 99.1496 238.551 98.9547 238.457 98.724C238.362 98.4932 238.344 98.2384 238.403 97.9964H239.134ZM234.422 97.9964C234.422 97.6839 234.546 97.3843 234.767 97.1634C234.988 96.9425 235.287 96.8184 235.6 96.8184C235.912 96.8184 236.212 96.9425 236.433 97.1634C236.654 97.3843 236.778 97.6839 236.778 97.9964C236.778 98.3088 236.654 98.6084 236.433 98.8293C236.212 99.0502 235.912 99.1744 235.6 99.1744C235.411 99.3466 235.172 99.453 234.918 99.4777C234.664 99.5023 234.409 99.4438 234.191 99.311C233.973 99.1781 233.805 98.9781 233.71 98.741C233.616 98.5039 233.601 98.2426 233.668 97.9964H234.422ZM229.71 97.9964C229.71 97.6839 229.834 97.3843 230.055 97.1634C230.276 96.9425 230.575 96.8184 230.888 96.8184C231.2 96.8184 231.5 96.9425 231.721 97.1634C231.942 97.3843 232.066 97.6839 232.066 97.9964C232.066 98.3088 231.942 98.6084 231.721 98.8293C231.5 99.0502 231.2 99.1744 230.888 99.1744C230.701 99.3582 230.459 99.4748 230.199 99.5057C229.939 99.5366 229.677 99.48 229.452 99.345C229.228 99.2099 229.055 99.004 228.961 98.7598C228.867 98.5156 228.857 98.247 228.932 97.9964H229.71ZM224.998 97.9964C224.998 97.6839 225.122 97.3843 225.343 97.1634C225.564 96.9425 225.863 96.8184 226.176 96.8184C226.488 96.8184 226.788 96.9425 227.009 97.1634C227.23 97.3843 227.354 97.6839 227.354 97.9964C227.354 98.3088 227.23 98.6084 227.009 98.8293C226.788 99.0502 226.488 99.1744 226.176 99.1744C225.992 99.3716 225.747 99.4999 225.48 99.5382C225.214 99.5764 224.942 99.5221 224.711 99.3843C224.479 99.2466 224.302 99.0337 224.209 98.7811C224.115 98.5286 224.111 98.2516 224.197 97.9964H224.998ZM220.286 97.9964C220.286 97.6839 220.41 97.3843 220.631 97.1634C220.852 96.9425 221.151 96.8184 221.464 96.8184C221.776 96.8184 222.076 96.9425 222.297 97.1634C222.518 97.3843 222.642 97.6839 222.642 97.9964C222.642 98.3088 222.518 98.6084 222.297 98.8293C222.076 99.0502 221.776 99.1744 221.464 99.1744C221.285 99.3877 221.036 99.5307 220.761 99.5779C220.487 99.6252 220.204 99.5736 219.964 99.4323C219.724 99.2911 219.542 99.0694 219.45 98.8065C219.358 98.5436 219.362 98.2566 219.461 97.9964H220.286ZM215.574 97.9964C215.574 97.6839 215.698 97.3843 215.919 97.1634C216.14 96.9425 216.439 96.8184 216.752 96.8184C217.064 96.8184 217.364 96.9425 217.585 97.1634C217.806 97.3843 217.93 97.6839 217.93 97.9964C217.93 98.3088 217.806 98.6084 217.585 98.8293C217.364 99.0502 217.064 99.1744 216.752 99.1744C216.58 99.4102 216.327 99.574 216.042 99.6342C215.757 99.6943 215.459 99.6465 215.207 99.4999C214.955 99.3533 214.766 99.1184 214.677 98.8407C214.588 98.563 214.605 98.2621 214.726 97.9964H215.574ZM210.862 97.9964C210.862 97.6839 210.986 97.3843 211.207 97.1634C211.428 96.9425 211.727 96.8184 212.04 96.8184C212.352 96.8184 212.652 96.9425 212.873 97.1634C213.094 97.3843 213.218 97.6839 213.218 97.9964C213.218 98.3088 213.094 98.6084 212.873 98.8293C212.652 99.0502 212.352 99.1744 212.04 99.1744C211.884 99.4462 211.626 99.6448 211.323 99.7265C211.02 99.8083 210.698 99.7664 210.426 99.6102C210.154 99.454 209.955 99.1962 209.874 98.8936C209.792 98.5909 209.834 98.2682 209.99 97.9964H210.862ZM206.15 97.9964C206.15 97.6839 206.274 97.3843 206.495 97.1634C206.716 96.9425 207.015 96.8184 207.328 96.8184C207.64 96.8184 207.94 96.9425 208.161 97.1634C208.382 97.3843 208.506 97.6839 208.506 97.9964C208.506 98.3088 208.382 98.6084 208.161 98.8293C207.94 99.0502 207.64 99.1744 207.328 99.1744C207.25 99.3105 207.147 99.4301 207.023 99.5262C206.9 99.6224 206.759 99.6933 206.608 99.7349C206.457 99.7764 206.299 99.7879 206.144 99.7685C205.988 99.7491 205.838 99.6993 205.702 99.622C205.566 99.5446 205.446 99.4412 205.35 99.3177C205.254 99.1941 205.183 99.0528 205.142 98.9019C205.1 98.7509 205.089 98.5933 205.108 98.4379C205.127 98.2825 205.177 98.1325 205.254 97.9964H206.15ZM201.438 97.9964C201.438 97.6839 201.562 97.3843 201.783 97.1634C202.004 96.9425 202.303 96.8184 202.616 96.8184C202.928 96.8184 203.228 96.9425 203.449 97.1634C203.67 97.3843 203.794 97.6839 203.794 97.9964C203.794 98.3088 203.67 98.6084 203.449 98.8293C203.228 99.0502 202.928 99.1744 202.616 99.1744C202.46 99.4524 202.199 99.657 201.892 99.7432C201.585 99.8293 201.256 99.79 200.978 99.6338C200.7 99.4776 200.496 99.2173 200.41 98.9102C200.323 98.6031 200.363 98.2744 200.519 97.9964H201.438ZM196.726 97.9964C196.726 97.6839 196.85 97.3843 197.071 97.1634C197.292 96.9425 197.591 96.8184 197.904 96.8184C198.216 96.8184 198.516 96.9425 198.737 97.1634C198.958 97.3843 199.082 97.6839 199.082 97.9964C199.082 98.3088 198.958 98.6084 198.737 98.8293C198.516 99.0502 198.216 99.1744 197.904 99.1744C197.748 99.4555 197.486 99.6631 197.177 99.7515C196.867 99.8399 196.536 99.8018 196.255 99.6456C195.973 99.4893 195.766 99.2278 195.677 98.9185C195.589 98.6093 195.627 98.2775 195.783 97.9964H196.726ZM192.014 97.9964C192.014 97.6839 192.138 97.3843 192.359 97.1634C192.58 96.9425 192.879 96.8184 193.192 96.8184C193.504 96.8184 193.804 96.9425 194.025 97.1634C194.246 97.3843 194.37 97.6839 194.37 97.9964C194.37 98.3088 194.246 98.6084 194.025 98.8293C193.804 99.0502 193.504 99.1744 193.192 99.1744C193.036 99.4587 192.773 99.6693 192.461 99.7598C192.15 99.8504 191.815 99.8135 191.531 99.6573C191.246 99.5011 191.036 99.2384 190.945 98.9269C190.855 98.6154 190.892 98.2807 191.048 97.9964H192.014ZM187.302 97.9964C187.302 97.6839 187.426 97.3843 187.647 97.1634C187.868 96.9425 188.167 96.8184 188.48 96.8184C188.792 96.8184 189.092 96.9425 189.313 97.1634C189.534 97.3843 189.658 97.6839 189.658 97.9964C189.658 98.3088 189.534 98.6084 189.313 98.8293C189.092 99.0502 188.792 99.1744 188.48 99.1744C188.402 99.3167 188.298 99.4424 188.172 99.5443C188.046 99.6461 187.901 99.7222 187.746 99.7682C187.591 99.8141 187.428 99.829 187.267 99.812C187.105 99.795 186.949 99.7465 186.807 99.6691C186.665 99.5918 186.539 99.4871 186.437 99.3612C186.335 99.2353 186.259 99.0905 186.213 98.9352C186.167 98.7799 186.152 98.617 186.169 98.4559C186.186 98.2948 186.235 98.1387 186.312 97.9964H187.302ZM182.59 97.9964C182.59 97.6839 182.714 97.3843 182.935 97.1634C183.156 96.9425 183.455 96.8184 183.768 96.8184C184.08 96.8184 184.38 96.9425 184.601 97.1634C184.822 97.3843 184.946 97.6839 184.946 97.9964C184.946 98.3088 184.822 98.6084 184.601 98.8293C184.38 99.0502 184.08 99.1744 183.768 99.1744C183.612 99.4649 183.346 99.6815 183.03 99.7765C182.714 99.8715 182.374 99.8371 182.083 99.6809C181.793 99.5247 181.576 99.2594 181.481 98.9435C181.386 98.6276 181.42 98.2869 181.577 97.9964H182.59ZM177.878 97.9964C177.878 97.6839 178.002 97.3843 178.223 97.1634C178.444 96.9425 178.743 96.8184 179.056 96.8184C179.368 96.8184 179.668 96.9425 179.889 97.1634C180.11 97.3843 180.234 97.6839 180.234 97.9964C180.234 98.3088 180.11 98.6084 179.889 98.8293C179.668 99.0502 179.368 99.1744 179.056 99.1744C178.9 99.468 178.633 99.6876 178.315 99.7848C177.997 99.882 177.653 99.8489 177.359 99.6927C177.066 99.5365 176.846 99.27 176.749 98.9519C176.652 98.6337 176.685 98.29 176.841 97.9964H177.878ZM173.166 97.9964C173.166 97.6839 173.29 97.3843 173.511 97.1634C173.732 96.9425 174.031 96.8184 174.344 96.8184C174.656 96.8184 174.956 96.9425 175.177 97.1634C175.398 97.3843 175.522 97.6839 175.522 97.9964C175.522 98.3088 175.398 98.6084 175.177 98.8293C174.956 99.0502 174.656 99.1744 174.344 99.1744C174.188 99.4712 173.92 99.6937 173.599 99.7932C173.279 99.8926 172.932 99.8607 172.636 99.7045C172.339 99.5482 172.116 99.2805 172.017 98.9602C171.917 98.6399 171.949 98.2932 172.106 97.9964H173.166ZM168.454 97.9964C168.454 97.6839 168.578 97.3843 168.799 97.1634C169.02 96.9425 169.319 96.8184 169.632 96.8184C169.944 96.8184 170.244 96.9425 170.465 97.1634C170.686 97.3843 170.81 97.6839 170.81 97.9964C170.81 98.3088 170.686 98.6084 170.465 98.8293C170.244 99.0502 169.944 99.1744 169.632 99.1744C169.476 99.4743 169.207 99.6999 168.884 99.8015C168.562 99.9031 168.212 99.8725 167.912 99.7162C167.612 99.56 167.386 99.2911 167.285 98.9685C167.183 98.646 167.214 98.2963 167.37 97.9964H168.454ZM163.742 97.9964C163.742 97.6839 163.866 97.3843 164.087 97.1634C164.308 96.9425 164.607 96.8184 164.92 96.8184C165.232 96.8184 165.532 96.9425 165.753 97.1634C165.974 97.3843 166.098 97.6839 166.098 97.9964C166.098 98.3088 165.974 98.6084 165.753 98.8293C165.532 99.0502 165.232 99.1744 164.92 99.1744C164.842 99.3244 164.736 99.4578 164.607 99.5668C164.478 99.6758 164.329 99.7584 164.169 99.8098C164.008 99.8612 163.838 99.8805 163.67 99.8664C163.502 99.8524 163.338 99.8054 163.188 99.728C163.038 99.6507 162.905 99.5445 162.796 99.4156C162.687 99.2868 162.604 99.1377 162.553 98.9769C162.501 98.8161 162.482 98.6467 162.496 98.4785C162.51 98.3102 162.557 98.1464 162.634 97.9964H163.742ZM159.03 97.9964C159.03 97.6839 159.154 97.3843 159.375 97.1634C159.596 96.9425 159.895 96.8184 160.208 96.8184C160.52 96.8184 160.82 96.9425 161.041 97.1634C161.262 97.3843 161.386 97.6839 161.386 97.9964C161.386 98.3088 161.262 98.6084 161.041 98.8293C160.82 99.0502 160.52 99.1744 160.208 99.1744C160.052 99.4868 159.778 99.7244 159.446 99.8348C159.115 99.9453 158.753 99.9196 158.441 99.7634C158.128 99.6071 157.891 99.3332 157.78 99.0018C157.67 98.6705 157.696 98.3088 157.852 97.9964H159.03ZM154.318 97.9964C154.318 97.6839 154.442 97.3843 154.663 97.1634C154.884 96.9425 155.183 96.8184 155.496 96.8184C155.808 96.8184 156.108 96.9425 156.329 97.1634C156.55 97.3843 156.674 97.6839 156.674 97.9964C156.674 98.3088 156.55 98.6084 156.329 98.8293C156.108 99.0502 155.808 99.1744 155.496 99.1744C155.34 99.4868 155.066 99.7244 154.734 99.8348C154.403 99.9453 154.041 99.9196 153.729 99.7634C153.416 99.6071 153.179 99.3332 153.068 99.0018C152.958 98.6705 152.984 98.3088 153.14 97.9964H154.318ZM149.606 97.9964C149.606 97.6839 149.73 97.3843 149.951 97.1634C150.172 96.9425 150.471 96.8184 150.784 96.8184C151.096 96.8184 151.396 96.9425 151.617 97.1634C151.838 97.3843 151.962 97.6839 151.962 97.9964C151.962 98.3088 151.838 98.6084 151.617 98.8293C151.396 99.0502 151.096 99.1744 150.784 99.1744C150.628 99.4868 150.354 99.7244 150.022 99.8348C149.691 99.9453 149.329 99.9196 149.017 99.7634C148.704 99.6071 148.467 99.3332 148.356 99.0018C148.246 98.6705 148.272 98.3088 148.428 97.9964H149.606ZM144.894 97.9964C144.894 97.6839 145.018 97.3843 145.239 97.1634C145.46 96.9425 145.759 96.8184 146.072 96.8184C146.384 96.8184 146.684 96.9425 146.905 97.1634C147.126 97.3843 147.25 97.6839 147.25 97.9964C147.25 98.3088 147.126 98.6084 146.905 98.8293C146.684 99.0502 146.384 99.1744 146.072 99.1744C145.916 99.4868 145.642 99.7244 145.31 99.8348C144.979 99.9453 144.617 99.9196 144.305 99.7634C143.992 99.6071 143.755 99.3332 143.644 99.0018C143.534 98.6705 143.56 98.3088 143.716 97.9964H144.894ZM140.182 97.9964C140.182 97.6839 140.306 97.3843 140.527 97.1634C140.748 96.9425 141.047 96.8184 141.36 96.8184C141.672 96.8184 141.972 96.9425 142.193 97.1634C142.414 97.3843 142.538 97.6839 142.538 97.9964C142.538 98.3088 142.414 98.6084 142.193 98.8293C141.972 99.0502 141.672 99.1744 141.36 99.1744C141.204 99.4868 140.93 99.7244 140.598 99.8348C140.267 99.9453 139.905 99.9196 139.593 99.7634C139.28 99.6071 139.043 99.3332 138.932 99.0018C138.822 98.6705 138.848 98.3088 139.004 97.9964H140.182ZM135.47 97.9964C135.47 97.6839 135.594 97.3843 135.815 97.1634C136.036 96.9425 136.335 96.8184 136.648 96.8184C136.96 96.8184 137.26 96.9425 137.481 97.1634C137.702 97.3843 137.826 97.6839 137.826 97.9964C137.826 98.3088 137.702 98.6084 137.481 98.8293C137.26 99.0502 136.96 99.1744 136.648 99.1744C136.57 99.3345 136.462 99.4778 136.33 99.5961C136.197 99.7144 136.042 99.8054 135.874 99.864C135.706 99.9225 135.528 99.9474 135.351 99.9372C135.173 99.927 135 99.8819 134.84 99.8046C134.679 99.7272 134.536 99.6191 134.418 99.4864C134.299 99.3536 134.208 99.1989 134.15 99.031C134.091 98.8631 134.067 98.6853 134.077 98.5078C134.087 98.3302 134.132 98.1565 134.209 97.9964H135.47ZM130.758 97.9964C130.758 97.6839 130.882 97.3843 131.103 97.1634C131.324 96.9425 131.623 96.8184 131.936 96.8184C132.248 96.8184 132.548 96.9425 132.769 97.1634C132.99 97.3843 133.114 97.6839 133.114 97.9964C133.114 98.3088 132.99 98.6084 132.769 98.8293C132.548 99.0502 132.248 99.1744 131.936 99.1744C131.78 99.5008 131.5 99.7519 131.159 99.8723C130.817 99.9927 130.442 99.9726 130.116 99.8164C129.789 99.6602 129.538 99.3806 129.418 99.0393C129.297 98.698 129.318 98.3228 129.474 97.9964H130.758ZM126.046 97.9964C126.046 97.6839 126.17 97.3843 126.391 97.1634C126.612 96.9425 126.911 96.8184 127.224 96.8184C127.536 96.8184 127.836 96.9425 128.057 97.1634C128.278 97.3843 128.402 97.6839 128.402 97.9964C128.402 98.3088 128.278 98.6084 128.057 98.8293C127.836 99.0502 127.536 99.1744 127.224 99.1744C127.146 99.3376 127.038 99.4839 126.904 99.6051C126.77 99.7263 126.613 99.8199 126.443 99.8806C126.273 99.9413 126.093 99.9679 125.912 99.9589C125.732 99.9499 125.555 99.9055 125.392 99.8281C125.229 99.7508 125.082 99.6421 124.961 99.5081C124.84 99.3742 124.746 99.2178 124.686 99.0477C124.625 98.8776 124.598 98.6972 124.607 98.5168C124.616 98.3364 124.661 98.1596 124.738 97.9964H126.046ZM121.334 97.9964C121.334 97.6839 121.458 97.3843 121.679 97.1634C121.9 96.9425 122.199 96.8184 122.512 96.8184C122.824 96.8184 123.124 96.9425 123.345 97.1634C123.566 97.3843 123.69 97.6839 123.69 97.9964C123.69 98.3088 123.566 98.6084 123.345 98.8293C123.124 99.0502 122.824 99.1744 122.512 99.1744C122.357 99.5071 122.077 99.7648 121.732 99.8907C121.387 100.017 121.007 100 120.674 99.8458C120.341 99.6912 120.084 99.4107 119.958 99.066C119.832 98.7214 119.848 98.3409 120.003 98.0081L121.334 97.9964Z" fill="#FF8500"/>
<path d="M99.8733 210.177C99.7175 210.177 99.5633 210.145 99.4197 210.084C99.2762 210.024 99.1461 209.935 99.037 209.824C98.8193 209.604 98.6966 209.308 98.6953 208.999C98.6944 208.844 98.7241 208.691 98.7828 208.547C98.8414 208.404 98.9278 208.273 99.037 208.163C99.1465 208.052 99.2768 207.965 99.4203 207.905C99.5639 207.845 99.7178 207.814 99.8733 207.814C100.029 207.814 100.183 207.845 100.326 207.905C100.47 207.965 100.6 208.052 100.71 208.163C100.819 208.273 100.905 208.404 100.964 208.547C101.023 208.691 101.052 208.844 101.051 208.999C101.051 209.312 100.927 209.611 100.706 209.832C100.485 210.053 100.186 210.177 99.8733 210.177Z" fill="#FF8500"/>
<path d="M430.655 134.785C430.342 134.785 430.043 134.661 429.822 134.44C429.601 134.219 429.477 133.92 429.477 133.607C429.477 133.451 429.509 133.297 429.569 133.154C429.63 133.01 429.719 132.88 429.83 132.771C430.051 132.551 430.349 132.428 430.66 132.428C430.972 132.428 431.27 132.551 431.491 132.771C431.6 132.881 431.687 133.012 431.745 133.155C431.804 133.299 431.833 133.452 431.833 133.607C431.831 133.916 431.709 134.212 431.491 134.432C431.382 134.543 431.252 134.632 431.108 134.692C430.965 134.753 430.81 134.785 430.655 134.785Z" fill="#FF8500"/>
<path d="M429.477 129.072C429.477 128.76 429.601 128.46 429.822 128.239C430.043 128.018 430.342 127.894 430.655 127.894C430.967 127.894 431.267 128.018 431.488 128.239C431.708 128.46 431.833 128.76 431.833 129.072C431.833 129.384 431.708 129.684 431.488 129.905C431.267 130.126 430.967 130.25 430.655 130.25C430.342 130.25 430.043 130.126 429.822 129.905C429.601 129.684 429.477 129.384 429.477 129.072ZM429.477 124.584C429.477 124.271 429.601 123.972 429.822 123.751C430.043 123.53 430.342 123.406 430.655 123.406C430.967 123.406 431.267 123.53 431.488 123.751C431.708 123.972 431.833 124.271 431.833 124.584C431.833 124.896 431.708 125.196 431.488 125.417C431.267 125.638 430.967 125.762 430.655 125.762C430.348 125.762 430.054 125.643 429.834 125.429C429.614 125.216 429.486 124.925 429.477 124.619V124.584Z" fill="#FF8500"/>
<path d="M430.655 121.297C430.346 121.296 430.049 121.173 429.83 120.956C429.719 120.846 429.63 120.716 429.569 120.573C429.509 120.429 429.477 120.275 429.477 120.119C429.481 119.808 429.608 119.512 429.83 119.295C430.051 119.075 430.349 118.952 430.66 118.952C430.972 118.952 431.27 119.075 431.491 119.295C431.709 119.514 431.831 119.81 431.833 120.119C431.833 120.274 431.804 120.428 431.745 120.571C431.687 120.715 431.6 120.845 431.491 120.956C431.381 121.065 431.25 121.151 431.107 121.21C430.963 121.268 430.81 121.298 430.655 121.297Z" fill="#FF8500"/>
<path d="M414.044 76.757H413.809H413.137H406.258C406.65 76.757 407.043 76.757 407.436 76.757H407.683C408.11 76.7808 408.534 76.828 408.955 76.8983H415.34H415.116C414.751 76.8159 414.41 76.7805 414.044 76.757Z" fill="#263238"/>
<path d="M476.855 101.837C476.855 101.424 476.914 101 476.914 100.564V100.27C476.914 99.9283 476.914 99.5867 476.843 99.2568C476.849 99.1823 476.849 99.1075 476.843 99.033C476.843 98.8563 476.843 98.6914 476.843 98.5147C476.843 98.338 476.843 98.2555 476.773 98.126C476.702 97.9964 476.714 97.7961 476.679 97.643C476.643 97.4898 476.561 97.1129 476.49 96.8537C476.419 96.5945 476.408 96.571 476.361 96.4296V96.2765C476.254 95.9702 476.148 95.6639 476.019 95.3576L475.936 95.1692C475.807 94.8629 475.677 94.5566 475.524 94.2621C475.48 94.19 475.441 94.1152 475.406 94.0383C475.23 93.7085 475.041 93.3786 474.829 93.0605C474.829 93.0016 474.747 92.9427 474.711 92.8721C474.523 92.6011 474.334 92.342 474.134 92.0828L473.993 91.8825C473.757 91.592 473.51 91.3093 473.251 91.0344C473.193 90.9824 473.138 90.9273 473.086 90.8695C472.968 90.7517 472.862 90.6339 472.744 90.5278L472.473 90.2922L472.073 89.9388L471.519 89.503L471.095 89.1967L470.918 89.0671C470.683 88.9022 470.435 88.7491 470.176 88.5959C469.94 88.4663 469.693 88.325 469.446 88.2072L469.269 88.1247C468.974 87.9834 468.68 87.8656 468.374 87.7478L468.044 87.6064H467.95C467.643 87.5004 467.349 87.4179 467.043 87.3355L466.677 87.2177C466.253 87.1234 465.817 87.041 465.382 86.9703C464.934 86.9703 464.474 86.8761 464.027 86.8525L463.956 86.3695C463.956 86.2046 463.897 86.0397 463.862 85.863C463.827 85.6863 463.803 85.4978 463.756 85.3211C463.709 85.1444 463.626 84.8028 463.556 84.5436C463.485 84.2844 463.473 84.2138 463.414 84.0488C463.355 83.8839 463.414 83.9664 463.414 83.9193C463.297 83.5894 463.179 83.2596 463.049 82.9415C463.049 82.8591 462.978 82.7884 462.955 82.7177C462.825 82.4114 462.684 82.1169 462.531 81.8224L462.389 81.5397C462.212 81.1878 462.015 80.8457 461.8 80.5148C461.777 80.4862 461.757 80.4545 461.742 80.4206C461.541 80.1143 461.329 79.8198 461.117 79.5371L460.917 79.278C460.705 79.007 460.469 78.7243 460.234 78.4651L460.151 78.3709C459.939 78.1353 459.715 77.9115 459.48 77.6876L459.35 77.5698L458.903 77.1811C458.726 77.028 458.549 76.8748 458.361 76.7335L457.878 76.3801L457.501 76.1091L457.253 75.956L456.982 75.7793C456.688 75.6026 456.382 75.4259 456.075 75.2727L455.934 75.1903L455.722 75.096C455.345 74.9193 454.968 74.7544 454.544 74.6131L454.391 74.5424L454.026 74.4246L453.154 74.1654L452.907 74.083H452.577L451.729 73.918H451.387H451.128L450.174 73.8356H449.785H444.06L443.918 73.6118C443.859 73.494 443.777 73.3997 443.718 73.2819L443.223 72.5751L442.976 72.2335L442.411 71.5503L442.187 71.2793C441.916 70.9731 441.633 70.6903 441.339 70.4076L441.221 70.3134C440.973 70.066 440.702 69.8422 440.432 69.6183L440.125 69.371L439.442 68.8762L439.254 68.7348L439.053 68.6053L438.653 68.3579L438.158 68.0752L437.746 67.8513L437.51 67.7335C437.463 67.703 437.411 67.6793 437.357 67.6629C436.896 67.4347 436.425 67.2302 435.943 67.0503H435.826C435.413 66.8972 434.989 66.7794 434.565 66.6616H434.377H434.223C433.757 66.5464 433.285 66.456 432.81 66.3906L431.879 66.2964H431.62H431.102H424.305C424.623 66.2964 424.929 66.2964 425.247 66.2964H425.494C425.824 66.2964 426.154 66.2964 426.472 66.4024C426.948 66.4678 427.42 66.5582 427.886 66.6733L428.227 66.7558C428.651 66.8736 429.076 66.9914 429.488 67.1445H429.641C430.122 67.3245 430.594 67.5289 431.055 67.7571L431.443 67.9456L431.867 68.1694L432.35 68.4521L432.751 68.7113L433.14 68.9705L433.823 69.477L434.141 69.7126C434.412 69.9364 434.671 70.172 434.93 70.4076L435.06 70.5254C435.354 70.8081 435.637 71.0908 435.908 71.3971L436.132 71.6681C436.332 71.8919 436.521 72.1157 436.697 72.3513L436.945 72.6929C437.121 72.9285 437.274 73.1641 437.439 73.3997C437.604 73.6353 437.581 73.6118 437.64 73.7296C437.862 74.0761 438.067 74.434 438.252 74.8015H444.637C444.496 74.5306 444.354 74.2715 444.201 74.0123H444.849L445.45 74.0947L446.298 74.2597L446.887 74.401L447.747 74.6602L448.265 74.8487C448.654 74.99 449.031 75.1549 449.443 75.3316L449.702 75.4495L449.856 75.5319C450.162 75.6851 450.456 75.8618 450.751 76.0385L451.022 76.2151C451.246 76.3447 451.446 76.4979 451.646 76.6392L452.129 76.9926C452.318 77.134 452.494 77.2871 452.671 77.4403L453.119 77.829C453.401 78.0882 453.672 78.3591 453.92 78.63L453.531 78.418C453.778 78.6772 454.002 78.9599 454.226 79.2308L454.414 79.49C454.638 79.7727 454.838 80.0672 455.039 80.3735C455.062 80.4021 455.082 80.4338 455.098 80.4677C455.31 80.7976 455.51 81.1392 455.698 81.4926L455.84 81.7753C455.981 82.0698 456.122 82.3643 456.252 82.6706C456.252 82.7413 456.252 82.812 456.346 82.8944C456.488 83.2478 456.629 83.6248 456.747 84.0017C456.747 84.1666 456.829 84.3316 456.876 84.4965C456.924 84.6614 457.018 85.0148 457.077 85.274C457.136 85.5331 457.147 85.6391 457.183 85.8158C457.218 85.9925 457.312 86.4755 457.348 86.8054C457.807 86.8054 458.255 86.8643 458.702 86.9232H458.761C459.197 86.9938 459.633 87.0763 460.057 87.1705L460.469 87.3001C460.776 87.3826 461.082 87.465 461.376 87.5711C461.671 87.6771 461.659 87.6889 461.8 87.7478C461.942 87.8067 462.401 87.9834 462.696 88.1247C462.99 88.2661 463.308 88.431 463.603 88.5959C463.917 88.7844 464.223 88.9847 464.522 89.1967C464.675 89.2909 464.804 89.397 464.946 89.503L465.511 89.9388L465.912 90.2922C466.112 90.4807 466.324 90.6692 466.512 90.8695L466.677 91.0344C466.937 91.3093 467.184 91.592 467.419 91.8825L467.561 92.0828C467.761 92.342 467.961 92.6011 468.138 92.8721C468.174 92.9393 468.218 93.0025 468.268 93.0605C468.468 93.3786 468.656 93.7085 468.833 94.0383C468.877 94.1104 468.916 94.1851 468.951 94.2621C469.104 94.5566 469.245 94.8629 469.375 95.1692C469.395 95.2349 469.423 95.2981 469.457 95.3576C469.599 95.711 469.717 96.0644 469.834 96.4296C469.834 96.571 469.905 96.7123 469.952 96.8537C469.999 96.9951 470.082 97.372 470.141 97.643C470.2 97.9139 470.211 97.961 470.235 98.126C470.296 98.4254 470.339 98.7283 470.364 99.033V99.2568C470.364 99.6927 470.423 100.129 470.423 100.564C470.424 101.013 470.4 101.461 470.353 101.907C470.353 102.225 470.27 102.543 470.223 102.85C470.176 103.156 470.223 103.168 470.152 103.309C470.058 103.78 469.94 104.228 469.811 104.676C469.669 105.111 469.505 105.536 469.328 105.96C469.328 106.066 469.234 106.172 469.175 106.278C469.022 106.631 468.845 106.985 468.656 107.326C468.468 107.668 468.362 107.821 468.209 108.068L468.067 108.28C467.844 108.622 467.608 108.94 467.361 109.246L467.243 109.388C466.992 109.696 466.724 109.991 466.442 110.271C466.159 110.554 465.865 110.825 465.558 111.084L465.417 111.202C465.122 111.437 464.816 111.673 464.51 111.885L464.333 112.015C464.015 112.227 463.685 112.427 463.355 112.615L463.202 112.698C462.837 112.886 462.484 113.063 462.107 113.228C461.73 113.393 461.353 113.522 460.929 113.652L460.752 113.711C460.387 113.829 459.998 113.923 459.574 114.005H459.35C458.961 114.076 458.573 114.147 458.172 114.182H457.995C457.571 114.182 457.147 114.182 456.711 114.182H463.096C463.532 114.182 463.956 114.182 464.38 114.182H464.557C464.957 114.182 465.346 114.076 465.735 114.005H465.959C466.336 113.923 466.724 113.829 467.137 113.711L467.313 113.652C467.702 113.522 468.079 113.393 468.491 113.228C468.868 113.063 469.222 112.886 469.575 112.698L469.728 112.615C470.074 112.427 470.404 112.227 470.718 112.015L470.895 111.885C471.201 111.673 471.507 111.437 471.802 111.202L471.943 111.084C472.249 110.825 472.544 110.554 472.827 110.271C473.109 109.988 473.368 109.694 473.628 109.388L473.745 109.246L473.816 109.164C474.044 108.881 474.256 108.587 474.452 108.28L474.594 108.068C474.711 107.88 474.841 107.691 474.947 107.491C475.053 107.291 475.006 107.373 475.041 107.326C475.23 106.985 475.395 106.631 475.559 106.278C475.61 106.195 475.653 106.108 475.689 106.019C475.869 105.599 476.026 105.171 476.16 104.735C476.29 104.287 476.408 103.839 476.502 103.368C476.502 103.227 476.502 103.074 476.573 102.932C476.643 102.791 476.679 102.308 476.702 101.99C476.843 101.884 476.855 101.86 476.855 101.837Z" fill="#263238"/>
<path d="M423.913 65.8134C426.804 65.8225 429.637 66.6304 432.098 68.1479C434.559 69.6654 436.553 71.8334 437.86 74.4127C439.421 73.8533 441.067 73.5664 442.725 73.5646C446.364 73.5886 449.868 74.9478 452.572 77.3841C455.275 79.8205 456.99 83.1646 457.391 86.7817C460.959 86.9795 464.311 88.5527 466.743 91.1708C469.175 93.7888 470.497 97.2476 470.431 100.82C470.366 104.393 468.917 107.801 466.391 110.328C463.865 112.855 460.457 114.304 456.885 114.371H406.231C401.232 114.371 396.438 112.385 392.903 108.85C389.369 105.315 387.383 100.521 387.383 95.5225C387.383 90.5237 389.369 85.7296 392.903 82.195C396.438 78.6603 401.232 76.6745 406.231 76.6745C407.13 76.6696 408.028 76.7365 408.917 76.8748C409.913 73.6745 411.904 70.8757 414.602 68.8861C417.299 66.8965 420.561 65.82 423.913 65.8134Z" fill="#FF8500"/>
</svg>
