<svg width="32" height="33" viewBox="0 0 32 33" fill="none" xmlns="http://www.w3.org/2000/svg">
<path d="M26.0013 11.1667C27.8423 11.1667 29.3346 9.67428 29.3346 7.83333C29.3346 5.99238 27.8423 4.5 26.0013 4.5C24.1604 4.5 22.668 5.99238 22.668 7.83333C22.668 9.67428 24.1604 11.1667 26.0013 11.1667Z" fill="#332414"/>
<path d="M26.0013 11.1667C27.8423 11.1667 29.3346 9.67428 29.3346 7.83333C29.3346 5.99238 27.8423 4.5 26.0013 4.5C24.1604 4.5 22.668 5.99238 22.668 7.83333C22.668 9.67428 24.1604 11.1667 26.0013 11.1667Z" fill="#332414"/>
<path d="M27.628 12.9133C26.6946 13.2067 25.668 13.26 24.6013 12.9933C22.8146 12.5267 21.3613 11.1 20.868 9.31333C20.628 8.44666 20.6146 7.59333 20.7613 6.82C20.9346 5.96666 20.3346 5.16666 19.4813 5.16666H9.33463C5.33464 5.16666 2.66797 7.16666 2.66797 11.8333V21.1667C2.66797 25.8333 5.33464 27.8333 9.33463 27.8333H22.668C26.668 27.8333 29.3346 25.8333 29.3346 21.1667V14.18C29.3346 13.3 28.4813 12.6333 27.628 12.9133ZM20.6946 15.3667L19.1213 16.62C18.2413 17.3267 17.1213 17.6733 16.0013 17.6733C14.8813 17.6733 13.748 17.3267 12.8813 16.62L8.70797 13.2867C8.2813 12.94 8.21463 12.3 8.54797 11.8733C8.89463 11.4467 9.5213 11.3667 9.94797 11.7133L14.1213 15.0467C15.1346 15.86 16.8546 15.86 17.868 15.0467L19.4413 13.7933C19.868 13.4467 20.508 13.5133 20.8413 13.9533C21.188 14.38 21.1213 15.02 20.6946 15.3667Z" fill="#332414"/>
</svg>
