<svg width="74" height="74" viewBox="0 0 74 74" fill="none" xmlns="http://www.w3.org/2000/svg">
<rect width="74" height="74" rx="4" fill="#F1F7E8"/>
<mask id="path-2-outside-1_981_6213" maskUnits="userSpaceOnUse" x="18.3164" y="18.2933" width="37" height="37" fill="black">
<rect fill="white" x="18.3164" y="18.2933" width="37" height="37"/>
<path d="M54.21 32.4505C54.1321 32.4546 52.3824 32.4292 51.1454 33.59V28.3597C51.1455 27.9614 51.0373 27.5706 50.8322 27.2292C50.6272 26.8877 50.333 26.6086 49.9814 26.4217C49.6297 26.2347 49.2337 26.1471 48.836 26.1681C48.4383 26.1891 48.0538 26.3181 47.7238 26.541C47.7199 26.0438 47.5463 25.5628 47.2316 25.1777C48.5966 23.8373 49.2078 22.5272 49.0478 21.4666C48.9445 20.7906 48.3588 19.232 44.9602 19.2952C39.8907 19.4002 37.7513 24.4632 36.917 27.5516C36.0828 24.4656 33.9434 19.4002 28.878 19.2952C25.5073 19.2525 24.8921 20.7914 24.7912 21.4666C24.6271 22.5518 25.2711 23.8996 26.705 25.272C26.4351 25.6405 26.2876 26.0843 26.2833 26.541C25.9534 26.3182 25.569 26.1894 25.1715 26.1685C24.7739 26.1475 24.3781 26.2352 24.0266 26.4222C23.6751 26.6091 23.3811 26.8882 23.1762 27.2295C22.9713 27.5709 22.8632 27.9615 22.8634 28.3597V33.5916C21.619 32.4292 19.8816 32.4522 19.7897 32.4505C19.6632 32.4531 19.5427 32.5053 19.4541 32.5958C19.3656 32.6863 19.3162 32.8079 19.3164 32.9345V42.8472C19.3158 43.4458 19.45 44.0368 19.709 44.5764C19.968 45.1161 20.3452 45.5904 20.8127 45.9644L24.258 48.7288V53.7327C24.258 53.8611 24.309 53.9842 24.3997 54.075C24.4905 54.1657 24.6136 54.2167 24.742 54.2167C24.8703 54.2167 24.9934 54.1657 25.0842 54.075C25.1749 53.9842 25.2259 53.8611 25.2259 53.7327V48.5008C25.2259 48.4284 25.2096 48.357 25.1782 48.2919C25.1468 48.2267 25.1012 48.1694 25.0447 48.1243L21.418 45.2146C21.0634 44.9305 20.7772 44.5701 20.5808 44.1603C20.3844 43.7505 20.2828 43.3017 20.2836 42.8472V33.4554C20.7987 33.5284 21.6289 33.7368 22.2384 34.3389C22.5291 34.6286 22.7469 34.9831 22.8741 35.3733C22.8781 35.389 22.8833 35.4044 22.8897 35.4193C23.0064 35.8023 23.0634 36.201 23.0587 36.6013V40.9137C23.0586 40.9772 23.071 41.0401 23.0952 41.0989C23.1194 41.1576 23.155 41.2109 23.1999 41.2559C23.2448 41.3008 23.2981 41.3365 23.3568 41.3608C23.4154 41.3852 23.4783 41.3977 23.5418 41.3977H23.5509C23.5435 41.3977 26.4334 41.3805 27.6705 43.5034C27.8851 43.9506 28.1685 44.3614 28.5105 44.7208C30.6802 47.0291 35.0065 47.5386 36.4962 47.6485V54.2266C36.5014 54.3514 36.5546 54.4694 36.6447 54.5558C36.7348 54.6423 36.8549 54.6906 36.9798 54.6906C37.1047 54.6906 37.2248 54.6423 37.3149 54.5558C37.405 54.4694 37.4582 54.3514 37.4634 54.2266V47.6509C38.9129 47.5484 43.2991 47.0505 45.4893 44.7208C45.8281 44.3642 46.1097 43.9575 46.3244 43.5149C47.5491 41.3911 50.4341 41.3698 50.4514 41.3977H50.4579C50.5862 41.3971 50.709 41.3459 50.7997 41.2553C50.8905 41.1647 50.9419 41.0419 50.9427 40.9137V36.6013C50.9368 36.2029 50.9921 35.8058 51.1068 35.4242C51.1134 35.407 51.1191 35.3889 51.124 35.3717C51.253 34.9814 51.4728 34.6274 51.7655 34.3389C52.3758 33.7368 53.2043 33.5284 53.7195 33.4554V42.8472C53.7202 43.3016 53.6187 43.7503 53.4225 44.1601C53.2262 44.5699 52.9403 44.9303 52.5858 45.2146L48.9617 48.1243C48.9052 48.1694 48.8595 48.2267 48.8281 48.2919C48.7968 48.357 48.7804 48.4284 48.7804 48.5008V53.7393C48.7804 53.8677 48.8314 53.9908 48.9221 54.0815C49.0129 54.1723 49.136 54.2233 49.2644 54.2233C49.3927 54.2233 49.5158 54.1723 49.6066 54.0815C49.6974 53.9908 49.7484 53.8677 49.7484 53.7393V48.7305L53.1937 45.966C53.6606 45.5917 54.0373 45.1172 54.296 44.5777C54.5547 44.0381 54.6888 43.4472 54.6883 42.8488V32.9345C54.6885 32.8071 54.6384 32.6847 54.5488 32.5941C54.4592 32.5034 54.3375 32.4518 54.21 32.4505ZM44.4934 22.8373C44.4431 22.7196 44.3484 22.6264 44.2299 22.578C44.1113 22.5296 43.9785 22.53 43.8602 22.5789C43.7084 22.6421 40.743 23.9185 38.0302 27.2334C38.9096 24.3877 40.8783 20.3468 44.9774 20.2607H45.1759C46.8986 20.2607 47.9576 20.7529 48.0872 21.6126C48.198 22.3509 47.6828 23.4173 46.4655 24.5797C46.4023 24.6404 46.3359 24.7019 46.2686 24.7634L46.2612 24.77C46.1931 24.8323 46.1226 24.8938 46.0504 24.9562C45.9831 25.0144 45.9134 25.0727 45.8429 25.1309L45.8133 25.1555C45.7395 25.2162 45.6648 25.2769 45.5877 25.3376C45.2202 25.6255 44.8109 25.9168 44.3573 26.2063C44.1642 26.3305 43.9641 26.4541 43.7568 26.5771L43.7461 26.5829C43.5383 26.7059 43.3223 26.8287 43.0981 26.9512C42.4314 27.3154 41.6932 27.6709 40.8832 28.0176C40.4282 28.2117 39.9495 28.4031 39.4469 28.5918C38.9263 28.7854 38.3794 28.9727 37.8063 29.1537C40.5797 25.0522 44.1948 23.4862 44.2334 23.4698C44.3515 23.4201 44.4452 23.3257 44.4939 23.2072C44.5427 23.0887 44.5425 22.9557 44.4934 22.8373ZM25.7403 21.6118C25.8699 20.7488 26.9281 20.2599 28.6507 20.2599H28.8501C33.0443 20.3468 35.009 24.5764 35.858 27.4294L35.8949 27.5566C33.1157 24.0022 29.9608 22.6445 29.8049 22.5789C29.6875 22.5332 29.5568 22.5351 29.4407 22.5843C29.3247 22.6334 29.2323 22.7259 29.1834 22.842C29.1345 22.9582 29.1328 23.0888 29.1787 23.2062C29.2246 23.3236 29.3145 23.4185 29.4292 23.4706C29.4694 23.487 33.0386 25.0226 35.8129 29.0881C35.3595 28.941 34.922 28.7906 34.5004 28.6369C34.3831 28.5943 34.2666 28.5508 34.1518 28.5073L34.1304 28.4991L33.8089 28.3752L33.7777 28.3629C33.6735 28.3219 33.5702 28.2809 33.4676 28.2391L33.4405 28.2284L33.1124 28.0947C32.2855 27.7469 31.532 27.3889 30.8516 27.0209C30.7516 26.9676 30.6539 26.9143 30.558 26.8568L30.5235 26.838C30.2249 26.6706 29.9408 26.5027 29.6712 26.3343C29.1835 26.0315 28.7122 25.7029 28.2595 25.3499C28.1069 25.2313 27.9614 25.1126 27.823 24.9939L27.8107 24.9832C27.6729 24.8651 27.542 24.7475 27.4178 24.6305C26.1619 23.4493 25.6271 22.3591 25.7403 21.6118ZM27.2382 41.3649C27.2382 41.4469 27.2382 41.524 27.2382 41.6028C26.0897 40.7496 24.737 40.515 24.0258 40.4543V36.6013C24.0309 36.1129 23.9626 35.6265 23.8232 35.1584V28.3597C23.819 28.196 23.8476 28.0331 23.9073 27.8807C23.967 27.7282 24.0566 27.5893 24.1708 27.472C24.2851 27.3548 24.4217 27.2616 24.5725 27.198C24.7234 27.1344 24.8854 27.1016 25.0492 27.1016C25.2129 27.1016 25.3749 27.1344 25.5258 27.198C25.6766 27.2616 25.8132 27.3548 25.9275 27.472C26.0417 27.5893 26.1314 27.7282 26.1911 27.8807C26.2508 28.0331 26.2794 28.196 26.2751 28.3597V34.3561C26.2751 34.4845 26.3261 34.6076 26.4169 34.6984C26.5076 34.7891 26.6307 34.8401 26.7591 34.8401C26.8875 34.8401 27.0106 34.7891 27.1013 34.6984C27.1921 34.6076 27.2431 34.4845 27.2431 34.3561V26.5632C27.2429 26.3348 27.3072 26.1111 27.4285 25.9176C28.1427 26.4954 28.9011 27.0166 29.6966 27.4762V34.5612C29.694 34.6264 29.7045 34.6914 29.7276 34.7525C29.7507 34.8135 29.7858 34.8692 29.831 34.9162C29.8762 34.9633 29.9304 35.0008 29.9904 35.0263C30.0504 35.0519 30.115 35.0651 30.1802 35.0651C30.2455 35.0651 30.31 35.0519 30.37 35.0263C30.43 35.0008 30.4842 34.9633 30.5294 34.9162C30.5746 34.8692 30.6098 34.8135 30.6329 34.7525C30.656 34.6914 30.6665 34.6264 30.6638 34.5612V28.0094C31.4119 28.3998 32.2295 28.7761 33.1165 29.1381V34.5604C33.1138 34.6256 33.1244 34.6906 33.1475 34.7516C33.1705 34.8126 33.2057 34.8684 33.2509 34.9154C33.2961 34.9625 33.3503 34.9999 33.4103 35.0255C33.4703 35.0511 33.5349 35.0643 33.6001 35.0643C33.6653 35.0643 33.7299 35.0511 33.7899 35.0255C33.8499 34.9999 33.9041 34.9625 33.9493 34.9154C33.9945 34.8684 34.0297 34.8126 34.0527 34.7516C34.0758 34.6906 34.0864 34.6256 34.0837 34.5604V29.5565C34.0837 29.5425 34.0837 29.5286 34.0837 29.5147C34.8225 29.7881 35.6048 30.0476 36.4306 30.2931C36.4509 30.31 36.4723 30.3256 36.4946 30.3399V35.717C35.0254 35.7318 30.9763 35.9631 28.7475 38.0377C28.282 38.4598 27.9079 38.9727 27.6483 39.545C27.3887 40.1172 27.2491 40.7366 27.2382 41.3649ZM45.4721 43.0523C45.463 43.0687 45.4524 43.0851 45.4434 43.1015C45.4279 43.1294 45.4153 43.1588 45.4056 43.1893C45.2406 43.505 45.0324 43.7963 44.7871 44.0547C42.5682 46.4164 37.4642 46.6871 36.9999 46.7068C36.5323 46.6871 31.4365 46.4205 29.2143 44.0563C28.9691 43.7994 28.7609 43.5095 28.5958 43.195C28.5857 43.162 28.5722 43.1301 28.5556 43.0998C28.5433 43.0785 28.5302 43.058 28.5187 43.0367C28.2877 42.5218 28.1812 41.9598 28.2078 41.3961C28.243 40.3296 28.6352 39.4626 29.4071 38.7448C31.3635 36.9221 35.1337 36.694 36.4962 36.6801V38.7448C36.5014 38.8696 36.5546 38.9876 36.6447 39.0741C36.7348 39.1606 36.8549 39.2089 36.9798 39.2089C37.1047 39.2089 37.2248 39.1606 37.3149 39.0741C37.405 38.9876 37.4582 38.8696 37.4634 38.7448V36.6825C38.7882 36.6957 42.6149 36.9057 44.5927 38.7448C45.3646 39.4626 45.7567 40.3305 45.792 41.3977C45.8185 41.9666 45.7097 42.5336 45.4745 43.0523H45.4721ZM50.1757 35.1584C50.0363 35.6265 49.968 36.1129 49.9731 36.6013V40.4527C49.2611 40.515 47.91 40.7488 46.7591 41.6011C46.7591 41.5191 46.7591 41.4428 46.7591 41.3624C46.7488 40.7341 46.6097 40.1145 46.3504 39.5421C46.091 38.9696 45.717 38.4565 45.2514 38.0344C43.0234 35.9623 38.9744 35.7285 37.5052 35.7138V30.2595C38.3523 30.0057 39.1543 29.7364 39.9112 29.4515C39.9112 29.4859 39.9161 29.5204 39.9161 29.5557V34.5596C39.9134 34.6248 39.9239 34.6898 39.947 34.7508C39.9701 34.8118 40.0053 34.8675 40.0505 34.9146C40.0956 34.9617 40.1499 34.9991 40.2099 35.0247C40.2699 35.0503 40.3344 35.0635 40.3997 35.0635C40.4649 35.0635 40.5295 35.0503 40.5895 35.0247C40.6495 34.9991 40.7037 34.9617 40.7489 34.9146C40.794 34.8675 40.8292 34.8118 40.8523 34.7508C40.8754 34.6898 40.8859 34.6248 40.8832 34.5596V29.0684C41.7725 28.7017 42.5911 28.3162 43.3368 27.92V34.5645C43.3368 34.6929 43.3878 34.816 43.4786 34.9067C43.5693 34.9975 43.6924 35.0485 43.8208 35.0485C43.9491 35.0485 44.0722 34.9975 44.163 34.9067C44.2538 34.816 44.3048 34.6929 44.3048 34.5645V27.3736C45.0791 26.9167 45.8164 26.3997 46.5098 25.8273C46.6702 26.04 46.7566 26.2993 46.7559 26.5656V34.3586C46.7559 34.487 46.8069 34.6101 46.8976 34.7008C46.9884 34.7916 47.1115 34.8426 47.2398 34.8426C47.3682 34.8426 47.4913 34.7916 47.5821 34.7008C47.6728 34.6101 47.7238 34.487 47.7238 34.3586V28.3621C47.7107 28.193 47.7327 28.023 47.7884 27.8628C47.8441 27.7026 47.9323 27.5556 48.0475 27.4311C48.1627 27.3067 48.3024 27.2073 48.4578 27.1394C48.6132 27.0715 48.781 27.0364 48.9506 27.0364C49.1202 27.0364 49.288 27.0715 49.4434 27.1394C49.5988 27.2073 49.7385 27.3067 49.8537 27.4311C49.9689 27.5556 50.0571 27.7026 50.1128 27.8628C50.1685 28.023 50.1905 28.193 50.1774 28.3621L50.1757 35.1584Z"/>
</mask>
<path d="M54.21 32.4505C54.1321 32.4546 52.3824 32.4292 51.1454 33.59V28.3597C51.1455 27.9614 51.0373 27.5706 50.8322 27.2292C50.6272 26.8877 50.333 26.6086 49.9814 26.4217C49.6297 26.2347 49.2337 26.1471 48.836 26.1681C48.4383 26.1891 48.0538 26.3181 47.7238 26.541C47.7199 26.0438 47.5463 25.5628 47.2316 25.1777C48.5966 23.8373 49.2078 22.5272 49.0478 21.4666C48.9445 20.7906 48.3588 19.232 44.9602 19.2952C39.8907 19.4002 37.7513 24.4632 36.917 27.5516C36.0828 24.4656 33.9434 19.4002 28.878 19.2952C25.5073 19.2525 24.8921 20.7914 24.7912 21.4666C24.6271 22.5518 25.2711 23.8996 26.705 25.272C26.4351 25.6405 26.2876 26.0843 26.2833 26.541C25.9534 26.3182 25.569 26.1894 25.1715 26.1685C24.7739 26.1475 24.3781 26.2352 24.0266 26.4222C23.6751 26.6091 23.3811 26.8882 23.1762 27.2295C22.9713 27.5709 22.8632 27.9615 22.8634 28.3597V33.5916C21.619 32.4292 19.8816 32.4522 19.7897 32.4505C19.6632 32.4531 19.5427 32.5053 19.4541 32.5958C19.3656 32.6863 19.3162 32.8079 19.3164 32.9345V42.8472C19.3158 43.4458 19.45 44.0368 19.709 44.5764C19.968 45.1161 20.3452 45.5904 20.8127 45.9644L24.258 48.7288V53.7327C24.258 53.8611 24.309 53.9842 24.3997 54.075C24.4905 54.1657 24.6136 54.2167 24.742 54.2167C24.8703 54.2167 24.9934 54.1657 25.0842 54.075C25.1749 53.9842 25.2259 53.8611 25.2259 53.7327V48.5008C25.2259 48.4284 25.2096 48.357 25.1782 48.2919C25.1468 48.2267 25.1012 48.1694 25.0447 48.1243L21.418 45.2146C21.0634 44.9305 20.7772 44.5701 20.5808 44.1603C20.3844 43.7505 20.2828 43.3017 20.2836 42.8472V33.4554C20.7987 33.5284 21.6289 33.7368 22.2384 34.3389C22.5291 34.6286 22.7469 34.9831 22.8741 35.3733C22.8781 35.389 22.8833 35.4044 22.8897 35.4193C23.0064 35.8023 23.0634 36.201 23.0587 36.6013V40.9137C23.0586 40.9772 23.071 41.0401 23.0952 41.0989C23.1194 41.1576 23.155 41.2109 23.1999 41.2559C23.2448 41.3008 23.2981 41.3365 23.3568 41.3608C23.4154 41.3852 23.4783 41.3977 23.5418 41.3977H23.5509C23.5435 41.3977 26.4334 41.3805 27.6705 43.5034C27.8851 43.9506 28.1685 44.3614 28.5105 44.7208C30.6802 47.0291 35.0065 47.5386 36.4962 47.6485V54.2266C36.5014 54.3514 36.5546 54.4694 36.6447 54.5558C36.7348 54.6423 36.8549 54.6906 36.9798 54.6906C37.1047 54.6906 37.2248 54.6423 37.3149 54.5558C37.405 54.4694 37.4582 54.3514 37.4634 54.2266V47.6509C38.9129 47.5484 43.2991 47.0505 45.4893 44.7208C45.8281 44.3642 46.1097 43.9575 46.3244 43.5149C47.5491 41.3911 50.4341 41.3698 50.4514 41.3977H50.4579C50.5862 41.3971 50.709 41.3459 50.7997 41.2553C50.8905 41.1647 50.9419 41.0419 50.9427 40.9137V36.6013C50.9368 36.2029 50.9921 35.8058 51.1068 35.4242C51.1134 35.407 51.1191 35.3889 51.124 35.3717C51.253 34.9814 51.4728 34.6274 51.7655 34.3389C52.3758 33.7368 53.2043 33.5284 53.7195 33.4554V42.8472C53.7202 43.3016 53.6187 43.7503 53.4225 44.1601C53.2262 44.5699 52.9403 44.9303 52.5858 45.2146L48.9617 48.1243C48.9052 48.1694 48.8595 48.2267 48.8281 48.2919C48.7968 48.357 48.7804 48.4284 48.7804 48.5008V53.7393C48.7804 53.8677 48.8314 53.9908 48.9221 54.0815C49.0129 54.1723 49.136 54.2233 49.2644 54.2233C49.3927 54.2233 49.5158 54.1723 49.6066 54.0815C49.6974 53.9908 49.7484 53.8677 49.7484 53.7393V48.7305L53.1937 45.966C53.6606 45.5917 54.0373 45.1172 54.296 44.5777C54.5547 44.0381 54.6888 43.4472 54.6883 42.8488V32.9345C54.6885 32.8071 54.6384 32.6847 54.5488 32.5941C54.4592 32.5034 54.3375 32.4518 54.21 32.4505ZM44.4934 22.8373C44.4431 22.7196 44.3484 22.6264 44.2299 22.578C44.1113 22.5296 43.9785 22.53 43.8602 22.5789C43.7084 22.6421 40.743 23.9185 38.0302 27.2334C38.9096 24.3877 40.8783 20.3468 44.9774 20.2607H45.1759C46.8986 20.2607 47.9576 20.7529 48.0872 21.6126C48.198 22.3509 47.6828 23.4173 46.4655 24.5797C46.4023 24.6404 46.3359 24.7019 46.2686 24.7634L46.2612 24.77C46.1931 24.8323 46.1226 24.8938 46.0504 24.9562C45.9831 25.0144 45.9134 25.0727 45.8429 25.1309L45.8133 25.1555C45.7395 25.2162 45.6648 25.2769 45.5877 25.3376C45.2202 25.6255 44.8109 25.9168 44.3573 26.2063C44.1642 26.3305 43.9641 26.4541 43.7568 26.5771L43.7461 26.5829C43.5383 26.7059 43.3223 26.8287 43.0981 26.9512C42.4314 27.3154 41.6932 27.6709 40.8832 28.0176C40.4282 28.2117 39.9495 28.4031 39.4469 28.5918C38.9263 28.7854 38.3794 28.9727 37.8063 29.1537C40.5797 25.0522 44.1948 23.4862 44.2334 23.4698C44.3515 23.4201 44.4452 23.3257 44.4939 23.2072C44.5427 23.0887 44.5425 22.9557 44.4934 22.8373ZM25.7403 21.6118C25.8699 20.7488 26.9281 20.2599 28.6507 20.2599H28.8501C33.0443 20.3468 35.009 24.5764 35.858 27.4294L35.8949 27.5566C33.1157 24.0022 29.9608 22.6445 29.8049 22.5789C29.6875 22.5332 29.5568 22.5351 29.4407 22.5843C29.3247 22.6334 29.2323 22.7259 29.1834 22.842C29.1345 22.9582 29.1328 23.0888 29.1787 23.2062C29.2246 23.3236 29.3145 23.4185 29.4292 23.4706C29.4694 23.487 33.0386 25.0226 35.8129 29.0881C35.3595 28.941 34.922 28.7906 34.5004 28.6369C34.3831 28.5943 34.2666 28.5508 34.1518 28.5073L34.1304 28.4991L33.8089 28.3752L33.7777 28.3629C33.6735 28.3219 33.5702 28.2809 33.4676 28.2391L33.4405 28.2284L33.1124 28.0947C32.2855 27.7469 31.532 27.3889 30.8516 27.0209C30.7516 26.9676 30.6539 26.9143 30.558 26.8568L30.5235 26.838C30.2249 26.6706 29.9408 26.5027 29.6712 26.3343C29.1835 26.0315 28.7122 25.7029 28.2595 25.3499C28.1069 25.2313 27.9614 25.1126 27.823 24.9939L27.8107 24.9832C27.6729 24.8651 27.542 24.7475 27.4178 24.6305C26.1619 23.4493 25.6271 22.3591 25.7403 21.6118ZM27.2382 41.3649C27.2382 41.4469 27.2382 41.524 27.2382 41.6028C26.0897 40.7496 24.737 40.515 24.0258 40.4543V36.6013C24.0309 36.1129 23.9626 35.6265 23.8232 35.1584V28.3597C23.819 28.196 23.8476 28.0331 23.9073 27.8807C23.967 27.7282 24.0566 27.5893 24.1708 27.472C24.2851 27.3548 24.4217 27.2616 24.5725 27.198C24.7234 27.1344 24.8854 27.1016 25.0492 27.1016C25.2129 27.1016 25.3749 27.1344 25.5258 27.198C25.6766 27.2616 25.8132 27.3548 25.9275 27.472C26.0417 27.5893 26.1314 27.7282 26.1911 27.8807C26.2508 28.0331 26.2794 28.196 26.2751 28.3597V34.3561C26.2751 34.4845 26.3261 34.6076 26.4169 34.6984C26.5076 34.7891 26.6307 34.8401 26.7591 34.8401C26.8875 34.8401 27.0106 34.7891 27.1013 34.6984C27.1921 34.6076 27.2431 34.4845 27.2431 34.3561V26.5632C27.2429 26.3348 27.3072 26.1111 27.4285 25.9176C28.1427 26.4954 28.9011 27.0166 29.6966 27.4762V34.5612C29.694 34.6264 29.7045 34.6914 29.7276 34.7525C29.7507 34.8135 29.7858 34.8692 29.831 34.9162C29.8762 34.9633 29.9304 35.0008 29.9904 35.0263C30.0504 35.0519 30.115 35.0651 30.1802 35.0651C30.2455 35.0651 30.31 35.0519 30.37 35.0263C30.43 35.0008 30.4842 34.9633 30.5294 34.9162C30.5746 34.8692 30.6098 34.8135 30.6329 34.7525C30.656 34.6914 30.6665 34.6264 30.6638 34.5612V28.0094C31.4119 28.3998 32.2295 28.7761 33.1165 29.1381V34.5604C33.1138 34.6256 33.1244 34.6906 33.1475 34.7516C33.1705 34.8126 33.2057 34.8684 33.2509 34.9154C33.2961 34.9625 33.3503 34.9999 33.4103 35.0255C33.4703 35.0511 33.5349 35.0643 33.6001 35.0643C33.6653 35.0643 33.7299 35.0511 33.7899 35.0255C33.8499 34.9999 33.9041 34.9625 33.9493 34.9154C33.9945 34.8684 34.0297 34.8126 34.0527 34.7516C34.0758 34.6906 34.0864 34.6256 34.0837 34.5604V29.5565C34.0837 29.5425 34.0837 29.5286 34.0837 29.5147C34.8225 29.7881 35.6048 30.0476 36.4306 30.2931C36.4509 30.31 36.4723 30.3256 36.4946 30.3399V35.717C35.0254 35.7318 30.9763 35.9631 28.7475 38.0377C28.282 38.4598 27.9079 38.9727 27.6483 39.545C27.3887 40.1172 27.2491 40.7366 27.2382 41.3649ZM45.4721 43.0523C45.463 43.0687 45.4524 43.0851 45.4434 43.1015C45.4279 43.1294 45.4153 43.1588 45.4056 43.1893C45.2406 43.505 45.0324 43.7963 44.7871 44.0547C42.5682 46.4164 37.4642 46.6871 36.9999 46.7068C36.5323 46.6871 31.4365 46.4205 29.2143 44.0563C28.9691 43.7994 28.7609 43.5095 28.5958 43.195C28.5857 43.162 28.5722 43.1301 28.5556 43.0998C28.5433 43.0785 28.5302 43.058 28.5187 43.0367C28.2877 42.5218 28.1812 41.9598 28.2078 41.3961C28.243 40.3296 28.6352 39.4626 29.4071 38.7448C31.3635 36.9221 35.1337 36.694 36.4962 36.6801V38.7448C36.5014 38.8696 36.5546 38.9876 36.6447 39.0741C36.7348 39.1606 36.8549 39.2089 36.9798 39.2089C37.1047 39.2089 37.2248 39.1606 37.3149 39.0741C37.405 38.9876 37.4582 38.8696 37.4634 38.7448V36.6825C38.7882 36.6957 42.6149 36.9057 44.5927 38.7448C45.3646 39.4626 45.7567 40.3305 45.792 41.3977C45.8185 41.9666 45.7097 42.5336 45.4745 43.0523H45.4721ZM50.1757 35.1584C50.0363 35.6265 49.968 36.1129 49.9731 36.6013V40.4527C49.2611 40.515 47.91 40.7488 46.7591 41.6011C46.7591 41.5191 46.7591 41.4428 46.7591 41.3624C46.7488 40.7341 46.6097 40.1145 46.3504 39.5421C46.091 38.9696 45.717 38.4565 45.2514 38.0344C43.0234 35.9623 38.9744 35.7285 37.5052 35.7138V30.2595C38.3523 30.0057 39.1543 29.7364 39.9112 29.4515C39.9112 29.4859 39.9161 29.5204 39.9161 29.5557V34.5596C39.9134 34.6248 39.9239 34.6898 39.947 34.7508C39.9701 34.8118 40.0053 34.8675 40.0505 34.9146C40.0956 34.9617 40.1499 34.9991 40.2099 35.0247C40.2699 35.0503 40.3344 35.0635 40.3997 35.0635C40.4649 35.0635 40.5295 35.0503 40.5895 35.0247C40.6495 34.9991 40.7037 34.9617 40.7489 34.9146C40.794 34.8675 40.8292 34.8118 40.8523 34.7508C40.8754 34.6898 40.8859 34.6248 40.8832 34.5596V29.0684C41.7725 28.7017 42.5911 28.3162 43.3368 27.92V34.5645C43.3368 34.6929 43.3878 34.816 43.4786 34.9067C43.5693 34.9975 43.6924 35.0485 43.8208 35.0485C43.9491 35.0485 44.0722 34.9975 44.163 34.9067C44.2538 34.816 44.3048 34.6929 44.3048 34.5645V27.3736C45.0791 26.9167 45.8164 26.3997 46.5098 25.8273C46.6702 26.04 46.7566 26.2993 46.7559 26.5656V34.3586C46.7559 34.487 46.8069 34.6101 46.8976 34.7008C46.9884 34.7916 47.1115 34.8426 47.2398 34.8426C47.3682 34.8426 47.4913 34.7916 47.5821 34.7008C47.6728 34.6101 47.7238 34.487 47.7238 34.3586V28.3621C47.7107 28.193 47.7327 28.023 47.7884 27.8628C47.8441 27.7026 47.9323 27.5556 48.0475 27.4311C48.1627 27.3067 48.3024 27.2073 48.4578 27.1394C48.6132 27.0715 48.781 27.0364 48.9506 27.0364C49.1202 27.0364 49.288 27.0715 49.4434 27.1394C49.5988 27.2073 49.7385 27.3067 49.8537 27.4311C49.9689 27.5556 50.0571 27.7026 50.1128 27.8628C50.1685 28.023 50.1905 28.193 50.1774 28.3621L50.1757 35.1584Z" fill="black"/>
<path d="M54.21 32.4505C54.1321 32.4546 52.3824 32.4292 51.1454 33.59V28.3597C51.1455 27.9614 51.0373 27.5706 50.8322 27.2292C50.6272 26.8877 50.333 26.6086 49.9814 26.4217C49.6297 26.2347 49.2337 26.1471 48.836 26.1681C48.4383 26.1891 48.0538 26.3181 47.7238 26.541C47.7199 26.0438 47.5463 25.5628 47.2316 25.1777C48.5966 23.8373 49.2078 22.5272 49.0478 21.4666C48.9445 20.7906 48.3588 19.232 44.9602 19.2952C39.8907 19.4002 37.7513 24.4632 36.917 27.5516C36.0828 24.4656 33.9434 19.4002 28.878 19.2952C25.5073 19.2525 24.8921 20.7914 24.7912 21.4666C24.6271 22.5518 25.2711 23.8996 26.705 25.272C26.4351 25.6405 26.2876 26.0843 26.2833 26.541C25.9534 26.3182 25.569 26.1894 25.1715 26.1685C24.7739 26.1475 24.3781 26.2352 24.0266 26.4222C23.6751 26.6091 23.3811 26.8882 23.1762 27.2295C22.9713 27.5709 22.8632 27.9615 22.8634 28.3597V33.5916C21.619 32.4292 19.8816 32.4522 19.7897 32.4505C19.6632 32.4531 19.5427 32.5053 19.4541 32.5958C19.3656 32.6863 19.3162 32.8079 19.3164 32.9345V42.8472C19.3158 43.4458 19.45 44.0368 19.709 44.5764C19.968 45.1161 20.3452 45.5904 20.8127 45.9644L24.258 48.7288V53.7327C24.258 53.8611 24.309 53.9842 24.3997 54.075C24.4905 54.1657 24.6136 54.2167 24.742 54.2167C24.8703 54.2167 24.9934 54.1657 25.0842 54.075C25.1749 53.9842 25.2259 53.8611 25.2259 53.7327V48.5008C25.2259 48.4284 25.2096 48.357 25.1782 48.2919C25.1468 48.2267 25.1012 48.1694 25.0447 48.1243L21.418 45.2146C21.0634 44.9305 20.7772 44.5701 20.5808 44.1603C20.3844 43.7505 20.2828 43.3017 20.2836 42.8472V33.4554C20.7987 33.5284 21.6289 33.7368 22.2384 34.3389C22.5291 34.6286 22.7469 34.9831 22.8741 35.3733C22.8781 35.389 22.8833 35.4044 22.8897 35.4193C23.0064 35.8023 23.0634 36.201 23.0587 36.6013V40.9137C23.0586 40.9772 23.071 41.0401 23.0952 41.0989C23.1194 41.1576 23.155 41.2109 23.1999 41.2559C23.2448 41.3008 23.2981 41.3365 23.3568 41.3608C23.4154 41.3852 23.4783 41.3977 23.5418 41.3977H23.5509C23.5435 41.3977 26.4334 41.3805 27.6705 43.5034C27.8851 43.9506 28.1685 44.3614 28.5105 44.7208C30.6802 47.0291 35.0065 47.5386 36.4962 47.6485V54.2266C36.5014 54.3514 36.5546 54.4694 36.6447 54.5558C36.7348 54.6423 36.8549 54.6906 36.9798 54.6906C37.1047 54.6906 37.2248 54.6423 37.3149 54.5558C37.405 54.4694 37.4582 54.3514 37.4634 54.2266V47.6509C38.9129 47.5484 43.2991 47.0505 45.4893 44.7208C45.8281 44.3642 46.1097 43.9575 46.3244 43.5149C47.5491 41.3911 50.4341 41.3698 50.4514 41.3977H50.4579C50.5862 41.3971 50.709 41.3459 50.7997 41.2553C50.8905 41.1647 50.9419 41.0419 50.9427 40.9137V36.6013C50.9368 36.2029 50.9921 35.8058 51.1068 35.4242C51.1134 35.407 51.1191 35.3889 51.124 35.3717C51.253 34.9814 51.4728 34.6274 51.7655 34.3389C52.3758 33.7368 53.2043 33.5284 53.7195 33.4554V42.8472C53.7202 43.3016 53.6187 43.7503 53.4225 44.1601C53.2262 44.5699 52.9403 44.9303 52.5858 45.2146L48.9617 48.1243C48.9052 48.1694 48.8595 48.2267 48.8281 48.2919C48.7968 48.357 48.7804 48.4284 48.7804 48.5008V53.7393C48.7804 53.8677 48.8314 53.9908 48.9221 54.0815C49.0129 54.1723 49.136 54.2233 49.2644 54.2233C49.3927 54.2233 49.5158 54.1723 49.6066 54.0815C49.6974 53.9908 49.7484 53.8677 49.7484 53.7393V48.7305L53.1937 45.966C53.6606 45.5917 54.0373 45.1172 54.296 44.5777C54.5547 44.0381 54.6888 43.4472 54.6883 42.8488V32.9345C54.6885 32.8071 54.6384 32.6847 54.5488 32.5941C54.4592 32.5034 54.3375 32.4518 54.21 32.4505ZM44.4934 22.8373C44.4431 22.7196 44.3484 22.6264 44.2299 22.578C44.1113 22.5296 43.9785 22.53 43.8602 22.5789C43.7084 22.6421 40.743 23.9185 38.0302 27.2334C38.9096 24.3877 40.8783 20.3468 44.9774 20.2607H45.1759C46.8986 20.2607 47.9576 20.7529 48.0872 21.6126C48.198 22.3509 47.6828 23.4173 46.4655 24.5797C46.4023 24.6404 46.3359 24.7019 46.2686 24.7634L46.2612 24.77C46.1931 24.8323 46.1226 24.8938 46.0504 24.9562C45.9831 25.0144 45.9134 25.0727 45.8429 25.1309L45.8133 25.1555C45.7395 25.2162 45.6648 25.2769 45.5877 25.3376C45.2202 25.6255 44.8109 25.9168 44.3573 26.2063C44.1642 26.3305 43.9641 26.4541 43.7568 26.5771L43.7461 26.5829C43.5383 26.7059 43.3223 26.8287 43.0981 26.9512C42.4314 27.3154 41.6932 27.6709 40.8832 28.0176C40.4282 28.2117 39.9495 28.4031 39.4469 28.5918C38.9263 28.7854 38.3794 28.9727 37.8063 29.1537C40.5797 25.0522 44.1948 23.4862 44.2334 23.4698C44.3515 23.4201 44.4452 23.3257 44.4939 23.2072C44.5427 23.0887 44.5425 22.9557 44.4934 22.8373ZM25.7403 21.6118C25.8699 20.7488 26.9281 20.2599 28.6507 20.2599H28.8501C33.0443 20.3468 35.009 24.5764 35.858 27.4294L35.8949 27.5566C33.1157 24.0022 29.9608 22.6445 29.8049 22.5789C29.6875 22.5332 29.5568 22.5351 29.4407 22.5843C29.3247 22.6334 29.2323 22.7259 29.1834 22.842C29.1345 22.9582 29.1328 23.0888 29.1787 23.2062C29.2246 23.3236 29.3145 23.4185 29.4292 23.4706C29.4694 23.487 33.0386 25.0226 35.8129 29.0881C35.3595 28.941 34.922 28.7906 34.5004 28.6369C34.3831 28.5943 34.2666 28.5508 34.1518 28.5073L34.1304 28.4991L33.8089 28.3752L33.7777 28.3629C33.6735 28.3219 33.5702 28.2809 33.4676 28.2391L33.4405 28.2284L33.1124 28.0947C32.2855 27.7469 31.532 27.3889 30.8516 27.0209C30.7516 26.9676 30.6539 26.9143 30.558 26.8568L30.5235 26.838C30.2249 26.6706 29.9408 26.5027 29.6712 26.3343C29.1835 26.0315 28.7122 25.7029 28.2595 25.3499C28.1069 25.2313 27.9614 25.1126 27.823 24.9939L27.8107 24.9832C27.6729 24.8651 27.542 24.7475 27.4178 24.6305C26.1619 23.4493 25.6271 22.3591 25.7403 21.6118ZM27.2382 41.3649C27.2382 41.4469 27.2382 41.524 27.2382 41.6028C26.0897 40.7496 24.737 40.515 24.0258 40.4543V36.6013C24.0309 36.1129 23.9626 35.6265 23.8232 35.1584V28.3597C23.819 28.196 23.8476 28.0331 23.9073 27.8807C23.967 27.7282 24.0566 27.5893 24.1708 27.472C24.2851 27.3548 24.4217 27.2616 24.5725 27.198C24.7234 27.1344 24.8854 27.1016 25.0492 27.1016C25.2129 27.1016 25.3749 27.1344 25.5258 27.198C25.6766 27.2616 25.8132 27.3548 25.9275 27.472C26.0417 27.5893 26.1314 27.7282 26.1911 27.8807C26.2508 28.0331 26.2794 28.196 26.2751 28.3597V34.3561C26.2751 34.4845 26.3261 34.6076 26.4169 34.6984C26.5076 34.7891 26.6307 34.8401 26.7591 34.8401C26.8875 34.8401 27.0106 34.7891 27.1013 34.6984C27.1921 34.6076 27.2431 34.4845 27.2431 34.3561V26.5632C27.2429 26.3348 27.3072 26.1111 27.4285 25.9176C28.1427 26.4954 28.9011 27.0166 29.6966 27.4762V34.5612C29.694 34.6264 29.7045 34.6914 29.7276 34.7525C29.7507 34.8135 29.7858 34.8692 29.831 34.9162C29.8762 34.9633 29.9304 35.0008 29.9904 35.0263C30.0504 35.0519 30.115 35.0651 30.1802 35.0651C30.2455 35.0651 30.31 35.0519 30.37 35.0263C30.43 35.0008 30.4842 34.9633 30.5294 34.9162C30.5746 34.8692 30.6098 34.8135 30.6329 34.7525C30.656 34.6914 30.6665 34.6264 30.6638 34.5612V28.0094C31.4119 28.3998 32.2295 28.7761 33.1165 29.1381V34.5604C33.1138 34.6256 33.1244 34.6906 33.1475 34.7516C33.1705 34.8126 33.2057 34.8684 33.2509 34.9154C33.2961 34.9625 33.3503 34.9999 33.4103 35.0255C33.4703 35.0511 33.5349 35.0643 33.6001 35.0643C33.6653 35.0643 33.7299 35.0511 33.7899 35.0255C33.8499 34.9999 33.9041 34.9625 33.9493 34.9154C33.9945 34.8684 34.0297 34.8126 34.0527 34.7516C34.0758 34.6906 34.0864 34.6256 34.0837 34.5604V29.5565C34.0837 29.5425 34.0837 29.5286 34.0837 29.5147C34.8225 29.7881 35.6048 30.0476 36.4306 30.2931C36.4509 30.31 36.4723 30.3256 36.4946 30.3399V35.717C35.0254 35.7318 30.9763 35.9631 28.7475 38.0377C28.282 38.4598 27.9079 38.9727 27.6483 39.545C27.3887 40.1172 27.2491 40.7366 27.2382 41.3649ZM45.4721 43.0523C45.463 43.0687 45.4524 43.0851 45.4434 43.1015C45.4279 43.1294 45.4153 43.1588 45.4056 43.1893C45.2406 43.505 45.0324 43.7963 44.7871 44.0547C42.5682 46.4164 37.4642 46.6871 36.9999 46.7068C36.5323 46.6871 31.4365 46.4205 29.2143 44.0563C28.9691 43.7994 28.7609 43.5095 28.5958 43.195C28.5857 43.162 28.5722 43.1301 28.5556 43.0998C28.5433 43.0785 28.5302 43.058 28.5187 43.0367C28.2877 42.5218 28.1812 41.9598 28.2078 41.3961C28.243 40.3296 28.6352 39.4626 29.4071 38.7448C31.3635 36.9221 35.1337 36.694 36.4962 36.6801V38.7448C36.5014 38.8696 36.5546 38.9876 36.6447 39.0741C36.7348 39.1606 36.8549 39.2089 36.9798 39.2089C37.1047 39.2089 37.2248 39.1606 37.3149 39.0741C37.405 38.9876 37.4582 38.8696 37.4634 38.7448V36.6825C38.7882 36.6957 42.6149 36.9057 44.5927 38.7448C45.3646 39.4626 45.7567 40.3305 45.792 41.3977C45.8185 41.9666 45.7097 42.5336 45.4745 43.0523H45.4721ZM50.1757 35.1584C50.0363 35.6265 49.968 36.1129 49.9731 36.6013V40.4527C49.2611 40.515 47.91 40.7488 46.7591 41.6011C46.7591 41.5191 46.7591 41.4428 46.7591 41.3624C46.7488 40.7341 46.6097 40.1145 46.3504 39.5421C46.091 38.9696 45.717 38.4565 45.2514 38.0344C43.0234 35.9623 38.9744 35.7285 37.5052 35.7138V30.2595C38.3523 30.0057 39.1543 29.7364 39.9112 29.4515C39.9112 29.4859 39.9161 29.5204 39.9161 29.5557V34.5596C39.9134 34.6248 39.9239 34.6898 39.947 34.7508C39.9701 34.8118 40.0053 34.8675 40.0505 34.9146C40.0956 34.9617 40.1499 34.9991 40.2099 35.0247C40.2699 35.0503 40.3344 35.0635 40.3997 35.0635C40.4649 35.0635 40.5295 35.0503 40.5895 35.0247C40.6495 34.9991 40.7037 34.9617 40.7489 34.9146C40.794 34.8675 40.8292 34.8118 40.8523 34.7508C40.8754 34.6898 40.8859 34.6248 40.8832 34.5596V29.0684C41.7725 28.7017 42.5911 28.3162 43.3368 27.92V34.5645C43.3368 34.6929 43.3878 34.816 43.4786 34.9067C43.5693 34.9975 43.6924 35.0485 43.8208 35.0485C43.9491 35.0485 44.0722 34.9975 44.163 34.9067C44.2538 34.816 44.3048 34.6929 44.3048 34.5645V27.3736C45.0791 26.9167 45.8164 26.3997 46.5098 25.8273C46.6702 26.04 46.7566 26.2993 46.7559 26.5656V34.3586C46.7559 34.487 46.8069 34.6101 46.8976 34.7008C46.9884 34.7916 47.1115 34.8426 47.2398 34.8426C47.3682 34.8426 47.4913 34.7916 47.5821 34.7008C47.6728 34.6101 47.7238 34.487 47.7238 34.3586V28.3621C47.7107 28.193 47.7327 28.023 47.7884 27.8628C47.8441 27.7026 47.9323 27.5556 48.0475 27.4311C48.1627 27.3067 48.3024 27.2073 48.4578 27.1394C48.6132 27.0715 48.781 27.0364 48.9506 27.0364C49.1202 27.0364 49.288 27.0715 49.4434 27.1394C49.5988 27.2073 49.7385 27.3067 49.8537 27.4311C49.9689 27.5556 50.0571 27.7026 50.1128 27.8628C50.1685 28.023 50.1905 28.193 50.1774 28.3621L50.1757 35.1584Z" stroke="black" mask="url(#path-2-outside-1_981_6213)"/>
<path d="M30.5213 42.4231C30.4308 42.3322 30.3079 42.2811 30.1797 42.2809C30.0514 42.2806 29.9284 42.3313 29.8375 42.4218C29.7467 42.5124 29.6955 42.6352 29.6953 42.7635C29.6951 42.8917 29.7458 43.0147 29.8363 43.1056L30.5705 43.8439C30.6155 43.8889 30.669 43.9246 30.7278 43.9489C30.7866 43.9733 30.8497 43.9858 30.9134 43.9858C30.9768 43.986 31.0396 43.9737 31.0982 43.9495C31.1567 43.9253 31.2099 43.8896 31.2546 43.8447C31.2995 43.7998 31.3351 43.7465 31.3594 43.6879C31.3837 43.6293 31.3962 43.5665 31.3962 43.503C31.3962 43.4396 31.3837 43.3767 31.3594 43.3181C31.3351 43.2595 31.2995 43.2062 31.2546 43.1614L30.5213 42.4231Z" fill="black"/>
<path d="M33.8212 41.807C33.7767 41.76 33.7232 41.7224 33.6639 41.6964C33.6046 41.6703 33.5407 41.6565 33.476 41.6556C33.4112 41.6547 33.3469 41.6667 33.2869 41.6911C33.2269 41.7154 33.1724 41.7515 33.1266 41.7973C33.0808 41.8431 33.0446 41.8976 33.0202 41.9575C32.9957 42.0175 32.9836 42.0818 32.9844 42.1465C32.9852 42.2113 32.999 42.2752 33.025 42.3345C33.0509 42.3939 33.0885 42.4474 33.1355 42.492L33.8737 43.2262C33.9649 43.3165 34.0879 43.3672 34.2162 43.3672C34.3445 43.3672 34.4676 43.3165 34.5587 43.2262C34.649 43.1351 34.6997 43.012 34.6997 42.8837C34.6997 42.7554 34.649 42.6323 34.5587 42.5412L33.8212 41.807Z" fill="black"/>
<path d="M31.5284 39.4298L30.7942 40.1681C30.7034 40.2589 30.6523 40.3821 30.6523 40.5105C30.6523 40.639 30.7034 40.7622 30.7942 40.853C30.885 40.9439 31.0082 40.9949 31.1367 40.9949C31.2651 40.9949 31.3883 40.9439 31.4792 40.853L32.2133 40.1188C32.3003 40.0272 32.3481 39.9052 32.3464 39.7789C32.3448 39.6526 32.294 39.5319 32.2047 39.4425C32.1154 39.3531 31.9948 39.3021 31.8685 39.3004C31.7421 39.2986 31.6201 39.3462 31.5284 39.4331V39.4298Z" fill="black"/>
<path d="M35.7047 43.9398L34.9664 44.674C34.8756 44.7645 34.8245 44.8874 34.8242 45.0156C34.824 45.1438 34.8747 45.2669 34.9652 45.3577C35.0557 45.4486 35.1786 45.4997 35.3068 45.5C35.435 45.5002 35.5581 45.4495 35.6489 45.359L36.3872 44.6248C36.4735 44.5333 36.5208 44.4117 36.5191 44.2859C36.5173 44.1601 36.4666 44.04 36.3778 43.9509C36.2889 43.8618 36.1689 43.8108 36.0431 43.8088C35.9173 43.8067 35.7956 43.8537 35.7039 43.9398H35.7047Z" fill="black"/>
</svg>
