<svg width="74" height="74" viewBox="0 0 74 74" fill="none" xmlns="http://www.w3.org/2000/svg">
<rect width="74" height="74" rx="4" fill="#EFF2F5"/>
<path d="M64.6516 46.3087L64.0206 41.8925C63.8079 40.4031 62.808 39.1308 61.4111 38.5721L59.0312 37.6202V35.3192L59.0805 35.2699C59.4494 36.1128 60.2898 36.6854 61.2415 36.6854C62.5429 36.6854 63.6016 35.6267 63.6016 34.3254C63.6016 33.8756 63.4747 33.4412 63.2387 33.0674C63.5473 32.662 63.7188 32.1628 63.7188 31.6463C63.7188 30.8515 63.3145 30.1222 62.6724 29.6943C62.8446 29.3404 62.934 28.9519 62.934 28.548C62.934 27.098 61.7544 25.9185 60.3044 25.9185C60.0335 25.9185 59.7654 25.9602 59.5097 26.0411C59.0924 25.0307 58.0994 24.3437 56.9673 24.3437C55.9458 24.3437 55.0171 24.9176 54.5444 25.7921C54.1889 25.6344 53.8034 25.5526 53.4062 25.5526C51.8554 25.5526 50.5938 26.8143 50.5938 28.3651C50.5938 28.7898 50.6913 29.2092 50.8741 29.5886C50.135 29.9904 49.6562 30.7682 49.6562 31.6463C49.6562 32.197 49.8501 32.726 50.1972 33.1439C50.0726 33.4435 50.0078 33.7662 50.0078 34.0942C50.0078 35.4584 51.1176 36.5682 52.4817 36.5682C53.2043 36.5682 53.8746 36.2585 54.3414 35.7245V37.6202L51.9615 38.5721C50.8494 39.0169 49.9904 39.9149 49.5784 41.0139C46.9028 36.9048 42.269 34.1875 37 34.1875C31.9525 34.1875 27.4874 36.6805 24.7687 40.5024C24.2565 39.5584 23.4188 38.8538 22.3965 38.513L19.6562 37.5997V35.8183C20.786 35.0606 21.5312 33.7721 21.5312 32.3125V29.6941L23.269 27.9564C23.3683 27.8572 23.4178 27.7186 23.404 27.5788C23.3901 27.439 23.3144 27.3129 23.1975 27.235L19.9633 25.0788C18.3531 24.0053 16.2721 24.0053 14.6617 25.0788L11.4275 27.235C11.3106 27.3129 11.2349 27.439 11.221 27.5788C11.2072 27.7186 11.2567 27.8572 11.356 27.9564L13.0938 29.6941V32.3125C13.0938 33.7721 13.839 35.0606 14.9688 35.8183V37.5997L12.2284 38.513C10.503 39.0883 9.34375 40.6967 9.34375 42.5154V46.375H10.2812V42.5154C10.2812 41.5885 10.6701 40.7336 11.3146 40.1272L14.24 42.0775C14.3193 42.1304 14.4098 42.1562 14.4998 42.1562C14.6208 42.1562 14.7408 42.1096 14.8315 42.0189L17.3125 39.538L19.7935 42.0189C19.9516 42.177 20.1991 42.2015 20.385 42.0775L23.3128 40.1257C23.5845 40.3818 23.813 40.6854 23.9872 41.0276L23.9879 41.0273C24.0498 41.1494 24.1099 41.2888 24.1552 41.4371C22.7875 43.6991 22 46.3513 22 49.1875C22 57.4718 28.7157 64.1875 37 64.1875C45.2843 64.1875 52 57.4718 52 49.1875C52 47.0404 51.5479 44.9992 50.7353 43.1525C52.45 43.4325 53.8577 44.6864 54.327 46.375H55.2905L55.3777 45.939C55.8926 43.3646 57.3052 41.0437 59.3552 39.4036L59.892 38.9741L61.063 39.4425C61.3614 39.5619 61.6355 39.7244 61.881 39.9195C59.4528 41.2246 57.7104 43.5578 57.1653 46.2831L57.1464 46.375H60.9063C60.9063 44.9091 61.8921 43.6294 63.2641 43.2261L63.7234 46.4413L64.6516 46.3087ZM18.7188 37.7306C18.3256 38.0632 17.8333 38.2455 17.3125 38.2455C16.7917 38.2455 16.2994 38.0632 15.9062 37.7306V36.2894C16.3464 36.4454 16.8195 36.5312 17.3125 36.5312C17.8055 36.5312 18.2786 36.4454 18.7188 36.2894V37.7306ZM17.3125 35.5938C15.5032 35.5938 14.0312 34.1218 14.0312 32.3125V29.8707C16.1856 29.388 18.4394 29.388 20.5938 29.8707V32.3125C20.5938 34.1218 19.1218 35.5938 17.3125 35.5938ZM25.75 49.1875C25.75 43.6131 29.8043 38.9857 35.1249 38.0931L35.125 47.3125L27.393 55.0444C26.3506 53.3384 25.75 51.3331 25.75 49.1875ZM30.0378 58.025L35.125 52.9375L35.1261 60.2821C33.2263 59.9636 31.4879 59.1689 30.0378 58.025ZM58.0938 37.7306C57.7006 38.0632 57.2084 38.2455 56.6875 38.2455C56.1656 38.2455 55.6725 38.0624 55.2789 37.7285V36.1412C55.6998 36.3954 56.1832 36.5312 56.6875 36.5312C57.1909 36.5312 57.6734 36.396 58.0938 36.1427V37.7306ZM54.3438 31.5271C54.3438 30.5167 54.9878 29.6233 55.9463 29.3037C56.1853 29.224 56.4364 29.1841 56.6875 29.1841C56.9386 29.1841 57.1897 29.2241 57.4287 29.3037C58.3872 29.6233 59.0312 30.5167 59.0312 31.5271V33.25C59.0312 33.7294 58.8446 34.1801 58.5057 34.5189L57.9564 35.0681C57.6174 35.4071 57.1668 35.5937 56.6875 35.5937C56.2082 35.5937 55.7576 35.4071 55.4185 35.068L54.8694 34.519C54.5304 34.1801 54.3438 33.7294 54.3438 33.25V31.5271ZM38.875 60.2819L38.875 52.9375L43.9623 58.0249C42.5125 59.1687 40.7744 59.9633 38.875 60.2819ZM46.6071 55.0444L38.875 47.3125L38.8731 38.0927C44.1947 38.9846 48.25 43.6125 48.25 49.1875C48.25 51.3331 47.6494 53.3384 46.6071 55.0444ZM50.4716 42.1758L50.2611 42.158L50.2801 42.025C50.4109 41.1095 50.9251 40.3006 51.671 39.7867L53.0972 40.6424C54.1372 41.2664 54.8821 42.2912 55.1599 43.4683C54.9747 43.9121 54.8149 44.3674 54.6831 44.8325C53.8087 43.3424 52.2537 42.3275 50.4716 42.1758Z" fill="black"/>
<path d="M30.4991 18.263C30.7286 18.837 30.7018 19.4832 30.4253 20.0361C29.5075 21.8719 29.2761 23.9795 29.7739 25.9708L29.839 26.2311C29.2533 26.8122 28.8466 27.5577 28.6794 28.394L28.1016 31.2831L29.0209 31.4669L29.5987 28.5778C29.7987 27.5779 30.4366 26.7427 31.3488 26.2866L33.1194 25.4013L36.6327 29.7929C36.7217 29.904 36.8563 29.9688 36.9987 29.9688C37.1411 29.9688 37.2758 29.904 37.3648 29.7929L40.878 25.4013L42.6487 26.2866C43.5609 26.7427 44.1988 27.5779 44.3988 28.5778L44.9766 31.4669L45.8959 31.2831L45.3181 28.394C45.1508 27.5577 44.7442 26.8122 44.1585 26.2311L44.2235 25.9708C44.7214 23.9795 44.49 21.8719 43.5721 20.0361C43.2957 19.4832 43.2688 18.837 43.4983 18.263C43.9105 17.2325 43.8572 16.0746 43.3518 15.0863C43.0633 14.5219 42.6432 14.0452 42.1357 13.6895C42.1472 13.6488 42.155 13.6065 42.155 13.5625C42.155 11.2363 40.2625 9.34375 37.9362 9.34375H36.0612C33.735 9.34375 31.8425 11.2363 31.8425 13.5625C31.8425 13.6065 31.8502 13.6488 31.8617 13.6895C31.3542 14.0452 30.9342 14.5219 30.6456 15.0863C30.1403 16.0746 30.0869 17.2325 30.4991 18.263ZM35.9505 21.9999C36.2787 22.1641 36.6387 22.2462 36.9987 22.2462C37.3587 22.2462 37.7187 22.1641 38.0468 22L38.405 21.821V23.6809L36.9987 25.087L35.5925 23.6809V21.8209L35.9505 21.9999ZM33.7175 14.3199C34.8067 14.5283 35.9025 14.6337 36.9987 14.6337C38.0947 14.6337 39.191 14.5283 40.28 14.3199V16.375C40.28 16.9112 39.9821 17.3931 39.5026 17.6327L37.6275 18.5703C37.2339 18.7672 36.7637 18.7673 36.3699 18.5702L34.4948 17.6327C34.0153 17.3931 33.7175 16.9112 33.7175 16.375V14.3199ZM42.6279 17.9149C42.299 18.7373 42.3375 19.6632 42.7336 20.4554C43.5297 22.0477 43.7444 23.8694 43.3461 25.6018C43.2555 25.5478 43.1633 25.4957 43.0679 25.448L39.3425 23.5854V21.3193C40.5089 20.5594 41.2175 19.2721 41.2175 17.8545V14.2312C41.7723 14.5053 42.2304 14.9523 42.5172 15.5131C42.8992 16.2603 42.9396 17.1357 42.6279 17.9149ZM31.4803 15.5131C31.767 14.9523 32.2251 14.5053 32.78 14.2312V17.8545C32.78 19.272 33.4885 20.5594 34.655 21.3193V23.5854L30.9296 25.448C30.8341 25.4957 30.7419 25.5478 30.6513 25.6018C30.2531 23.8694 30.4677 22.0477 31.2638 20.4554C31.6599 19.6632 31.6984 18.7373 31.3695 17.9149C31.0579 17.1357 31.0983 16.2603 31.4803 15.5131Z" fill="black"/>
<path d="M30.5493 11.0648L30.3238 10.1548C22.8885 11.9977 16.4917 16.916 12.7734 23.6484L13.5941 24.1016C17.1866 17.5969 23.3665 12.8451 30.5493 11.0648Z" fill="black"/>
<path d="M12.2697 47.1345L11.4023 47.4905C13.9584 53.7208 18.6935 58.801 24.7355 61.7951L25.1517 60.9551C19.3142 58.0623 14.7392 53.154 12.2697 47.1345Z" fill="black"/>
<path d="M60.4044 24.1016L61.2251 23.6484C57.5069 16.916 51.11 11.9977 43.6748 10.1548L43.4492 11.0648C50.632 12.8451 56.8119 17.5969 60.4044 24.1016Z" fill="black"/>
<path d="M48.8477 60.955L49.2639 61.795C55.4414 58.7338 60.2304 53.5195 62.7485 47.1129L61.876 46.7701C59.4431 52.9596 54.8162 57.9973 48.8477 60.955Z" fill="black"/>
</svg>
