<svg width="76" height="76" viewBox="0 0 76 76" fill="none" xmlns="http://www.w3.org/2000/svg">
<path d="M45.7984 7.77499L37.9984 17.3L30.1984 7.77499C21.0035 8.16933 11.9787 10.3873 3.64844 14.3C6.21374 17.74 9.73519 20.3485 13.7734 21.8C13.9234 17.95 17.2484 16.925 20.7734 16.55C22.9664 16.3345 25.1704 16.251 27.3734 16.3L37.9984 75.5L48.6234 16.325C50.8265 16.276 53.0304 16.3595 55.2234 16.575C58.7484 16.95 62.0734 17.975 62.2234 21.825C66.2617 20.3735 69.7831 17.765 72.3484 14.325C64.02 10.4037 54.9951 8.17718 45.7984 7.77499Z" fill="black"/>
<path d="M38.0016 0.5C25.1177 0.656522 12.3662 3.12046 0.351562 7.775C0.90165 9.31234 1.59643 10.794 2.42656 12.2C13.6526 7.35964 25.778 4.95671 38.0016 5.15C50.2251 4.95671 62.3505 7.35964 73.5766 12.2C74.4067 10.794 75.1015 9.31234 75.6516 7.775C63.6369 3.12046 50.8854 0.656522 38.0016 0.5Z" fill="black"/>
</svg>
