<svg width="30" height="26" viewBox="0 0 30 26" fill="none" xmlns="http://www.w3.org/2000/svg">
<path d="M30 3.79299C28.8977 4.29497 27.7109 4.63445 26.4659 4.78613C27.7373 4.00606 28.7128 2.76915 29.1724 1.2957C27.982 2.01798 26.6667 2.54344 25.2615 2.82513C24.1416 1.59905 22.5409 0.833435 20.7695 0.833435C17.3728 0.833435 14.617 3.65937 14.617 7.14438C14.617 7.63914 14.6698 8.11946 14.7755 8.58172C9.66015 8.31809 5.1259 5.80816 2.0884 1.98548C1.55837 2.92083 1.2555 4.00606 1.2555 5.16171C1.2555 7.35023 2.34196 9.28233 3.99366 10.4145C2.98644 10.3838 2.03557 10.0967 1.20444 9.62722V9.70487C1.20444 12.7637 3.32629 15.3152 6.14369 15.893C5.62775 16.0411 5.08364 16.1151 4.52192 16.1151C4.12573 16.1151 3.73833 16.0772 3.36327 16.0032C4.14686 18.5095 6.41838 20.3351 9.11252 20.3838C7.00652 22.0776 4.35112 23.087 1.46857 23.087C0.972002 23.087 0.480718 23.0581 0 23.0003C2.72407 24.7879 5.96056 25.8334 9.43476 25.8334C20.7572 25.8334 26.9466 16.2181 26.9466 7.87749C26.9466 7.60303 26.9414 7.32856 26.9308 7.05951C28.1335 6.1693 29.1777 5.05879 30 3.79299Z" fill="#332414"/>
</svg>
