<svg width="32" height="40" viewBox="0 0 32 40" fill="none" xmlns="http://www.w3.org/2000/svg">
<path d="M15.6667 0C7.02389 0 0 6.97343 0 15.5541C0 20.7907 3.055 25.1717 6.60611 28.2307C7.72889 29.1899 9.68722 30.7194 11.4367 32.9747C13.3689 35.4893 15.1183 38.1854 15.6667 40C16.215 38.1854 17.9644 35.4893 19.8967 32.9747C21.6461 30.7194 23.6044 29.1899 24.7272 28.2307C28.2783 25.1717 31.3333 20.7907 31.3333 15.5541C31.3333 6.97343 24.3094 0 15.6667 0ZM15.6667 6.63642C16.8462 6.63642 18.0142 6.86709 19.104 7.31524C20.1938 7.7634 21.184 8.42027 22.0181 9.24835C22.8521 10.0764 23.5138 11.0595 23.9652 12.1415C24.4166 13.2234 24.6489 14.383 24.6489 15.5541C24.6489 16.7252 24.4166 17.8848 23.9652 18.9668C23.5138 20.0487 22.8521 21.0318 22.0181 21.8599C21.184 22.688 20.1938 23.3448 19.104 23.793C18.0142 24.2411 16.8462 24.4718 15.6667 24.4718C13.2844 24.4718 10.9998 23.5323 9.31528 21.8599C7.63078 20.1875 6.68444 17.9192 6.68444 15.5541C6.68444 13.189 7.63078 10.9207 9.31528 9.24835C10.9998 7.57596 13.2844 6.63642 15.6667 6.63642Z" fill="black"/>
</svg>
