<svg width="28" height="38" viewBox="0 0 28 38" fill="none" xmlns="http://www.w3.org/2000/svg">
<path d="M8.14667 19H24.44C25.1896 19 25.8296 19.2615 26.36 19.7846C26.8904 20.3077 27.1556 20.9509 27.1556 21.7143C27.1556 22.4777 26.8868 23.1209 26.3494 23.644C25.8119 24.167 25.1755 24.4286 24.44 24.4286H23.4217L23.846 37.3214C23.8601 37.5052 23.8 37.6642 23.6656 37.7985C23.5313 37.9328 23.3722 38 23.1883 38H21.7244C21.5547 38 21.4062 37.9328 21.2789 37.7985C21.1516 37.6642 21.0809 37.5052 21.0668 37.3214L20.6849 24.4286H9.50445L7.34049 37.3426C7.26977 37.7809 7.05054 38 6.68281 38H5.11288C4.92902 38 4.7699 37.9328 4.63554 37.7985C4.50117 37.6642 4.44106 37.5123 4.45521 37.3426L6.47066 24.4286C6.41409 24.4003 6.10293 24.3614 5.53719 24.3119C4.97145 24.2625 4.50117 24.0751 4.12637 23.75C3.75157 23.4249 3.45102 22.8594 3.22472 22.0536C2.99843 21.2195 2.81102 20.1592 2.66252 18.8728C2.51401 17.5863 2.37258 16.0206 2.23821 14.1758C2.10385 12.3309 2.00838 11.1187 1.95181 10.5391C1.88109 9.7474 1.53811 8.49981 0.922865 6.79632C0.307622 5.09282 0 3.73214 0 2.71429C0 2.06399 0.22276 1.44903 0.668281 0.86942C1.1138 0.289807 1.79623 0 2.71556 0C3.55002 0 4.17234 0.265067 4.5825 0.795201C4.99266 1.32533 5.36747 2.14881 5.70691 3.26562C6.99397 7.47842 7.80722 12.7232 8.14667 19Z" fill="black"/>
</svg>
