<svg width="35" height="30" viewBox="0 0 35 30" fill="none" xmlns="http://www.w3.org/2000/svg">
<path d="M31.3333 6.66667H24.3704V3.33333L20.8889 0H13.9259L10.4444 3.33333V6.66667H3.48148C1.56667 6.66667 0 8.16667 0 10V18.3333C0 19.5833 0.696296 20.6333 1.74074 21.2167V26.6667C1.74074 28.5167 3.29 30 5.22222 30H29.5926C31.5248 30 33.0741 28.5167 33.0741 26.6667V21.2C34.1011 20.6167 34.8148 19.55 34.8148 18.3333V10C34.8148 8.16667 33.2482 6.66667 31.3333 6.66667ZM13.9259 3.33333H20.8889V6.66667H13.9259V3.33333ZM3.48148 10H31.3333V18.3333H22.6296V13.3333H12.1852V18.3333H3.48148V10ZM19.1482 20H15.6667V16.6667H19.1482V20ZM29.5926 26.6667H5.22222V21.6667H12.1852V23.3333H22.6296V21.6667H29.5926V26.6667Z" fill="black"/>
</svg>
