<svg width="36" height="35" viewBox="0 0 36 35" fill="none" xmlns="http://www.w3.org/2000/svg">
<path d="M29.1698 0.5C30.8517 0.5 32.4646 1.13967 33.6538 2.27828C34.843 3.41689 35.5111 4.96119 35.5111 6.57143V28.4286C35.5111 30.0388 34.843 31.5831 33.6538 32.7217C32.4646 33.8603 30.8517 34.5 29.1698 34.5H6.34127C4.65946 34.5 3.04653 33.8603 1.85732 32.7217C0.668096 31.5831 0 30.0388 0 28.4286V6.57143C0 4.96119 0.668096 3.41689 1.85732 2.27828C3.04653 1.13967 4.65946 0.5 6.34127 0.5H29.1698ZM29.1698 2.92857H6.34127C5.33218 2.92857 4.36443 3.31237 3.6509 3.99554C2.93737 4.67871 2.53651 5.60528 2.53651 6.57143V28.4286C2.53651 29.3947 2.93737 30.3213 3.6509 31.0045C4.36443 31.6876 5.33218 32.0714 6.34127 32.0714H29.1698C30.1789 32.0714 31.1467 31.6876 31.8602 31.0045C32.5737 30.3213 32.9746 29.3947 32.9746 28.4286V6.57143C32.9746 5.60528 32.5737 4.67871 31.8602 3.99554C31.1467 3.31237 30.1789 2.92857 29.1698 2.92857ZM24.6498 15.0714C25.7811 15.0714 26.1894 15.1831 26.6029 15.3969C27.0163 15.6081 27.341 15.919 27.5617 16.3149C27.7849 16.7107 27.9016 17.1017 27.9016 18.1849V24.1009C27.9016 25.184 27.7849 25.575 27.5617 25.9709C27.3456 26.362 27.0115 26.6819 26.6029 26.8889C26.192 27.1026 25.7811 27.2143 24.6498 27.2143H10.8613C9.73005 27.2143 9.32167 27.1026 8.90822 26.8889C8.49965 26.6819 8.16556 26.362 7.94942 25.9709C7.7262 25.5774 7.60952 25.184 7.60952 24.1009V18.1849C7.60952 17.1017 7.7262 16.7107 7.94942 16.3149C8.16569 15.9238 8.49974 15.6039 8.90822 15.3969C9.32167 15.1831 9.73005 15.0714 10.8613 15.0714H24.6498ZM25.1419 17.5049H10.3692L10.1663 17.517L10.1511 17.7113V24.572L10.1638 24.7663L10.3667 24.7809H25.1419L25.3448 24.7687L25.36 24.5744V17.7137L25.3473 17.5194L25.1444 17.5049H25.1419ZM26.6333 7.78571C26.9503 7.78516 27.2559 7.89823 27.4901 8.10266C27.7243 8.3071 27.8701 8.58808 27.8987 8.89028C27.9274 9.19248 27.8368 9.49399 27.6448 9.73545C27.4529 9.9769 27.1735 10.1408 26.8616 10.1949L26.6333 10.2143H8.87778C8.56085 10.2148 8.25519 10.1018 8.02099 9.89734C7.78679 9.6929 7.64101 9.41192 7.61238 9.10972C7.58374 8.80752 7.67432 8.50601 7.86627 8.26455C8.05822 8.0231 8.33764 7.8592 8.64949 7.80514L8.87778 7.78571H26.6333Z" fill="black"/>
</svg>
