<svg width="42" height="32" viewBox="0 0 42 32" fill="none" xmlns="http://www.w3.org/2000/svg">
<path d="M40.2857 0.500002H29.6175C27.3281 0.500002 25.09 1.12212 23.1643 2.29576L20.8889 3.67677L18.6135 2.29576C16.6897 1.12234 14.4491 0.498843 12.1603 0.500002H1.49206C0.666766 0.500002 0 1.13094 0 1.9119V26.9731C0 27.7541 0.666766 28.385 1.49206 28.385H12.1603C14.4497 28.385 16.6878 29.0071 18.6135 30.1808L20.6837 31.4426C20.7443 31.4779 20.8143 31.5 20.8842 31.5C20.9542 31.5 21.0241 31.4824 21.0847 31.4426L23.155 30.1808C25.0853 29.0071 27.3281 28.385 29.6175 28.385H40.2857C41.111 28.385 41.7778 27.7541 41.7778 26.9731V1.9119C41.7778 1.13094 41.111 0.500002 40.2857 0.500002ZM12.1603 25.2082H3.35714V3.67677H12.1603C13.8109 3.67677 15.4149 4.1224 16.7997 4.96513L19.0751 6.34614L19.3968 6.54469V26.929C17.1774 25.7995 14.6968 25.2082 12.1603 25.2082ZM38.4206 25.2082H29.6175C27.081 25.2082 24.6004 25.7995 22.381 26.929V6.54469L22.7027 6.34614L24.9781 4.96513C26.3629 4.1224 27.9669 3.67677 29.6175 3.67677H38.4206V25.2082ZM15.5221 9.32437H6.85883C6.67698 9.32437 6.52778 9.47438 6.52778 9.65528V11.6408C6.52778 11.8217 6.67698 11.9717 6.85883 11.9717H15.5175C15.6993 11.9717 15.8485 11.8217 15.8485 11.6408V9.65528C15.8532 9.47438 15.704 9.32437 15.5221 9.32437ZM25.9246 9.65528V11.6408C25.9246 11.8217 26.0738 11.9717 26.2557 11.9717H34.9143C35.0961 11.9717 35.2453 11.8217 35.2453 11.6408V9.65528C35.2453 9.47438 35.0961 9.32437 34.9143 9.32437H26.2557C26.0738 9.32437 25.9246 9.47438 25.9246 9.65528ZM15.5221 15.5014H6.85883C6.67698 15.5014 6.52778 15.6514 6.52778 15.8323V17.8178C6.52778 17.9987 6.67698 18.1487 6.85883 18.1487H15.5175C15.6993 18.1487 15.8485 17.9987 15.8485 17.8178V15.8323C15.8532 15.6514 15.704 15.5014 15.5221 15.5014ZM34.9189 15.5014H26.2557C26.0738 15.5014 25.9246 15.6514 25.9246 15.8323V17.8178C25.9246 17.9987 26.0738 18.1487 26.2557 18.1487H34.9143C35.0961 18.1487 35.2453 17.9987 35.2453 17.8178V15.8323C35.25 15.6514 35.1008 15.5014 34.9189 15.5014Z" fill="black"/>
</svg>
