<svg width="32" height="34" viewBox="0 0 32 34" fill="none" xmlns="http://www.w3.org/2000/svg">
<path d="M6.96296 15.3H10.4444V18.7H6.96296V15.3ZM31.3333 6.8V30.6C31.3333 32.47 29.7667 34 27.8519 34H3.48148C2.55814 34 1.67261 33.6418 1.0197 33.0042C0.366798 32.3665 0 31.5017 0 30.6L0.0174074 6.8C0.0174074 4.93 1.54926 3.4 3.48148 3.4H5.22222V0H8.7037V3.4H22.6296V0H26.1111V3.4H27.8519C29.7667 3.4 31.3333 4.93 31.3333 6.8ZM3.48148 10.2H27.8519V6.8H3.48148V10.2ZM27.8519 30.6V13.6H3.48148V30.6H27.8519ZM20.8889 18.7H24.3704V15.3H20.8889V18.7ZM13.9259 18.7H17.4074V15.3H13.9259V18.7Z" fill="black"/>
</svg>
