<svg width="32" height="32" viewBox="0 0 32 32" fill="none" xmlns="http://www.w3.org/2000/svg">
<g clip-path="url(#clip0_1141_11222)">
<path d="M16 32C7.1648 32 0 24.8352 0 16C0 7.1648 7.1648 0 16 0C24.8352 0 32 7.1648 32 16C32 24.8352 24.8352 32 16 32Z" fill="#25D366"/>
<path fill-rule="evenodd" clip-rule="evenodd" d="M23.4869 8.55038C21.5029 6.56318 18.8597 5.46878 16.0469 5.46558C10.2517 5.46558 5.53171 10.1824 5.53171 15.9808C5.53171 17.8336 6.01491 19.6448 6.93651 21.2384L5.44531 26.688L11.0197 25.2256C12.5557 26.064 14.2837 26.5056 16.0437 26.5056H16.0469C21.8421 26.5056 26.5589 21.7888 26.5621 15.9904C26.5653 13.1808 25.4741 10.5376 23.4869 8.55038ZM16.0501 24.7296H16.0469C14.4789 24.7296 12.9397 24.3072 11.5989 23.5104L11.2789 23.3216L7.97011 24.1888L8.85331 20.9632L8.64531 20.6336C7.77171 19.2416 7.30771 17.6352 7.30771 15.9808C7.31091 11.1616 11.2309 7.24158 16.0533 7.24158C18.3893 7.24158 20.5813 8.15358 22.2325 9.80478C23.8837 11.456 24.7925 13.6544 24.7893 15.9872C24.7893 20.8096 20.8661 24.7296 16.0501 24.7296ZM20.8437 18.1824C20.5813 18.0512 19.2885 17.4144 19.0485 17.328C18.8085 17.2416 18.6325 17.1968 18.4565 17.4592C18.2805 17.7216 17.7781 18.3136 17.6245 18.4896C17.4709 18.6656 17.3173 18.688 17.0549 18.5568C16.7925 18.4256 15.9445 18.1472 14.9429 17.2512C14.1621 16.5536 13.6341 15.6928 13.4805 15.4304C13.3269 15.168 13.4645 15.024 13.5957 14.8928C13.7141 14.7744 13.8581 14.5856 13.9893 14.432C14.1205 14.2784 14.1653 14.1696 14.2517 13.9936C14.3381 13.8176 14.2965 13.664 14.2293 13.5328C14.1621 13.4016 13.6373 12.1088 13.4197 11.5808C13.2053 11.0688 12.9909 11.1392 12.8277 11.1296C12.6741 11.1232 12.4981 11.12 12.3253 11.12C12.1493 11.12 11.8645 11.1872 11.6245 11.4496C11.3845 11.712 10.7061 12.3488 10.7061 13.6416C10.7061 14.9344 11.6469 16.1856 11.7781 16.3584C11.9093 16.5344 13.6309 19.1872 16.2677 20.3264C16.8949 20.5984 17.3845 20.7584 17.7653 20.88C18.3957 21.0816 18.9685 21.0528 19.4197 20.9856C19.9253 20.9088 20.9749 20.3488 21.1925 19.7376C21.4101 19.1232 21.4101 18.5984 21.3461 18.4896C21.2821 18.3808 21.1061 18.3168 20.8437 18.1824Z" fill="white"/>
</g>
<defs>
<clipPath id="clip0_1141_11222">
<rect width="32" height="32" fill="white"/>
</clipPath>
</defs>
</svg>
