<svg width="30" height="23" viewBox="0 0 30 23" fill="none" xmlns="http://www.w3.org/2000/svg">
<path fillRule="evenodd" clipRule="evenodd" d="M28.5075 2.11631C29.4066 3.05106 29.7 5.17373 29.7 5.17373C29.7 5.17373 30 7.66703 30 10.1594V12.4967C30 14.99 29.7 17.4823 29.7 17.4823C29.7 17.4823 29.4066 19.605 28.5075 20.5398C27.4796 21.6455 26.3399 21.7598 25.6956 21.8244C25.6248 21.8315 25.5599 21.838 25.5019 21.8451C21.3037 22.157 15 22.1667 15 22.1667C15 22.1667 7.2 22.0935 4.8 21.8567C4.68629 21.8349 4.54845 21.8179 4.39235 21.7987C3.63212 21.705 2.43891 21.5581 1.49156 20.5398C0.5925 19.605 0.3 17.4823 0.3 17.4823C0.3 17.4823 0 14.99 0 12.4967V10.1594C0 7.66703 0.3 5.17373 0.3 5.17373C0.3 5.17373 0.5925 3.05106 1.49156 2.11631C2.52174 1.00897 3.66257 0.895958 4.30685 0.832133C4.3767 0.825213 4.44072 0.818871 4.49812 0.811903C8.69625 0.5 14.9934 0.5 14.9934 0.5H15.0066C15.0066 0.5 21.3037 0.5 25.5019 0.811903C25.5593 0.818882 25.6233 0.825232 25.6932 0.832164C26.337 0.895995 27.4783 1.00915 28.5075 2.11631ZM11.9019 6.6734L11.9028 15.3287L20.0075 11.016L11.9019 6.6734Z" fill="#332414"/>
</svg>
