<svg width="48" height="48" viewBox="0 0 48 48" fill="none" xmlns="http://www.w3.org/2000/svg">
<path d="M32 12L38 20H42C44.22 20 46 21.78 46 24V30H42C42 31.5913 41.3679 33.1174 40.2426 34.2426C39.1174 35.3679 37.5913 36 36 36C34.4087 36 32.8826 35.3679 31.7574 34.2426C30.6321 33.1174 30 31.5913 30 30H18C18 31.5913 17.3679 33.1174 16.2426 34.2426C15.1174 35.3679 13.5913 36 12 36C10.4087 36 8.88258 35.3679 7.75736 34.2426C6.63214 33.1174 6 31.5913 6 30H2V24C2 21.78 3.78 20 6 20L12 12H32ZM21 15H13.5L9.72 20H21V15ZM24 15V20H34.28L30.5 15H24ZM12 27C11.2044 27 10.4413 27.3161 9.87868 27.8787C9.31607 28.4413 9 29.2044 9 30C9 30.7956 9.31607 31.5587 9.87868 32.1213C10.4413 32.6839 11.2044 33 12 33C12.7957 33 13.5587 32.6839 14.1213 32.1213C14.6839 31.5587 15 30.7956 15 30C15 29.2044 14.6839 28.4413 14.1213 27.8787C13.5587 27.3161 12.7957 27 12 27ZM36 27C35.2044 27 34.4413 27.3161 33.8787 27.8787C33.3161 28.4413 33 29.2044 33 30C33 30.7956 33.3161 31.5587 33.8787 32.1213C34.4413 32.6839 35.2044 33 36 33C36.7957 33 37.5587 32.6839 38.1213 32.1213C38.6839 31.5587 39 30.7956 39 30C39 29.2044 38.6839 28.4413 38.1213 27.8787C37.5587 27.3161 36.7957 27 36 27Z" fill="#FF8500"/>
</svg>
