<svg width="48" height="48" viewBox="0 0 48 48" fill="none" xmlns="http://www.w3.org/2000/svg">
<path d="M25.3937 8.3999C23.5384 8.60293 21.8561 10.4365 21.8561 12.8107C21.8561 14.119 22.3937 15.2762 23.1817 16.0762L24.1218 17.0304L22.6754 17.2594C21.6511 17.4216 20.9001 17.8775 20.2582 18.6198C19.6162 19.3622 19.1254 20.3964 18.7815 21.5883C18.1587 23.7477 18.0218 26.3843 18 28.7085H21.4038L22.3384 39.2671C24.712 39.7185 27.2462 39.7026 29.5323 39.2688L30.3592 28.7085H33.6C33.5979 26.3559 33.5621 23.6829 32.9978 21.5072C32.6867 20.3075 32.2151 19.2747 31.5654 18.5408C30.9155 17.807 30.1299 17.3537 28.9799 17.2036L27.5037 17.011L28.4355 16.0273C29.1894 15.2315 29.7005 14.0875 29.7005 12.8108C29.7005 10.2796 27.8223 8.40612 25.7782 8.40612L25.3937 8.3999Z" fill="#FF8500"/>
</svg>
