<svg width="48" height="48" viewBox="0 0 48 48" fill="none" xmlns="http://www.w3.org/2000/svg">
<path d="M14.4 12.2999C14.4 11.2656 14.8109 10.2736 15.5423 9.54219C16.2737 8.81079 17.2656 8.3999 18.3 8.3999H30C31.0343 8.3999 32.0263 8.81079 32.7577 9.54219C33.4891 10.2736 33.9 11.2656 33.9 12.2999V35.6999C33.9 36.7342 33.4891 37.7262 32.7577 38.4576C32.0263 39.189 31.0343 39.5999 30 39.5999H18.3C17.2656 39.5999 16.2737 39.189 15.5423 38.4576C14.8109 37.7262 14.4 36.7342 14.4 35.6999V12.2999ZM26.1 33.7499C26.1 33.2327 25.8945 32.7367 25.5289 32.371C25.1632 32.0053 24.6672 31.7999 24.15 31.7999C23.6328 31.7999 23.1368 32.0053 22.7711 32.371C22.4054 32.7367 22.2 33.2327 22.2 33.7499C22.2 34.2671 22.4054 34.7631 22.7711 35.1288C23.1368 35.4945 23.6328 35.6999 24.15 35.6999C24.6672 35.6999 25.1632 35.4945 25.5289 35.1288C25.8945 34.7631 26.1 34.2671 26.1 33.7499Z" fill="#FF8500"/>
</svg>
