<svg width="48" height="48" viewBox="0 0 48 48" fill="none" xmlns="http://www.w3.org/2000/svg">
<path d="M30 20H40.78L34.12 12H30V20ZM35 37C35.78 37 36.48 36.74 37.08 36.14C37.68 35.54 38 34.84 38 34C38 33.22 37.68 32.52 37.08 31.92C36.48 31.32 35.78 31 35 31C34.16 31 33.46 31.32 32.86 31.92C32.26 32.52 32 33.22 32 34C32 34.84 32.26 35.54 32.86 36.14C33.46 36.74 34.16 37 35 37ZM12 37C12.88 37 13.6 36.74 14.16 36.14C14.72 35.54 15 34.84 15 34C15 33.22 14.72 32.52 14.16 31.92C13.6 31.32 12.88 31 12 31C11.12 31 10.4 31.32 9.84 31.92C9.28 32.52 9 33.22 9 34C9 34.84 9.28 35.54 9.84 36.14C10.4 36.74 11.12 37 12 37ZM36 8L46 20V34H41C41 35.66 40.38 37.06 39.18 38.26C38 39.44 36.6 40 35 40C33.34 40 31.94 39.44 30.76 38.26C29.56 37.06 29 35.66 29 34H18C18 35.66 17.4 37.06 16.22 38.26C15 39.44 13.62 40 12 40C10.38 40 9 39.44 7.78 38.26C6.6 37.06 6 35.66 6 34H2V26H18.38L6 16.22V22H2V10H4L26 22.12V8H36Z" fill="#FF8500"/>
</svg>
