<svg width="67" height="112" viewBox="0 0 67 112" fill="none" xmlns="http://www.w3.org/2000/svg">
<path opacity="0.35" d="M26.4419 2.31212C26.9834 2.20381 27.3347 1.67699 27.2264 1.13543C27.118 0.593867 26.5912 0.24265 26.0497 0.350962L26.4419 2.31212ZM19.6229 7.07135L20.4437 7.64265L19.6229 7.07135ZM13.6378 18.4038L14.5905 18.7077L13.6378 18.4038ZM11.4302 47.7406L10.4395 47.8764L11.4302 47.7406ZM17.17 59.4165L16.4791 60.1395L17.17 59.4165ZM35.2725 61.2807L34.8801 60.3609L35.2725 61.2807ZM36.0084 31.5023L36.3879 30.5772L36.0084 31.5023ZM9.09993 41.5102L8.28212 40.9347L9.09993 41.5102ZM3.33559 80.5851L4.25902 80.2013L3.33559 80.5851ZM17.8568 97.5102L18.4708 96.7208L17.8568 97.5102ZM42.9746 105.948L42.9524 106.948L42.9746 105.948ZM59.9488 105.727L60.0847 106.718L59.9488 105.727ZM66.866 104.648L56.5011 99.5587L57.276 111.08L66.866 104.648ZM23.6701 1.43145C23.2133 1.74176 23.0944 2.36367 23.4047 2.82054C23.715 3.27741 24.337 3.39623 24.7938 3.08592L23.6701 1.43145ZM21.7497 5.95398C22.107 5.53289 22.0553 4.90183 21.6343 4.54448C21.2132 4.18713 20.5821 4.2388 20.2248 4.6599L21.7497 5.95398ZM17.0005 9.22074C16.7071 9.68867 16.8486 10.3058 17.3165 10.5992C17.7845 10.8925 18.4016 10.751 18.695 10.2831L17.0005 9.22074ZM15.7043 15.8106C15.9289 15.306 15.7019 14.7149 15.1974 14.4903C14.6928 14.2657 14.1017 14.4927 13.8771 14.9972L15.7043 15.8106ZM11.6737 21.7385C11.5446 22.2755 11.8753 22.8154 12.4123 22.9445C12.9493 23.0735 13.4893 22.7428 13.6183 22.2058L11.6737 21.7385ZM12.3453 29.3843C12.4115 28.836 12.0206 28.3378 11.4723 28.2717C10.924 28.2055 10.4259 28.5964 10.3597 29.1447L12.3453 29.3843ZM9.83246 36.6316C9.82047 37.1838 10.2584 37.6411 10.8105 37.6531C11.3627 37.6651 11.82 37.2272 11.832 36.675L9.83246 36.6316ZM12.0326 43.9793C11.9892 43.4287 11.5078 43.0175 10.9572 43.0608C10.4066 43.1042 9.99539 43.5856 10.0387 44.1362L12.0326 43.9793ZM11.2242 51.2611C11.3924 51.7872 11.9552 52.0773 12.4812 51.9091C13.0073 51.7409 13.2974 51.1781 13.1292 50.6521L11.2242 51.2611ZM15.8776 56.3206C15.5655 55.8649 14.9431 55.7486 14.4875 56.0607C14.0318 56.3728 13.9155 56.9951 14.2276 57.4508L15.8776 56.3206ZM20.9279 62.7512C21.4499 62.9317 22.0194 62.6549 22.1999 62.133C22.3804 61.611 22.1036 61.0416 21.5816 60.8611L20.9279 62.7512ZM30.5371 61.5315C29.9906 61.6112 29.6122 62.1188 29.6919 62.6653C29.7716 63.2118 30.2792 63.5903 30.8257 63.5105L30.5371 61.5315ZM39.9512 59.6045C40.3781 59.2541 40.44 58.6239 40.0896 58.1971C39.7392 57.7702 39.109 57.7083 38.6822 58.0587L39.9512 59.6045ZM43.6705 50.7941C43.4935 51.3173 43.7741 51.8848 44.2973 52.0618C44.8204 52.2388 45.388 51.9582 45.565 51.435L43.6705 50.7941ZM46.0391 41.5268C45.9066 40.9906 45.3646 40.6633 44.8284 40.7958C44.2923 40.9282 43.965 41.4702 44.0974 42.0064L46.0391 41.5268ZM39.4592 34.6718C39.8884 35.0194 40.5181 34.9531 40.8656 34.5239C41.2132 34.0947 41.1469 33.465 40.7177 33.1175L39.4592 34.6718ZM32.4758 29.4355C31.9322 29.338 31.4125 29.6997 31.315 30.2433C31.2175 30.7869 31.5792 31.3066 32.1228 31.4041L32.4758 29.4355ZM24.8388 31.623C25.377 31.4993 25.7131 30.9627 25.5895 30.4244C25.4658 29.8862 24.9292 29.5501 24.3909 29.6738L24.8388 31.623ZM16.9762 32.755C16.5053 33.0434 16.3573 33.6591 16.6458 34.13C16.9343 34.601 17.5499 34.7489 18.0209 34.4605L16.9762 32.755ZM12.2687 39.1873C12.6446 38.7827 12.6213 38.1499 12.2167 37.774C11.8121 37.3981 11.1794 37.4214 10.8034 37.826L12.2687 39.1873ZM5.55722 45.4223C5.30098 45.9116 5.48987 46.5159 5.97911 46.7722C6.46836 47.0284 7.07269 46.8395 7.32893 46.3503L5.55722 45.4223ZM3.688 55.6797C3.83387 55.1471 3.5203 54.597 2.98763 54.4511C2.45495 54.3053 1.90489 54.6188 1.75902 55.1515L3.688 55.6797ZM0.0653032 65.4554C0.0353897 66.0069 0.458198 66.4782 1.00967 66.5081C1.56115 66.538 2.03245 66.1152 2.06237 65.5637L0.0653032 65.4554ZM2.79024 75.4853C2.67182 74.9459 2.13853 74.6046 1.59908 74.723C1.05964 74.8414 0.718333 75.3747 0.836746 75.9142L2.79024 75.4853ZM5.17614 86.0953C5.48273 86.5547 6.10366 86.6785 6.56303 86.3719C7.0224 86.0654 7.14625 85.4444 6.83966 84.9851L5.17614 86.0953ZM14.1787 93.1692C13.7662 92.8019 13.1341 92.8385 12.7668 93.2509C12.3995 93.6633 12.4361 94.2954 12.8485 94.6628L14.1787 93.1692ZM23.0739 102.006C23.5648 102.259 24.1679 102.066 24.421 101.575C24.6741 101.085 24.4813 100.481 23.9905 100.228L23.0739 102.006ZM36.4444 104.32C35.8999 104.228 35.3836 104.594 35.2912 105.139C35.1989 105.683 35.5654 106.2 36.1099 106.292L36.4444 104.32ZM47.1908 107.072C47.7428 107.089 48.2042 106.656 48.2212 106.104C48.2383 105.552 47.8047 105.09 47.2527 105.073L47.1908 107.072ZM55.6719 105.1C55.1202 105.126 54.6934 105.593 54.7186 106.145C54.7439 106.697 55.2116 107.124 55.7633 107.098L55.6719 105.1ZM61.8756 106.404C62.4167 106.294 62.7656 105.765 62.655 105.224C62.5444 104.683 62.0161 104.334 61.475 104.445L61.8756 106.404ZM64.9902 103.774C64.4424 103.844 64.0555 104.346 64.1261 104.893C64.1967 105.441 64.6979 105.828 65.2457 105.758L64.9902 103.774ZM26.0497 0.350962C25.216 0.517701 24.4059 0.931732 23.6701 1.43145L24.7938 3.08592C25.4108 2.66685 25.9688 2.40675 26.4419 2.31212L26.0497 0.350962ZM20.2248 4.6599C19.6596 5.32583 19.172 5.96868 18.8022 6.50005L20.4437 7.64265C20.7773 7.16326 21.2261 6.57098 21.7497 5.95398L20.2248 4.6599ZM18.8022 6.50005C18.1973 7.36902 17.5905 8.27964 17.0005 9.22074L18.695 10.2831C19.2657 9.37268 19.8546 8.48895 20.4437 7.64265L18.8022 6.50005ZM13.8771 14.9972C13.421 16.0219 13.0168 17.06 12.6851 18.0999L14.5905 18.7077C14.8967 17.7478 15.2733 16.7787 15.7043 15.8106L13.8771 14.9972ZM12.6851 18.0999C12.31 19.276 11.9731 20.4923 11.6737 21.7385L13.6183 22.2058C13.9073 21.0032 14.2313 19.8339 14.5905 18.7077L12.6851 18.0999ZM10.3597 29.1447C10.0611 31.6194 9.88663 34.1368 9.83246 36.6316L11.832 36.675C11.8848 34.2434 12.0548 31.7916 12.3453 29.3843L10.3597 29.1447ZM10.0387 44.1362C10.139 45.4103 10.2727 46.6604 10.4395 47.8764L12.4209 47.6048C12.2597 46.4287 12.13 45.2169 12.0326 43.9793L10.0387 44.1362ZM10.4395 47.8764C10.5896 48.9714 10.8584 50.1169 11.2242 51.2611L13.1292 50.6521C12.7938 49.6029 12.5534 48.5708 12.4209 47.6048L10.4395 47.8764ZM14.2276 57.4508C14.9081 58.4443 15.6634 59.36 16.4791 60.1395L17.8609 58.6935C17.1621 58.0257 16.4942 57.2207 15.8776 56.3206L14.2276 57.4508ZM16.4791 60.1395C17.7187 61.3239 19.2605 62.1746 20.9279 62.7512L21.5816 60.8611C20.1215 60.3561 18.8483 59.637 17.8609 58.6935L16.4791 60.1395ZM30.8257 63.5105C32.5737 63.2556 34.236 62.81 35.6648 62.2005L34.8801 60.3609C33.6343 60.8923 32.1428 61.2973 30.5371 61.5315L30.8257 63.5105ZM35.6648 62.2005C37.2583 61.5208 38.6902 60.6397 39.9512 59.6045L38.6822 58.0587C37.5657 58.9753 36.2964 59.7567 34.8801 60.3609L35.6648 62.2005ZM45.565 51.435C46.6486 48.232 46.8393 44.7663 46.0391 41.5268L44.0974 42.0064C44.8012 44.8552 44.6387 47.9321 43.6705 50.7941L45.565 51.435ZM40.7177 33.1175C39.4753 32.1115 38.0328 31.252 36.3879 30.5772L35.6288 32.4275C37.1004 33.0312 38.3735 33.7928 39.4592 34.6718L40.7177 33.1175ZM36.3879 30.5772C35.0946 30.0466 33.7866 29.6705 32.4758 29.4355L32.1228 31.4041C33.2955 31.6143 34.4673 31.951 35.6288 32.4275L36.3879 30.5772ZM24.3909 29.6738C21.7836 30.2728 19.2802 31.3438 16.9762 32.755L18.0209 34.4605C20.1611 33.1496 22.4648 32.1684 24.8388 31.623L24.3909 29.6738ZM10.8034 37.826C9.88877 38.8104 9.04428 39.8517 8.28212 40.9347L9.91773 42.0857C10.6271 41.0776 11.4145 40.1066 12.2687 39.1873L10.8034 37.826ZM8.28212 40.9347C7.30018 42.3301 6.3887 43.8348 5.55722 45.4223L7.32893 46.3503C8.12299 44.8342 8.98959 43.4046 9.91773 42.0857L8.28212 40.9347ZM1.75902 55.1515C0.840141 58.507 0.253009 61.9949 0.0653032 65.4554L2.06237 65.5637C2.24192 62.2535 2.80441 58.9063 3.688 55.6797L1.75902 55.1515ZM0.836746 75.9142C1.22005 77.6603 1.74112 79.3541 2.41216 80.9688L4.25902 80.2013C3.63728 78.7053 3.15032 77.1257 2.79024 75.4853L0.836746 75.9142ZM2.41216 80.9688C3.16615 82.7831 4.10321 84.4877 5.17614 86.0953L6.83966 84.9851C5.8307 83.4733 4.95785 81.8829 4.25902 80.2013L2.41216 80.9688ZM12.8485 94.6628C14.2802 95.9378 15.76 97.1462 17.2429 98.2995L18.4708 96.7208C17.0125 95.5866 15.5686 94.4071 14.1787 93.1692L12.8485 94.6628ZM17.2429 98.2995C19.0566 99.7102 21.0159 100.945 23.0739 102.006L23.9905 100.228C22.0341 99.2196 20.1802 98.0503 18.4708 96.7208L17.2429 98.2995ZM36.1099 106.292C38.3925 106.679 40.6884 106.898 42.9524 106.948L42.9968 104.948C40.8307 104.9 38.6317 104.691 36.4444 104.32L36.1099 106.292ZM42.9524 106.948C44.3409 106.979 45.753 107.028 47.1908 107.072L47.2527 105.073C45.8252 105.029 44.3969 104.98 42.9968 104.948L42.9524 106.948ZM55.7633 107.098C57.2161 107.032 58.6619 106.913 60.0847 106.718L59.8128 104.737C58.4618 104.922 57.0778 105.036 55.6719 105.1L55.7633 107.098ZM60.0847 106.718C60.7107 106.632 61.3055 106.521 61.8756 106.404L61.475 104.445C60.9263 104.557 60.3785 104.659 59.8128 104.737L60.0847 106.718Z" fill="#FF8500"/>
</svg>
