<svg width="234" height="131" viewBox="0 0 234 131" fill="none" xmlns="http://www.w3.org/2000/svg">
<path opacity="0.35" d="M1.21076 10.3714C0.513329 10.8185 0.310371 11.7463 0.757445 12.4437C1.20452 13.1412 2.13233 13.3441 2.82976 12.8971L1.21076 10.3714ZM135.048 31.8967L133.891 32.8521L135.048 31.8967ZM131.964 60.7487L131.862 59.2523L131.964 60.7487ZM77.454 36.1915L75.9552 36.2527L77.454 36.1915ZM127.78 15.3784L127.481 16.8484L127.78 15.3784ZM206.627 79.5796L207.921 78.8197L206.627 79.5796ZM226.009 130.566L233.965 115.181L216.664 115.983L226.009 130.566ZM6.75755 10.6384C7.49438 10.2597 7.78475 9.35546 7.40611 8.61863C7.02747 7.8818 6.1232 7.59143 5.38637 7.97007L6.75755 10.6384ZM14.2634 4.34262C13.4737 4.59293 13.0365 5.43603 13.2868 6.22574C13.5371 7.01544 14.3802 7.45271 15.1699 7.2024L14.2634 4.34262ZM24.0591 5.03683C24.8745 4.89037 25.4168 4.11064 25.2703 3.29526C25.1238 2.47989 24.3441 1.93762 23.5287 2.08408L24.0591 5.03683ZM32.9333 0.862638C32.108 0.93418 31.4969 1.66124 31.5685 2.48657C31.64 3.3119 32.3671 3.92297 33.1924 3.85143L32.9333 0.862638ZM42.4404 3.34263C43.2685 3.3188 43.9205 2.62819 43.8967 1.8001C43.8729 0.972019 43.1822 0.32004 42.3542 0.343867L42.4404 3.34263ZM51.7441 0.224195C50.9156 0.225662 50.2453 0.898423 50.2467 1.72685C50.2482 2.55527 50.921 3.22566 51.7494 3.22419L51.7441 0.224195ZM60.7335 3.27708C61.5616 3.29792 62.2499 2.64345 62.2707 1.81528C62.2916 0.987119 61.6371 0.298866 60.8089 0.278028L60.7335 3.27708ZM69.5829 0.733026C68.7571 0.667325 68.0344 1.28352 67.9687 2.10934C67.903 2.93516 68.5192 3.65788 69.345 3.72358L69.5829 0.733026ZM77.9069 4.66095C78.7272 4.77645 79.4858 4.20506 79.6013 3.38472C79.7168 2.56438 79.1454 1.80574 78.3251 1.69025L77.9069 4.66095ZM86.9986 3.20777C86.188 3.03677 85.3923 3.55526 85.2213 4.36585C85.0503 5.17644 85.5688 5.97217 86.3794 6.14316L86.9986 3.20777ZM94.7092 8.23088C95.5042 8.46368 96.3375 8.0079 96.5703 7.21286C96.8031 6.41781 96.3473 5.58458 95.5523 5.35177L94.7092 8.23088ZM103.915 8.19313C103.143 7.89208 102.274 8.27368 101.973 9.04547C101.672 9.81726 102.053 10.687 102.825 10.988L103.915 8.19313ZM110.636 14.4756C111.375 14.8507 112.278 14.5559 112.653 13.8172C113.028 13.0786 112.733 12.1757 111.994 11.8007L110.636 14.4756ZM119.671 16.2294C118.978 15.7766 118.048 15.9719 117.595 16.6656C117.143 17.3593 117.338 18.2888 118.032 18.7416L119.671 16.2294ZM124.886 23.8065C125.522 24.3374 126.468 24.2523 126.999 23.6163C127.53 22.9804 127.445 22.0345 126.809 21.5036L124.886 23.8065ZM133.267 27.6017C132.701 26.9969 131.751 26.9656 131.147 27.5317C130.542 28.0979 130.51 29.0471 131.077 29.6519L133.267 27.6017ZM136.494 36.4732C136.934 37.1747 137.86 37.3863 138.562 36.9457C139.263 36.5052 139.475 35.5793 139.034 34.8777L136.494 36.4732ZM143.139 43.6425C142.892 42.8518 142.05 42.411 141.26 42.6579C140.469 42.9049 140.028 43.7462 140.275 44.5369L143.139 43.6425ZM141.029 52.9413C140.847 53.7496 141.356 54.5519 142.164 54.7333C142.972 54.9146 143.775 54.4064 143.956 53.598L141.029 52.9413ZM137.039 61.2684C137.819 60.9877 138.223 60.1284 137.942 59.3489C137.662 58.5695 136.802 58.1651 136.023 58.4458L137.039 61.2684ZM127.681 59.5082C126.854 59.552 126.219 60.2581 126.263 61.0854C126.306 61.9127 127.013 62.5478 127.84 62.5041L127.681 59.5082ZM119.34 62.7636C120.169 62.7598 120.837 62.0852 120.833 61.2567C120.83 60.4283 120.155 59.7598 119.326 59.7636L119.34 62.7636ZM111.01 59.5196C110.184 59.4633 109.468 60.0878 109.412 60.9143C109.355 61.7408 109.98 62.4564 110.806 62.5126L111.01 59.5196ZM102.276 61.5007C103.092 61.6453 103.871 61.1013 104.015 60.2856C104.16 59.4699 103.616 58.6914 102.8 58.5468L102.276 61.5007ZM94.8861 56.5077C94.1057 56.2298 93.2477 56.6371 92.9698 57.4175C92.6919 58.198 93.0993 59.0559 93.8797 59.3338L94.8861 56.5077ZM86.0142 55.3798C86.6936 55.8538 87.6287 55.6874 88.1027 55.008C88.5768 54.3286 88.4103 53.3936 87.731 52.9195L86.0142 55.3798ZM82.2622 47.3565C81.8109 46.6619 80.8818 46.4646 80.1871 46.916C79.4925 47.3674 79.2952 48.2964 79.7466 48.9911L82.2622 47.3565ZM76.4569 40.6705C76.6138 41.4839 77.4005 42.0161 78.2139 41.8591C79.0273 41.7022 79.5595 40.9156 79.4025 40.1021L76.4569 40.6705ZM79.0175 32.242C79.0836 31.4162 78.4678 30.6932 77.642 30.6271C76.8162 30.5609 76.0932 31.1768 76.027 32.0025L79.0175 32.242ZM78.118 23.6701C77.7661 24.42 78.0887 25.3133 78.8387 25.6652C79.5886 26.0172 80.4819 25.6945 80.8338 24.9446L78.118 23.6701ZM85.3999 19.2129C86.0523 18.7024 86.1674 17.7597 85.6569 17.1072C85.1464 16.4548 84.2036 16.3397 83.5512 16.8502L85.3999 19.2129ZM91.2145 12.9556C90.4239 13.2031 89.9837 14.0447 90.2312 14.8353C90.4787 15.6259 91.3203 16.0661 92.1109 15.8186L91.2145 12.9556ZM99.7483 14.3733C100.573 14.2985 101.181 13.569 101.107 12.7439C101.032 11.9189 100.302 11.3107 99.4773 11.3856L99.7483 14.3733ZM107.771 11.209C106.943 11.1774 106.246 11.8228 106.214 12.6506C106.183 13.4784 106.828 14.1752 107.656 14.2068L107.771 11.209ZM115.609 14.8685C116.431 14.9694 117.179 14.3847 117.28 13.5625C117.381 12.7402 116.796 11.9918 115.974 11.8908L115.609 14.8685ZM124.068 13.1356C123.253 12.9878 122.472 13.5287 122.325 14.3438C122.177 15.1589 122.718 15.9396 123.533 16.0875L124.068 13.1356ZM131.667 17.8055C132.47 18.0098 133.286 17.5245 133.49 16.7216C133.694 15.9188 133.209 15.1024 132.406 14.8981L131.667 17.8055ZM140.885 17.4951C140.105 17.2149 139.246 17.6199 138.966 18.3995C138.686 19.1791 139.091 20.0382 139.871 20.3183L140.885 17.4951ZM147.808 23.5958C148.559 23.9468 149.451 23.623 149.802 22.8726C150.153 22.1222 149.83 21.2293 149.079 20.8784L147.808 23.5958ZM156.928 24.9816C156.211 24.5664 155.294 24.8109 154.878 25.5278C154.463 26.2446 154.708 27.1624 155.425 27.5776L156.928 24.9816ZM162.686 32.1938C163.366 32.666 164.301 32.497 164.773 31.8163C165.245 31.1356 165.076 30.201 164.396 29.7288L162.686 32.1938ZM171.461 35.0401C170.818 34.5181 169.873 34.6165 169.351 35.2598C168.829 35.9031 168.928 36.8477 169.571 37.3697L171.461 35.0401ZM176.074 43.0338C176.68 43.5988 177.629 43.5656 178.194 42.9597C178.759 42.3538 178.726 41.4046 178.12 40.8396L176.074 43.0338ZM184.377 47.0589C183.808 46.457 182.859 46.4305 182.257 46.9996C181.655 47.5689 181.628 48.5182 182.198 49.1201L184.377 47.0589ZM187.949 55.5692C188.483 56.2029 189.429 56.284 190.063 55.7503C190.696 55.2167 190.777 54.2704 190.244 53.6367L187.949 55.5692ZM195.735 60.5228C195.235 59.8619 194.295 59.7309 193.634 60.2304C192.973 60.7298 192.842 61.6705 193.341 62.3315L195.735 60.5228ZM198.387 69.3631C198.854 70.0476 199.787 70.2242 200.471 69.7576C201.156 69.291 201.332 68.3578 200.866 67.6733L198.387 69.3631ZM205.653 75.0541C205.218 74.3491 204.294 74.1303 203.589 74.5653C202.884 75.0004 202.665 75.9246 203.1 76.6296L205.653 75.0541ZM207.661 84.3042C208.079 85.0194 208.998 85.2604 209.713 84.8424C210.428 84.4243 210.669 83.5057 210.251 82.7904L207.661 84.3042ZM214.828 90.8208C214.429 90.0948 213.517 89.8299 212.791 90.229C212.065 90.6281 211.8 91.5402 212.199 92.2661L214.828 90.8208ZM216.397 100.365C216.757 101.111 217.653 101.425 218.399 101.065C219.146 100.706 219.459 99.809 219.1 99.0627L216.397 100.365ZM222.816 107.617C222.52 106.843 221.653 106.456 220.879 106.752C220.105 107.048 219.718 107.915 220.014 108.689L222.816 107.617ZM222.763 117.281C222.966 118.084 223.782 118.57 224.585 118.368C225.388 118.165 225.875 117.349 225.672 116.546L222.763 117.281ZM227.29 125.834C227.214 125.009 226.484 124.401 225.659 124.477C224.834 124.553 224.227 125.283 224.302 126.108L227.29 125.834ZM2.82976 12.8971C4.10942 12.0768 5.41976 11.3258 6.75755 10.6384L5.38637 7.97007C3.96684 8.69953 2.57358 9.49783 1.21076 10.3714L2.82976 12.8971ZM15.1699 7.2024C18.0569 6.2873 21.0289 5.58113 24.0591 5.03683L23.5287 2.08408C20.3909 2.64771 17.2914 3.38287 14.2634 4.34262L15.1699 7.2024ZM33.1924 3.85143C36.2593 3.58558 39.3504 3.43154 42.4404 3.34263L42.3542 0.343867C39.2234 0.433955 36.0724 0.590537 32.9333 0.862638L33.1924 3.85143ZM51.7494 3.22419C53.3173 3.22141 54.8733 3.22325 56.4206 3.22325V0.223253C54.878 0.223253 53.3155 0.221413 51.7441 0.224195L51.7494 3.22419ZM56.4206 3.22325C57.8531 3.22325 59.2913 3.24079 60.7335 3.27708L60.8089 0.278028C59.3409 0.24109 57.8776 0.223253 56.4206 0.223253V3.22325ZM69.345 3.72358C72.2028 3.95094 75.0613 4.26034 77.9069 4.66095L78.3251 1.69025C75.4162 1.28071 72.4974 0.964896 69.5829 0.733026L69.345 3.72358ZM86.3794 6.14316C89.188 6.73566 91.9692 7.42854 94.7092 8.23088L95.5523 5.35177C92.734 4.52652 89.8779 3.81517 86.9986 3.20777L86.3794 6.14316ZM102.825 10.988C105.489 12.0273 108.098 13.1868 110.636 14.4756L111.994 11.8007C109.364 10.4651 106.666 9.26604 103.915 8.19313L102.825 10.988ZM118.032 18.7416C120.403 20.2896 122.693 21.9749 124.886 23.8065L126.809 21.5036C124.522 19.594 122.138 17.8392 119.671 16.2294L118.032 18.7416ZM131.077 29.6519C132.041 30.6816 132.979 31.748 133.891 32.8521L136.204 30.9414C135.253 29.7893 134.273 28.6764 133.267 27.6017L131.077 29.6519ZM133.891 32.8521C134.787 33.9366 135.668 35.1593 136.494 36.4732L139.034 34.8777C138.145 33.4615 137.188 32.1325 136.204 30.9414L133.891 32.8521ZM140.275 44.5369C141.242 47.6334 141.563 50.5613 141.029 52.9413L143.956 53.598C144.649 50.5099 144.19 47.009 143.139 43.6425L140.275 44.5369ZM136.023 58.4458C134.888 58.8544 133.514 59.1391 131.862 59.2523L132.067 62.2452C133.944 62.1167 135.598 61.7872 137.039 61.2684L136.023 58.4458ZM131.862 59.2523C130.519 59.3443 129.121 59.4321 127.681 59.5082L127.84 62.5041C129.298 62.4269 130.712 62.338 132.067 62.2452L131.862 59.2523ZM119.326 59.7636C116.582 59.7761 113.786 59.7084 111.01 59.5196L110.806 62.5126C113.669 62.7073 116.539 62.7763 119.34 62.7636L119.326 59.7636ZM102.8 58.5468C100.023 58.0545 97.3603 57.3887 94.8861 56.5077L93.8797 59.3338C96.5412 60.2816 99.3706 60.9856 102.276 61.5007L102.8 58.5468ZM87.731 52.9195C85.545 51.3942 83.6936 49.5595 82.2622 47.3565L79.7466 48.9911C81.4128 51.5555 83.55 53.6603 86.0142 55.3798L87.731 52.9195ZM79.4025 40.1021C79.1635 38.8633 79.0103 37.5413 78.9527 36.1303L75.9552 36.2527C76.0185 37.8042 76.1878 39.2757 76.4569 40.6705L79.4025 40.1021ZM78.9527 36.1303C78.8963 34.7491 78.9204 33.4547 79.0175 32.242L76.027 32.0025C75.9195 33.3451 75.8943 34.7608 75.9552 36.2527L78.9527 36.1303ZM80.8338 24.9446C81.9428 22.5816 83.4969 20.7019 85.3999 19.2129L83.5512 16.8502C81.2923 18.6177 79.4344 20.8651 78.118 23.6701L80.8338 24.9446ZM92.1109 15.8186C94.454 15.085 97.0255 14.6203 99.7483 14.3733L99.4773 11.3856C96.5928 11.6472 93.8045 12.1447 91.2145 12.9556L92.1109 15.8186ZM107.656 14.2068C110.288 14.3075 112.961 14.5434 115.609 14.8685L115.974 11.8908C113.26 11.5576 110.502 11.3135 107.771 11.209L107.656 14.2068ZM123.533 16.0875C124.88 16.3318 126.199 16.5879 127.481 16.8484L128.079 13.9085C126.779 13.6444 125.439 13.3843 124.068 13.1356L123.533 16.0875ZM127.481 16.8484C128.891 17.1349 130.286 17.4543 131.667 17.8055L132.406 14.8981C130.979 14.535 129.536 14.2047 128.079 13.9085L127.481 16.8484ZM139.871 20.3183C142.576 21.2906 145.222 22.3864 147.808 23.5958L149.079 20.8784C146.412 19.6308 143.68 18.4995 140.885 17.4951L139.871 20.3183ZM155.425 27.5776C157.905 29.0144 160.326 30.5564 162.686 32.1938L164.396 29.7288C161.971 28.0468 159.482 26.4608 156.928 24.9816L155.425 27.5776ZM169.571 37.3697C171.798 39.1767 173.966 41.0681 176.074 43.0338L178.12 40.8396C175.964 38.829 173.744 36.8923 171.461 35.0401L169.571 37.3697ZM182.198 49.1201C184.173 51.2096 186.091 53.3626 187.949 55.5692L190.244 53.6367C188.35 51.388 186.394 49.1919 184.377 47.0589L182.198 49.1201ZM193.341 62.3315C195.082 64.635 196.764 66.9821 198.387 69.3631L200.866 67.6733C199.216 65.2536 197.506 62.8667 195.735 60.5228L193.341 62.3315ZM203.1 76.6296C203.86 77.8606 204.604 79.0977 205.334 80.3396L207.921 78.8197C207.18 77.5595 206.424 76.3039 205.653 75.0541L203.1 76.6296ZM205.334 80.3396C206.103 81.6486 206.881 82.969 207.661 84.3042L210.251 82.7904C209.468 81.4512 208.688 80.1261 207.921 78.8197L205.334 80.3396ZM212.199 92.2661C213.662 94.926 215.078 97.6265 216.397 100.365L219.1 99.0627C217.751 96.2641 216.309 93.5145 214.828 90.8208L212.199 92.2661ZM220.014 108.689C221.1 111.525 222.033 114.39 222.763 117.281L225.672 116.546C224.908 113.524 223.937 110.546 222.816 107.617L220.014 108.689Z" fill="#FF8500"/>
</svg>
