<svg width="296" height="119" viewBox="0 0 296 119" fill="none" xmlns="http://www.w3.org/2000/svg">
<path opacity="0.35" d="M0.688016 48.5013C0.376772 49.269 0.746831 50.1437 1.51457 50.4549C2.2823 50.7662 3.15699 50.3961 3.46823 49.6284L0.688016 48.5013ZM52.9546 13.8257L53.4041 15.2568L52.9546 13.8257ZM158.011 7.10826L157.555 8.53732L158.011 7.10826ZM185.211 49.9458L186.371 50.8973L185.211 49.9458ZM133.784 55.0114L132.342 55.4235L133.784 55.0114ZM153.386 18.2306L154.019 19.5903L153.386 18.2306ZM250.404 44.3296L251.567 43.3831L250.404 44.3296ZM287.515 118.442L295.598 103.123L278.29 103.782L287.515 118.442ZM5.11734 46.2258C5.52503 45.5046 5.27091 44.5895 4.54975 44.1818C3.82858 43.7741 2.91347 44.0282 2.50577 44.7494L5.11734 46.2258ZM7.32557 38.0505C6.77798 38.6722 6.83802 39.62 7.45966 40.1676C8.0813 40.7152 9.02915 40.6552 9.57674 40.0335L7.32557 38.0505ZM15.1249 34.6566C15.759 34.1234 15.8408 33.1772 15.3076 32.5431C14.7744 31.9091 13.8282 31.8273 13.1942 32.3604L15.1249 34.6566ZM19.6975 27.5003C19.0089 27.9609 18.8241 28.8925 19.2848 29.5811C19.7454 30.2697 20.677 30.4544 21.3656 29.9938L19.6975 27.5003ZM28.0571 25.9278C28.7817 25.5264 29.0438 24.6135 28.6423 23.8888C28.2409 23.1642 27.328 22.9021 26.6034 23.3036L28.0571 25.9278ZM33.7828 19.646C33.0328 19.9978 32.7101 20.891 33.0619 21.641C33.4137 22.391 34.307 22.7138 35.057 22.3619L33.7828 19.646ZM42.2786 19.2275C43.0474 18.9189 43.4205 18.0455 43.1119 17.2767C42.8034 16.5079 41.93 16.1348 41.1612 16.4433L42.2786 19.2275ZM48.6928 13.6462C47.909 13.9146 47.4913 14.7676 47.7597 15.5513C48.0281 16.3351 48.8811 16.7528 49.6648 16.4844L48.6928 13.6462ZM57.643 13.9527C58.4362 13.7139 58.8857 12.8772 58.6469 12.084C58.4081 11.2907 57.5714 10.8412 56.7782 11.0801L57.643 13.9527ZM65.3824 8.61067C64.5831 8.82841 64.1116 9.65289 64.3294 10.4522C64.5471 11.2515 65.3716 11.7229 66.1709 11.5052L65.3824 8.61067ZM74.7569 9.30149C75.5623 9.10789 76.0584 8.29797 75.8648 7.49248C75.6712 6.68699 74.8613 6.19096 74.0558 6.38456L74.7569 9.30149ZM82.8026 4.43589C81.991 4.60198 81.4677 5.39455 81.6338 6.20616C81.7999 7.01777 82.5925 7.54107 83.4041 7.37498L82.8026 4.43589ZM92.1089 5.76354C92.9263 5.62871 93.4796 4.85679 93.3447 4.03941C93.2099 3.22203 92.438 2.66871 91.6206 2.80354L92.1089 5.76354ZM100.505 1.53057C99.6821 1.63001 99.096 2.37734 99.1954 3.19977C99.2949 4.02221 100.042 4.60832 100.865 4.50888L100.505 1.53057ZM109.66 3.65705C110.487 3.5976 111.108 2.87956 111.049 2.05327C110.989 1.22698 110.271 0.605334 109.445 0.664787L109.66 3.65705ZM118.426 0.258967C117.598 0.273436 116.938 0.956636 116.953 1.78494C116.967 2.61324 117.651 3.27298 118.479 3.25851L118.426 0.258967ZM127.297 3.36743C128.124 3.40327 128.824 2.76138 128.86 1.93373C128.896 1.10608 128.254 0.406079 127.426 0.370235L127.297 3.36743ZM136.41 1.05848C135.586 0.966898 134.845 1.56011 134.753 2.38346C134.662 3.20681 135.255 3.94851 136.078 4.04009L136.41 1.05848ZM144.779 5.33192C145.594 5.48442 146.377 4.94796 146.53 4.13369C146.682 3.31942 146.146 2.5357 145.332 2.38319L144.779 5.33192ZM154.133 4.39851C153.334 4.18067 152.509 4.65202 152.291 5.45129C152.073 6.25057 152.545 7.0751 153.344 7.29293L154.133 4.39851ZM162.01 10.265C162.766 10.6038 163.654 10.2657 163.992 9.50974C164.331 8.75378 163.993 7.86626 163.237 7.52741L162.01 10.265ZM172.126 12.3929C171.431 11.9422 170.502 12.1404 170.052 12.8355C169.601 13.5307 169.799 14.4595 170.494 14.9102L172.126 12.3929ZM178.171 20.7773C178.784 21.3341 179.733 21.2883 180.29 20.6749C180.847 20.0615 180.801 19.1129 180.187 18.556L178.171 20.7773ZM186.967 26.2484C186.506 25.5602 185.574 25.3762 184.886 25.8373C184.198 26.2985 184.014 27.2302 184.475 27.9184L186.967 26.2484ZM187.982 36.3888C188.104 37.2083 188.866 37.7743 189.686 37.653C190.505 37.5318 191.071 36.7691 190.95 35.9496L187.982 36.3888ZM189.267 46.4558C189.632 45.7124 189.326 44.8134 188.583 44.4479C187.839 44.0824 186.94 44.3888 186.575 45.1322L189.267 46.4558ZM180.725 51.8627C180.042 52.3322 179.87 53.2661 180.339 53.9486C180.809 54.6312 181.743 54.8039 182.425 54.3344L180.725 51.8627ZM173.64 59.0485C174.401 58.7197 174.751 57.8368 174.422 57.0764C174.093 56.316 173.21 55.966 172.45 56.2947L173.64 59.0485ZM163.521 59.4824C162.724 59.7107 162.264 60.5413 162.492 61.3377C162.72 62.134 163.551 62.5946 164.347 62.3663L163.521 59.4824ZM154.663 64.4129C155.484 64.3065 156.064 63.5543 155.958 62.7327C155.851 61.9111 155.099 61.3314 154.277 61.4378L154.663 64.4129ZM145.016 61.5683C144.195 61.4565 143.439 62.0314 143.328 62.8522C143.216 63.6731 143.791 64.4291 144.611 64.5409L145.016 61.5683ZM135.049 60.2257C135.62 60.8261 136.569 60.8501 137.17 60.2793C137.77 59.7086 137.794 58.7591 137.223 58.1587L135.049 60.2257ZM134.531 51.1541C134.431 50.3317 133.683 49.746 132.861 49.8458C132.038 49.9456 131.453 50.6932 131.553 51.5156L134.531 51.1541ZM131.779 43.6026C131.638 44.4189 132.185 45.1952 133.002 45.3364C133.818 45.4776 134.594 44.9304 134.735 44.1141L131.779 43.6026ZM136.825 37.3064C137.16 36.5487 136.818 35.6629 136.06 35.3279C135.302 34.9929 134.417 35.3356 134.082 36.0932L136.825 37.3064ZM137.976 29.3291C137.492 30.0014 137.644 30.9388 138.317 31.4229C138.989 31.907 139.926 31.7545 140.41 31.0823L137.976 29.3291ZM145.166 25.6673C145.77 25.1002 145.8 24.1509 145.233 23.547C144.666 22.9432 143.717 22.9134 143.113 23.4805L145.166 25.6673ZM149.3 18.7327C148.594 19.1665 148.373 20.0903 148.807 20.796C149.241 21.5018 150.165 21.7224 150.87 21.2886L149.3 18.7327ZM158.076 17.853C158.847 17.5509 159.227 16.6806 158.925 15.9093C158.623 15.1379 157.753 14.7575 156.981 15.0597L158.076 17.853ZM165.73 12.2544C164.927 12.457 164.44 13.2725 164.643 14.0757C164.846 14.879 165.661 15.3659 166.464 15.1632L165.73 12.2544ZM175.129 13.5485C175.951 13.448 176.536 12.6998 176.435 11.8775C176.335 11.0552 175.587 10.4701 174.764 10.5707L175.129 13.5485ZM183.931 10.0172C183.102 10.0168 182.43 10.6881 182.43 11.5166C182.43 12.345 183.101 13.0168 183.929 13.0172L183.931 10.0172ZM192.739 13.5425C193.562 13.6399 194.308 13.0519 194.405 12.2292C194.502 11.4065 193.914 10.6607 193.092 10.5633L192.739 13.5425ZM202.123 12.1541C201.316 11.9652 200.509 12.4659 200.32 13.2725C200.131 14.0791 200.632 14.8861 201.438 15.075L202.123 12.1541ZM209.926 17.5529C210.707 17.8271 211.563 17.4156 211.837 16.6339C212.112 15.8522 211.7 14.9962 210.918 14.722L209.926 17.5529ZM219.391 18.197C218.642 17.8438 217.748 18.1649 217.395 18.9142C217.042 19.6635 217.363 20.5574 218.112 20.9106L219.391 18.197ZM225.919 25.0834C226.629 25.5099 227.551 25.2799 227.977 24.5697C228.404 23.8595 228.174 22.938 227.464 22.5115L225.919 25.0834ZM235.066 27.6045C234.402 27.1101 233.462 27.2482 232.968 27.9129C232.473 28.5776 232.611 29.5173 233.276 30.0117L235.066 27.6045ZM240.113 35.6395C240.726 36.1968 241.675 36.1518 242.232 35.5388C242.79 34.9259 242.745 33.9772 242.132 33.4199L240.113 35.6395ZM248.589 39.9052C248.035 39.2898 247.086 39.2404 246.471 39.7949C245.855 40.3494 245.806 41.2979 246.361 41.9134L248.589 39.9052ZM251.892 48.5503C252.412 49.1954 253.356 49.2968 254.001 48.777C254.646 48.2571 254.748 47.3128 254.228 46.6678L251.892 48.5503ZM259.497 53.3098C258.988 52.6559 258.046 52.5383 257.392 53.047C256.738 53.5557 256.621 54.4982 257.129 55.152L259.497 53.3098ZM262.208 61.8526C262.699 62.5199 263.638 62.6629 264.305 62.1719C264.972 61.681 265.115 60.7421 264.624 60.0748L262.208 61.8526ZM269.543 67.0116C269.077 66.3268 268.144 66.1495 267.459 66.6157C266.774 67.0818 266.597 68.0149 267.063 68.6997L269.543 67.0116ZM271.619 75.7306C272.053 76.4366 272.976 76.6578 273.683 76.2244C274.389 75.7911 274.61 74.8675 274.176 74.1614L271.619 75.7306ZM278.432 81.5633C278.041 80.8327 277.132 80.557 276.402 80.9475C275.671 81.338 275.395 82.2468 275.786 82.9774L278.432 81.5633ZM279.449 90.4652C279.784 91.2228 280.67 91.5654 281.428 91.2303C282.185 90.8952 282.528 90.0094 282.193 89.2518L279.449 90.4652ZM285.311 97.2494C285.048 96.4641 284.197 96.0413 283.412 96.305C282.627 96.5688 282.204 97.4192 282.468 98.2046L285.311 97.2494ZM284.669 106.181C284.842 106.991 285.639 107.507 286.449 107.334C287.259 107.16 287.776 106.363 287.602 105.553L284.669 106.181ZM288.85 114.108C288.788 113.282 288.067 112.663 287.241 112.725C286.415 112.788 285.796 113.508 285.858 114.334L288.85 114.108ZM3.46823 49.6284C3.93784 48.47 4.4898 47.3358 5.11734 46.2258L2.50577 44.7494C1.81827 45.9655 1.20902 47.2161 0.688016 48.5013L3.46823 49.6284ZM9.57674 40.0335C11.2332 38.1531 13.0986 36.3605 15.1249 34.6566L13.1942 32.3604C11.07 34.1466 9.0943 36.0426 7.32557 38.0505L9.57674 40.0335ZM21.3656 29.9938C23.5161 28.555 25.761 27.1997 28.0571 25.9278L26.6034 23.3036C24.2429 24.6111 21.9255 26.0097 19.6975 27.5003L21.3656 29.9938ZM35.057 22.3619C37.4758 21.2272 39.899 20.1825 42.2786 19.2275L41.1612 16.4433C38.7335 17.4177 36.2577 18.485 33.7828 19.646L35.057 22.3619ZM49.6648 16.4844C50.9464 16.0455 52.1959 15.6363 53.4041 15.2568L52.5051 12.3946C51.2729 12.7817 49.9991 13.1988 48.6928 13.6462L49.6648 16.4844ZM53.4041 15.2568C54.8083 14.8157 56.2215 14.3806 57.643 13.9527L56.7782 11.0801C55.3448 11.5116 53.9202 11.9501 52.5051 12.3946L53.4041 15.2568ZM66.1709 11.5052C69.0088 10.7321 71.8726 9.99474 74.7569 9.30149L74.0558 6.38456C71.1403 7.08531 68.2473 7.83019 65.3824 8.61067L66.1709 11.5052ZM83.4041 7.37498C86.2929 6.78382 89.1963 6.244 92.1089 5.76354L91.6206 2.80354C88.6679 3.29061 85.7268 3.83751 82.8026 4.43589L83.4041 7.37498ZM100.865 4.50888C103.795 4.15464 106.728 3.86802 109.66 3.65705L109.445 0.664787C106.462 0.879433 103.48 1.17084 100.505 1.53057L100.865 4.50888ZM118.479 3.25851C121.427 3.20701 124.368 3.2406 127.297 3.36743L127.426 0.370235C124.434 0.240644 121.432 0.20646 118.426 0.258967L118.479 3.25851ZM136.078 4.04009C138.999 4.36496 141.901 4.7928 144.779 5.33192L145.332 2.38319C142.377 1.82978 139.401 1.3912 136.41 1.05848L136.078 4.04009ZM153.344 7.29293C154.755 7.67755 156.159 8.092 157.555 8.53732L158.467 5.67919C157.029 5.22068 155.585 4.79416 154.133 4.39851L153.344 7.29293ZM157.555 8.53732C158.91 8.96929 160.413 9.54922 162.01 10.265L163.237 7.52741C161.554 6.7731 159.945 6.15056 158.467 5.67919L157.555 8.53732ZM170.494 14.9102C173.161 16.639 175.789 18.6151 178.171 20.7773L180.187 18.556C177.67 16.2705 174.91 14.1973 172.126 12.3929L170.494 14.9102ZM184.475 27.9184C186.317 30.6669 187.557 33.5153 187.982 36.3888L190.95 35.9496C190.444 32.5271 188.987 29.2632 186.967 26.2484L184.475 27.9184ZM186.575 45.1322C185.949 46.4043 185.119 47.6941 184.052 48.9943L186.371 50.8973C187.571 49.4348 188.531 47.9524 189.267 46.4558L186.575 45.1322ZM184.052 48.9943C183.348 49.8525 182.228 50.829 180.725 51.8627L182.425 54.3344C184.049 53.2173 185.419 52.0572 186.371 50.8973L184.052 48.9943ZM172.45 56.2947C169.678 57.4928 166.639 58.5885 163.521 59.4824L164.347 62.3663C167.59 61.4368 170.751 60.2975 173.64 59.0485L172.45 56.2947ZM154.277 61.4378C150.943 61.8696 147.783 61.945 145.016 61.5683L144.611 64.5409C147.714 64.9633 151.151 64.8677 154.663 64.4129L154.277 61.4378ZM137.223 58.1587C136.325 57.2138 135.64 56.0459 135.227 54.5993L132.342 55.4235C132.885 57.323 133.808 58.9206 135.049 60.2257L137.223 58.1587ZM135.227 54.5993C134.9 53.4576 134.671 52.3073 134.531 51.1541L131.553 51.5156C131.711 52.8221 131.972 54.1271 132.342 55.4235L135.227 54.5993ZM134.735 44.1141C135.136 41.7982 135.85 39.5121 136.825 37.3064L134.082 36.0932C133.016 38.5034 132.225 41.0245 131.779 43.6026L134.735 44.1141ZM140.41 31.0823C141.82 29.1253 143.424 27.3039 145.166 25.6673L143.113 23.4805C141.231 25.2474 139.499 27.2136 137.976 29.3291L140.41 31.0823ZM150.87 21.2886C151.903 20.654 152.956 20.0858 154.019 19.5903L152.753 16.8708C151.58 17.417 150.426 18.0404 149.3 18.7327L150.87 21.2886ZM154.019 19.5903C155.363 18.9644 156.716 18.3857 158.076 17.853L156.981 15.0597C155.563 15.6151 154.153 16.2185 152.753 16.8708L154.019 19.5903ZM166.464 15.1632C169.337 14.4385 172.229 13.9033 175.129 13.5485L174.764 10.5707C171.742 10.9404 168.726 11.4985 165.73 12.2544L166.464 15.1632ZM183.929 13.0172C186.876 13.0184 189.817 13.1965 192.739 13.5425L193.092 10.5633C190.055 10.2038 186.997 10.0184 183.931 10.0172L183.929 13.0172ZM201.438 15.075C204.304 15.7461 207.138 16.5751 209.926 17.5529L210.918 14.722C208.031 13.7094 205.095 12.8501 202.123 12.1541L201.438 15.075ZM218.112 20.9106C220.777 22.1671 223.384 23.561 225.919 25.0834L227.464 22.5115C224.843 20.938 222.148 19.4967 219.391 18.197L218.112 20.9106ZM233.276 30.0117C235.644 31.7728 237.927 33.6518 240.113 35.6395L242.132 33.4199C239.873 31.3658 237.513 29.4242 235.066 27.6045L233.276 30.0117ZM246.361 41.9134C247.348 43.0099 248.309 44.1311 249.24 45.276L251.567 43.3831C250.604 42.1987 249.611 41.0391 248.589 39.9052L246.361 41.9134ZM249.24 45.276C250.115 46.3513 251 47.4429 251.892 48.5503L254.228 46.6678C253.332 45.5558 252.444 44.4605 251.567 43.3831L249.24 45.276ZM257.129 55.152C258.83 57.3372 260.53 59.5723 262.208 61.8526L264.624 60.0748C262.928 57.7689 261.211 55.5121 259.497 53.3098L257.129 55.152ZM267.063 68.6997C268.634 71.0075 270.16 73.3526 271.619 75.7306L274.176 74.1614C272.689 71.7385 271.137 69.3535 269.543 67.0116L267.063 68.6997ZM275.786 82.9774C277.106 85.4476 278.335 87.9451 279.449 90.4652L282.193 89.2518C281.045 86.6567 279.783 84.0922 278.432 81.5633L275.786 82.9774ZM282.468 98.2046C283.355 100.848 284.097 103.508 284.669 106.181L287.602 105.553C287.005 102.76 286.232 99.9902 285.311 97.2494L282.468 98.2046Z" fill="#FF8500"/>
</svg>
