<svg width="67" height="111" viewBox="0 0 67 111" fill="none" xmlns="http://www.w3.org/2000/svg">
<path opacity="0.35" d="M40.5581 1.98058C40.0166 1.87227 39.6653 1.34544 39.7736 0.803884C39.882 0.262324 40.4088 -0.0888926 40.9503 0.0194193L40.5581 1.98058ZM47.3771 6.73981L46.5563 7.31111L47.3771 6.73981ZM53.3622 18.0723L52.4095 18.3761L53.3622 18.0723ZM55.5698 47.4091L56.5605 47.5449L55.5698 47.4091ZM49.83 59.0849L50.5209 59.8079L49.83 59.0849ZM31.7275 60.9491L32.1199 60.0293L31.7275 60.9491ZM30.9916 31.1708L30.6121 30.2456L30.9916 31.1708ZM57.9001 41.1787L58.7179 40.6032L57.9001 41.1787ZM63.6644 80.2535L62.741 79.8698L63.6644 80.2535ZM49.1432 97.1786L48.5292 96.3893L49.1432 97.1786ZM24.0254 105.617L24.0476 106.616L24.0254 105.617ZM7.05124 105.396L6.91526 106.387L7.05124 105.396ZM0.134033 104.317L10.4989 99.2272L9.72403 110.748L0.134033 104.317ZM43.3299 1.09991C43.7867 1.41021 43.9056 2.03213 43.5953 2.489C43.285 2.94587 42.663 3.06468 42.2062 2.75438L43.3299 1.09991ZM45.2503 5.62244C44.893 5.20134 44.9447 4.57029 45.3657 4.21294C45.7868 3.85559 46.4179 3.90726 46.7752 4.32835L45.2503 5.62244ZM49.9995 8.8892C50.2929 9.35713 50.1514 9.97427 49.6835 10.2676C49.2155 10.561 48.5984 10.4195 48.305 9.95155L49.9995 8.8892ZM51.2957 15.479C51.0711 14.9745 51.2981 14.3834 51.8026 14.1588C52.3072 13.9342 52.8983 14.1611 53.1229 14.6657L51.2957 15.479ZM55.3263 21.4069C55.4554 21.9439 55.1247 22.4839 54.5877 22.6129C54.0507 22.742 53.5107 22.4112 53.3817 21.8742L55.3263 21.4069ZM54.6547 29.0527C54.5885 28.5044 54.9794 28.0063 55.5277 27.9401C56.076 27.874 56.5741 28.2648 56.6403 28.8131L54.6547 29.0527ZM57.1675 36.3001C57.1795 36.8522 56.7416 37.3096 56.1895 37.3216C55.6373 37.3335 55.18 36.8957 55.168 36.3435L57.1675 36.3001ZM54.9674 43.6477C55.0108 43.0971 55.4922 42.6859 56.0428 42.7293C56.5934 42.7726 57.0046 43.2541 56.9613 43.8047L54.9674 43.6477ZM55.7758 50.9296C55.6076 51.4556 55.0448 51.7457 54.5188 51.5776C53.9927 51.4094 53.7026 50.8466 53.8708 50.3205L55.7758 50.9296ZM51.1224 55.989C51.4345 55.5334 52.0569 55.417 52.5125 55.7291C52.9682 56.0412 53.0845 56.6636 52.7724 57.1192L51.1224 55.989ZM46.0721 62.4197C45.5501 62.6002 44.9806 62.3234 44.8001 61.8015C44.6196 61.2795 44.8964 60.71 45.4184 60.5295L46.0721 62.4197ZM36.4629 61.1999C37.0094 61.2797 37.3878 61.7873 37.3081 62.3338C37.2284 62.8803 36.7208 63.2587 36.1743 63.179L36.4629 61.1999ZM27.0488 59.273C26.6219 58.9225 26.56 58.2924 26.9104 57.8655C27.2608 57.4387 27.891 57.3767 28.3178 57.7271L27.0488 59.273ZM23.3295 50.4626C23.5065 50.9857 23.2259 51.5533 22.7027 51.7303C22.1796 51.9073 21.612 51.6266 21.435 51.1035L23.3295 50.4626ZM20.9609 41.1952C21.0934 40.6591 21.6354 40.3318 22.1716 40.4642C22.7077 40.5967 23.035 41.1387 22.9026 41.6749L20.9609 41.1952ZM27.5408 34.3403C27.1116 34.6878 26.4819 34.6216 26.1344 34.1924C25.7868 33.7631 25.8531 33.1334 26.2823 32.7859L27.5408 34.3403ZM34.5242 29.1039C35.0678 29.0065 35.5875 29.3681 35.685 29.9118C35.7825 30.4554 35.4208 30.9751 34.8772 31.0725L34.5242 29.1039ZM42.1612 31.2914C41.623 31.1678 41.2869 30.6311 41.4105 30.0929C41.5342 29.5546 42.0708 29.2185 42.6091 29.3422L42.1612 31.2914ZM50.0238 32.4234C50.4947 32.7119 50.6427 33.3275 50.3542 33.7985C50.0657 34.2695 49.4501 34.4174 48.9791 34.1289L50.0238 32.4234ZM54.7313 38.8557C54.3554 38.4511 54.3787 37.8184 54.7833 37.4425C55.1879 37.0666 55.8206 37.0898 56.1966 37.4944L54.7313 38.8557ZM61.4428 45.0908C61.699 45.58 61.5101 46.1844 61.0209 46.4406C60.5316 46.6969 59.9273 46.508 59.6711 46.0187L61.4428 45.0908ZM63.312 55.3482C63.1661 54.8155 63.4797 54.2655 64.0124 54.1196C64.545 53.9737 65.0951 54.2873 65.241 54.82L63.312 55.3482ZM66.9347 65.1238C66.9646 65.6753 66.5418 66.1466 65.9903 66.1765C65.4389 66.2064 64.9675 65.7836 64.9376 65.2322L66.9347 65.1238ZM64.2098 75.1538C64.3282 74.6144 64.8615 74.273 65.4009 74.3915C65.9404 74.5099 66.2817 75.0432 66.1633 75.5826L64.2098 75.1538ZM61.8239 85.7638C61.5173 86.2232 60.8963 86.347 60.437 86.0404C59.9776 85.7338 59.8537 85.1129 60.1603 84.6535L61.8239 85.7638ZM52.8213 92.8377C53.2338 92.4704 53.8659 92.5069 54.2332 92.9194C54.6005 93.3318 54.5639 93.9639 54.1515 94.3312L52.8213 92.8377ZM43.9261 101.674C43.4352 101.928 42.8321 101.735 42.579 101.244C42.3259 100.753 42.5187 100.15 43.0095 99.8968L43.9261 101.674ZM30.5556 103.989C31.1001 103.896 31.6164 104.263 31.7088 104.807C31.8011 105.352 31.4346 105.868 30.8901 105.96L30.5556 103.989ZM19.8092 106.741C19.2572 106.758 18.7958 106.324 18.7788 105.772C18.7617 105.22 19.1953 104.759 19.7473 104.742L19.8092 106.741ZM11.3281 104.769C11.8798 104.794 12.3066 105.262 12.2814 105.814C12.2561 106.365 11.7884 106.792 11.2367 106.767L11.3281 104.769ZM5.12443 106.073C4.58334 105.962 4.23436 105.434 4.34496 104.893C4.45557 104.352 4.98388 104.003 5.52497 104.113L5.12443 106.073ZM2.00985 103.442C2.55761 103.513 2.94445 104.014 2.87389 104.562C2.80333 105.11 2.30208 105.497 1.75432 105.426L2.00985 103.442ZM40.9503 0.0194193C41.784 0.186158 42.5941 0.600189 43.3299 1.09991L42.2062 2.75438C41.5892 2.33531 41.0312 2.07521 40.5581 1.98058L40.9503 0.0194193ZM46.7752 4.32835C47.3404 4.99428 47.828 5.63714 48.1978 6.16851L46.5563 7.31111C46.2227 6.83172 45.7739 6.23944 45.2503 5.62244L46.7752 4.32835ZM48.1978 6.16851C48.8027 7.03748 49.4095 7.9481 49.9995 8.8892L48.305 9.95155C47.7343 9.04114 47.1454 8.15741 46.5563 7.31111L48.1978 6.16851ZM53.1229 14.6657C53.579 15.6904 53.9832 16.7285 54.3149 17.7684L52.4095 18.3761C52.1033 17.4163 51.7267 16.4471 51.2957 15.479L53.1229 14.6657ZM54.3149 17.7684C54.69 18.9444 55.0269 20.1607 55.3263 21.4069L53.3817 21.8742C53.0927 20.6716 52.7687 19.5024 52.4095 18.3761L54.3149 17.7684ZM56.6403 28.8131C56.9389 31.2879 57.1134 33.8052 57.1675 36.3001L55.168 36.3435C55.1152 33.9119 54.9452 31.46 54.6547 29.0527L56.6403 28.8131ZM56.9613 43.8047C56.861 45.0788 56.7273 46.3288 56.5605 47.5449L54.5791 47.2732C54.7403 46.0972 54.87 44.8854 54.9674 43.6477L56.9613 43.8047ZM56.5605 47.5449C56.4104 48.6399 56.1416 49.7853 55.7758 50.9296L53.8708 50.3205C54.2062 49.2714 54.4466 48.2392 54.5791 47.2732L56.5605 47.5449ZM52.7724 57.1192C52.0919 58.1128 51.3366 59.0284 50.5209 59.8079L49.1391 58.3619C49.8379 57.6942 50.5058 56.8892 51.1224 55.989L52.7724 57.1192ZM50.5209 59.8079C49.2813 60.9924 47.7395 61.843 46.0721 62.4197L45.4184 60.5295C46.8785 60.0246 48.1517 59.3054 49.1391 58.3619L50.5209 59.8079ZM36.1743 63.179C34.4263 62.924 32.764 62.4785 31.3352 61.8689L32.1199 60.0293C33.3657 60.5608 34.8572 60.9657 36.4629 61.1999L36.1743 63.179ZM31.3352 61.8689C29.7417 61.1892 28.3098 60.3082 27.0488 59.273L28.3178 57.7271C29.4343 58.6437 30.7036 59.4252 32.1199 60.0293L31.3352 61.8689ZM21.435 51.1035C20.3514 47.9005 20.1607 44.4347 20.9609 41.1952L22.9026 41.6749C22.1988 44.5237 22.3613 47.6006 23.3295 50.4626L21.435 51.1035ZM26.2823 32.7859C27.5247 31.78 28.9672 30.9204 30.6121 30.2456L31.3712 32.096C29.8996 32.6997 28.6265 33.4613 27.5408 34.3403L26.2823 32.7859ZM30.6121 30.2456C31.9054 29.715 33.2134 29.3389 34.5242 29.1039L34.8772 31.0725C33.7045 31.2828 32.5327 31.6194 31.3712 32.096L30.6121 30.2456ZM42.6091 29.3422C45.2164 29.9413 47.7198 31.0123 50.0238 32.4234L48.9791 34.1289C46.8389 32.818 44.5352 31.8369 42.1612 31.2914L42.6091 29.3422ZM56.1966 37.4944C57.1112 38.4789 57.9557 39.5201 58.7179 40.6032L57.0823 41.7542C56.3729 40.7461 55.5855 39.775 54.7313 38.8557L56.1966 37.4944ZM58.7179 40.6032C59.6998 41.9986 60.6113 43.5032 61.4428 45.0908L59.6711 46.0187C58.877 44.5026 58.0104 43.0731 57.0823 41.7542L58.7179 40.6032ZM65.241 54.82C66.1599 58.1754 66.747 61.6634 66.9347 65.1238L64.9376 65.2322C64.7581 61.922 64.1956 58.5748 63.312 55.3482L65.241 54.82ZM66.1633 75.5826C65.7799 77.3288 65.2589 79.0226 64.5878 80.6373L62.741 79.8698C63.3627 78.3737 63.8497 76.7942 64.2098 75.1538L66.1633 75.5826ZM64.5878 80.6373C63.8338 82.4516 62.8968 84.1562 61.8239 85.7638L60.1603 84.6535C61.1693 83.1418 62.0421 81.5513 62.741 79.8698L64.5878 80.6373ZM54.1515 94.3312C52.7198 95.6063 51.24 96.8146 49.7571 97.968L48.5292 96.3893C49.9875 95.2551 51.4314 94.0756 52.8213 92.8377L54.1515 94.3312ZM49.7571 97.968C47.9434 99.3786 45.9841 100.613 43.9261 101.674L43.0095 99.8968C44.9659 98.8881 46.8198 97.7188 48.5292 96.3893L49.7571 97.968ZM30.8901 105.96C28.6075 106.348 26.3116 106.566 24.0476 106.616L24.0032 104.617C26.1693 104.569 28.3683 104.36 30.5556 103.989L30.8901 105.96ZM24.0476 106.616C22.6591 106.647 21.247 106.696 19.8092 106.741L19.7473 104.742C21.1748 104.698 22.6031 104.648 24.0032 104.617L24.0476 106.616ZM11.2367 106.767C9.78394 106.7 8.33815 106.582 6.91526 106.387L7.18722 104.405C8.53815 104.591 9.92223 104.705 11.3281 104.769L11.2367 106.767ZM6.91526 106.387C6.28933 106.301 5.69455 106.189 5.12443 106.073L5.52497 104.113C6.07365 104.226 6.62149 104.328 7.18722 104.405L6.91526 106.387Z" fill="#FF8500"/>
</svg>
