<svg width="198" height="179" viewBox="0 0 198 179" fill="none" xmlns="http://www.w3.org/2000/svg">
<path opacity="0.35" d="M2.83 141.519C2.13996 141.061 1.20896 141.248 0.750561 141.938C0.292164 142.628 0.479952 143.559 1.17 144.018L2.83 141.519ZM58.5423 169.313L58.1952 170.772L58.5423 169.313ZM148.132 171.428L147.543 170.048L148.132 171.428ZM176.128 107.023L174.685 107.433L176.128 107.023ZM106.96 59.0109L106.95 57.511L106.96 59.0109ZM75.5599 90.3142L74.0794 90.5553L75.5599 90.3142ZM107.838 119.502L107.243 120.879L107.838 119.502ZM170.529 129.549L170.07 128.121L170.529 129.549ZM192.817 65.1447L194.264 64.7499L192.817 65.1447ZM156.146 0L156.104 17.3205L171.125 8.69667L156.146 0ZM5.56636 146.898C6.26246 147.347 7.19087 147.147 7.64002 146.451C8.08917 145.755 7.88899 144.826 7.19289 144.377L5.56636 146.898ZM16.0384 149.87C15.3262 149.447 14.4058 149.681 13.9828 150.393C13.5598 151.106 13.7942 152.026 14.5065 152.449L16.0384 149.87ZM23.7016 157.611C24.4346 157.997 25.3417 157.716 25.7278 156.983C26.1139 156.25 25.8327 155.343 25.0998 154.956L23.7016 157.611ZM34.421 159.505C33.665 159.166 32.7775 159.504 32.4388 160.26C32.1001 161.016 32.4384 161.904 33.1944 162.242L34.421 159.505ZM42.9941 166.218C43.7728 166.501 44.6333 166.099 44.9162 165.321C45.1992 164.542 44.7973 163.682 44.0187 163.399L42.9941 166.218ZM53.8749 166.559C53.0769 166.337 52.2497 166.803 52.0273 167.601C51.8049 168.399 52.2715 169.227 53.0695 169.449L53.8749 166.559ZM62.6362 171.8C63.4444 171.982 64.2471 171.474 64.429 170.666C64.611 169.858 64.1033 169.055 63.2951 168.873L62.6362 171.8ZM72.1529 170.748C71.3402 170.587 70.5511 171.116 70.3904 171.929C70.2298 172.741 70.7583 173.53 71.571 173.691L72.1529 170.748ZM80.5583 175.333C81.3754 175.47 82.1484 174.918 82.285 174.101C82.4216 173.284 81.8699 172.511 81.0528 172.374L80.5583 175.333ZM89.9949 173.717C89.1736 173.608 88.4197 174.186 88.311 175.007C88.2024 175.828 88.78 176.582 89.6013 176.691L89.9949 173.717ZM98.6969 177.715C99.5218 177.791 100.252 177.184 100.328 176.359C100.404 175.534 99.7964 174.804 98.9715 174.728L98.6969 177.715ZM107.971 175.345C107.144 175.309 106.443 175.951 106.407 176.778C106.371 177.606 107.012 178.306 107.84 178.343L107.971 175.345ZM117.02 178.484C117.848 178.471 118.509 177.789 118.497 176.961C118.484 176.133 117.803 175.471 116.974 175.484L117.02 178.484ZM125.942 175.026C125.116 175.1 124.508 175.83 124.582 176.655C124.657 177.48 125.386 178.088 126.211 178.014L125.942 175.026ZM135.359 176.756C136.173 176.601 136.707 175.816 136.553 175.002C136.398 174.188 135.613 173.654 134.799 173.809L135.359 176.756ZM143.41 171.606C142.624 171.866 142.198 172.715 142.458 173.501C142.719 174.288 143.568 174.714 144.354 174.454L143.41 171.606ZM153.113 170.591C153.828 170.172 154.068 169.253 153.649 168.538C153.23 167.823 152.311 167.584 151.596 168.002L153.113 170.591ZM158.867 162.516C158.264 163.084 158.236 164.033 158.804 164.636C159.373 165.239 160.322 165.267 160.925 164.699L158.867 162.516ZM167.33 157.368C167.816 156.697 167.666 155.759 166.995 155.273C166.324 154.788 165.386 154.938 164.9 155.609L167.33 157.368ZM169.672 147.725C169.3 148.465 169.599 149.367 170.339 149.738C171.08 150.11 171.981 149.811 172.353 149.071L169.672 147.725ZM176.044 140.124C176.303 139.337 175.876 138.489 175.089 138.23C174.302 137.97 173.454 138.398 173.195 139.185L176.044 140.124ZM175.449 130.222C175.306 131.038 175.851 131.815 176.667 131.958C177.483 132.101 178.261 131.556 178.404 130.74L175.449 130.222ZM179.341 121.093C179.356 120.264 178.696 119.581 177.867 119.567C177.039 119.553 176.356 120.213 176.342 121.041L179.341 121.093ZM175.685 111.888C175.822 112.705 176.596 113.255 177.413 113.117C178.23 112.98 178.781 112.206 178.643 111.389L175.685 111.888ZM176.108 102.234C175.81 101.461 174.942 101.075 174.169 101.373C173.396 101.671 173.01 102.539 173.308 103.312L176.108 102.234ZM169.498 95.4828C169.92 96.1957 170.84 96.4315 171.553 96.0096C172.265 95.5876 172.501 94.6676 172.079 93.9547L169.498 95.4828ZM166.829 86.4278C166.308 85.7839 165.364 85.6844 164.72 86.2057C164.076 86.7269 163.976 87.6714 164.498 88.3153L166.829 86.4278ZM158.546 81.8785C159.145 82.4499 160.095 82.427 160.666 81.8272C161.238 81.2274 161.215 80.278 160.615 79.7065L158.546 81.8785ZM153.638 73.8063C152.975 73.3087 152.035 73.4424 151.537 74.1048C151.04 74.7672 151.174 75.7075 151.836 76.205L153.638 73.8063ZM144.519 71.3185C145.232 71.7403 146.152 71.5043 146.574 70.7913C146.996 70.0783 146.76 69.1584 146.047 68.7366L144.519 71.3185ZM137.955 64.5197C137.201 64.177 136.312 64.5106 135.969 65.2647C135.626 66.019 135.96 66.9082 136.714 67.2509L137.955 64.5197ZM128.518 64.0547C129.306 64.3123 130.153 63.883 130.411 63.0956C130.668 62.3083 130.239 61.4612 129.451 61.2035L128.518 64.0547ZM120.616 58.8705C119.803 58.7074 119.013 59.2335 118.85 60.0457C118.686 60.8579 119.213 61.6486 120.025 61.8118L120.616 58.8705ZM111.338 60.6429C112.165 60.6978 112.88 60.0722 112.935 59.2456C112.99 58.419 112.364 57.7044 111.537 57.6495L111.338 60.6429ZM102.473 57.6759C101.647 57.7329 101.023 58.449 101.08 59.2755C101.137 60.1019 101.853 60.7258 102.679 60.6688L102.473 57.6759ZM94.2738 61.9194C95.0785 61.7225 95.5713 60.9106 95.3745 60.1059C95.1776 59.3012 94.3657 58.8084 93.561 59.0053L94.2738 61.9194ZM85.0184 62.2941C84.2981 62.7034 84.0459 63.619 84.4551 64.3393C84.8643 65.0596 85.78 65.3118 86.5003 64.9026L85.0184 62.2941ZM80.3886 70.1946C80.8833 69.5301 80.7457 68.5904 80.0812 68.0957C79.4167 67.6009 78.477 67.7386 77.9823 68.403L80.3886 70.1946ZM74.1654 76.9114C73.9852 77.72 74.4945 78.5216 75.3031 78.7018C76.1117 78.8821 76.9133 78.3727 77.0936 77.5642L74.1654 76.9114ZM76.5533 85.8586C76.4998 85.0319 75.7863 84.4051 74.9596 84.4586C74.1329 84.512 73.5061 85.2256 73.5595 86.0523L76.5533 85.8586ZM75.0527 94.4632C75.3184 95.2478 76.17 95.6684 76.9546 95.4026C77.7392 95.1369 78.1599 94.2853 77.8941 93.5007L75.0527 94.4632ZM81.1793 99.7836C80.6947 99.1117 79.7572 98.9597 79.0853 99.4443C78.4133 99.9288 78.2614 100.866 78.7459 101.538L81.1793 99.7836ZM84.0557 107.354C84.6736 107.905 85.6219 107.852 86.1736 107.234C86.7253 106.616 86.6716 105.667 86.0537 105.116L84.0557 107.354ZM91.8933 109.564C91.2019 109.108 90.2714 109.298 89.8151 109.99C89.3587 110.681 89.5493 111.612 90.2407 112.068L91.8933 109.564ZM96.8818 115.977C97.6138 116.365 98.5216 116.086 98.9095 115.354C99.2974 114.622 99.0185 113.714 98.2865 113.326L96.8818 115.977ZM105.002 116.606C104.248 116.263 103.359 116.597 103.016 117.351C102.673 118.105 103.007 118.994 103.761 119.337L105.002 116.606ZM110.989 122.472C111.753 122.79 112.632 122.429 112.95 121.664C113.269 120.9 112.908 120.021 112.143 119.703L110.989 122.472ZM119.625 122.672C118.849 122.381 117.984 122.774 117.694 123.55C117.403 124.326 117.796 125.19 118.571 125.481L119.625 122.672ZM126.292 128.174C127.081 128.427 127.925 127.993 128.178 127.204C128.431 126.415 127.997 125.57 127.208 125.317L126.292 128.174ZM134.905 127.537C134.102 127.333 133.286 127.819 133.082 128.622C132.878 129.425 133.364 130.241 134.167 130.444L134.905 127.537ZM142.207 132.162C143.023 132.301 143.798 131.753 143.938 130.936C144.077 130.119 143.529 129.344 142.712 129.205L142.207 132.162ZM150.604 130.164C149.777 130.107 149.061 130.731 149.005 131.558C148.948 132.384 149.572 133.1 150.399 133.157L150.604 130.164ZM158.69 133.212C159.516 133.163 160.147 132.452 160.097 131.625C160.047 130.798 159.337 130.168 158.51 130.218L158.69 133.212ZM166.292 129.144C165.484 129.325 164.975 130.127 165.155 130.935C165.336 131.744 166.137 132.253 166.946 132.072L166.292 129.144ZM175.57 129.196C176.322 128.848 176.649 127.957 176.302 127.205C175.954 126.453 175.062 126.125 174.31 126.473L175.57 129.196ZM181.887 121.61C181.261 122.152 181.194 123.099 181.736 123.725C182.279 124.352 183.226 124.419 183.852 123.877L181.887 121.61ZM190.287 116.422C190.736 115.726 190.534 114.798 189.837 114.349C189.141 113.901 188.213 114.102 187.764 114.799L190.287 116.422ZM191.686 106.615C191.416 107.398 191.832 108.252 192.615 108.522C193.399 108.792 194.252 108.376 194.522 107.592L191.686 106.615ZM196.79 98.1415C196.912 97.3221 196.346 96.5592 195.527 96.4375C194.707 96.3159 193.944 96.8816 193.823 97.701L196.79 98.1415ZM194.499 88.4907C194.495 89.3191 195.163 89.994 195.992 89.9981C196.82 90.0022 197.495 89.334 197.499 88.5056L194.499 88.4907ZM196.973 78.8947C196.881 78.0714 196.139 77.4785 195.316 77.5705C194.492 77.6625 193.899 78.4044 193.991 79.2277L196.973 78.8947ZM192.477 70.055C192.654 70.8643 193.453 71.3772 194.262 71.2005C195.072 71.0238 195.585 70.2244 195.408 69.4151L192.477 70.055ZM192.865 60.1787C192.599 59.3941 191.748 58.9735 190.963 59.2393C190.178 59.5051 189.758 60.3567 190.024 61.1413L192.865 60.1787ZM186.602 52.5759C186.947 53.3293 187.837 53.6605 188.59 53.3158C189.344 52.9712 189.675 52.0811 189.33 51.3277L186.602 52.5759ZM185.034 42.8616C184.633 42.1369 183.72 41.8748 182.995 42.2762C182.27 42.6777 182.008 43.5905 182.41 44.3152L185.034 42.8616ZM177.677 36.3067C178.115 37.0096 179.041 37.2241 179.744 36.7857C180.447 36.3474 180.661 35.4222 180.223 34.7192L177.677 36.3067ZM175.108 26.8044C174.65 26.1141 173.719 25.926 173.029 26.3841C172.339 26.8423 172.151 27.7732 172.609 28.4634L175.108 26.8044ZM167.388 20.6804C167.85 21.3679 168.782 21.5503 169.47 21.088C170.157 20.6257 170.34 19.6936 169.877 19.0062L167.388 20.6804ZM164.704 11.2098C164.253 10.5149 163.324 10.3172 162.63 10.7683C161.935 11.2193 161.737 12.1483 162.188 12.8431L164.704 11.2098ZM157.192 4.833C157.614 5.54545 158.535 5.7803 159.247 5.35755C159.96 4.93481 160.194 4.01455 159.772 3.30211L157.192 4.833ZM1.17 144.018C2.63922 144.994 4.10377 145.954 5.56636 146.898L7.19289 144.377C5.74281 143.442 4.28948 142.488 2.83 141.519L1.17 144.018ZM14.5065 152.449C17.5467 154.255 20.6036 155.979 23.7016 157.611L25.0998 154.956C22.0526 153.351 19.0405 151.653 16.0384 149.87L14.5065 152.449ZM33.1944 162.242C36.3877 163.673 39.6461 165.002 42.9941 166.218L44.0187 163.399C40.7426 162.208 37.5516 160.907 34.421 159.505L33.1944 162.242ZM53.0695 169.449C54.752 169.918 56.4597 170.359 58.1952 170.772L58.8894 167.853C57.1912 167.45 55.5206 167.018 53.8749 166.559L53.0695 169.449ZM58.1952 170.772C59.6318 171.114 61.1139 171.458 62.6362 171.8L63.2951 168.873C61.7851 168.534 60.3148 168.192 58.8894 167.853L58.1952 170.772ZM71.571 173.691C74.4813 174.267 77.4865 174.82 80.5583 175.333L81.0528 172.374C78.0128 171.866 75.0368 171.318 72.1529 170.748L71.571 173.691ZM89.6013 176.691C92.6052 177.088 95.6451 177.435 98.6969 177.715L98.9715 174.728C95.963 174.451 92.9629 174.109 89.9949 173.717L89.6013 176.691ZM107.84 178.343C110.919 178.477 113.987 178.53 117.02 178.484L116.974 175.484C114.007 175.529 110.998 175.478 107.971 175.345L107.84 178.343ZM126.211 178.014C129.337 177.732 132.397 177.319 135.359 176.756L134.799 173.809C131.944 174.351 128.982 174.752 125.942 175.026L126.211 178.014ZM144.354 174.454C145.849 173.958 147.306 173.411 148.72 172.808L147.543 170.048C146.211 170.617 144.832 171.135 143.41 171.606L144.354 174.454ZM148.72 172.808C150.234 172.162 151.699 171.42 153.113 170.591L151.596 168.002C150.288 168.769 148.936 169.454 147.543 170.048L148.72 172.808ZM160.925 164.699C163.268 162.491 165.407 160.025 167.33 157.368L164.9 155.609C163.079 158.125 161.063 160.447 158.867 162.516L160.925 164.699ZM172.353 149.071C173.799 146.192 175.033 143.191 176.044 140.124L173.195 139.185C172.229 142.115 171.05 144.981 169.672 147.725L172.353 149.071ZM178.404 130.74C178.969 127.515 179.287 124.279 179.341 121.093L176.342 121.041C176.29 124.064 175.988 127.144 175.449 130.222L178.404 130.74ZM178.643 111.389C178.368 109.762 178.012 108.167 177.571 106.614L174.685 107.433C175.095 108.875 175.427 110.363 175.685 111.888L178.643 111.389ZM177.571 106.614C177.151 105.132 176.661 103.671 176.108 102.234L173.308 103.312C173.83 104.667 174.29 106.041 174.685 107.433L177.571 106.614ZM172.079 93.9547C170.531 91.3393 168.771 88.8257 166.829 86.4278L164.498 88.3153C166.352 90.6063 168.028 93.0002 169.498 95.4828L172.079 93.9547ZM160.615 79.7065C158.421 77.616 156.086 75.645 153.638 73.8063L151.836 76.205C154.194 77.9759 156.439 79.8715 158.546 81.8785L160.615 79.7065ZM146.047 68.7366C143.426 67.1857 140.72 65.7759 137.955 64.5197L136.714 67.2509C139.38 68.4626 141.991 69.8226 144.519 71.3185L146.047 68.7366ZM129.451 61.2035C126.531 60.2476 123.576 59.4652 120.616 58.8705L120.025 61.8118C122.865 62.3824 125.706 63.1342 128.518 64.0547L129.451 61.2035ZM111.537 57.6495C110.001 57.5474 108.47 57.5005 106.95 57.511L106.97 60.5109C108.415 60.501 109.873 60.5455 111.338 60.6429L111.537 57.6495ZM106.95 57.511C105.42 57.5215 103.927 57.5758 102.473 57.6759L102.679 60.6688C104.067 60.5733 105.498 60.521 106.97 60.5109L106.95 57.511ZM93.561 59.0053C90.4174 59.7742 87.5475 60.8573 85.0184 62.2941L86.5003 64.9026C88.7467 63.6263 91.3485 62.6349 94.2738 61.9194L93.561 59.0053ZM77.9823 68.403C76.1808 70.8227 74.8912 73.6558 74.1654 76.9114L77.0936 77.5642C77.7335 74.6938 78.8551 72.2542 80.3886 70.1946L77.9823 68.403ZM73.5595 86.0523C73.6529 87.4962 73.8256 88.9969 74.0794 90.5553L77.0404 90.0731C76.801 88.6029 76.64 87.1987 76.5533 85.8586L73.5595 86.0523ZM74.0794 90.5553C74.2995 91.9071 74.6279 93.2092 75.0527 94.4632L77.8941 93.5007C77.5213 92.4001 77.2335 91.2586 77.0404 90.0731L74.0794 90.5553ZM78.7459 101.538C80.2711 103.653 82.0745 105.585 84.0557 107.354L86.0537 105.116C84.2051 103.465 82.556 101.693 81.1793 99.7836L78.7459 101.538ZM90.2407 112.068C92.391 113.487 94.6314 114.785 96.8818 115.977L98.2865 113.326C96.1021 112.169 93.9472 110.92 91.8933 109.564L90.2407 112.068ZM103.761 119.337C104.944 119.875 106.109 120.388 107.243 120.879L108.434 118.126C107.313 117.64 106.165 117.135 105.002 116.606L103.761 119.337ZM107.243 120.879C108.465 121.408 109.715 121.941 110.989 122.472L112.143 119.703C110.883 119.177 109.646 118.65 108.434 118.126L107.243 120.879ZM118.571 125.481C121.087 126.424 123.667 127.332 126.292 128.174L127.208 125.317C124.635 124.492 122.101 123.601 119.625 122.672L118.571 125.481ZM134.167 130.444C136.825 131.119 139.512 131.701 142.207 132.162L142.712 129.205C140.104 128.759 137.496 128.194 134.905 127.537L134.167 130.444ZM150.399 133.157C153.177 133.347 155.947 133.377 158.69 133.212L158.51 130.218C155.909 130.374 153.268 130.346 150.604 130.164L150.399 133.157ZM166.946 132.072C168.307 131.769 169.655 131.405 170.988 130.977L170.07 128.121C168.828 128.52 167.568 128.86 166.292 129.144L166.946 132.072ZM170.988 130.977C172.598 130.46 174.124 129.865 175.57 129.196L174.31 126.473C172.979 127.089 171.567 127.64 170.07 128.121L170.988 130.977ZM183.852 123.877C186.394 121.674 188.524 119.162 190.287 116.422L187.764 114.799C186.147 117.313 184.201 119.605 181.887 121.61L183.852 123.877ZM194.522 107.592C195.568 104.558 196.309 101.384 196.79 98.1415L193.823 97.701C193.365 100.784 192.664 103.776 191.686 106.615L194.522 107.592ZM197.499 88.5056C197.515 85.2898 197.327 82.0656 196.973 78.8947L193.991 79.2277C194.334 82.2931 194.514 85.4008 194.499 88.4907L197.499 88.5056ZM195.408 69.4151C195.061 67.826 194.678 66.2679 194.264 64.7499L191.369 65.5395C191.77 67.0081 192.141 68.5163 192.477 70.055L195.408 69.4151ZM194.264 64.7499C193.843 63.2083 193.375 61.685 192.865 60.1787L190.024 61.1413C190.515 62.5933 190.966 64.0588 191.369 65.5395L194.264 64.7499ZM189.33 51.3277C188.016 48.4549 186.571 45.6365 185.034 42.8616L182.41 44.3152C183.916 47.0345 185.325 49.7839 186.602 52.5759L189.33 51.3277ZM180.223 34.7192C178.562 32.0558 176.845 29.4204 175.108 26.8044L172.609 28.4634C174.336 31.0661 176.037 33.6759 177.677 36.3067L180.223 34.7192ZM169.877 19.0062C168.127 16.4035 166.392 13.8101 164.704 11.2098L162.188 12.8431C163.89 15.465 165.636 18.0753 167.388 20.6804L169.877 19.0062Z" fill="#FF8500"/>
</svg>
