<svg width="40" height="40" viewBox="0 0 40 40" fill="none" xmlns="http://www.w3.org/2000/svg">
<path d="M36.6666 29.9999V36.6666H29.9999V31.6666H24.9999V26.6666H19.9999L16.2333 22.8999C15.3166 23.1833 14.3499 23.3333 13.3333 23.3333C10.6811 23.3333 8.13755 22.2797 6.26218 20.4043C4.38682 18.529 3.33325 15.9854 3.33325 13.3333C3.33325 10.6811 4.38682 8.13755 6.26218 6.26218C8.13755 4.38682 10.6811 3.33325 13.3333 3.33325C15.9854 3.33325 18.529 4.38682 20.4043 6.26218C22.2797 8.13755 23.3333 10.6811 23.3333 13.3333C23.3333 14.3499 23.1833 15.3166 22.8999 16.2333L36.6666 29.9999ZM11.6666 8.33325C10.7825 8.33325 9.93468 8.68444 9.30956 9.30956C8.68444 9.93468 8.33325 10.7825 8.33325 11.6666C8.33325 12.5506 8.68444 13.3985 9.30956 14.0236C9.93468 14.6487 10.7825 14.9999 11.6666 14.9999C12.5506 14.9999 13.3985 14.6487 14.0236 14.0236C14.6487 13.3985 14.9999 12.5506 14.9999 11.6666C14.9999 10.7825 14.6487 9.93468 14.0236 9.30956C13.3985 8.68444 12.5506 8.33325 11.6666 8.33325Z" fill="#FF8500"/>
</svg>
