<svg width="40" height="40" viewBox="0 0 40 40" fill="none" xmlns="http://www.w3.org/2000/svg">
<path d="M32.7667 16.0666L32.1667 14.4999L35.2667 13.3333C33.7334 9.79992 31 6.96659 27.5667 5.23325L26.2334 8.19992L24.7 7.49992L26.0334 4.49992C24.1667 3.76659 22.1334 3.33325 20 3.33325C18.2334 3.33325 16.5334 3.69992 14.9334 4.16659L16.0667 7.23325L14.5 7.83325L13.3334 4.73325C9.80004 6.26659 6.96671 8.99992 5.23337 12.4333L8.20004 13.7666L7.50004 15.2999L4.50004 13.9666C3.76671 15.8333 3.33337 17.8666 3.33337 19.9999C3.33337 21.7666 3.70004 23.4666 4.16671 25.0666L7.23337 23.9333L7.83337 25.4999L4.73337 26.6666C6.26671 30.1999 9.00004 33.0333 12.4334 34.7666L13.7667 31.7999L15.3 32.4999L13.9667 35.4999C15.8334 36.2332 17.8667 36.6666 20 36.6666C21.7667 36.6666 23.4667 36.2999 25.0667 35.8333L23.9334 32.7666L25.5 32.1666L26.6667 35.2666C30.2 33.7333 33.0334 30.9999 34.7667 27.5666L31.8 26.2333L32.5 24.6999L35.5 26.0333C36.2334 24.1666 36.6667 22.1333 36.6667 19.9999C36.6667 18.2333 36.3 16.5333 35.8334 14.9333L32.7667 16.0666ZM23.8334 29.2333C18.7334 31.3333 12.8667 28.9333 10.7667 23.8333C8.66671 18.7333 11.0667 12.8666 16.1667 10.7666C21.2667 8.66659 27.1334 11.0666 29.2334 16.1666C29.7396 17.3788 30.0014 18.679 30.0039 19.9927C30.0063 21.3063 29.7493 22.6075 29.2475 23.8216C28.7458 25.0357 28.0093 26.1387 27.0802 27.0674C26.151 27.996 25.0477 28.7321 23.8334 29.2333Z" fill="#FF8500"/>
</svg>
