<svg width="40" height="40" viewBox="0 0 40 40" fill="none" xmlns="http://www.w3.org/2000/svg">
<path d="M30 16.6667C29.558 16.6667 29.1341 16.4911 28.8215 16.1785C28.5089 15.8659 28.3333 15.442 28.3333 15C28.3333 14.558 28.5089 14.134 28.8215 13.8215C29.1341 13.5089 29.558 13.3333 30 13.3333C30.442 13.3333 30.866 13.5089 31.1785 13.8215C31.4911 14.134 31.6667 14.558 31.6667 15C31.6667 15.442 31.4911 15.8659 31.1785 16.1785C30.866 16.4911 30.442 16.6667 30 16.6667ZM20 16.6667H10V8.33333H20M32.95 12.05L32.9667 12.0333L26.7667 5.83333L25 7.6L28.5167 11.1167C26.95 11.6667 25.8333 13.2167 25.8333 15C25.8333 15.5472 25.9411 16.089 26.1505 16.5945C26.3599 17.1 26.6668 17.5594 27.0537 17.9463C27.8351 18.7277 28.8949 19.1667 30 19.1667C30.6 19.1667 31.15 19.0333 31.6667 18.8167V30.8333C31.6667 31.2754 31.4911 31.6993 31.1785 32.0118C30.866 32.3244 30.442 32.5 30 32.5C29.558 32.5 29.1341 32.3244 28.8215 32.0118C28.5089 31.6993 28.3333 31.2754 28.3333 30.8333V23.3333C28.3333 22.4493 27.9821 21.6014 27.357 20.9763C26.7319 20.3512 25.8841 20 25 20H23.3333V8.33333C23.3333 7.44928 22.9821 6.60143 22.357 5.97631C21.7319 5.35119 20.8841 5 20 5H10C8.15 5 6.66667 6.48333 6.66667 8.33333V35H23.3333V22.5H25.8333V30.8333C25.8333 31.9384 26.2723 32.9982 27.0537 33.7796C27.8351 34.561 28.8949 35 30 35C30.5472 35 31.089 34.8922 31.5945 34.6828C32.1 34.4734 32.5594 34.1665 32.9463 33.7796C33.3332 33.3927 33.6401 32.9334 33.8495 32.4278C34.0589 31.9223 34.1667 31.3805 34.1667 30.8333V15C34.1667 13.85 33.7 12.8 32.95 12.05Z" fill="#DC2323"/>
</svg>
