<svg width="40" height="40" viewBox="0 0 40 40" fill="none" xmlns="http://www.w3.org/2000/svg">
<path d="M12.5 6.6665C10.0688 6.6665 7.73727 7.63228 6.01818 9.35136C4.2991 11.0704 3.33333 13.402 3.33333 15.8332C3.33333 16.6665 3.48333 17.4998 3.69999 18.3332H10.5L12.6167 12.7165C13.1167 11.3832 15.0833 11.2498 15.7167 12.7165L19.1667 21.6665L20.15 19.2998C20.3667 18.7498 20.95 18.3332 21.6667 18.3332H36.3C36.5167 17.4998 36.6667 16.6665 36.6667 15.8332C36.6667 13.402 35.7009 11.0704 33.9818 9.35136C32.2627 7.63228 29.9311 6.6665 27.5 6.6665C24.4 6.6665 21.6667 8.2165 20 10.5665C18.3333 8.2165 15.6 6.6665 12.5 6.6665ZM4.99999 20.8332C4.55797 20.8332 4.13404 21.0088 3.82148 21.3213C3.50892 21.6339 3.33333 22.0578 3.33333 22.4998C3.33333 22.9419 3.50892 23.3658 3.82148 23.6783C4.13404 23.9909 4.55797 24.1665 4.99999 24.1665H9.06666L18.3333 33.3332C20 34.8332 20 34.8332 21.6667 33.3332L30.9333 24.1665H35C35.442 24.1665 35.8659 23.9909 36.1785 23.6783C36.4911 23.3658 36.6667 22.9419 36.6667 22.4998C36.6667 22.0578 36.4911 21.6339 36.1785 21.3213C35.8659 21.0088 35.442 20.8332 35 20.8332H22.3333L20.7833 24.6665C20.1167 26.3498 18.2 26.1165 17.5833 24.7165L14.1667 15.8332L12.5667 19.7165C12.3167 20.3498 11.75 20.8332 11 20.8332H4.99999Z" fill="#801CE3"/>
</svg>
