<svg width="40" height="40" viewBox="0 0 40 40" fill="none" xmlns="http://www.w3.org/2000/svg">
<path d="M36.6667 30.0002V36.6668H30V31.6668H25V26.6668H20L16.2333 22.9002C15.3167 23.1835 14.35 23.3335 13.3333 23.3335C10.6812 23.3335 8.13764 22.2799 6.26228 20.4046C4.38691 18.5292 3.33334 15.9857 3.33334 13.3335C3.33334 10.6813 4.38691 8.13779 6.26228 6.26243C8.13764 4.38706 10.6812 3.3335 13.3333 3.3335C15.9855 3.3335 18.529 4.38706 20.4044 6.26243C22.2798 8.13779 23.3333 10.6813 23.3333 13.3335C23.3333 14.3502 23.1833 15.3168 22.9 16.2335L36.6667 30.0002ZM11.6667 8.3335C10.7826 8.3335 9.93478 8.68469 9.30965 9.30981C8.68453 9.93493 8.33334 10.7828 8.33334 11.6668C8.33334 12.5509 8.68453 13.3987 9.30965 14.0239C9.93478 14.649 10.7826 15.0002 11.6667 15.0002C12.5507 15.0002 13.3986 14.649 14.0237 14.0239C14.6488 13.3987 15 12.5509 15 11.6668C15 10.7828 14.6488 9.93493 14.0237 9.30981C13.3986 8.68469 12.5507 8.3335 11.6667 8.3335Z" fill="#4071BF"/>
</svg>
