<svg width="40" height="40" viewBox="0 0 40 40" fill="none" xmlns="http://www.w3.org/2000/svg">
<path d="M25 16.6665H33.9833L28.4333 9.99984H25V16.6665ZM29.1667 30.8332C29.8167 30.8332 30.4 30.6165 30.9 30.1165C31.4 29.6165 31.6667 29.0332 31.6667 28.3332C31.6667 27.6832 31.4 27.0998 30.9 26.5998C30.4 26.0998 29.8167 25.8332 29.1667 25.8332C28.4667 25.8332 27.8833 26.0998 27.3833 26.5998C26.8833 27.0998 26.6667 27.6832 26.6667 28.3332C26.6667 29.0332 26.8833 29.6165 27.3833 30.1165C27.8833 30.6165 28.4667 30.8332 29.1667 30.8332ZM10 30.8332C10.7333 30.8332 11.3333 30.6165 11.8 30.1165C12.2667 29.6165 12.5 29.0332 12.5 28.3332C12.5 27.6832 12.2667 27.0998 11.8 26.5998C11.3333 26.0998 10.7333 25.8332 10 25.8332C9.26667 25.8332 8.66667 26.0998 8.20001 26.5998C7.73334 27.0998 7.50001 27.6832 7.50001 28.3332C7.50001 29.0332 7.73334 29.6165 8.20001 30.1165C8.66667 30.6165 9.26667 30.8332 10 30.8332ZM30 6.6665L38.3333 16.6665V28.3332H34.1667C34.1667 29.7165 33.65 30.8832 32.65 31.8832C31.6667 32.8665 30.5 33.3332 29.1667 33.3332C27.7833 33.3332 26.6167 32.8665 25.6333 31.8832C24.6333 30.8832 24.1667 29.7165 24.1667 28.3332H15C15 29.7165 14.5 30.8832 13.5167 31.8832C12.5 32.8665 11.35 33.3332 10 33.3332C8.65001 33.3332 7.50001 32.8665 6.48334 31.8832C5.50001 30.8832 5.00001 29.7165 5.00001 28.3332H1.66667V21.6665H15.3167L5.00001 13.5165V18.3332H1.66667V8.33317H3.33334L21.6667 18.4332V6.6665H30Z" fill="#10BC9D"/>
</svg>
