<svg width="40" height="40" viewBox="0 0 40 40" fill="none" xmlns="http://www.w3.org/2000/svg">
<path d="M32.7667 16.0668L32.1667 14.5002L35.2667 13.3335C33.7333 9.80016 31 6.96683 27.5667 5.2335L26.2333 8.20016L24.7 7.50016L26.0333 4.50016C24.1667 3.76683 22.1333 3.3335 20 3.3335C18.2333 3.3335 16.5333 3.70016 14.9333 4.16683L16.0667 7.2335L14.5 7.8335L13.3333 4.7335C9.80001 6.26683 6.96668 9.00016 5.23334 12.4335L8.20001 13.7668L7.50001 15.3002L4.50001 13.9668C3.76668 15.8335 3.33334 17.8668 3.33334 20.0002C3.33334 21.7668 3.70001 23.4668 4.16668 25.0668L7.23334 23.9335L7.83334 25.5002L4.73334 26.6668C6.26668 30.2002 9.00001 33.0335 12.4333 34.7668L13.7667 31.8002L15.3 32.5002L13.9667 35.5002C15.8333 36.2335 17.8667 36.6668 20 36.6668C21.7667 36.6668 23.4667 36.3002 25.0667 35.8335L23.9333 32.7668L25.5 32.1668L26.6667 35.2668C30.2 33.7335 33.0333 31.0002 34.7667 27.5668L31.8 26.2335L32.5 24.7002L35.5 26.0335C36.2333 24.1668 36.6667 22.1335 36.6667 20.0002C36.6667 18.2335 36.3 16.5335 35.8333 14.9335L32.7667 16.0668ZM23.8333 29.2335C18.7333 31.3335 12.8667 28.9335 10.7667 23.8335C8.66668 18.7335 11.0667 12.8668 16.1667 10.7668C21.2667 8.66683 27.1333 11.0668 29.2333 16.1668C29.7396 17.379 30.0014 18.6793 30.0038 19.9929C30.0063 21.3066 29.7493 22.6078 29.2475 23.8218C28.7458 25.0359 28.0092 26.1389 27.0801 27.0676C26.151 27.9963 25.0476 28.7323 23.8333 29.2335Z" fill="#A9B319"/>
</svg>
