<svg width="1440" height="901" viewBox="0 0 1440 901" fill="none" xmlns="http://www.w3.org/2000/svg">
<g clip-path="url(#clip0_1141_11097)">
<rect width="1440" height="1024" transform="translate(0.5 -123)" fill="#262422"/>
<mask id="mask0_1141_11097" style="mask-type:alpha" maskUnits="userSpaceOnUse" x="-330" y="-361" width="1956" height="1440">
<path d="M758.662 180.828C758.662 328.088 661.297 447.465 541.191 447.465C421.086 447.465 -329.32 -69.0321 -329.32 -216.292C-329.32 -363.552 748.867 -160.821 868.973 -160.821C989.078 -160.821 758.662 33.5678 758.662 180.828Z" fill="url(#paint0_linear_1141_11097)"/>
<path d="M843.128 811.853C843.128 959.113 745.763 1078.49 625.658 1078.49C505.552 1078.49 -163.539 1044.17 -163.539 896.905C-163.539 749.645 -114.081 400.821 6.02478 400.821C126.13 400.821 843.128 664.593 843.128 811.853Z" fill="url(#paint1_radial_1141_11097)"/>
<path d="M1089.82 181.232C1413.88 473.92 1264.19 326.832 1542.53 319.422C1586.19 327.833 1660.32 328.233 1607.51 262.542C1541.49 180.427 1562.77 122.429 1480.27 32.9652C1397.76 -56.4989 1347.52 -147.393 1222.96 -289.683C1098.41 -431.973 1088.83 -314.679 948.406 -325.798C807.986 -336.917 872.032 -319.26 678.288 -112.803C484.544 93.6544 765.753 -111.457 1089.82 181.232Z" fill="#D9D9D9"/>
<path d="M783.873 641.614C350.193 692.672 559.469 676.913 381.71 891.232C346.621 918.547 297.496 974.059 381.71 977.589C486.978 982.002 516.605 1036.21 638.262 1033.06C759.919 1029.91 861.406 1051.97 1050.51 1051.97C1239.61 1051.97 1157.67 967.504 1258.53 869.169C1359.38 770.835 1303.91 807.395 1276.18 525.629C1248.44 243.864 1217.55 590.555 783.873 641.614Z" fill="#D9D9D9"/>
</mask>
<g mask="url(#mask0_1141_11097)">
<line x1="-31.7969" y1="486.548" x2="1479.78" y2="486.548" stroke="white" stroke-opacity="0.09" stroke-width="1.2607"/>
<line x1="-31.7969" y1="809.286" x2="1479.78" y2="809.286" stroke="white" stroke-opacity="0.09" stroke-width="1.2607"/>
<line x1="-31.7969" y1="163.81" x2="1479.78" y2="163.81" stroke="white" stroke-opacity="0.09" stroke-width="1.2607"/>
<line x1="-31.7969" y1="325.178" x2="1479.78" y2="325.178" stroke="white" stroke-opacity="0.09" stroke-width="1.2607"/>
<line x1="-31.7969" y1="647.916" x2="1479.78" y2="647.916" stroke="white" stroke-opacity="0.09" stroke-width="1.2607"/>
<line x1="-31.7969" y1="2.43948" x2="1479.78" y2="2.43948" stroke="white" stroke-opacity="0.09" stroke-width="1.2607"/>
<line x1="-31.7969" y1="405.863" x2="1479.78" y2="405.863" stroke="white" stroke-opacity="0.09" stroke-width="1.2607"/>
<line x1="-31.7969" y1="728.601" x2="1479.78" y2="728.601" stroke="white" stroke-opacity="0.09" stroke-width="1.2607"/>
<line x1="-31.7969" y1="83.1245" x2="1479.78" y2="83.1245" stroke="white" stroke-opacity="0.09" stroke-width="1.2607"/>
<line x1="-31.7969" y1="889.971" x2="1479.78" y2="889.971" stroke="white" stroke-opacity="0.09" stroke-width="1.2607"/>
<line x1="-31.7969" y1="244.493" x2="1479.78" y2="244.493" stroke="white" stroke-opacity="0.09" stroke-width="1.2607"/>
<line x1="-31.7969" y1="567.233" x2="1479.78" y2="567.233" stroke="white" stroke-opacity="0.09" stroke-width="1.2607"/>
<line x1="15.4819" y1="-187.295" x2="15.4819" y2="980.111" stroke="white" stroke-opacity="0.09" stroke-width="1.2607"/>
<line x1="660.966" y1="-187.295" x2="660.966" y2="980.111" stroke="white" stroke-opacity="0.09" stroke-width="1.2607"/>
<line x1="338.224" y1="-187.295" x2="338.224" y2="980.111" stroke="white" stroke-opacity="0.09" stroke-width="1.2607"/>
<line x1="983.701" y1="-187.295" x2="983.701" y2="980.111" stroke="white" stroke-opacity="0.09" stroke-width="1.2607"/>
<line x1="1306.44" y1="-187.295" x2="1306.44" y2="980.111" stroke="white" stroke-opacity="0.09" stroke-width="1.2607"/>
<line x1="176.849" y1="-187.295" x2="176.849" y2="980.111" stroke="white" stroke-opacity="0.09" stroke-width="1.2607"/>
<line x1="822.326" y1="-187.295" x2="822.326" y2="980.111" stroke="white" stroke-opacity="0.09" stroke-width="1.2607"/>
<line x1="499.591" y1="-187.295" x2="499.591" y2="980.111" stroke="white" stroke-opacity="0.09" stroke-width="1.2607"/>
<line x1="1145.07" y1="-187.295" x2="1145.07" y2="980.111" stroke="white" stroke-opacity="0.09" stroke-width="1.2607"/>
<line x1="96.1694" y1="-187.295" x2="96.1694" y2="980.111" stroke="white" stroke-opacity="0.09" stroke-width="1.2607"/>
<line x1="741.646" y1="-187.295" x2="741.646" y2="980.111" stroke="white" stroke-opacity="0.09" stroke-width="1.2607"/>
<line x1="418.904" y1="-187.295" x2="418.904" y2="980.111" stroke="white" stroke-opacity="0.09" stroke-width="1.2607"/>
<line x1="1064.39" y1="-187.295" x2="1064.39" y2="980.111" stroke="white" stroke-opacity="0.09" stroke-width="1.2607"/>
<line x1="1387.12" y1="-187.295" x2="1387.12" y2="980.111" stroke="white" stroke-opacity="0.09" stroke-width="1.2607"/>
<line x1="257.537" y1="-187.295" x2="257.537" y2="980.111" stroke="white" stroke-opacity="0.09" stroke-width="1.2607"/>
<line x1="903.013" y1="-187.295" x2="903.013" y2="980.111" stroke="white" stroke-opacity="0.09" stroke-width="1.2607"/>
<line x1="580.279" y1="-187.295" x2="580.279" y2="980.111" stroke="white" stroke-opacity="0.09" stroke-width="1.2607"/>
<line x1="1225.76" y1="-187.295" x2="1225.76" y2="980.111" stroke="white" stroke-opacity="0.09" stroke-width="1.2607"/>
<g opacity="0.7">
<rect x="822.383" y="647.859" width="80.2262" height="80.2262" fill="#736250"/>
<rect x="418.961" y="647.859" width="80.2262" height="80.2262" fill="#614824" fill-opacity="0.25"/>
<rect x="1145.58" y="83.9832" width="80.2262" height="79.0801" fill="#614A24" fill-opacity="0.11"/>
<rect x="499.188" y="3.75696" width="80.2262" height="79.0801" fill="#A9680D" fill-opacity="0.31"/>
<rect x="1064.21" y="164.209" width="80.2262" height="79.0801" fill="#614A24" fill-opacity="0.11"/>
<rect x="417.812" y="83.9832" width="80.2262" height="79.0801" fill="#A9680D" fill-opacity="0.31"/>
<rect x="1064.21" y="83.9832" width="80.2262" height="79.0801" fill="#614A24" fill-opacity="0.11"/>
<rect x="417.812" y="3.75696" width="80.2262" height="79.0801" fill="#A9680D" fill-opacity="0.31"/>
<rect x="338.734" y="647.859" width="80.2262" height="80.2262" fill="#614824" fill-opacity="0.25"/>
<rect x="338.734" y="728.085" width="80.2262" height="81.3723" fill="#614824" fill-opacity="0.25"/>
<rect x="177.133" y="567.633" width="80.2262" height="80.2262" fill="#614824" fill-opacity="0.25"/>
<rect x="983.984" y="-77.6155" width="80.2262" height="80.2262" fill="#AE6B0F" fill-opacity="0.61"/>
<rect x="902.883" y="-78.7616" width="80.2262" height="81.3723" fill="#AE6B0F" fill-opacity="0.61"/>
<rect x="177.133" y="1.46472" width="81.3723" height="82.5184" fill="#996B0D" fill-opacity="0.24"/>
<rect x="95.7578" y="-78.7615" width="81.3723" height="80.2262" fill="#996B0D" fill-opacity="0.24"/>
<rect x="15.5391" y="-77.6155" width="81.3723" height="80.2262" fill="#996B0D" fill-opacity="0.24"/>
<rect x="95.7578" y="1.46472" width="81.3723" height="82.5184" fill="#996B0D" fill-opacity="0.24"/>
<rect x="177.133" y="163.063" width="80.2262" height="81.3723" fill="#996B0D" fill-opacity="0.24"/>
<rect x="1145.58" y="567.633" width="80.2262" height="80.2262" fill="url(#paint2_linear_1141_11097)"/>
<rect x="1225.8" y="647.859" width="80.2262" height="80.2262" fill="url(#paint3_linear_1141_11097)"/>
</g>
</g>
</g>
<defs>
<linearGradient id="paint0_linear_1141_11097" x1="190.087" y1="-142.541" x2="644.569" y2="99.5129" gradientUnits="userSpaceOnUse">
<stop stop-color="white"/>
<stop offset="1" stop-color="white" stop-opacity="0"/>
</linearGradient>
<radialGradient id="paint1_radial_1141_11097" cx="0" cy="0" r="1" gradientUnits="userSpaceOnUse" gradientTransform="translate(155.417 818.112) rotate(-29.3932) scale(777.019 1335.47)">
<stop stop-color="white"/>
<stop offset="1" stop-color="white" stop-opacity="0"/>
</radialGradient>
<linearGradient id="paint2_linear_1141_11097" x1="1185.69" y1="567.633" x2="1185.69" y2="647.859" gradientUnits="userSpaceOnUse">
<stop stop-color="#FF8500" stop-opacity="0.3"/>
<stop offset="1" stop-color="#995000" stop-opacity="0.1"/>
</linearGradient>
<linearGradient id="paint3_linear_1141_11097" x1="1265.92" y1="647.859" x2="1265.92" y2="728.085" gradientUnits="userSpaceOnUse">
<stop stop-color="#FF8500" stop-opacity="0.3"/>
<stop offset="1" stop-color="#995000" stop-opacity="0.1"/>
</linearGradient>
<clipPath id="clip0_1141_11097">
<rect width="1440" height="1024" fill="white" transform="translate(0.5 -123)"/>
</clipPath>
</defs>
</svg>
