<svg width="80" height="81" viewBox="0 0 80 81" fill="none" xmlns="http://www.w3.org/2000/svg">
<g clip-path="url(#clip0_348_204)">
<path d="M44.9467 40.5H50V63.8333H0V50.5C0 44.9767 4.47667 40.5 10 40.5H36.4433L13.3333 11.31V22.1667C13.3333 26.76 9.59333 30.5 5 30.5H0V23.8333H5C5.92 23.8333 6.66667 23.0867 6.66667 22.1667V0.5H13.28L44.9467 40.5ZM10.1933 70.5C10.08 71.04 10 71.5933 10 72.1667C10 76.77 13.73 80.5 18.3333 80.5C22.9367 80.5 26.6667 76.77 26.6667 72.1667C26.6667 71.5933 26.5867 71.04 26.4733 70.5H10.1933ZM56.86 70.5C56.7467 71.04 56.6667 71.5933 56.6667 72.1667C56.6667 76.77 60.3967 80.5 65 80.5C69.6033 80.5 73.3333 76.77 73.3333 72.1667C73.3333 71.5933 73.2533 71.04 73.14 70.5H56.8567H56.86ZM56.6667 63.8333H80V47.1667H56.6667V63.8333ZM63.3333 20.5H56.6667V40.5H80V37.1667C80 27.9767 72.5233 20.5 63.3333 20.5Z" fill="#FF8500"/>
</g>
<defs>
<clipPath id="clip0_348_204">
<rect width="80" height="80" fill="white" transform="translate(0 0.5)"/>
</clipPath>
</defs>
</svg>
