<svg width="32" height="32" viewBox="0 0 32 32" fill="none" xmlns="http://www.w3.org/2000/svg">
<g opacity="0.5">
<path d="M24.0002 13.3333C23.6465 13.3333 23.3074 13.1929 23.0574 12.9428C22.8073 12.6928 22.6668 12.3536 22.6668 12C22.6668 11.6464 22.8073 11.3072 23.0574 11.0572C23.3074 10.8071 23.6465 10.6667 24.0002 10.6667C24.3538 10.6667 24.6929 10.8071 24.943 11.0572C25.193 11.3072 25.3335 11.6464 25.3335 12C25.3335 12.3536 25.193 12.6928 24.943 12.9428C24.6929 13.1929 24.3538 13.3333 24.0002 13.3333ZM16.0002 13.3333H8.00016V6.66667H16.0002M26.3602 9.64L26.3735 9.62667L21.4135 4.66667L20.0002 6.08L22.8135 8.89333C21.5602 9.33333 20.6668 10.5733 20.6668 12C20.6668 12.4377 20.753 12.8712 20.9206 13.2756C21.0881 13.68 21.3336 14.0475 21.6431 14.357C22.2683 14.9821 23.1161 15.3333 24.0002 15.3333C24.4802 15.3333 24.9202 15.2267 25.3335 15.0533V24.6667C25.3335 25.0203 25.193 25.3594 24.943 25.6095C24.6929 25.8595 24.3538 26 24.0002 26C23.6465 26 23.3074 25.8595 23.0574 25.6095C22.8073 25.3594 22.6668 25.0203 22.6668 24.6667V18.6667C22.6668 17.9594 22.3859 17.2811 21.8858 16.781C21.3857 16.281 20.7074 16 20.0002 16H18.6668V6.66667C18.6668 5.95942 18.3859 5.28115 17.8858 4.78105C17.3857 4.28095 16.7074 4 16.0002 4H8.00016C6.52016 4 5.3335 5.18667 5.3335 6.66667V28H18.6668V18H20.6668V24.6667C20.6668 25.5507 21.018 26.3986 21.6431 27.0237C22.2683 27.6488 23.1161 28 24.0002 28C24.4379 28 24.8714 27.9138 25.2758 27.7463C25.6802 27.5787 26.0477 27.3332 26.3572 27.0237C26.6667 26.7142 26.9122 26.3467 27.0798 25.9423C27.2473 25.5379 27.3335 25.1044 27.3335 24.6667V12C27.3335 11.08 26.9602 10.24 26.3602 9.64Z" fill="#DC2323"/>
</g>
</svg>
