<svg width="32" height="32" viewBox="0 0 32 32" fill="none" xmlns="http://www.w3.org/2000/svg">
<g opacity="0.5">
<path d="M9.99984 5.33325C8.05492 5.33325 6.18965 6.10587 4.81439 7.48114C3.43912 8.8564 2.6665 10.7217 2.6665 12.6666C2.6665 13.3333 2.7865 13.9999 2.95984 14.6666H8.39984L10.0932 10.1733C10.4932 9.10658 12.0665 8.99992 12.5732 10.1733L15.3332 17.3332L16.1198 15.4399C16.2932 14.9999 16.7598 14.6666 17.3332 14.6666H29.0398C29.2132 13.9999 29.3332 13.3333 29.3332 12.6666C29.3332 10.7217 28.5606 8.8564 27.1853 7.48114C25.81 6.10587 23.9448 5.33325 21.9998 5.33325C19.5198 5.33325 17.3332 6.57325 15.9998 8.45325C14.6665 6.57325 12.4798 5.33325 9.99984 5.33325ZM3.99984 16.6666C3.64622 16.6666 3.30708 16.8071 3.05703 17.0571C2.80698 17.3072 2.6665 17.6463 2.6665 17.9999C2.6665 18.3535 2.80698 18.6927 3.05703 18.9427C3.30708 19.1928 3.64622 19.3332 3.99984 19.3332H7.25317L14.6665 26.6666C15.9998 27.8666 15.9998 27.8666 17.3332 26.6666L24.7465 19.3332H27.9998C28.3535 19.3332 28.6926 19.1928 28.9426 18.9427C29.1927 18.6927 29.3332 18.3535 29.3332 17.9999C29.3332 17.6463 29.1927 17.3072 28.9426 17.0571C28.6926 16.8071 28.3535 16.6666 27.9998 16.6666H17.8665L16.6265 19.7332C16.0932 21.0799 14.5598 20.8932 14.0665 19.7732L11.3332 12.6666L10.0532 15.7732C9.85317 16.2799 9.39984 16.6666 8.79984 16.6666H3.99984Z" fill="#801CE3"/>
</g>
</svg>
