<svg width="32" height="32" viewBox="0 0 32 32" fill="none" xmlns="http://www.w3.org/2000/svg">
<g opacity="0.5">
<path d="M19.9999 13.3333H27.1866L22.7466 7.99992H19.9999V13.3333ZM23.3333 24.6666C23.8533 24.6666 24.3199 24.4933 24.7199 24.0933C25.1199 23.6933 25.3333 23.2266 25.3333 22.6666C25.3333 22.1466 25.1199 21.6799 24.7199 21.2799C24.3199 20.8799 23.8533 20.6666 23.3333 20.6666C22.7733 20.6666 22.3066 20.8799 21.9066 21.2799C21.5066 21.6799 21.3333 22.1466 21.3333 22.6666C21.3333 23.2266 21.5066 23.6933 21.9066 24.0933C22.3066 24.4933 22.7733 24.6666 23.3333 24.6666ZM7.99992 24.6666C8.58659 24.6666 9.06659 24.4933 9.43992 24.0933C9.81325 23.6933 9.99992 23.2266 9.99992 22.6666C9.99992 22.1466 9.81325 21.6799 9.43992 21.2799C9.06659 20.8799 8.58659 20.6666 7.99992 20.6666C7.41325 20.6666 6.93325 20.8799 6.55992 21.2799C6.18659 21.6799 5.99992 22.1466 5.99992 22.6666C5.99992 23.2266 6.18659 23.6933 6.55992 24.0933C6.93325 24.4933 7.41325 24.6666 7.99992 24.6666ZM23.9999 5.33325L30.6666 13.3333V22.6666H27.3333C27.3333 23.7733 26.9199 24.7066 26.1199 25.5066C25.3333 26.2933 24.3999 26.6666 23.3333 26.6666C22.2266 26.6666 21.2933 26.2933 20.5066 25.5066C19.7066 24.7066 19.3333 23.7733 19.3333 22.6666H11.9999C11.9999 23.7733 11.5999 24.7066 10.8133 25.5066C9.99992 26.2933 9.07992 26.6666 7.99992 26.6666C6.91992 26.6666 5.99992 26.2933 5.18659 25.5066C4.39992 24.7066 3.99992 23.7733 3.99992 22.6666H1.33325V17.3333H12.2533L3.99992 10.8133V14.6666H1.33325V6.66659H2.66659L17.3333 14.7466V5.33325H23.9999Z" fill="#10BC9D"/>
</g>
</svg>
