<svg width="1444" height="1618" viewBox="0 0 1444 1618" fill="none" xmlns="http://www.w3.org/2000/svg">
<path opacity="0.15" fill-rule="evenodd" clip-rule="evenodd" d="M631.838 197.145L606.443 207.468L785.034 527.697L810.671 516.15L631.838 197.145ZM915.334 466.175C809.829 214 641.646 0 641.646 0L408.712 104.917C408.712 104.917 632.729 358.498 725.524 668.528L0 1442L164.846 1617.74L1443.68 254.389L1278.84 78.6499L915.334 466.175ZM476.377 1131.85L455.771 1109.88L200.004 1382.55L220.609 1404.52L476.377 1131.85ZM860.028 722.842L839.422 700.875L583.655 973.544L604.261 995.511L860.028 722.842ZM1243.68 313.838L1223.07 291.87L967.306 564.54L987.912 586.507L1243.68 313.838Z" fill="#FF8500"/>
</svg>
